<svg width="15" height="12" viewBox="0 0 15 12" fill="none" xmlns="http://www.w3.org/2000/svg">
<path fill-rule="evenodd" clip-rule="evenodd" d="M2.19866 0.0174873C2.04105 0.0424621 1.81693 0.127963 1.64791 0.227627C1.57368 0.27141 1.3004 0.535017 0.972157 0.879435C0.354466 1.52761 0.273519 1.61899 0.168959 1.78603C-0.00960412 2.07136 9.30795e-05 1.80083 9.30795e-05 6.49091C9.30795e-05 9.42544 0.00993677 10.8144 0.0314112 10.9098C0.0835887 11.1417 0.27308 11.4247 0.495149 11.6025C0.717247 11.7802 1.07083 11.9319 1.36046 11.9737C1.60397 12.0088 13.3961 12.0088 13.6396 11.9737C13.9293 11.9319 14.2828 11.7802 14.5049 11.6025C14.727 11.4247 14.9165 11.1417 14.9687 10.9098C14.9902 10.8144 15 9.42544 15 6.49091C15 2.61409 14.9955 2.19665 14.9522 2.05721C14.9001 1.88891 14.8068 1.72666 14.6683 1.56325C14.4824 1.34392 13.271 0.189309 13.1781 0.142948C13.1247 0.116308 13.0217 0.0740968 12.9492 0.0491455C12.8206 0.00491777 12.6881 0.00369834 7.57329 0.000298015C4.6459 -0.00162493 2.27152 0.00594959 2.19866 0.0174873ZM12.7804 0.982875L13.1535 1.31702L10.3145 1.323C8.75298 1.32629 6.18884 1.32629 4.6164 1.323L1.7574 1.31702L1.96754 1.10597C2.08315 0.989887 2.23587 0.839522 2.30697 0.771797L2.43626 0.648682L7.42174 0.648705L12.4072 0.648752L12.7804 0.982875ZM9.16996 5.32706V5.9954H10.6274H11.515C11.704 5.9954 11.7876 6.23342 11.64 6.35154L9.79248 7.83038L7.68752 9.5153C7.57793 9.60302 7.42216 9.60302 7.31257 9.5153L5.20761 7.83038L3.3601 6.35154C3.21252 6.23342 3.29605 5.9954 3.48508 5.9954H4.37265H5.83013V5.32706V3.4C5.83013 3.28954 5.91968 3.2 6.03014 3.2H7.42174H8.96996C9.08042 3.2 9.16996 3.28954 9.16996 3.4V5.32706Z" fill="#464646" fill-opacity="0.5"/>
</svg>
