<svg width="314" height="139" viewBox="0 0 314 139" fill="none" xmlns="http://www.w3.org/2000/svg">
<path fill-rule="evenodd" clip-rule="evenodd" d="M220.657 2.05066C214.488 5.15114 214.184 13.0891 220.065 17.5656C221.523 18.6752 224.616 19.0052 250.385 20.795C266.168 21.8914 279.233 22.9425 279.418 23.131C279.603 23.3196 256.925 41.6617 229.023 63.8918C201.12 86.122 177.87 104.673 177.354 105.117C176.556 105.803 170.478 101.167 136.356 73.8427C114.322 56.1985 95.6525 41.5026 94.8676 41.1858C94.0828 40.8689 92.2327 40.6099 90.7561 40.6099C88.438 40.6099 87.6119 41.0173 84.7007 43.596C76.6139 50.76 2.37679 123.809 1.74424 125.225C0.063623 128.986 1.28494 133.416 4.84593 136.471C6.58697 137.965 7.25096 138.15 10.0253 137.916C11.9581 137.752 13.831 137.146 14.7965 136.371C15.6713 135.67 32.9837 118.858 53.2689 99.0118C73.5541 79.1648 90.6174 62.5503 91.1877 62.0908C92.1038 61.3521 96.8183 64.9461 131.52 92.8353C153.133 110.205 171.526 124.795 172.396 125.257C173.265 125.72 175.151 126.1 176.588 126.102C179.722 126.106 173.954 130.487 242.717 75.8726L293.58 35.4758L293.733 37.5717C293.818 38.724 292.955 51.263 291.815 65.4352C290.524 81.4971 289.936 91.8861 290.253 93.0158C291.117 96.0854 292.644 97.8821 295.474 99.1589C297.797 100.207 298.562 100.281 300.774 99.6744C303.855 98.8282 306.664 95.9779 307.139 93.2138C307.571 90.7004 313 18.7192 313 15.5056C313 12.4837 310.875 9.18265 308.06 7.83169C306.369 7.02073 297.149 6.17709 264.912 3.88379C242.363 2.27948 223.636 0.981959 223.297 1.00019C222.958 1.01905 221.77 1.49116 220.657 2.05066Z" fill="#FF8655" fill-opacity="0.2"/>
<path d="M219.974 17.685L220.065 17.5656L177.354 105.117C176.556 105.803 170.478 101.167 136.356 73.8427C114.322 56.1985 95.6525 41.5026 94.8676 41.1858C94.0828 40.8689 92.2327 40.6099 90.7561 40.6099C88.438 40.6099 87.6119 41.0173 84.7007 43.596C76.6139 50.76 2.37679 123.809 1.74424 125.225C0.063623 128.986 1.28494 133.416 4.84593 136.471C6.58697 137.965 7.25096 138.15 10.0253 137.916C11.9581 137.752 13.831 137.146 14.7965 136.371L14.8903 136.488C14.8903 136.488 14.8904 136.488 14.8904 136.488C15.1164 136.307 16.3701 135.117 18.4283 133.137C20.4915 131.152 23.3717 128.364 26.8583 124.979C33.8316 118.207 43.2311 109.042 53.3738 99.119C63.5163 89.1956 72.8534 80.0803 79.726 73.3885C83.1624 70.0425 85.9825 67.3025 87.9792 65.3704C88.9775 64.4042 89.7699 63.6402 90.3304 63.1035C90.8949 62.5628 91.217 62.2598 91.2818 62.2076L91.1877 62.0908L91.2818 62.2075C91.3398 62.1608 91.4527 62.1232 91.7188 62.2C91.9838 62.2764 92.3651 62.4568 92.9189 62.7896C94.024 63.4537 95.7776 64.7005 98.5933 66.8469C104.222 71.1377 114.075 79.0071 131.426 92.9523C142.233 101.637 152.234 109.627 159.643 115.504C163.348 118.442 166.404 120.853 168.589 122.557C169.681 123.409 170.556 124.086 171.185 124.563C171.5 124.802 171.754 124.992 171.943 125.129C172.127 125.263 172.26 125.355 172.325 125.39C172.779 125.631 173.484 125.845 174.249 125.999C175.017 126.154 175.858 126.251 176.588 126.252C176.774 126.252 176.928 126.269 177.072 126.287C177.099 126.291 177.126 126.295 177.153 126.298C177.268 126.314 177.383 126.329 177.501 126.335C177.806 126.35 178.13 126.301 178.635 126.072C179.628 125.622 181.364 124.451 185.132 121.589C191.553 116.712 203.911 106.894 228.626 87.2578C232.963 83.8129 237.679 80.0657 242.811 75.99L293.451 35.7697L293.584 37.5826C293.604 37.8584 293.567 38.8452 293.48 40.4102C293.393 41.9682 293.258 44.0858 293.084 46.6107C292.736 51.6603 292.235 58.3375 291.666 65.4231C291.02 73.4547 290.55 80.0687 290.281 84.8166C290.147 87.1903 290.062 89.0988 290.032 90.4851C290.016 91.1781 290.014 91.7421 290.026 92.1693C290.038 92.5899 290.063 92.8944 290.109 93.0564L290.253 93.0158L290.109 93.0564C290.545 94.6063 291.151 95.8439 292.012 96.8568C292.873 97.8699 293.982 98.6503 295.413 99.2956C296.575 99.8201 297.367 100.11 298.151 100.186C298.938 100.263 299.704 100.123 300.814 99.819C302.383 99.388 303.878 98.4486 305.041 97.2686C306.203 96.0893 307.043 94.6592 307.287 93.2392C307.342 92.9169 307.475 91.5079 307.664 89.2978C307.854 87.0823 308.102 84.0514 308.386 80.4754C308.956 73.3232 309.675 63.9893 310.381 54.6336C311.792 35.9283 313.15 17.1199 313.15 15.5056C313.15 12.4236 310.99 9.07131 308.125 7.69645L308.06 7.83169L308.125 7.69644C307.678 7.48202 306.761 7.27507 305.159 7.0467C303.55 6.81719 301.228 6.56377 297.955 6.26424C291.407 5.66514 281.041 4.8808 264.922 3.73417C253.648 2.93201 243.329 2.20655 235.786 1.6839C232.015 1.42257 228.937 1.21195 226.781 1.06779C225.704 0.995713 224.856 0.94024 224.267 0.903352C223.973 0.884911 223.743 0.871096 223.581 0.862172C223.426 0.853621 223.321 0.848697 223.289 0.850406L223.289 0.850421C223.183 0.856284 223.03 0.894829 222.853 0.95055C222.672 1.00766 222.453 1.08732 222.212 1.18331C221.729 1.37536 221.15 1.63508 220.59 1.91663C217.456 3.49142 215.806 6.30017 215.692 9.28639C215.578 12.2707 216.998 15.4196 219.974 17.685Z" stroke="#FF8655" stroke-opacity="0.2" stroke-width="0.3"/>
</svg>
