<svg width="44" height="86" viewBox="0 0 44 86" fill="none" xmlns="http://www.w3.org/2000/svg">
<path d="M43.9182 52.8074C43.7832 52.2606 43.589 51.9668 43.1316 51.618C42.5343 51.1625 41.5769 51.154 40.9194 51.5984C40.6667 51.7691 36.3383 55.6218 31.3006 60.16C26.2631 64.6982 22.1007 68.4112 22.0509 68.4112C22.0011 68.4112 17.8387 64.6982 12.8012 60.16C7.76354 55.6218 3.44567 51.7759 3.20571 51.6134C2.58424 51.1927 1.90094 51.1478 1.24675 51.4849C0.586834 51.825 0.229877 52.3553 0.136139 53.1347C0.0960464 53.4689 0.0794487 56.4512 0.0993195 59.7619C0.133331 65.4388 0.148056 65.8023 0.358097 66.1493C0.650768 66.6328 20.5165 84.5211 21.1398 84.8624C21.691 85.1642 22.2384 85.1967 22.8019 84.9613C23.2737 84.7641 43.1138 66.9686 43.6157 66.2924L43.9664 65.8199L43.9855 59.489C43.9961 56.0069 43.9658 53.0002 43.9182 52.8074Z" fill="url(#paint0_linear_1402_4479)"/>
<path d="M43.8529 27.2603C43.6586 26.7153 42.984 26.0797 42.4829 25.9697C42.2905 25.9274 41.9044 25.9271 41.6251 25.969C41.0143 26.0606 41.8665 25.3264 30.6512 35.4242C25.9635 39.6447 22.0926 43.0979 22.0492 43.0979C22.0057 43.0979 17.8463 39.3832 12.806 34.8432C7.76576 30.3031 3.46309 26.4512 3.24451 26.2835C2.91596 26.0314 2.72205 25.9782 2.12537 25.9766C1.51337 25.9749 1.3384 26.0244 0.973961 26.3021C0.095005 26.972 0.135445 26.6037 0.135445 33.937V40.4969L0.427647 40.9026C0.862919 41.5069 20.8656 59.4665 21.3105 59.6523C21.7966 59.8554 22.3052 59.8554 22.7914 59.6523C23.2361 59.4666 43.2388 41.5071 43.6742 40.9027L43.9664 40.497L43.9929 34.1124C44.0149 28.8324 43.9906 27.647 43.8529 27.2603Z" fill="url(#paint1_linear_1402_4479)"/>
<path d="M43.9182 1.54616C43.7832 0.999384 43.589 0.705541 43.1316 0.356764C42.5343 -0.0987269 41.5769 -0.107259 40.9194 0.337128C40.6667 0.507893 36.3383 4.36057 31.3006 8.89877C26.2631 13.437 22.1007 17.15 22.0509 17.15C22.0011 17.15 17.8387 13.437 12.8012 8.89877C7.76355 4.36057 3.44567 0.514672 3.20571 0.352206C2.58425 -0.0685712 1.90095 -0.113454 1.24676 0.223635C0.586842 0.563763 0.229885 1.09406 0.136143 1.87343C0.0960541 2.20771 0.0794563 5.18997 0.0993271 8.50067C0.133339 14.1775 0.148064 14.541 0.358101 14.8881C0.650776 15.3716 20.5165 33.2599 21.1398 33.6012C21.691 33.903 22.2384 33.9355 22.8019 33.7001C23.2737 33.5029 43.1138 15.7074 43.6157 15.0311L43.9664 14.5587L43.9855 8.22775C43.9961 4.7457 43.9658 1.73902 43.9182 1.54616Z" fill="url(#paint2_linear_1402_4479)"/>
<defs>
<linearGradient id="paint0_linear_1402_4479" x1="22.0393" y1="51.2612" x2="21.4067" y2="84.5644" gradientUnits="userSpaceOnUse">
<stop stop-color="#88B1F2"/>
<stop offset="0.994892" stop-color="#527ADF"/>
</linearGradient>
<linearGradient id="paint1_linear_1402_4479" x1="22.0455" y1="1.27567e-07" x2="20.0736" y2="58.7848" gradientUnits="userSpaceOnUse">
<stop stop-color="#88B1F2"/>
<stop offset="0.994892" stop-color="#527ADF"/>
</linearGradient>
<linearGradient id="paint2_linear_1402_4479" x1="22.0455" y1="1.27567e-07" x2="20.0736" y2="58.7848" gradientUnits="userSpaceOnUse">
<stop stop-color="#88B1F2"/>
<stop offset="0.994892" stop-color="#527ADF"/>
</linearGradient>
</defs>
</svg>
