<svg width="52" height="70" viewBox="0 0 52 70" fill="none" xmlns="http://www.w3.org/2000/svg">
<path d="M51.8278 31.9076C51.6004 31.2696 50.8108 30.5257 50.2243 30.3969C49.9991 30.3474 49.5472 30.3471 49.2202 30.3961C48.5053 30.5034 49.5027 29.6439 36.3756 41.4632C30.8887 46.4032 26.3579 50.4451 26.307 50.4451C26.2561 50.4451 21.3877 46.0972 15.4881 40.7831C9.58864 35.4691 4.55245 30.9606 4.29662 30.7643C3.91205 30.4692 3.68509 30.4069 2.98668 30.405C2.27035 30.4031 2.06555 30.461 1.63898 30.786C0.610188 31.5701 0.65752 31.139 0.65752 39.7225V47.4007L0.999538 47.8756C1.50901 48.5829 24.9217 69.6041 25.4424 69.8217C26.0114 70.0594 26.6068 70.0594 27.1758 69.8217C27.6963 69.6043 51.109 48.5831 51.6186 47.8757L51.9606 47.4008L51.9917 39.9278C52.0174 33.7476 51.989 32.3601 51.8278 31.9076Z" fill="url(#paint0_linear_1267_10952)"/>
<path d="M51.9043 1.80975C51.7463 1.16976 51.5189 0.82582 50.9835 0.417584C50.2845 -0.115558 49.1639 -0.125545 48.3942 0.394601C48.0984 0.594478 43.0321 5.10395 37.1357 10.4158C31.2394 15.7277 26.3674 20.0737 26.3091 20.0737C26.2508 20.0737 21.3788 15.7277 15.4825 10.4158C9.58604 5.10395 4.53207 0.602412 4.2512 0.412249C3.52379 -0.0802611 2.72401 -0.132795 1.95829 0.26176C1.18587 0.659872 0.768063 1.28057 0.65834 2.19281C0.611416 2.58408 0.591988 6.07474 0.615246 9.94984C0.655056 16.5945 0.672291 17.02 0.918137 17.4261C1.2607 17.9921 24.5131 38.9299 25.2427 39.3294C25.8878 39.6827 26.5285 39.7207 27.1881 39.4452C27.7404 39.2144 50.9628 18.3852 51.5502 17.5936L51.9606 17.0406L51.9831 9.63039C51.9954 5.55474 51.9599 2.03548 51.9043 1.80975Z" fill="url(#paint1_linear_1267_10952)"/>
<defs>
<linearGradient id="paint0_linear_1267_10952" x1="25.7988" y1="3.66542e-07" x2="25.7988" y2="70" gradientUnits="userSpaceOnUse">
<stop stop-color="#FF6B2F"/>
<stop offset="0.0001" stop-color="#FF6B2F"/>
<stop offset="1" stop-color="#CE4F1C"/>
</linearGradient>
<linearGradient id="paint1_linear_1267_10952" x1="25.7988" y1="3.66542e-07" x2="25.7988" y2="70" gradientUnits="userSpaceOnUse">
<stop stop-color="#FF6B2F"/>
<stop offset="0.0001" stop-color="#FF6B2F"/>
<stop offset="1" stop-color="#CE4F1C"/>
</linearGradient>
</defs>
</svg>
