<svg width="40" height="40" viewBox="0 0 40 40" fill="none" xmlns="http://www.w3.org/2000/svg">
<path fill-rule="evenodd" clip-rule="evenodd" d="M7.53658 0.25875C6.06523 1.10571 1.56679 6.29884 0.284959 8.63027C-0.0186883 9.1825 -0.0304768 9.23652 0.0273054 9.80545C0.221639 11.7158 1.07069 14.4594 2.24277 16.9643C3.53478 19.7257 5.71961 23.0296 8.20603 25.9821C9.47403 27.4879 12.4457 30.4659 13.9221 31.7105C19.2649 36.2145 24.646 39.0317 29.4957 39.8639C29.932 39.9388 30.4108 40 30.56 40C31.0723 40 32.4839 39.0924 34.6151 37.3927C37.3673 35.1978 39.533 33.0544 39.9044 32.1582C40.2013 31.4413 39.618 30.7654 37.4822 29.3518C34.3843 27.3013 31.4992 25.6794 30.1358 25.2218C29.4976 25.0077 29.4477 25.0034 29.1281 25.1367C28.6972 25.3163 28.4129 25.59 27.1829 27.0089C26.6294 27.6473 25.9973 28.343 25.7781 28.5549L25.3796 28.9402L24.8084 28.7927C22.9473 28.312 20.4338 26.9992 18.3468 25.4179C17.4235 24.7182 15.8687 23.2135 15.0093 22.1875C13.3895 20.2538 11.8529 17.4617 11.2358 15.3305L11.0342 14.6342L11.5181 14.1388C11.7842 13.8663 12.4441 13.2691 12.9844 12.8118C14.2306 11.7571 14.6825 11.2894 14.8545 10.8762C14.9812 10.5717 14.9779 10.5031 14.8105 9.96143C14.3101 8.34152 10.6534 2.18527 9.33203 0.737857C8.59729 -0.0669643 8.25908 -0.157143 7.53658 0.25875ZM21.424 1.42857V2.85714L21.8482 2.85786C23.7082 2.86107 26.1786 3.46107 28.0969 4.37554C31.3732 5.93741 33.8486 8.35848 35.4449 11.5625C36.4452 13.5703 36.8705 15.0819 37.0714 17.3438L37.1804 18.5714H38.5902H40V18.1791C40 17.493 39.826 15.9704 39.6316 14.9554C39.1029 12.1947 37.631 9.04491 35.8801 6.92732C32.6803 3.05759 28.3927 0.705179 23.4951 0.132411C22.8724 0.0595537 22.1516 0 21.8934 0H21.424V1.42857ZM21.424 8.5458V9.97429L22.1293 10.0331C24.2127 10.2069 26.0215 11.0736 27.5415 12.6263C28.9865 14.1025 29.7912 15.8472 29.9643 17.8795L30.0232 18.5714H31.4393H32.8554V18.2034C32.8554 16.9717 32.3074 14.7895 31.6883 13.5562C30.5988 11.3854 28.6651 9.43062 26.5592 8.3708C25.2314 7.70268 23.7436 7.29232 22.2371 7.17857L21.424 7.11723V8.5458Z" fill="white"/>
</svg>
