<svg width="22" height="22" viewBox="0 0 22 22" fill="none" xmlns="http://www.w3.org/2000/svg">
<path d="M1.04906 9.76398L0.950067 9.7499C1.11772 8.57185 1.42142 7.57227 1.92184 6.55325L2.01115 6.59711L1.92185 6.55325C2.4528 5.47212 3.08111 4.60673 3.94475 3.76716M1.04906 9.76398L12.3971 0.982872L12.3825 1.08178L12.3971 0.982873M1.04906 9.76398L0.950067 9.7499C0.916214 9.9878 0.9 10.4954 0.9 10.9955C0.9 11.4955 0.916214 12.0031 0.950067 12.241C1.11869 13.426 1.42239 14.4243 1.9234 15.4379C2.92794 17.4705 4.50497 19.0538 6.50671 20.0385C7.28414 20.4209 7.75652 20.597 8.52097 20.7886C10.4685 21.277 12.4269 21.1905 14.346 20.5318C14.9048 20.34 16.0068 19.7913 16.5198 19.4497C17.727 18.646 18.7964 17.553 19.5756 16.3269L19.4912 16.2732M1.04906 9.76398L19.4912 16.2732M3.94475 3.76716L4.01446 3.83886M3.94475 3.76716C3.94475 3.76716 3.94475 3.76716 3.94475 3.76716L4.01446 3.83886M3.94475 3.76716C4.77814 2.95696 5.51533 2.43642 6.5459 1.93065C7.7195 1.35467 8.78987 1.05788 10.2167 0.911441C10.3863 0.89403 10.8375 0.898111 11.2863 0.912869C11.7362 0.927661 12.2001 0.953747 12.3971 0.982873M4.01446 3.83886C3.15904 4.67044 2.53751 5.52649 2.0116 6.59733C1.51604 7.60644 1.21531 8.59584 1.04907 9.76399C0.983644 10.2238 0.983644 11.7671 1.04907 12.2269C1.21629 13.4021 1.51702 14.39 2.01305 15.3936L10.2269 1.01092C8.81067 1.15627 7.75193 1.45015 6.58995 2.02042C5.56895 2.52149 4.84039 3.0359 4.01446 3.83886ZM12.3971 0.982873C13.4778 1.14265 14.4573 1.44868 15.4333 1.93165M12.3971 0.982873L15.4333 1.93165M19.4912 16.2732L19.5756 16.3268C19.6808 16.1612 19.8943 15.7686 20.0511 15.4535L19.9616 15.409M19.4912 16.2732L19.9616 15.409M19.9616 15.409L20.0511 15.4535C21.9974 11.5413 21.1842 6.83079 18.0345 3.76776M19.9616 15.409L18.0345 3.76776M15.8142 7.25353L15.7646 7.16668C15.8516 7.11704 15.9789 7.10269 16.0933 7.10712C16.2102 7.11164 16.3385 7.13677 16.4337 7.18739C16.7925 7.37799 16.9187 7.86498 16.6929 8.20128C16.6929 8.20129 16.6929 8.20129 16.6929 8.2013L15.8142 7.25353ZM15.8142 7.25353L15.7646 7.16668C15.7567 7.1712 15.7486 7.17736 15.7453 7.17991L15.7448 7.18022L15.7253 7.19552C15.7099 7.20775 15.6888 7.22483 15.6626 7.24634C15.6099 7.28944 15.5353 7.35124 15.4412 7.42957C15.2531 7.58628 14.9865 7.80972 14.6611 8.08333C14.0104 8.63057 13.1244 9.37879 12.1602 10.1959C11.1961 11.0129 10.3144 11.7564 9.67041 12.2962C9.34842 12.5661 9.08602 12.7849 8.90256 12.9365C8.81078 13.0123 8.73902 13.0711 8.68953 13.1109C8.68471 13.1148 8.68012 13.1184 8.67576 13.1219C8.66368 13.1097 8.64973 13.0953 8.63393 13.0788C8.57068 13.0125 8.48161 12.9155 8.37297 12.7947C8.15589 12.5532 7.86264 12.2188 7.54573 11.8497C7.17431 11.4171 6.87175 11.0727 6.64964 10.8292C6.53866 10.7076 6.44715 10.6105 6.37684 10.5399C6.34174 10.5047 6.31121 10.4754 6.28575 10.4526C6.26201 10.4315 6.23737 10.4112 6.21529 10.3986C5.88247 10.209 5.42058 10.3479 5.24257 10.6883L15.8142 7.25353ZM8.88787 14.8285L8.88784 14.8285C8.6939 14.9142 8.43147 14.8989 8.24649 14.7923M8.88787 14.8285L5.36337 11.3673L5.28089 11.4238C5.34193 11.5129 5.55024 11.7636 5.82388 12.0842C6.09979 12.4074 6.44736 12.8076 6.79172 13.1996C7.13608 13.5915 7.47753 13.9756 7.74119 14.2665C7.87296 14.4119 7.98566 14.5344 8.06972 14.6231C8.11167 14.6674 8.14704 14.7039 8.17434 14.7307C8.18793 14.7441 8.20019 14.7558 8.21064 14.7651C8.21897 14.7725 8.2324 14.7842 8.24649 14.7923M8.88787 14.8285C8.90195 14.8222 8.91667 14.812 8.92499 14.8062C8.93626 14.7983 8.95014 14.7881 8.96615 14.776C8.99828 14.7516 9.04142 14.7178 9.09398 14.6759C9.19924 14.5919 9.3441 14.4738 9.51792 14.3304C9.86566 14.0436 10.3304 13.6546 10.8283 13.2327L14.6116 10.027L14.547 9.9507L8.88787 14.8285ZM8.24649 14.7923L8.29642 14.7057L8.2465 14.7923C8.2465 14.7923 8.24649 14.7923 8.24649 14.7923ZM18.0345 3.76776C17.2054 2.9614 16.4805 2.44981 15.4333 1.93165M18.0345 3.76776L15.4333 1.93165M3.77392 15.7626L3.69077 15.8182L3.77392 15.7626C3.08515 14.7318 2.62998 13.5522 2.41978 12.2501C2.37261 11.9578 2.34838 11.4788 2.34842 10.995C2.34846 10.5112 2.37278 10.0325 2.42 9.74088C2.73115 7.81982 3.53781 6.22887 4.87957 4.88753C6.34694 3.42063 8.20845 2.5522 10.2946 2.36192C10.4988 2.3433 10.9018 2.34642 11.315 2.36428C11.7277 2.38213 12.1397 2.41422 12.3612 2.45142C14.789 2.85927 16.8395 4.18454 18.205 6.22832C18.8938 7.25917 19.3489 8.43877 19.5592 9.74083C19.6062 10.0326 19.6305 10.5116 19.6305 10.9955C19.6305 11.4793 19.6062 11.9583 19.5592 12.2501C19.1423 14.8323 17.7295 16.9747 15.5312 18.3588C14.5919 18.9503 13.458 19.366 12.2445 19.5623C11.9515 19.6096 11.4723 19.6339 10.9885 19.6338C10.5047 19.6337 10.0261 19.6093 9.73456 19.5618L9.7185 19.6605L9.73456 19.5618C7.22844 19.1538 5.15735 17.8332 3.77392 15.7626Z" fill="#2AA1D8" stroke="#2AA1D8" stroke-width="0.2"/>
</svg>
