<svg width="29" height="29" viewBox="0 0 29 29" fill="none" xmlns="http://www.w3.org/2000/svg">
<path d="M2.36567 8.5564L2.27591 8.51231C2.99093 7.0564 3.83677 5.89138 4.99981 4.76076M2.36567 8.5564L16.3809 1.0115L16.3663 1.11041L16.3809 1.0115M2.36567 8.5564L2.27591 8.51232C1.60203 9.88452 1.19308 11.2304 0.967241 12.8173L1.06624 12.8314L0.967241 12.8173C0.921939 13.1357 0.9 13.8185 0.9 14.4939C0.9 15.1692 0.921939 15.8521 0.967241 16.1705C1.19439 17.7668 1.60335 19.1108 2.27797 20.4757C3.63074 23.2128 5.7542 25.3447 8.4495 26.6705C9.49704 27.1858 10.1324 27.4226 11.1618 27.6807C13.7844 28.3383 16.4212 28.2219 19.0057 27.3348C19.7571 27.0769 21.2421 26.3375 21.9324 25.878C23.5579 24.7957 24.9982 23.3237 26.0475 21.6725L25.9631 21.6189L26.0475 21.6725C26.1886 21.4504 26.4762 20.9217 26.6877 20.4966L26.5981 20.4521L26.6877 20.4966C29.3083 15.2289 28.2134 8.88613 23.9722 4.76156C22.8555 3.67555 21.88 2.98701 20.4695 2.2891C19.1551 1.63872 17.8364 1.22667 16.3809 1.0115M2.36567 8.5564L16.3809 1.0115M4.99981 4.76076L5.06952 4.83246L4.99981 4.76076C4.99981 4.76076 4.99981 4.76076 4.99981 4.76076ZM4.99981 4.76076C6.12227 3.66952 7.11446 2.96894 8.50238 2.28779C10.0827 1.51222 11.5236 1.11258 13.4461 0.915263C13.6723 0.89205 14.2787 0.897407 14.8854 0.917354C15.4931 0.937336 16.1173 0.972525 16.3809 1.0115M20.9992 9.44227L20.9496 9.35542C21.0584 9.29329 21.2223 9.27369 21.3745 9.27958C21.5293 9.28557 21.6968 9.31888 21.8191 9.38388C22.2855 9.63164 22.4494 10.2658 22.1563 10.7022M20.9992 9.44227L22.0733 10.6465M20.9992 9.44227L20.9496 9.35542C20.9408 9.36042 20.9313 9.36767 20.9267 9.37117C20.9198 9.3764 20.9111 9.3832 20.9009 9.39134C20.8804 9.40769 20.8521 9.43063 20.8166 9.45964C20.7457 9.51774 20.645 9.60109 20.5181 9.70682C20.2641 9.91833 19.9042 10.2199 19.4651 10.5893C18.5867 11.328 17.3906 12.3381 16.0889 13.4412C14.7873 14.5442 13.5969 15.548 12.7275 16.2767C12.2928 16.6411 11.9385 16.9365 11.6907 17.1412C11.5668 17.2436 11.4698 17.323 11.4028 17.377C11.3865 17.3901 11.3721 17.4016 11.3596 17.4115C11.3387 17.3908 11.3122 17.3638 11.2805 17.3305C11.1947 17.2407 11.0742 17.1095 10.9275 16.9462C10.6342 16.62 10.2381 16.1683 9.81018 15.6699C9.30886 15.086 8.90067 14.6213 8.60116 14.293C8.45148 14.129 8.32833 13.9983 8.23395 13.9036C8.1868 13.8563 8.14612 13.8172 8.11246 13.7872C8.08052 13.7587 8.04963 13.7335 8.02332 13.7185C7.59149 13.4725 6.98975 13.6532 6.75848 14.0955M20.9992 9.44227L6.8471 14.1418M22.1563 10.7022L22.0733 10.6465M22.1563 10.7022C22.1563 10.7022 22.1563 10.7022 22.1563 10.7022L22.0733 10.6465M22.1563 10.7022C22.1467 10.7165 22.1322 10.7323 22.1194 10.7456C22.1049 10.7608 22.0863 10.7793 22.0641 10.8006C22.0196 10.8435 21.9587 10.9 21.8836 10.9683C21.7332 11.105 21.524 11.2906 21.2714 11.5116C20.7662 11.9537 20.0861 12.5386 19.3531 13.1597L14.2456 17.4875L14.1809 17.4112M22.0733 10.6465C22.0071 10.7451 20.7539 11.8417 19.2884 13.0834L14.1809 17.4112M14.1809 17.4112L14.2456 17.4875C13.5735 18.057 12.9462 18.582 12.4769 18.9691C12.2423 19.1626 12.0469 19.3218 11.905 19.4351C11.8342 19.4916 11.7762 19.5371 11.7332 19.5696C11.7117 19.5859 11.6934 19.5994 11.6787 19.6097C11.6669 19.6179 11.6498 19.6296 11.6345 19.6364M14.1809 17.4112L11.6345 19.6364M11.6345 19.6364L11.6344 19.6364C11.383 19.7475 11.0404 19.7278 10.8002 19.5893C10.7847 19.5804 10.769 19.5669 10.7576 19.5568C10.7442 19.5447 10.7281 19.5294 10.7099 19.5116C10.6735 19.4757 10.6261 19.4268 10.5695 19.3672C10.4563 19.2476 10.3044 19.0825 10.1265 18.8862C9.77076 18.4937 9.30993 17.9754 8.84512 17.4463C8.3803 16.9173 7.9112 16.3771 7.53886 15.9409C7.16878 15.5074 6.88915 15.1706 6.80807 15.0524M11.6345 19.6364L6.8471 14.1418M6.80807 15.0524L6.89055 14.9958L6.80808 15.0524C6.80808 15.0524 6.80807 15.0524 6.80807 15.0524ZM6.80807 15.0524C6.71893 14.9224 6.67238 14.7509 6.66383 14.5827C6.65526 14.4144 6.68416 14.2375 6.75848 14.0955M6.75848 14.0955L6.8471 14.1418M6.75848 14.0955C6.75849 14.0955 6.75849 14.0954 6.75849 14.0954L6.8471 14.1418M12.786 26.093L12.77 26.1917L12.786 26.093C9.3934 25.5407 6.58882 23.7525 4.71569 20.949C3.78288 19.5529 3.16668 17.9556 2.88215 16.1932C2.81801 15.7958 2.78531 15.1469 2.78537 14.4932C2.78543 13.8396 2.81825 13.1911 2.88246 12.7946C3.30365 10.1941 4.39597 8.03956 6.21268 6.22341C8.19946 4.23725 10.7202 3.06135 13.5446 2.80374C13.8228 2.77837 14.3689 2.7827 14.9267 2.80682C15.484 2.83092 16.0421 2.8743 16.3434 2.9249C19.6305 3.47709 22.4071 5.27165 24.2559 8.03878C25.1887 9.43486 25.8049 11.0321 26.0894 12.7945C26.1534 13.1913 26.1861 13.8401 26.1861 14.4939C26.1861 15.1476 26.1534 15.7964 26.0894 16.1932C25.525 19.689 23.612 22.59 20.6358 24.464C19.3634 25.2652 17.8281 25.828 16.1856 26.0936C15.7873 26.158 15.1381 26.1908 14.4844 26.1907C13.8308 26.1906 13.1825 26.1575 12.786 26.093Z" fill="#2AA1D8" stroke="#2AA1D8" stroke-width="0.2"/>
</svg>
