<svg width="70" height="70" viewBox="0 0 70 70" fill="none" xmlns="http://www.w3.org/2000/svg">
<circle cx="35" cy="35" r="35" fill="#EAF6FC"/>
<circle cx="35" cy="35" r="24" fill="#2AA1D8"/>
<path d="M40.1502 47.1975L40.1419 47.1995C39.645 47.3189 39.1348 47.374 38.6239 47.3635M40.1502 47.1975L38.6383 46.6136M40.1502 47.1975L40.1584 47.1953M40.1502 47.1975L40.1584 47.1953M38.6239 47.3635C38.6235 47.3635 38.623 47.3634 38.6226 47.3634L38.6383 46.6136M38.6239 47.3635C38.624 47.3635 38.624 47.3635 38.6241 47.3635L38.6383 46.6136M38.6239 47.3635C37.6978 47.3459 36.7787 47.1993 35.8932 46.9278M38.6383 46.6136C37.7814 46.5974 36.931 46.4616 36.1116 46.2103M35.8932 46.9278C35.8937 46.9279 35.8942 46.9281 35.8947 46.9282L36.1116 46.2103M35.8932 46.9278C34.9276 46.6359 33.9946 46.2453 33.1091 45.7621L33.1081 45.7616C31.1752 44.7033 29.4063 43.3699 27.8567 41.8032L27.8567 41.8031C27.0753 41.0129 26.3394 40.1789 25.6526 39.3052L36.1116 46.2103M35.8932 46.9278C35.8927 46.9276 35.8922 46.9275 35.8917 46.9273L36.1116 46.2103M40.1584 47.1953C40.5876 47.0818 40.9948 46.897 41.3628 46.6487L41.365 46.6472C41.7087 46.4135 42.0271 46.1448 42.3153 45.8455C42.5704 45.584 42.8815 45.2712 43.2489 44.9121C43.4088 44.7579 43.5358 44.5727 43.6219 44.3679L42.9305 44.0771L43.6219 44.3679C43.7081 44.1629 43.7516 43.9426 43.75 43.7204M40.1584 47.1953L27.5687 26.7811M27.5687 26.7811L27.5687 26.7811C28.1469 27.2633 28.6803 27.7967 29.1626 28.3748L29.1628 28.3751C29.3855 28.6423 29.5757 28.8957 29.7314 29.1303C29.8152 29.2563 29.8924 29.3886 29.9507 29.5231C30.0029 29.6433 30.0583 29.8065 30.0644 29.9928C30.0878 30.371 29.9638 30.7439 29.7177 31.0329L29.7128 31.0388L29.7127 31.0387C29.6264 31.1381 29.5267 31.2494 29.4219 31.3665C29.3743 31.4196 29.3256 31.474 29.2766 31.529L29.2693 31.5371L29.2693 31.5371C29.0796 31.7438 28.8735 31.9403 28.6496 32.1266L28.6473 32.1285L28.6473 32.1285C28.498 32.2516 28.3572 32.4003 28.227 32.5777C28.0958 32.7577 27.9849 32.9516 27.8963 33.1559C27.8198 33.3438 27.7824 33.5454 27.7865 33.7482C27.7928 34.0132 27.8446 34.2539 27.9372 34.4759L27.9377 34.4772C28.0295 34.6985 28.1602 34.8937 28.3335 35.0658L28.3354 35.0677L34.5454 41.2788L34.5515 41.2849L34.5515 41.285C34.72 41.4575 34.9216 41.5943 35.1441 41.6872C35.3667 41.7801 35.6057 41.8272 35.8469 41.8257L35.8692 41.8255L35.8914 41.8267C36.0846 41.8369 36.2776 41.8022 36.455 41.7252C36.8596 41.5367 37.2213 41.2674 37.5179 40.9339L37.5254 40.9255L37.5255 40.9256C37.5509 40.8978 37.5763 40.8701 37.6016 40.8425C37.7539 40.6761 37.9021 40.5143 38.0441 40.3663C38.2287 40.1719 38.4277 39.9981 38.6389 39.8525C38.9152 39.6576 39.2445 39.5517 39.5827 39.5492L39.5883 39.5492C39.9486 39.5492 40.2751 39.7346 40.4981 39.8827C40.7401 40.0433 40.9954 40.2424 41.2626 40.4724C41.5278 40.7007 41.7984 40.9506 42.0752 41.2171L42.0768 41.2187C42.3637 41.4967 42.6263 41.7804 42.8583 42.0718L42.8587 42.0723C43.0728 42.3415 43.262 42.5948 43.4164 42.8274C43.4995 42.9525 43.5769 43.0843 43.6354 43.2189C43.6911 43.3468 43.7493 43.5211 43.75 43.7204M27.5687 26.7811L27.5666 26.7793M27.5687 26.7811L27.5666 26.7793M43.75 43.7204C43.75 43.7215 43.75 43.7227 43.75 43.7239H43L43.7499 43.7163C43.7499 43.7177 43.7499 43.719 43.75 43.7204ZM27.5666 26.7793C27.2988 26.5576 27.0456 26.3671 26.8087 26.2049C26.6776 26.1151 26.5398 26.0328 26.4001 25.9724C26.2817 25.9213 26.1012 25.8586 25.8915 25.8652C25.6746 25.8645 25.4596 25.9064 25.2587 25.9888L25.5432 26.6827M27.5666 26.7793L25.5432 26.6827M25.5432 26.6827L25.2587 25.9888C25.0507 26.0741 24.8622 26.2009 24.7049 26.3615M25.5432 26.6827L24.7049 26.3615M24.7049 26.3615C24.3526 26.7138 24.0399 27.0231 23.7662 27.2886L24.7049 26.3615ZM22.6872 33.751C22.9885 34.7242 23.3823 35.6663 23.8634 36.5644L23.7661 27.2886C23.4568 27.5886 23.1863 27.9072 22.9629 28.2438C22.72 28.6055 22.5448 29.0105 22.4311 29.4454L22.4309 29.4454L22.4278 29.4585C22.3092 29.9476 22.2495 30.4491 22.25 30.9524L22.25 30.9572C22.257 31.9049 22.4043 32.8464 22.6872 33.751Z" fill="white" stroke="white" stroke-width="1.5"/>
<path fill-rule="evenodd" clip-rule="evenodd" d="M46.2609 24.1372L38.7655 31.6451H44.0769V33.2604H36V25.1839H37.6154V30.495L45.1253 23L46.2609 24.1356V24.1372Z" fill="white"/>
</svg>
