<svg width="48" height="48" viewBox="0 0 48 48" fill="none" xmlns="http://www.w3.org/2000/svg">
<path d="M24 48C37.2548 48 48 37.2548 48 24C48 10.7452 37.2548 0 24 0C10.7452 0 0 10.7452 0 24C0 37.2548 10.7452 48 24 48Z" fill="#2DD82A"/>
<path fill-rule="evenodd" clip-rule="evenodd" d="M24.7895 37.3523H24.7836C22.3951 37.3515 20.0482 36.7522 17.9638 35.6153L10.3984 37.5998L12.4231 30.2046C11.1742 28.0403 10.517 25.5853 10.5181 23.07C10.5212 15.2015 16.9233 8.7998 24.7894 8.7998C28.6071 8.80145 32.1903 10.2877 34.8846 12.9852C37.579 15.6826 39.0621 19.2681 39.0606 23.0813C39.0574 30.9481 32.6579 37.3491 24.7895 37.3523ZM18.3143 33.0317L18.7474 33.2888C20.5686 34.3695 22.6562 34.9413 24.7847 34.9421H24.7895C31.3273 34.9421 36.6484 29.6209 36.651 23.0805C36.6522 19.911 35.4196 16.9309 33.1801 14.6888C30.9406 12.4467 27.9624 11.2113 24.7942 11.2102C18.2514 11.2102 12.9302 16.5309 12.9276 23.0709C12.9267 25.3122 13.5538 27.4949 14.7412 29.3834L15.0232 29.8322L13.8249 34.2093L18.3143 33.0317ZM31.4909 26.1539C31.7396 26.2741 31.9075 26.3552 31.9792 26.4749C32.0683 26.6236 32.0683 27.3376 31.7713 28.1707C31.4741 29.0036 30.0495 29.7638 29.3643 29.8661C28.75 29.958 27.9726 29.9963 27.1184 29.7248C26.6005 29.5605 25.9363 29.3411 25.0855 28.9737C21.7426 27.5302 19.4835 24.2902 19.0565 23.6778C19.0266 23.6349 19.0057 23.6049 18.994 23.5893L18.9911 23.5855C18.8024 23.3337 17.538 21.6466 17.538 19.9006C17.538 18.258 18.3448 17.3971 18.7162 17.0008C18.7416 16.9737 18.765 16.9487 18.786 16.9258C19.1128 16.5688 19.4992 16.4796 19.7369 16.4796C19.9746 16.4796 20.2126 16.4818 20.4203 16.4922C20.4459 16.4935 20.4726 16.4933 20.5002 16.4932C20.708 16.4919 20.9671 16.4904 21.2226 17.1043C21.3209 17.3406 21.4648 17.6908 21.6165 18.0602C21.9234 18.8072 22.2624 19.6326 22.322 19.752C22.4112 19.9305 22.4706 20.1387 22.3518 20.3768C22.3339 20.4125 22.3174 20.4461 22.3017 20.4783C22.2124 20.6606 22.1467 20.7947 21.9952 20.9716C21.9356 21.0411 21.874 21.1161 21.8125 21.1911C21.6898 21.3405 21.5671 21.4899 21.4603 21.5963C21.2818 21.7741 21.096 21.9671 21.304 22.3241C21.512 22.6811 22.2276 23.8487 23.2877 24.7943C24.4272 25.8107 25.4176 26.2403 25.9196 26.458C26.0176 26.5006 26.0971 26.535 26.1553 26.5642C26.5118 26.7427 26.7198 26.7128 26.9278 26.4749C27.1358 26.237 27.8192 25.4337 28.0569 25.0767C28.2946 24.7199 28.5324 24.7793 28.8592 24.8983C29.1861 25.0174 30.9392 25.8799 31.2958 26.0584C31.3654 26.0933 31.4305 26.1247 31.4909 26.1539Z" fill="#FDFDFD"/>
</svg>
