<svg width="48" height="48" viewBox="0 0 48 48" fill="none" xmlns="http://www.w3.org/2000/svg">
<path d="M24 48C37.2548 48 48 37.2548 48 24C48 10.7452 37.2548 0 24 0C10.7452 0 0 10.7452 0 24C0 37.2548 10.7452 48 24 48Z" fill="#2AA1D8"/>
<path d="M8.93764 25.1739C11.7432 23.6285 14.875 22.3387 17.8012 21.0423C22.8354 18.9189 27.8896 16.8323 32.9948 14.8897C33.9881 14.5587 35.7728 14.235 35.9478 15.707C35.852 17.7906 35.4578 19.862 35.1874 21.9334C34.5011 26.4886 33.7079 31.0282 32.9344 35.5684C32.6679 37.0807 30.7734 37.8636 29.5612 36.8958C26.648 34.928 23.7124 32.9794 20.8364 30.966C19.8943 30.0087 20.7679 28.634 21.6093 27.9504C24.0087 25.5858 26.5533 23.5768 28.8273 21.09C29.4407 19.6087 27.6283 20.8571 27.0305 21.2396C23.7457 23.5032 20.5413 25.905 17.0781 27.8944C15.3091 28.8682 13.2473 28.036 11.4791 27.4926C9.8937 26.8362 7.57048 26.1749 8.93748 25.174L8.93764 25.1739Z" fill="white"/>
</svg>
