<svg width="70" height="70" viewBox="0 0 70 70" fill="none" xmlns="http://www.w3.org/2000/svg">
<circle cx="35" cy="35" r="35" fill="#EAF6FC"/>
<circle cx="35" cy="35" r="24" fill="#2AA1D8"/>
<path d="M42.1496 45.5828L42.1413 45.5848C41.6444 45.7042 41.1342 45.7593 40.6233 45.7487M42.1496 45.5828L35.4679 43.489C36.3086 43.9477 37.1944 44.3185 38.1112 44.5956L37.8912 45.3126C37.8917 45.3127 37.8922 45.3129 37.8927 45.313C38.7782 45.5845 39.6973 45.7312 40.6233 45.7487M42.1496 45.5828L42.1578 45.5806M42.1496 45.5828L42.1578 45.5806M40.6233 45.7487C40.6234 45.7487 40.6235 45.7487 40.6235 45.7487L40.6377 44.9989L40.622 45.7487C40.6225 45.7487 40.6229 45.7487 40.6233 45.7487ZM42.1578 45.5806C42.587 45.4671 42.9941 45.2823 43.3622 45.034L43.3644 45.0324C43.708 44.7987 44.0265 44.5301 44.3147 44.2308C44.5697 43.9693 44.8808 43.6565 45.2481 43.2974C45.4081 43.1432 45.535 42.958 45.6212 42.7531L44.9298 42.4624L45.6212 42.7531C45.7074 42.5482 45.7509 42.3279 45.7492 42.1056M42.1578 45.5806L29.5686 25.1663M29.5686 25.1663L29.5686 25.1663C30.1467 25.6485 30.6801 26.1819 31.1624 26.7601L31.1626 26.7603C31.3853 27.0276 31.5755 27.281 31.7312 27.5155C31.8149 27.6416 31.8922 27.7739 31.9505 27.9084C32.0027 28.0286 32.0581 28.1917 32.0642 28.378C32.0876 28.7562 31.9636 29.1292 31.7175 29.4182L31.7125 29.424L31.7125 29.424C31.6261 29.5234 31.5265 29.6346 31.4217 29.7517C31.3741 29.8049 31.3254 29.8592 31.2764 29.9142L31.2691 29.9224L31.2691 29.9223C31.0794 30.129 30.8733 30.3256 30.6495 30.5118L30.6471 30.5138L30.6471 30.5138C30.4979 30.6369 30.357 30.7856 30.2268 30.963C30.0957 31.1429 29.9847 31.3368 29.8961 31.5412C29.8196 31.7291 29.7822 31.9306 29.7863 32.1335C29.7927 32.3985 29.8444 32.6391 29.937 32.8612L29.9376 32.8625C30.0294 33.0838 30.1601 33.279 30.3333 33.451L30.3352 33.4529L36.545 39.664L36.5511 39.6702L36.5511 39.6702C36.7196 39.8427 36.9212 39.9795 37.1437 40.0724C37.3663 40.1653 37.6053 40.2124 37.8465 40.2109L37.8687 40.2108L37.8909 40.2119C38.0841 40.2222 38.277 40.1875 38.4545 40.1105C38.859 39.922 39.2207 39.6527 39.5174 39.3192L39.5248 39.3108L39.5249 39.3109C39.5504 39.2831 39.5758 39.2554 39.601 39.2278C39.7534 39.0614 39.9016 38.8995 40.0436 38.7515C40.2282 38.5572 40.4272 38.3834 40.6383 38.2378C40.9146 38.0429 41.2439 37.937 41.5821 37.9345L41.5877 37.9344C41.948 37.9344 42.2745 38.1199 42.4975 38.2679C42.7395 38.4286 42.9948 38.6277 43.262 38.8576C43.5271 39.0859 43.7978 39.3359 44.0745 39.6024L44.0762 39.604C44.363 39.8819 44.6256 40.1657 44.8577 40.4571L44.858 40.4575C45.0721 40.7268 45.2613 40.98 45.4157 41.2126C45.4988 41.3377 45.5762 41.4696 45.6347 41.6042C45.6903 41.7321 45.7486 41.9064 45.7492 42.1056M29.5686 25.1663L29.5664 25.1645M29.5686 25.1663L29.5664 25.1645M45.7492 42.1056C45.7492 42.1068 45.7492 42.108 45.7492 42.1091H44.9992L45.7492 42.1016C45.7492 42.1029 45.7492 42.1043 45.7492 42.1056ZM29.5664 25.1645C29.2987 24.9429 29.0455 24.7523 28.8085 24.5901C28.6775 24.5004 28.5397 24.418 28.4 24.3577C28.2816 24.3065 28.1011 24.2439 27.8914 24.2505C27.6745 24.2498 27.4595 24.2917 27.2586 24.374C27.0506 24.4593 26.8621 24.5862 26.7048 24.7468M29.5664 25.1645L26.7048 24.7468M26.7048 24.7468C26.3525 25.099 26.0399 25.4083 25.7661 25.6738L26.7048 24.7468ZM25.8632 34.9495C26.3763 35.9149 26.9751 36.8322 27.6524 37.6904L25.7661 25.6739C25.4567 25.9739 25.1862 26.2925 24.9629 26.6291C24.72 26.9908 24.5448 27.3958 24.4311 27.8307L24.4309 27.8306L24.4278 27.8437C24.3092 28.3328 24.2495 28.8344 24.25 29.3377L24.25 29.3425C24.257 30.2902 24.4043 31.2317 24.6872 32.1363C24.9885 33.1094 25.3823 34.0515 25.8632 34.9495Z" fill="white" stroke="white" stroke-width="1.5"/>
</svg>
