<svg width="50" height="50" viewBox="0 0 50 50" fill="none" xmlns="http://www.w3.org/2000/svg">
<circle cx="25" cy="25" r="25" fill="#4680C2"/>
<path fill-rule="evenodd" clip-rule="evenodd" d="M40.8656 15.9596C41.1125 15.1834 40.8656 14.6188 39.7717 14.6188H36.1372C35.2198 14.6188 34.7964 15.1128 34.5494 15.6421C34.5494 15.6421 32.6792 20.1587 30.0681 23.0874C29.2212 23.9342 28.8331 24.2165 28.3744 24.2165C28.1273 24.2165 27.8098 23.9342 27.8098 23.158V15.9243C27.8098 15.0069 27.5275 14.5835 26.7512 14.5835H21.0349C20.4704 14.5835 20.1175 15.0069 20.1175 15.4304C20.1175 16.3126 21.4231 16.5242 21.5642 18.9942V24.3577C21.5642 25.5221 21.3525 25.7338 20.8938 25.7338C19.6588 25.7338 16.6595 21.1819 14.8599 15.995C14.507 14.9716 14.1542 14.5835 13.2368 14.5835H9.56702C8.50847 14.5835 8.33203 15.0776 8.33203 15.6068C8.33203 16.5595 9.56702 21.3584 14.0836 27.7099C17.083 32.05 21.3525 34.3788 25.1987 34.3788C27.5275 34.3788 27.8098 33.8495 27.8098 32.9675V29.6859C27.8098 28.6272 28.0215 28.4509 28.7625 28.4509C29.2918 28.4509 30.2445 28.7331 32.3969 30.815C34.8669 33.285 35.2904 34.4141 36.6665 34.4141H40.301C41.3595 34.4141 41.8536 33.8849 41.5713 32.8615C41.2537 31.8383 40.054 30.3563 38.5014 28.5919C37.6545 27.604 36.3842 26.5102 35.9961 25.9808C35.4668 25.2752 35.608 24.9929 35.9961 24.3577C35.9609 24.3577 40.4068 18.0768 40.8656 15.9596Z" fill="white"/>
</svg>
