<svg width="30" height="37" viewBox="0 0 30 37" fill="none" xmlns="http://www.w3.org/2000/svg">
<mask id="path-1-outside-1_1267_7893" maskUnits="userSpaceOnUse" x="0" y="0" width="30" height="37" fill="black">
<rect fill="white" width="30" height="37"/>
<path fill-rule="evenodd" clip-rule="evenodd" d="M14.023 1.1628L13.8333 1.34634V2.74683V4.14733L9.51878 8.09535C5.04804 12.1862 4.83389 12.4066 4.49285 13.2679C4.29656 13.7638 4.22408 14.8944 4.35074 15.485C4.57853 16.5469 5.43953 17.6055 6.46875 18.0891C7.63892 18.6388 8.03303 18.6319 11.5594 17.999C13.0959 17.7232 14.3709 17.5149 14.3928 17.5361C14.4148 17.5572 14.3716 17.6955 14.2971 17.8432C14.1526 18.1295 14.0963 18.163 12.7944 18.7402C10.4953 19.7596 8.61345 21.5364 7.45247 23.784C6.8057 25.0362 6.47356 26.1698 6.28704 27.7616C6.25642 28.0227 6.20588 28.1673 6.14515 28.1673C5.91065 28.1673 5.00378 28.6877 4.72116 28.9845C4.22372 29.5067 3.97507 30.1065 3.93293 30.8856L3.89749 31.5422L3.65694 31.5859C3.18174 31.6721 2.42005 32.1063 2.00486 32.5276C1.31259 33.23 1 34.0194 1 35.0654C1 35.5958 1.01757 35.6706 1.17901 35.8268L1.35795 36H15H28.6421L28.821 35.8268C28.9824 35.6706 29 35.5958 29 35.0654C29 34.0194 28.6874 33.23 27.9951 32.5276C27.5799 32.1063 26.8183 31.6721 26.3431 31.5859L26.1025 31.5422L26.0671 30.8856C26.0379 30.3458 25.9919 30.1469 25.8084 29.7677C25.5172 29.1652 25.0922 28.7282 24.5176 28.4398L24.053 28.2068L24.5845 27.6684C25.1821 27.0631 25.5746 26.4366 25.8561 25.6388L26.0469 25.0978V18.0766C26.0469 11.5357 26.0376 11.0071 25.9115 10.3497C24.908 5.12105 20.4836 1.32587 15.041 1.02505C14.2179 0.97954 14.2115 0.980387 14.023 1.1628ZM16.5833 2.34356C19.2944 2.87815 21.7759 4.5542 23.3269 6.8985C23.9008 7.76581 24.4337 9.04797 24.7115 10.2299C24.8702 10.9052 24.8727 11.004 24.8982 17.6532C24.9163 22.3637 24.8998 24.5302 24.8434 24.8508C24.5748 26.3776 23.1752 27.7474 21.6038 28.0213C21.3168 28.0714 18.8531 28.0968 14.2855 28.0968H7.3999L7.44802 27.691C7.71322 25.4555 8.65479 23.4853 10.2108 21.9102C11.2935 20.8142 12.4597 20.06 14.0559 19.4236C14.9117 19.0824 15.4651 18.432 15.5601 17.6559C15.6012 17.3203 15.606 17.3149 15.9025 17.2695C16.0678 17.2443 16.4674 17.1 16.7904 16.9491C18.1343 16.3211 19.0833 14.8826 19.0833 13.4737C19.0833 12.937 18.4813 12.6548 18.1076 13.0164C17.9794 13.1405 17.9298 13.2904 17.8939 13.6622C17.8362 14.2603 17.536 14.9091 17.1105 15.356C16.7113 15.7751 15.9203 16.1552 15.3281 16.2125C15.0875 16.2358 13.4141 16.5264 11.6094 16.8583C8.41519 17.4457 8.315 17.4595 7.83295 17.3807C6.054 17.0901 4.99693 15.4655 5.52003 13.8265C5.5998 13.5765 5.76109 13.2437 5.87849 13.087C5.99581 12.9302 7.95676 11.0954 10.2361 9.00973C12.5154 6.92405 14.5196 5.08019 14.6901 4.91225L15 4.60692V3.36103V2.11514L15.4557 2.16312C15.7064 2.18951 16.2138 2.27066 16.5833 2.34356ZM16.556 3.64604C16.3156 3.74391 16.2396 3.86909 16.2396 4.16765C16.2396 4.46261 16.3746 4.57622 16.9687 4.78093C19.4478 5.6349 21.306 7.41348 22.1232 9.71467C22.5527 10.9243 22.5326 10.5666 22.5779 17.783L22.6198 24.44L22.7919 24.5748C23.0316 24.7626 23.3538 24.7467 23.571 24.5364L23.75 24.3633V18.0359C23.75 11.0032 23.7412 10.8451 23.2758 9.49168C22.8091 8.13451 22.1567 7.08938 21.1301 6.05448C19.9811 4.89602 18.6416 4.09151 17.1466 3.66184C16.8403 3.57378 16.7402 3.5711 16.556 3.64604ZM23.7051 29.3116C24.1056 29.4261 24.7097 30.0107 24.828 30.3983C24.8768 30.5581 24.9167 30.8676 24.9167 31.0863V31.4839H15H5.08333V31.0863C5.08333 30.8676 5.12322 30.5581 5.172 30.3983C5.28174 30.0388 5.89212 29.4272 6.25 29.318C6.63405 29.2009 23.2964 29.1947 23.7051 29.3116ZM26.4502 32.8074C26.6319 32.895 26.8966 33.0594 27.0386 33.1726C27.361 33.4298 27.7312 34.0938 27.7987 34.5358L27.8499 34.871H15H2.15011L2.20159 34.5388C2.33992 33.646 3.04983 32.8918 3.95312 32.678C4.07344 32.6495 9.11016 32.6312 15.1458 32.6372L26.1198 32.6482L26.4502 32.8074Z"/>
</mask>
<path fill-rule="evenodd" clip-rule="evenodd" d="M14.023 1.1628L13.8333 1.34634V2.74683V4.14733L9.51878 8.09535C5.04804 12.1862 4.83389 12.4066 4.49285 13.2679C4.29656 13.7638 4.22408 14.8944 4.35074 15.485C4.57853 16.5469 5.43953 17.6055 6.46875 18.0891C7.63892 18.6388 8.03303 18.6319 11.5594 17.999C13.0959 17.7232 14.3709 17.5149 14.3928 17.5361C14.4148 17.5572 14.3716 17.6955 14.2971 17.8432C14.1526 18.1295 14.0963 18.163 12.7944 18.7402C10.4953 19.7596 8.61345 21.5364 7.45247 23.784C6.8057 25.0362 6.47356 26.1698 6.28704 27.7616C6.25642 28.0227 6.20588 28.1673 6.14515 28.1673C5.91065 28.1673 5.00378 28.6877 4.72116 28.9845C4.22372 29.5067 3.97507 30.1065 3.93293 30.8856L3.89749 31.5422L3.65694 31.5859C3.18174 31.6721 2.42005 32.1063 2.00486 32.5276C1.31259 33.23 1 34.0194 1 35.0654C1 35.5958 1.01757 35.6706 1.17901 35.8268L1.35795 36H15H28.6421L28.821 35.8268C28.9824 35.6706 29 35.5958 29 35.0654C29 34.0194 28.6874 33.23 27.9951 32.5276C27.5799 32.1063 26.8183 31.6721 26.3431 31.5859L26.1025 31.5422L26.0671 30.8856C26.0379 30.3458 25.9919 30.1469 25.8084 29.7677C25.5172 29.1652 25.0922 28.7282 24.5176 28.4398L24.053 28.2068L24.5845 27.6684C25.1821 27.0631 25.5746 26.4366 25.8561 25.6388L26.0469 25.0978V18.0766C26.0469 11.5357 26.0376 11.0071 25.9115 10.3497C24.908 5.12105 20.4836 1.32587 15.041 1.02505C14.2179 0.97954 14.2115 0.980387 14.023 1.1628ZM16.5833 2.34356C19.2944 2.87815 21.7759 4.5542 23.3269 6.8985C23.9008 7.76581 24.4337 9.04797 24.7115 10.2299C24.8702 10.9052 24.8727 11.004 24.8982 17.6532C24.9163 22.3637 24.8998 24.5302 24.8434 24.8508C24.5748 26.3776 23.1752 27.7474 21.6038 28.0213C21.3168 28.0714 18.8531 28.0968 14.2855 28.0968H7.3999L7.44802 27.691C7.71322 25.4555 8.65479 23.4853 10.2108 21.9102C11.2935 20.8142 12.4597 20.06 14.0559 19.4236C14.9117 19.0824 15.4651 18.432 15.5601 17.6559C15.6012 17.3203 15.606 17.3149 15.9025 17.2695C16.0678 17.2443 16.4674 17.1 16.7904 16.9491C18.1343 16.3211 19.0833 14.8826 19.0833 13.4737C19.0833 12.937 18.4813 12.6548 18.1076 13.0164C17.9794 13.1405 17.9298 13.2904 17.8939 13.6622C17.8362 14.2603 17.536 14.9091 17.1105 15.356C16.7113 15.7751 15.9203 16.1552 15.3281 16.2125C15.0875 16.2358 13.4141 16.5264 11.6094 16.8583C8.41519 17.4457 8.315 17.4595 7.83295 17.3807C6.054 17.0901 4.99693 15.4655 5.52003 13.8265C5.5998 13.5765 5.76109 13.2437 5.87849 13.087C5.99581 12.9302 7.95676 11.0954 10.2361 9.00973C12.5154 6.92405 14.5196 5.08019 14.6901 4.91225L15 4.60692V3.36103V2.11514L15.4557 2.16312C15.7064 2.18951 16.2138 2.27066 16.5833 2.34356ZM16.556 3.64604C16.3156 3.74391 16.2396 3.86909 16.2396 4.16765C16.2396 4.46261 16.3746 4.57622 16.9687 4.78093C19.4478 5.6349 21.306 7.41348 22.1232 9.71467C22.5527 10.9243 22.5326 10.5666 22.5779 17.783L22.6198 24.44L22.7919 24.5748C23.0316 24.7626 23.3538 24.7467 23.571 24.5364L23.75 24.3633V18.0359C23.75 11.0032 23.7412 10.8451 23.2758 9.49168C22.8091 8.13451 22.1567 7.08938 21.1301 6.05448C19.9811 4.89602 18.6416 4.09151 17.1466 3.66184C16.8403 3.57378 16.7402 3.5711 16.556 3.64604ZM23.7051 29.3116C24.1056 29.4261 24.7097 30.0107 24.828 30.3983C24.8768 30.5581 24.9167 30.8676 24.9167 31.0863V31.4839H15H5.08333V31.0863C5.08333 30.8676 5.12322 30.5581 5.172 30.3983C5.28174 30.0388 5.89212 29.4272 6.25 29.318C6.63405 29.2009 23.2964 29.1947 23.7051 29.3116ZM26.4502 32.8074C26.6319 32.895 26.8966 33.0594 27.0386 33.1726C27.361 33.4298 27.7312 34.0938 27.7987 34.5358L27.8499 34.871H15H2.15011L2.20159 34.5388C2.33992 33.646 3.04983 32.8918 3.95312 32.678C4.07344 32.6495 9.11016 32.6312 15.1458 32.6372L26.1198 32.6482L26.4502 32.8074Z" fill="#FF8655"/>
<path fill-rule="evenodd" clip-rule="evenodd" d="M14.023 1.1628L13.8333 1.34634V2.74683V4.14733L9.51878 8.09535C5.04804 12.1862 4.83389 12.4066 4.49285 13.2679C4.29656 13.7638 4.22408 14.8944 4.35074 15.485C4.57853 16.5469 5.43953 17.6055 6.46875 18.0891C7.63892 18.6388 8.03303 18.6319 11.5594 17.999C13.0959 17.7232 14.3709 17.5149 14.3928 17.5361C14.4148 17.5572 14.3716 17.6955 14.2971 17.8432C14.1526 18.1295 14.0963 18.163 12.7944 18.7402C10.4953 19.7596 8.61345 21.5364 7.45247 23.784C6.8057 25.0362 6.47356 26.1698 6.28704 27.7616C6.25642 28.0227 6.20588 28.1673 6.14515 28.1673C5.91065 28.1673 5.00378 28.6877 4.72116 28.9845C4.22372 29.5067 3.97507 30.1065 3.93293 30.8856L3.89749 31.5422L3.65694 31.5859C3.18174 31.6721 2.42005 32.1063 2.00486 32.5276C1.31259 33.23 1 34.0194 1 35.0654C1 35.5958 1.01757 35.6706 1.17901 35.8268L1.35795 36H15H28.6421L28.821 35.8268C28.9824 35.6706 29 35.5958 29 35.0654C29 34.0194 28.6874 33.23 27.9951 32.5276C27.5799 32.1063 26.8183 31.6721 26.3431 31.5859L26.1025 31.5422L26.0671 30.8856C26.0379 30.3458 25.9919 30.1469 25.8084 29.7677C25.5172 29.1652 25.0922 28.7282 24.5176 28.4398L24.053 28.2068L24.5845 27.6684C25.1821 27.0631 25.5746 26.4366 25.8561 25.6388L26.0469 25.0978V18.0766C26.0469 11.5357 26.0376 11.0071 25.9115 10.3497C24.908 5.12105 20.4836 1.32587 15.041 1.02505C14.2179 0.97954 14.2115 0.980387 14.023 1.1628ZM16.5833 2.34356C19.2944 2.87815 21.7759 4.5542 23.3269 6.8985C23.9008 7.76581 24.4337 9.04797 24.7115 10.2299C24.8702 10.9052 24.8727 11.004 24.8982 17.6532C24.9163 22.3637 24.8998 24.5302 24.8434 24.8508C24.5748 26.3776 23.1752 27.7474 21.6038 28.0213C21.3168 28.0714 18.8531 28.0968 14.2855 28.0968H7.3999L7.44802 27.691C7.71322 25.4555 8.65479 23.4853 10.2108 21.9102C11.2935 20.8142 12.4597 20.06 14.0559 19.4236C14.9117 19.0824 15.4651 18.432 15.5601 17.6559C15.6012 17.3203 15.606 17.3149 15.9025 17.2695C16.0678 17.2443 16.4674 17.1 16.7904 16.9491C18.1343 16.3211 19.0833 14.8826 19.0833 13.4737C19.0833 12.937 18.4813 12.6548 18.1076 13.0164C17.9794 13.1405 17.9298 13.2904 17.8939 13.6622C17.8362 14.2603 17.536 14.9091 17.1105 15.356C16.7113 15.7751 15.9203 16.1552 15.3281 16.2125C15.0875 16.2358 13.4141 16.5264 11.6094 16.8583C8.41519 17.4457 8.315 17.4595 7.83295 17.3807C6.054 17.0901 4.99693 15.4655 5.52003 13.8265C5.5998 13.5765 5.76109 13.2437 5.87849 13.087C5.99581 12.9302 7.95676 11.0954 10.2361 9.00973C12.5154 6.92405 14.5196 5.08019 14.6901 4.91225L15 4.60692V3.36103V2.11514L15.4557 2.16312C15.7064 2.18951 16.2138 2.27066 16.5833 2.34356ZM16.556 3.64604C16.3156 3.74391 16.2396 3.86909 16.2396 4.16765C16.2396 4.46261 16.3746 4.57622 16.9687 4.78093C19.4478 5.6349 21.306 7.41348 22.1232 9.71467C22.5527 10.9243 22.5326 10.5666 22.5779 17.783L22.6198 24.44L22.7919 24.5748C23.0316 24.7626 23.3538 24.7467 23.571 24.5364L23.75 24.3633V18.0359C23.75 11.0032 23.7412 10.8451 23.2758 9.49168C22.8091 8.13451 22.1567 7.08938 21.1301 6.05448C19.9811 4.89602 18.6416 4.09151 17.1466 3.66184C16.8403 3.57378 16.7402 3.5711 16.556 3.64604ZM23.7051 29.3116C24.1056 29.4261 24.7097 30.0107 24.828 30.3983C24.8768 30.5581 24.9167 30.8676 24.9167 31.0863V31.4839H15H5.08333V31.0863C5.08333 30.8676 5.12322 30.5581 5.172 30.3983C5.28174 30.0388 5.89212 29.4272 6.25 29.318C6.63405 29.2009 23.2964 29.1947 23.7051 29.3116ZM26.4502 32.8074C26.6319 32.895 26.8966 33.0594 27.0386 33.1726C27.361 33.4298 27.7312 34.0938 27.7987 34.5358L27.8499 34.871H15H2.15011L2.20159 34.5388C2.33992 33.646 3.04983 32.8918 3.95312 32.678C4.07344 32.6495 9.11016 32.6312 15.1458 32.6372L26.1198 32.6482L26.4502 32.8074Z" stroke="#FF8655" stroke-width="0.6" mask="url(#path-1-outside-1_1267_7893)"/>
</svg>
