<svg width="37" height="37" viewBox="0 0 37 37" fill="none" xmlns="http://www.w3.org/2000/svg">
<mask id="path-1-outside-1_1267_7896" maskUnits="userSpaceOnUse" x="0" y="0" width="37" height="37" fill="black">
<rect fill="white" width="37" height="37"/>
<path fill-rule="evenodd" clip-rule="evenodd" d="M15.1644 1.01621C11.4073 1.3529 8.27837 2.73456 5.72238 5.18579C3.60154 7.21966 2.14408 9.72244 1.43894 12.5414C-0.0213339 18.3789 2.24001 24.7212 7.06077 28.309C9.17996 29.8861 11.4811 30.8322 14.1333 31.2168C15.0975 31.3565 17.1126 31.373 18.0403 31.2487C20.3402 30.9406 22.6162 30.1098 24.4643 28.9039L24.6914 28.7557L28.1276 32.1771C32.1362 36.1683 31.9124 35.999 33.1766 35.999C33.8741 35.999 33.9173 35.99 34.4209 35.7411C34.9758 35.4668 35.4631 35.0038 35.7135 34.5132C36.0778 33.7989 36.1324 32.8742 35.8535 32.1402C35.5586 31.364 35.4085 31.2331 31.5685 28.4028L27.9639 25.746L28.1359 25.5315C28.8736 24.612 29.801 22.9818 30.2938 21.7387C31.0165 19.9155 31.3268 18.2389 31.3268 16.1573C31.3268 13.6615 30.8177 11.5133 29.7064 9.31968C27.4577 4.88128 23.2884 1.88535 18.3339 1.14789C17.6314 1.04326 15.7392 0.964722 15.1644 1.01621ZM17.5023 2.21019C20.8762 2.55044 23.9986 4.06384 26.3055 6.47686C31.5736 11.9874 31.4765 20.681 26.0865 26.0709C22.0082 30.1493 15.9062 31.3126 10.6104 29.0211C5.93136 26.9964 2.75295 22.6235 2.22693 17.4867C1.5902 11.2682 5.38282 5.22728 11.2956 3.04208C13.3632 2.27798 15.4289 2.00114 17.5023 2.21019ZM15.9176 3.39136C15.7012 3.50085 15.5582 3.79324 15.6135 4.01338C15.7009 4.36157 15.8531 4.41895 16.9334 4.51105C18.1127 4.6115 19.0226 4.79569 19.9855 5.12895C23.9009 6.48405 26.7951 9.79749 27.6309 13.8819C27.8141 14.7774 27.8827 16.659 27.7661 17.5908C27.209 22.0405 24.1124 25.829 19.889 27.2281C18.4788 27.6952 17.9187 27.7777 16.1572 27.7777C14.4263 27.7777 13.9363 27.7076 12.5624 27.2627C7.18149 25.521 3.78259 20.0388 4.62283 14.4569C5.26497 10.1909 8.24605 6.57094 12.2885 5.14847C12.9929 4.90059 13.1896 4.65251 13.0144 4.23311C12.861 3.86616 12.5937 3.81398 11.9555 4.02639C11.2577 4.25865 10.0681 4.83431 9.30985 5.30657C7.72934 6.29102 6.1967 7.84941 5.20903 9.47621C2.94344 13.208 2.71399 17.7371 4.58934 21.7071C6.81638 26.4215 11.8299 29.3513 17.034 28.9792C18.0833 28.9043 18.5121 28.8331 19.5312 28.5647C23.8989 27.4145 27.4302 23.8832 28.5803 19.5156C28.8482 18.4984 28.9201 18.0665 28.9932 17.0354C29.4834 10.1183 24.332 4.05124 17.395 3.37561C16.4309 3.28174 16.128 3.28495 15.9176 3.39136ZM10.2685 8.67021C9.60539 8.88186 9.09183 9.32584 8.80664 9.9341L8.62512 10.3213V16.1758V22.0303L8.77432 22.3533C8.99686 22.835 9.48302 23.3161 9.97857 23.545L10.4054 23.7422H16.1915H21.9775L22.3623 23.5617C22.9036 23.3079 23.2749 22.9457 23.5346 22.4182L23.7578 21.9649L23.7768 16.3577C23.7975 10.2809 23.7973 10.2756 23.4269 9.68903C23.2039 9.33564 22.7434 8.93198 22.3625 8.7558C22.0479 8.61036 22.0108 8.6094 16.2942 8.59619C11.7881 8.58571 10.4831 8.6018 10.2685 8.67021ZM21.8532 9.81235C22.1273 9.91616 22.3523 10.1414 22.4986 10.4583C22.6066 10.6924 22.6252 10.9135 22.6265 11.9818L22.628 13.2314H16.1915H9.75493V11.9691C9.75493 10.6265 9.78794 10.4418 10.0846 10.1247C10.4537 9.73004 10.2174 9.7449 16.1699 9.74196C19.899 9.74018 21.7223 9.76271 21.8532 9.81235ZM11.1191 11.1035C10.9055 11.3171 10.8702 11.5055 10.9986 11.7467C11.1367 12.0058 11.2783 12.0629 11.7882 12.0652C12.2096 12.0671 12.3081 12.0439 12.4695 11.9051C12.6132 11.7814 12.6582 11.6814 12.6582 11.4854C12.6582 11.2893 12.6132 11.1893 12.4695 11.0656C12.3098 10.9282 12.2071 10.9033 11.8 10.9033C11.36 10.9033 11.3024 10.9203 11.1191 11.1035ZM14.1715 10.9824C13.8174 11.1761 13.75 11.6179 14.0315 11.8993C14.1803 12.0482 14.2587 12.0674 14.7193 12.0674C15.1798 12.0674 15.2582 12.0482 15.4071 11.8993C15.6842 11.6222 15.629 11.1755 15.2964 11.0035C15.0706 10.8868 14.3704 10.8736 14.1715 10.9824ZM22.6276 17.939C22.6274 20.3 22.6022 21.5729 22.5521 21.7532C22.456 22.0993 22.115 22.4403 21.7689 22.5364C21.5828 22.5881 19.818 22.6113 16.123 22.6104C11.0431 22.6094 10.7327 22.6024 10.4739 22.4829C10.157 22.3367 9.9318 22.1117 9.828 21.8376C9.77958 21.7099 9.75493 20.4214 9.75493 18.0202V14.3955H16.1915H22.628L22.6276 17.939ZM11.8839 15.6342C11.5383 15.7724 11.5398 15.76 11.5374 18.5091L11.5353 21.082L11.712 21.2481L11.8886 21.4141H16.2029H20.5172L20.6825 21.2219C20.8983 20.9709 20.8973 20.67 20.6796 20.4523C20.5382 20.3109 20.4458 20.2842 20.0975 20.2842H19.6836V19.0472C19.6836 17.7994 19.6521 17.6092 19.4157 17.4277C19.1808 17.2473 18.7245 17.3759 18.5956 17.6588C18.5489 17.7613 18.5196 18.2999 18.5196 19.0549V20.2842H17.9375H17.3555V18.4652C17.3555 16.6173 17.3357 16.4541 17.0876 16.2636C16.9004 16.1199 16.5442 16.1592 16.3596 16.3439L16.1915 16.512V18.3981V20.2842H15.6094H15.0274V19.3564C15.0274 18.3223 14.9593 18.0825 14.6357 17.978C14.3778 17.8946 14.1767 17.9361 14.0245 18.1038C13.917 18.2225 13.8924 18.3967 13.8634 19.2469L13.8291 20.25L13.2642 20.2699L12.6993 20.2898V18.1952C12.6993 15.9223 12.682 15.8042 12.3246 15.6414C12.1167 15.5467 12.1033 15.5464 11.8839 15.6342ZM30.8116 29.2987C33.095 30.9822 34.4628 32.0349 34.5708 32.1918C35.1403 33.0185 34.8772 34.1218 33.9911 34.6224C33.5201 34.8885 32.8957 34.9111 32.4191 34.6793C32.1993 34.5723 31.1884 33.606 28.8737 31.29L25.6358 28.0504L26.2032 27.5624C26.5153 27.294 26.8612 26.9794 26.9718 26.8633C27.0823 26.7473 27.184 26.6523 27.1976 26.6523C27.2112 26.6523 28.8375 27.8432 30.8116 29.2987Z"/>
</mask>
<path fill-rule="evenodd" clip-rule="evenodd" d="M15.1644 1.01621C11.4073 1.3529 8.27837 2.73456 5.72238 5.18579C3.60154 7.21966 2.14408 9.72244 1.43894 12.5414C-0.0213339 18.3789 2.24001 24.7212 7.06077 28.309C9.17996 29.8861 11.4811 30.8322 14.1333 31.2168C15.0975 31.3565 17.1126 31.373 18.0403 31.2487C20.3402 30.9406 22.6162 30.1098 24.4643 28.9039L24.6914 28.7557L28.1276 32.1771C32.1362 36.1683 31.9124 35.999 33.1766 35.999C33.8741 35.999 33.9173 35.99 34.4209 35.7411C34.9758 35.4668 35.4631 35.0038 35.7135 34.5132C36.0778 33.7989 36.1324 32.8742 35.8535 32.1402C35.5586 31.364 35.4085 31.2331 31.5685 28.4028L27.9639 25.746L28.1359 25.5315C28.8736 24.612 29.801 22.9818 30.2938 21.7387C31.0165 19.9155 31.3268 18.2389 31.3268 16.1573C31.3268 13.6615 30.8177 11.5133 29.7064 9.31968C27.4577 4.88128 23.2884 1.88535 18.3339 1.14789C17.6314 1.04326 15.7392 0.964722 15.1644 1.01621ZM17.5023 2.21019C20.8762 2.55044 23.9986 4.06384 26.3055 6.47686C31.5736 11.9874 31.4765 20.681 26.0865 26.0709C22.0082 30.1493 15.9062 31.3126 10.6104 29.0211C5.93136 26.9964 2.75295 22.6235 2.22693 17.4867C1.5902 11.2682 5.38282 5.22728 11.2956 3.04208C13.3632 2.27798 15.4289 2.00114 17.5023 2.21019ZM15.9176 3.39136C15.7012 3.50085 15.5582 3.79324 15.6135 4.01338C15.7009 4.36157 15.8531 4.41895 16.9334 4.51105C18.1127 4.6115 19.0226 4.79569 19.9855 5.12895C23.9009 6.48405 26.7951 9.79749 27.6309 13.8819C27.8141 14.7774 27.8827 16.659 27.7661 17.5908C27.209 22.0405 24.1124 25.829 19.889 27.2281C18.4788 27.6952 17.9187 27.7777 16.1572 27.7777C14.4263 27.7777 13.9363 27.7076 12.5624 27.2627C7.18149 25.521 3.78259 20.0388 4.62283 14.4569C5.26497 10.1909 8.24605 6.57094 12.2885 5.14847C12.9929 4.90059 13.1896 4.65251 13.0144 4.23311C12.861 3.86616 12.5937 3.81398 11.9555 4.02639C11.2577 4.25865 10.0681 4.83431 9.30985 5.30657C7.72934 6.29102 6.1967 7.84941 5.20903 9.47621C2.94344 13.208 2.71399 17.7371 4.58934 21.7071C6.81638 26.4215 11.8299 29.3513 17.034 28.9792C18.0833 28.9043 18.5121 28.8331 19.5312 28.5647C23.8989 27.4145 27.4302 23.8832 28.5803 19.5156C28.8482 18.4984 28.9201 18.0665 28.9932 17.0354C29.4834 10.1183 24.332 4.05124 17.395 3.37561C16.4309 3.28174 16.128 3.28495 15.9176 3.39136ZM10.2685 8.67021C9.60539 8.88186 9.09183 9.32584 8.80664 9.9341L8.62512 10.3213V16.1758V22.0303L8.77432 22.3533C8.99686 22.835 9.48302 23.3161 9.97857 23.545L10.4054 23.7422H16.1915H21.9775L22.3623 23.5617C22.9036 23.3079 23.2749 22.9457 23.5346 22.4182L23.7578 21.9649L23.7768 16.3577C23.7975 10.2809 23.7973 10.2756 23.4269 9.68903C23.2039 9.33564 22.7434 8.93198 22.3625 8.7558C22.0479 8.61036 22.0108 8.6094 16.2942 8.59619C11.7881 8.58571 10.4831 8.6018 10.2685 8.67021ZM21.8532 9.81235C22.1273 9.91616 22.3523 10.1414 22.4986 10.4583C22.6066 10.6924 22.6252 10.9135 22.6265 11.9818L22.628 13.2314H16.1915H9.75493V11.9691C9.75493 10.6265 9.78794 10.4418 10.0846 10.1247C10.4537 9.73004 10.2174 9.7449 16.1699 9.74196C19.899 9.74018 21.7223 9.76271 21.8532 9.81235ZM11.1191 11.1035C10.9055 11.3171 10.8702 11.5055 10.9986 11.7467C11.1367 12.0058 11.2783 12.0629 11.7882 12.0652C12.2096 12.0671 12.3081 12.0439 12.4695 11.9051C12.6132 11.7814 12.6582 11.6814 12.6582 11.4854C12.6582 11.2893 12.6132 11.1893 12.4695 11.0656C12.3098 10.9282 12.2071 10.9033 11.8 10.9033C11.36 10.9033 11.3024 10.9203 11.1191 11.1035ZM14.1715 10.9824C13.8174 11.1761 13.75 11.6179 14.0315 11.8993C14.1803 12.0482 14.2587 12.0674 14.7193 12.0674C15.1798 12.0674 15.2582 12.0482 15.4071 11.8993C15.6842 11.6222 15.629 11.1755 15.2964 11.0035C15.0706 10.8868 14.3704 10.8736 14.1715 10.9824ZM22.6276 17.939C22.6274 20.3 22.6022 21.5729 22.5521 21.7532C22.456 22.0993 22.115 22.4403 21.7689 22.5364C21.5828 22.5881 19.818 22.6113 16.123 22.6104C11.0431 22.6094 10.7327 22.6024 10.4739 22.4829C10.157 22.3367 9.9318 22.1117 9.828 21.8376C9.77958 21.7099 9.75493 20.4214 9.75493 18.0202V14.3955H16.1915H22.628L22.6276 17.939ZM11.8839 15.6342C11.5383 15.7724 11.5398 15.76 11.5374 18.5091L11.5353 21.082L11.712 21.2481L11.8886 21.4141H16.2029H20.5172L20.6825 21.2219C20.8983 20.9709 20.8973 20.67 20.6796 20.4523C20.5382 20.3109 20.4458 20.2842 20.0975 20.2842H19.6836V19.0472C19.6836 17.7994 19.6521 17.6092 19.4157 17.4277C19.1808 17.2473 18.7245 17.3759 18.5956 17.6588C18.5489 17.7613 18.5196 18.2999 18.5196 19.0549V20.2842H17.9375H17.3555V18.4652C17.3555 16.6173 17.3357 16.4541 17.0876 16.2636C16.9004 16.1199 16.5442 16.1592 16.3596 16.3439L16.1915 16.512V18.3981V20.2842H15.6094H15.0274V19.3564C15.0274 18.3223 14.9593 18.0825 14.6357 17.978C14.3778 17.8946 14.1767 17.9361 14.0245 18.1038C13.917 18.2225 13.8924 18.3967 13.8634 19.2469L13.8291 20.25L13.2642 20.2699L12.6993 20.2898V18.1952C12.6993 15.9223 12.682 15.8042 12.3246 15.6414C12.1167 15.5467 12.1033 15.5464 11.8839 15.6342ZM30.8116 29.2987C33.095 30.9822 34.4628 32.0349 34.5708 32.1918C35.1403 33.0185 34.8772 34.1218 33.9911 34.6224C33.5201 34.8885 32.8957 34.9111 32.4191 34.6793C32.1993 34.5723 31.1884 33.606 28.8737 31.29L25.6358 28.0504L26.2032 27.5624C26.5153 27.294 26.8612 26.9794 26.9718 26.8633C27.0823 26.7473 27.184 26.6523 27.1976 26.6523C27.2112 26.6523 28.8375 27.8432 30.8116 29.2987Z" fill="#FF8655"/>
<path fill-rule="evenodd" clip-rule="evenodd" d="M15.1644 1.01621C11.4073 1.3529 8.27837 2.73456 5.72238 5.18579C3.60154 7.21966 2.14408 9.72244 1.43894 12.5414C-0.0213339 18.3789 2.24001 24.7212 7.06077 28.309C9.17996 29.8861 11.4811 30.8322 14.1333 31.2168C15.0975 31.3565 17.1126 31.373 18.0403 31.2487C20.3402 30.9406 22.6162 30.1098 24.4643 28.9039L24.6914 28.7557L28.1276 32.1771C32.1362 36.1683 31.9124 35.999 33.1766 35.999C33.8741 35.999 33.9173 35.99 34.4209 35.7411C34.9758 35.4668 35.4631 35.0038 35.7135 34.5132C36.0778 33.7989 36.1324 32.8742 35.8535 32.1402C35.5586 31.364 35.4085 31.2331 31.5685 28.4028L27.9639 25.746L28.1359 25.5315C28.8736 24.612 29.801 22.9818 30.2938 21.7387C31.0165 19.9155 31.3268 18.2389 31.3268 16.1573C31.3268 13.6615 30.8177 11.5133 29.7064 9.31968C27.4577 4.88128 23.2884 1.88535 18.3339 1.14789C17.6314 1.04326 15.7392 0.964722 15.1644 1.01621ZM17.5023 2.21019C20.8762 2.55044 23.9986 4.06384 26.3055 6.47686C31.5736 11.9874 31.4765 20.681 26.0865 26.0709C22.0082 30.1493 15.9062 31.3126 10.6104 29.0211C5.93136 26.9964 2.75295 22.6235 2.22693 17.4867C1.5902 11.2682 5.38282 5.22728 11.2956 3.04208C13.3632 2.27798 15.4289 2.00114 17.5023 2.21019ZM15.9176 3.39136C15.7012 3.50085 15.5582 3.79324 15.6135 4.01338C15.7009 4.36157 15.8531 4.41895 16.9334 4.51105C18.1127 4.6115 19.0226 4.79569 19.9855 5.12895C23.9009 6.48405 26.7951 9.79749 27.6309 13.8819C27.8141 14.7774 27.8827 16.659 27.7661 17.5908C27.209 22.0405 24.1124 25.829 19.889 27.2281C18.4788 27.6952 17.9187 27.7777 16.1572 27.7777C14.4263 27.7777 13.9363 27.7076 12.5624 27.2627C7.18149 25.521 3.78259 20.0388 4.62283 14.4569C5.26497 10.1909 8.24605 6.57094 12.2885 5.14847C12.9929 4.90059 13.1896 4.65251 13.0144 4.23311C12.861 3.86616 12.5937 3.81398 11.9555 4.02639C11.2577 4.25865 10.0681 4.83431 9.30985 5.30657C7.72934 6.29102 6.1967 7.84941 5.20903 9.47621C2.94344 13.208 2.71399 17.7371 4.58934 21.7071C6.81638 26.4215 11.8299 29.3513 17.034 28.9792C18.0833 28.9043 18.5121 28.8331 19.5312 28.5647C23.8989 27.4145 27.4302 23.8832 28.5803 19.5156C28.8482 18.4984 28.9201 18.0665 28.9932 17.0354C29.4834 10.1183 24.332 4.05124 17.395 3.37561C16.4309 3.28174 16.128 3.28495 15.9176 3.39136ZM10.2685 8.67021C9.60539 8.88186 9.09183 9.32584 8.80664 9.9341L8.62512 10.3213V16.1758V22.0303L8.77432 22.3533C8.99686 22.835 9.48302 23.3161 9.97857 23.545L10.4054 23.7422H16.1915H21.9775L22.3623 23.5617C22.9036 23.3079 23.2749 22.9457 23.5346 22.4182L23.7578 21.9649L23.7768 16.3577C23.7975 10.2809 23.7973 10.2756 23.4269 9.68903C23.2039 9.33564 22.7434 8.93198 22.3625 8.7558C22.0479 8.61036 22.0108 8.6094 16.2942 8.59619C11.7881 8.58571 10.4831 8.6018 10.2685 8.67021ZM21.8532 9.81235C22.1273 9.91616 22.3523 10.1414 22.4986 10.4583C22.6066 10.6924 22.6252 10.9135 22.6265 11.9818L22.628 13.2314H16.1915H9.75493V11.9691C9.75493 10.6265 9.78794 10.4418 10.0846 10.1247C10.4537 9.73004 10.2174 9.7449 16.1699 9.74196C19.899 9.74018 21.7223 9.76271 21.8532 9.81235ZM11.1191 11.1035C10.9055 11.3171 10.8702 11.5055 10.9986 11.7467C11.1367 12.0058 11.2783 12.0629 11.7882 12.0652C12.2096 12.0671 12.3081 12.0439 12.4695 11.9051C12.6132 11.7814 12.6582 11.6814 12.6582 11.4854C12.6582 11.2893 12.6132 11.1893 12.4695 11.0656C12.3098 10.9282 12.2071 10.9033 11.8 10.9033C11.36 10.9033 11.3024 10.9203 11.1191 11.1035ZM14.1715 10.9824C13.8174 11.1761 13.75 11.6179 14.0315 11.8993C14.1803 12.0482 14.2587 12.0674 14.7193 12.0674C15.1798 12.0674 15.2582 12.0482 15.4071 11.8993C15.6842 11.6222 15.629 11.1755 15.2964 11.0035C15.0706 10.8868 14.3704 10.8736 14.1715 10.9824ZM22.6276 17.939C22.6274 20.3 22.6022 21.5729 22.5521 21.7532C22.456 22.0993 22.115 22.4403 21.7689 22.5364C21.5828 22.5881 19.818 22.6113 16.123 22.6104C11.0431 22.6094 10.7327 22.6024 10.4739 22.4829C10.157 22.3367 9.9318 22.1117 9.828 21.8376C9.77958 21.7099 9.75493 20.4214 9.75493 18.0202V14.3955H16.1915H22.628L22.6276 17.939ZM11.8839 15.6342C11.5383 15.7724 11.5398 15.76 11.5374 18.5091L11.5353 21.082L11.712 21.2481L11.8886 21.4141H16.2029H20.5172L20.6825 21.2219C20.8983 20.9709 20.8973 20.67 20.6796 20.4523C20.5382 20.3109 20.4458 20.2842 20.0975 20.2842H19.6836V19.0472C19.6836 17.7994 19.6521 17.6092 19.4157 17.4277C19.1808 17.2473 18.7245 17.3759 18.5956 17.6588C18.5489 17.7613 18.5196 18.2999 18.5196 19.0549V20.2842H17.9375H17.3555V18.4652C17.3555 16.6173 17.3357 16.4541 17.0876 16.2636C16.9004 16.1199 16.5442 16.1592 16.3596 16.3439L16.1915 16.512V18.3981V20.2842H15.6094H15.0274V19.3564C15.0274 18.3223 14.9593 18.0825 14.6357 17.978C14.3778 17.8946 14.1767 17.9361 14.0245 18.1038C13.917 18.2225 13.8924 18.3967 13.8634 19.2469L13.8291 20.25L13.2642 20.2699L12.6993 20.2898V18.1952C12.6993 15.9223 12.682 15.8042 12.3246 15.6414C12.1167 15.5467 12.1033 15.5464 11.8839 15.6342ZM30.8116 29.2987C33.095 30.9822 34.4628 32.0349 34.5708 32.1918C35.1403 33.0185 34.8772 34.1218 33.9911 34.6224C33.5201 34.8885 32.8957 34.9111 32.4191 34.6793C32.1993 34.5723 31.1884 33.606 28.8737 31.29L25.6358 28.0504L26.2032 27.5624C26.5153 27.294 26.8612 26.9794 26.9718 26.8633C27.0823 26.7473 27.184 26.6523 27.1976 26.6523C27.2112 26.6523 28.8375 27.8432 30.8116 29.2987Z" stroke="#FF8655" stroke-width="0.6" mask="url(#path-1-outside-1_1267_7896)"/>
</svg>
