<svg width="37" height="37" viewBox="0 0 37 37" fill="none" xmlns="http://www.w3.org/2000/svg">
<mask id="path-1-outside-1_1267_7902" maskUnits="userSpaceOnUse" x="0" y="0" width="37" height="37" fill="black">
<rect fill="white" width="37" height="37"/>
<path fill-rule="evenodd" clip-rule="evenodd" d="M9.10012 1.07699C8.43795 1.28765 7.92398 1.73197 7.63883 2.34032L7.45738 2.72748L7.4391 10.3045L7.42082 17.8815L4.87232 17.9038L2.32381 17.926L1.94981 18.1314C1.5266 18.3638 1.16465 18.7945 1.05719 19.1937C1.00914 19.3724 0.991204 20.759 1.004 23.3157C1.02303 27.1083 1.02563 27.1727 1.1704 27.4431C1.37561 27.8263 1.65001 28.0852 2.05002 28.273C2.38959 28.4324 2.41211 28.4336 4.90497 28.4343L7.41761 28.435L7.43753 31.3617L7.45738 34.2885L7.63883 34.6756C7.86443 35.1568 8.29976 35.5896 8.7921 35.8222L9.16856 36H18.5117H27.8547L28.2418 35.8185C28.7229 35.5929 29.1557 35.1574 29.3882 34.665L29.5659 34.2885L29.5843 27.2927L29.6027 20.2969L32.1511 20.2752C34.922 20.2517 34.9215 20.2518 35.4025 19.8461C35.5255 19.7423 35.7103 19.5143 35.8131 19.3394L36 19.0214V14.4345V9.84752L35.8487 9.5645C35.656 9.20425 35.3623 8.91041 35.0294 8.74508C34.789 8.62561 34.5608 8.61363 32.1868 8.59576L29.6057 8.57625L29.5858 5.6519L29.5659 2.72748L29.3847 2.3408C29.1539 1.84842 28.7336 1.42807 28.2413 1.19721L27.8547 1.01593L18.6143 1.00292C11.2956 0.992581 9.31696 1.00798 9.10012 1.07699ZM12.0888 3.25806C12.1111 4.33832 12.1176 4.38097 12.3111 4.73026C12.528 5.12193 12.8507 5.40585 13.235 5.54325C13.5929 5.6712 23.4304 5.6712 23.7883 5.54325C24.1726 5.40585 24.4953 5.12193 24.7122 4.73026C24.9057 4.38097 24.9122 4.33832 24.9345 3.25806L24.9575 2.14555H26.2201C27.598 2.14555 27.7821 2.18313 28.107 2.53078C28.2082 2.63895 28.3237 2.81422 28.3637 2.9202C28.4107 3.04466 28.4365 4.08117 28.4365 5.8451V8.57728L23.7992 8.59624C19.1757 8.61514 19.1611 8.61569 18.8816 8.76521C18.5546 8.94026 18.2188 9.30195 18.0495 9.66179C17.9394 9.89565 17.9298 10.2742 17.9298 14.4002C17.9298 18.8034 17.9325 18.8901 18.0728 19.1933C18.4199 19.9433 18.949 20.23 20.0688 20.2746L20.8389 20.3052L20.8393 21.101C20.8397 22.0616 20.9076 22.3343 21.237 22.6995C21.5415 23.037 21.8214 23.1639 22.257 23.1619C22.8095 23.1593 23.05 22.9862 24.4317 21.5959L25.7315 20.288H27.084H28.4365V27.0955C28.4365 31.7389 28.4134 33.9643 28.3637 34.0957C28.2647 34.358 27.9693 34.6621 27.7029 34.7761C27.3748 34.9165 9.64852 34.9165 9.32038 34.7761C9.05398 34.6621 8.75863 34.358 8.65959 34.0957C8.61277 33.9718 8.58676 32.9706 8.58676 31.2927V28.6824L9.87015 29.9525C11.0713 31.1412 11.1763 31.2279 11.5092 31.3066C12.1866 31.4668 12.8662 31.1187 13.135 30.4739C13.2125 30.2882 13.2412 29.9781 13.2412 29.3271V28.435L14.0112 28.4334C14.6368 28.4322 14.839 28.4059 15.0893 28.2926C15.4664 28.1221 15.8055 27.8062 16.0022 27.4423C16.1482 27.1722 16.1505 27.1158 16.1695 23.3425C16.1911 19.082 16.1883 19.0509 15.745 18.533C15.6098 18.3749 15.3485 18.1824 15.1436 18.0898L14.7813 17.926L11.684 17.9051L8.58676 17.8841V10.4985C8.58676 5.44672 8.60976 3.05205 8.65959 2.9202C8.75576 2.66559 9.05035 2.35648 9.30546 2.24256C9.45242 2.17697 9.87392 2.15014 10.7883 2.14822L12.0658 2.14555L12.0888 3.25806ZM23.7821 3.09875C23.7821 4.02435 23.777 4.0581 23.6049 4.2626L23.4277 4.47326H18.5117H13.5956L13.4184 4.2626C13.2463 4.0581 13.2412 4.02435 13.2412 3.09875V2.14555H18.5117H23.7821V3.09875ZM9.95044 3.50952C9.76727 3.69272 9.75037 3.7503 9.75037 4.1903C9.75037 4.59731 9.77521 4.69993 9.91259 4.85966C10.0362 5.00336 10.1362 5.04834 10.3322 5.04834C10.5281 5.04834 10.6281 5.00336 10.7518 4.85966C10.8891 4.69993 10.914 4.59731 10.914 4.1903C10.914 3.7503 10.8971 3.69272 10.7139 3.50952C10.5933 3.38889 10.4417 3.3094 10.3322 3.3094C10.2227 3.3094 10.071 3.38889 9.95044 3.50952ZM26.3094 3.50952C26.1262 3.69272 26.1093 3.7503 26.1093 4.1903C26.1093 4.59731 26.1342 4.69993 26.2716 4.85966C26.3952 5.00336 26.4952 5.04834 26.6911 5.04834C26.8871 5.04834 26.9871 5.00336 27.1107 4.85966C27.2481 4.69993 27.2729 4.59731 27.2729 4.1903C27.2729 3.7503 27.256 3.69272 27.0729 3.50952C26.9523 3.38889 26.8007 3.3094 26.6911 3.3094C26.5816 3.3094 26.43 3.38889 26.3094 3.50952ZM34.6705 9.94494L34.8706 10.1451V14.4324V18.7196L34.7072 18.8831C34.6172 18.973 34.4402 19.0653 34.3136 19.0881C34.187 19.111 30.7979 19.1208 26.7822 19.1098L19.4809 19.0899L19.3043 18.9239L19.1277 18.7579V14.4194V10.0809L19.2957 9.9129L19.4637 9.74483H26.967H34.4705L34.6705 9.94494ZM31.4049 11.0023C30.8527 11.1831 30.3531 11.7049 30.3531 12.1008C30.3531 12.3706 30.6338 12.6202 30.937 12.6202C31.1215 12.6202 31.2378 12.5674 31.3912 12.414C31.7768 12.0283 32.0183 11.9785 32.3001 12.2266C32.3964 12.3113 32.494 12.4795 32.5173 12.6004C32.5525 12.7841 32.5253 12.8542 32.3513 13.0283C32.2369 13.1427 32.0773 13.2364 31.9966 13.2364C31.8187 13.2364 31.5806 13.357 31.4675 13.5043C31.4191 13.5675 31.3842 13.8278 31.3842 14.1264C31.3842 14.425 31.4191 14.6853 31.4675 14.7485C31.7844 15.1613 32.3469 15.042 32.5174 14.5259C32.5507 14.4248 32.7272 14.2406 32.9127 14.1133C33.1297 13.9643 33.3227 13.751 33.4603 13.5084C33.6429 13.1864 33.6725 13.0663 33.671 12.6545C33.669 12.1229 33.5605 11.8477 33.2031 11.4675C32.7609 10.9971 32.0122 10.8034 31.4049 11.0023ZM20.4401 11.6833C20.228 11.9091 20.2406 12.2749 20.4679 12.4885L20.6445 12.6545L24.5565 12.6732C27.4743 12.6873 28.5189 12.6712 28.6663 12.6101C28.8862 12.519 29.0771 12.1533 29.0075 11.9566C28.9834 11.8886 28.9014 11.7636 28.8251 11.6789L28.6864 11.5248H24.6377H20.589L20.4401 11.6833ZM20.4593 14.0206C20.294 14.186 20.2424 14.4671 20.3338 14.7052C20.4505 15.0094 20.5469 15.0164 24.6298 15.0164C27.0252 15.0164 28.5641 14.9905 28.6749 14.9484C28.8773 14.8715 29.0753 14.476 29.0075 14.2843C28.9834 14.2163 28.9014 14.0913 28.8251 14.0066L28.6864 13.8525H24.6569H20.6273L20.4593 14.0206ZM31.5478 16.2114C31.3796 16.3796 31.3204 16.7673 31.4223 17.0329C31.4732 17.1656 31.798 17.3441 31.9886 17.3441C32.2238 17.3441 32.4799 17.0624 32.5206 16.7588C32.5991 16.1729 31.9509 15.8082 31.5478 16.2114ZM20.4593 16.3483C20.2524 16.5553 20.2356 16.9178 20.4222 17.1482L20.553 17.3099H23.4741H26.3952L26.526 17.1482C26.7126 16.9178 26.6958 16.5553 26.4889 16.3483L26.3209 16.1803H23.4741H20.6273L20.4593 16.3483ZM14.7097 19.1666C15.0122 19.2827 15.0208 19.3958 15.0208 23.2337V26.8709L14.8208 27.071L14.6207 27.2711H8.58676H2.55283L2.35276 27.071L2.15269 26.8709V23.1655V19.4602L2.32073 19.2922L2.4887 19.1241H8.54384C11.8742 19.1241 14.6488 19.1433 14.7097 19.1666ZM7.69694 20.4124C5.25288 21.2231 4.98211 24.6016 7.26866 25.756C8.74138 26.4996 10.5046 25.899 11.2077 24.4145C11.4135 23.9799 11.4273 23.9032 11.4273 23.1976C11.4273 22.4931 11.4132 22.4148 11.2093 21.9843C10.9074 21.3467 10.4591 20.889 9.83428 20.5801C9.37623 20.3537 9.25994 20.3258 8.69867 20.3077C8.23364 20.2928 7.97696 20.3196 7.69694 20.4124ZM23.2345 21.1437C22.0917 22.2895 22.0025 22.2836 22.0025 21.0616V20.288H23.0453H24.0881L23.2345 21.1437ZM9.14755 21.5323C9.50279 21.6388 9.97714 22.0646 10.1589 22.44C10.323 22.7791 10.3581 23.4094 10.2313 23.7413L10.1545 23.9426L8.99252 22.7828L7.83055 21.623L8.02042 21.5405C8.26581 21.4339 8.80593 21.43 9.14755 21.5323ZM8.17683 23.6102C9.39608 24.8324 9.39321 24.8266 8.81161 24.9146C7.65806 25.0891 6.63847 23.9978 6.87776 22.8448C6.91951 22.6435 6.97503 22.4788 7.00097 22.4788C7.02698 22.4788 7.55615 22.9879 8.17683 23.6102ZM12.0776 29.2541C12.0776 30.015 12.0674 30.0787 11.9345 30.1498C11.8054 30.2189 11.7032 30.1387 10.8907 29.3314L9.98993 28.4363L11.0338 28.4356L12.0776 28.435V29.2541ZM14.0253 32.7107C13.7428 32.9932 13.8163 33.4342 14.1778 33.6269C14.3911 33.7405 22.6322 33.7405 22.8455 33.6269C23.207 33.4342 23.2805 32.9932 22.998 32.7107L22.8301 32.5427H18.5117H14.1932L14.0253 32.7107Z"/>
</mask>
<path fill-rule="evenodd" clip-rule="evenodd" d="M9.10012 1.07699C8.43795 1.28765 7.92398 1.73197 7.63883 2.34032L7.45738 2.72748L7.4391 10.3045L7.42082 17.8815L4.87232 17.9038L2.32381 17.926L1.94981 18.1314C1.5266 18.3638 1.16465 18.7945 1.05719 19.1937C1.00914 19.3724 0.991204 20.759 1.004 23.3157C1.02303 27.1083 1.02563 27.1727 1.1704 27.4431C1.37561 27.8263 1.65001 28.0852 2.05002 28.273C2.38959 28.4324 2.41211 28.4336 4.90497 28.4343L7.41761 28.435L7.43753 31.3617L7.45738 34.2885L7.63883 34.6756C7.86443 35.1568 8.29976 35.5896 8.7921 35.8222L9.16856 36H18.5117H27.8547L28.2418 35.8185C28.7229 35.5929 29.1557 35.1574 29.3882 34.665L29.5659 34.2885L29.5843 27.2927L29.6027 20.2969L32.1511 20.2752C34.922 20.2517 34.9215 20.2518 35.4025 19.8461C35.5255 19.7423 35.7103 19.5143 35.8131 19.3394L36 19.0214V14.4345V9.84752L35.8487 9.5645C35.656 9.20425 35.3623 8.91041 35.0294 8.74508C34.789 8.62561 34.5608 8.61363 32.1868 8.59576L29.6057 8.57625L29.5858 5.6519L29.5659 2.72748L29.3847 2.3408C29.1539 1.84842 28.7336 1.42807 28.2413 1.19721L27.8547 1.01593L18.6143 1.00292C11.2956 0.992581 9.31696 1.00798 9.10012 1.07699ZM12.0888 3.25806C12.1111 4.33832 12.1176 4.38097 12.3111 4.73026C12.528 5.12193 12.8507 5.40585 13.235 5.54325C13.5929 5.6712 23.4304 5.6712 23.7883 5.54325C24.1726 5.40585 24.4953 5.12193 24.7122 4.73026C24.9057 4.38097 24.9122 4.33832 24.9345 3.25806L24.9575 2.14555H26.2201C27.598 2.14555 27.7821 2.18313 28.107 2.53078C28.2082 2.63895 28.3237 2.81422 28.3637 2.9202C28.4107 3.04466 28.4365 4.08117 28.4365 5.8451V8.57728L23.7992 8.59624C19.1757 8.61514 19.1611 8.61569 18.8816 8.76521C18.5546 8.94026 18.2188 9.30195 18.0495 9.66179C17.9394 9.89565 17.9298 10.2742 17.9298 14.4002C17.9298 18.8034 17.9325 18.8901 18.0728 19.1933C18.4199 19.9433 18.949 20.23 20.0688 20.2746L20.8389 20.3052L20.8393 21.101C20.8397 22.0616 20.9076 22.3343 21.237 22.6995C21.5415 23.037 21.8214 23.1639 22.257 23.1619C22.8095 23.1593 23.05 22.9862 24.4317 21.5959L25.7315 20.288H27.084H28.4365V27.0955C28.4365 31.7389 28.4134 33.9643 28.3637 34.0957C28.2647 34.358 27.9693 34.6621 27.7029 34.7761C27.3748 34.9165 9.64852 34.9165 9.32038 34.7761C9.05398 34.6621 8.75863 34.358 8.65959 34.0957C8.61277 33.9718 8.58676 32.9706 8.58676 31.2927V28.6824L9.87015 29.9525C11.0713 31.1412 11.1763 31.2279 11.5092 31.3066C12.1866 31.4668 12.8662 31.1187 13.135 30.4739C13.2125 30.2882 13.2412 29.9781 13.2412 29.3271V28.435L14.0112 28.4334C14.6368 28.4322 14.839 28.4059 15.0893 28.2926C15.4664 28.1221 15.8055 27.8062 16.0022 27.4423C16.1482 27.1722 16.1505 27.1158 16.1695 23.3425C16.1911 19.082 16.1883 19.0509 15.745 18.533C15.6098 18.3749 15.3485 18.1824 15.1436 18.0898L14.7813 17.926L11.684 17.9051L8.58676 17.8841V10.4985C8.58676 5.44672 8.60976 3.05205 8.65959 2.9202C8.75576 2.66559 9.05035 2.35648 9.30546 2.24256C9.45242 2.17697 9.87392 2.15014 10.7883 2.14822L12.0658 2.14555L12.0888 3.25806ZM23.7821 3.09875C23.7821 4.02435 23.777 4.0581 23.6049 4.2626L23.4277 4.47326H18.5117H13.5956L13.4184 4.2626C13.2463 4.0581 13.2412 4.02435 13.2412 3.09875V2.14555H18.5117H23.7821V3.09875ZM9.95044 3.50952C9.76727 3.69272 9.75037 3.7503 9.75037 4.1903C9.75037 4.59731 9.77521 4.69993 9.91259 4.85966C10.0362 5.00336 10.1362 5.04834 10.3322 5.04834C10.5281 5.04834 10.6281 5.00336 10.7518 4.85966C10.8891 4.69993 10.914 4.59731 10.914 4.1903C10.914 3.7503 10.8971 3.69272 10.7139 3.50952C10.5933 3.38889 10.4417 3.3094 10.3322 3.3094C10.2227 3.3094 10.071 3.38889 9.95044 3.50952ZM26.3094 3.50952C26.1262 3.69272 26.1093 3.7503 26.1093 4.1903C26.1093 4.59731 26.1342 4.69993 26.2716 4.85966C26.3952 5.00336 26.4952 5.04834 26.6911 5.04834C26.8871 5.04834 26.9871 5.00336 27.1107 4.85966C27.2481 4.69993 27.2729 4.59731 27.2729 4.1903C27.2729 3.7503 27.256 3.69272 27.0729 3.50952C26.9523 3.38889 26.8007 3.3094 26.6911 3.3094C26.5816 3.3094 26.43 3.38889 26.3094 3.50952ZM34.6705 9.94494L34.8706 10.1451V14.4324V18.7196L34.7072 18.8831C34.6172 18.973 34.4402 19.0653 34.3136 19.0881C34.187 19.111 30.7979 19.1208 26.7822 19.1098L19.4809 19.0899L19.3043 18.9239L19.1277 18.7579V14.4194V10.0809L19.2957 9.9129L19.4637 9.74483H26.967H34.4705L34.6705 9.94494ZM31.4049 11.0023C30.8527 11.1831 30.3531 11.7049 30.3531 12.1008C30.3531 12.3706 30.6338 12.6202 30.937 12.6202C31.1215 12.6202 31.2378 12.5674 31.3912 12.414C31.7768 12.0283 32.0183 11.9785 32.3001 12.2266C32.3964 12.3113 32.494 12.4795 32.5173 12.6004C32.5525 12.7841 32.5253 12.8542 32.3513 13.0283C32.2369 13.1427 32.0773 13.2364 31.9966 13.2364C31.8187 13.2364 31.5806 13.357 31.4675 13.5043C31.4191 13.5675 31.3842 13.8278 31.3842 14.1264C31.3842 14.425 31.4191 14.6853 31.4675 14.7485C31.7844 15.1613 32.3469 15.042 32.5174 14.5259C32.5507 14.4248 32.7272 14.2406 32.9127 14.1133C33.1297 13.9643 33.3227 13.751 33.4603 13.5084C33.6429 13.1864 33.6725 13.0663 33.671 12.6545C33.669 12.1229 33.5605 11.8477 33.2031 11.4675C32.7609 10.9971 32.0122 10.8034 31.4049 11.0023ZM20.4401 11.6833C20.228 11.9091 20.2406 12.2749 20.4679 12.4885L20.6445 12.6545L24.5565 12.6732C27.4743 12.6873 28.5189 12.6712 28.6663 12.6101C28.8862 12.519 29.0771 12.1533 29.0075 11.9566C28.9834 11.8886 28.9014 11.7636 28.8251 11.6789L28.6864 11.5248H24.6377H20.589L20.4401 11.6833ZM20.4593 14.0206C20.294 14.186 20.2424 14.4671 20.3338 14.7052C20.4505 15.0094 20.5469 15.0164 24.6298 15.0164C27.0252 15.0164 28.5641 14.9905 28.6749 14.9484C28.8773 14.8715 29.0753 14.476 29.0075 14.2843C28.9834 14.2163 28.9014 14.0913 28.8251 14.0066L28.6864 13.8525H24.6569H20.6273L20.4593 14.0206ZM31.5478 16.2114C31.3796 16.3796 31.3204 16.7673 31.4223 17.0329C31.4732 17.1656 31.798 17.3441 31.9886 17.3441C32.2238 17.3441 32.4799 17.0624 32.5206 16.7588C32.5991 16.1729 31.9509 15.8082 31.5478 16.2114ZM20.4593 16.3483C20.2524 16.5553 20.2356 16.9178 20.4222 17.1482L20.553 17.3099H23.4741H26.3952L26.526 17.1482C26.7126 16.9178 26.6958 16.5553 26.4889 16.3483L26.3209 16.1803H23.4741H20.6273L20.4593 16.3483ZM14.7097 19.1666C15.0122 19.2827 15.0208 19.3958 15.0208 23.2337V26.8709L14.8208 27.071L14.6207 27.2711H8.58676H2.55283L2.35276 27.071L2.15269 26.8709V23.1655V19.4602L2.32073 19.2922L2.4887 19.1241H8.54384C11.8742 19.1241 14.6488 19.1433 14.7097 19.1666ZM7.69694 20.4124C5.25288 21.2231 4.98211 24.6016 7.26866 25.756C8.74138 26.4996 10.5046 25.899 11.2077 24.4145C11.4135 23.9799 11.4273 23.9032 11.4273 23.1976C11.4273 22.4931 11.4132 22.4148 11.2093 21.9843C10.9074 21.3467 10.4591 20.889 9.83428 20.5801C9.37623 20.3537 9.25994 20.3258 8.69867 20.3077C8.23364 20.2928 7.97696 20.3196 7.69694 20.4124ZM23.2345 21.1437C22.0917 22.2895 22.0025 22.2836 22.0025 21.0616V20.288H23.0453H24.0881L23.2345 21.1437ZM9.14755 21.5323C9.50279 21.6388 9.97714 22.0646 10.1589 22.44C10.323 22.7791 10.3581 23.4094 10.2313 23.7413L10.1545 23.9426L8.99252 22.7828L7.83055 21.623L8.02042 21.5405C8.26581 21.4339 8.80593 21.43 9.14755 21.5323ZM8.17683 23.6102C9.39608 24.8324 9.39321 24.8266 8.81161 24.9146C7.65806 25.0891 6.63847 23.9978 6.87776 22.8448C6.91951 22.6435 6.97503 22.4788 7.00097 22.4788C7.02698 22.4788 7.55615 22.9879 8.17683 23.6102ZM12.0776 29.2541C12.0776 30.015 12.0674 30.0787 11.9345 30.1498C11.8054 30.2189 11.7032 30.1387 10.8907 29.3314L9.98993 28.4363L11.0338 28.4356L12.0776 28.435V29.2541ZM14.0253 32.7107C13.7428 32.9932 13.8163 33.4342 14.1778 33.6269C14.3911 33.7405 22.6322 33.7405 22.8455 33.6269C23.207 33.4342 23.2805 32.9932 22.998 32.7107L22.8301 32.5427H18.5117H14.1932L14.0253 32.7107Z" fill="#FF8655"/>
<path fill-rule="evenodd" clip-rule="evenodd" d="M9.10012 1.07699C8.43795 1.28765 7.92398 1.73197 7.63883 2.34032L7.45738 2.72748L7.4391 10.3045L7.42082 17.8815L4.87232 17.9038L2.32381 17.926L1.94981 18.1314C1.5266 18.3638 1.16465 18.7945 1.05719 19.1937C1.00914 19.3724 0.991204 20.759 1.004 23.3157C1.02303 27.1083 1.02563 27.1727 1.1704 27.4431C1.37561 27.8263 1.65001 28.0852 2.05002 28.273C2.38959 28.4324 2.41211 28.4336 4.90497 28.4343L7.41761 28.435L7.43753 31.3617L7.45738 34.2885L7.63883 34.6756C7.86443 35.1568 8.29976 35.5896 8.7921 35.8222L9.16856 36H18.5117H27.8547L28.2418 35.8185C28.7229 35.5929 29.1557 35.1574 29.3882 34.665L29.5659 34.2885L29.5843 27.2927L29.6027 20.2969L32.1511 20.2752C34.922 20.2517 34.9215 20.2518 35.4025 19.8461C35.5255 19.7423 35.7103 19.5143 35.8131 19.3394L36 19.0214V14.4345V9.84752L35.8487 9.5645C35.656 9.20425 35.3623 8.91041 35.0294 8.74508C34.789 8.62561 34.5608 8.61363 32.1868 8.59576L29.6057 8.57625L29.5858 5.6519L29.5659 2.72748L29.3847 2.3408C29.1539 1.84842 28.7336 1.42807 28.2413 1.19721L27.8547 1.01593L18.6143 1.00292C11.2956 0.992581 9.31696 1.00798 9.10012 1.07699ZM12.0888 3.25806C12.1111 4.33832 12.1176 4.38097 12.3111 4.73026C12.528 5.12193 12.8507 5.40585 13.235 5.54325C13.5929 5.6712 23.4304 5.6712 23.7883 5.54325C24.1726 5.40585 24.4953 5.12193 24.7122 4.73026C24.9057 4.38097 24.9122 4.33832 24.9345 3.25806L24.9575 2.14555H26.2201C27.598 2.14555 27.7821 2.18313 28.107 2.53078C28.2082 2.63895 28.3237 2.81422 28.3637 2.9202C28.4107 3.04466 28.4365 4.08117 28.4365 5.8451V8.57728L23.7992 8.59624C19.1757 8.61514 19.1611 8.61569 18.8816 8.76521C18.5546 8.94026 18.2188 9.30195 18.0495 9.66179C17.9394 9.89565 17.9298 10.2742 17.9298 14.4002C17.9298 18.8034 17.9325 18.8901 18.0728 19.1933C18.4199 19.9433 18.949 20.23 20.0688 20.2746L20.8389 20.3052L20.8393 21.101C20.8397 22.0616 20.9076 22.3343 21.237 22.6995C21.5415 23.037 21.8214 23.1639 22.257 23.1619C22.8095 23.1593 23.05 22.9862 24.4317 21.5959L25.7315 20.288H27.084H28.4365V27.0955C28.4365 31.7389 28.4134 33.9643 28.3637 34.0957C28.2647 34.358 27.9693 34.6621 27.7029 34.7761C27.3748 34.9165 9.64852 34.9165 9.32038 34.7761C9.05398 34.6621 8.75863 34.358 8.65959 34.0957C8.61277 33.9718 8.58676 32.9706 8.58676 31.2927V28.6824L9.87015 29.9525C11.0713 31.1412 11.1763 31.2279 11.5092 31.3066C12.1866 31.4668 12.8662 31.1187 13.135 30.4739C13.2125 30.2882 13.2412 29.9781 13.2412 29.3271V28.435L14.0112 28.4334C14.6368 28.4322 14.839 28.4059 15.0893 28.2926C15.4664 28.1221 15.8055 27.8062 16.0022 27.4423C16.1482 27.1722 16.1505 27.1158 16.1695 23.3425C16.1911 19.082 16.1883 19.0509 15.745 18.533C15.6098 18.3749 15.3485 18.1824 15.1436 18.0898L14.7813 17.926L11.684 17.9051L8.58676 17.8841V10.4985C8.58676 5.44672 8.60976 3.05205 8.65959 2.9202C8.75576 2.66559 9.05035 2.35648 9.30546 2.24256C9.45242 2.17697 9.87392 2.15014 10.7883 2.14822L12.0658 2.14555L12.0888 3.25806ZM23.7821 3.09875C23.7821 4.02435 23.777 4.0581 23.6049 4.2626L23.4277 4.47326H18.5117H13.5956L13.4184 4.2626C13.2463 4.0581 13.2412 4.02435 13.2412 3.09875V2.14555H18.5117H23.7821V3.09875ZM9.95044 3.50952C9.76727 3.69272 9.75037 3.7503 9.75037 4.1903C9.75037 4.59731 9.77521 4.69993 9.91259 4.85966C10.0362 5.00336 10.1362 5.04834 10.3322 5.04834C10.5281 5.04834 10.6281 5.00336 10.7518 4.85966C10.8891 4.69993 10.914 4.59731 10.914 4.1903C10.914 3.7503 10.8971 3.69272 10.7139 3.50952C10.5933 3.38889 10.4417 3.3094 10.3322 3.3094C10.2227 3.3094 10.071 3.38889 9.95044 3.50952ZM26.3094 3.50952C26.1262 3.69272 26.1093 3.7503 26.1093 4.1903C26.1093 4.59731 26.1342 4.69993 26.2716 4.85966C26.3952 5.00336 26.4952 5.04834 26.6911 5.04834C26.8871 5.04834 26.9871 5.00336 27.1107 4.85966C27.2481 4.69993 27.2729 4.59731 27.2729 4.1903C27.2729 3.7503 27.256 3.69272 27.0729 3.50952C26.9523 3.38889 26.8007 3.3094 26.6911 3.3094C26.5816 3.3094 26.43 3.38889 26.3094 3.50952ZM34.6705 9.94494L34.8706 10.1451V14.4324V18.7196L34.7072 18.8831C34.6172 18.973 34.4402 19.0653 34.3136 19.0881C34.187 19.111 30.7979 19.1208 26.7822 19.1098L19.4809 19.0899L19.3043 18.9239L19.1277 18.7579V14.4194V10.0809L19.2957 9.9129L19.4637 9.74483H26.967H34.4705L34.6705 9.94494ZM31.4049 11.0023C30.8527 11.1831 30.3531 11.7049 30.3531 12.1008C30.3531 12.3706 30.6338 12.6202 30.937 12.6202C31.1215 12.6202 31.2378 12.5674 31.3912 12.414C31.7768 12.0283 32.0183 11.9785 32.3001 12.2266C32.3964 12.3113 32.494 12.4795 32.5173 12.6004C32.5525 12.7841 32.5253 12.8542 32.3513 13.0283C32.2369 13.1427 32.0773 13.2364 31.9966 13.2364C31.8187 13.2364 31.5806 13.357 31.4675 13.5043C31.4191 13.5675 31.3842 13.8278 31.3842 14.1264C31.3842 14.425 31.4191 14.6853 31.4675 14.7485C31.7844 15.1613 32.3469 15.042 32.5174 14.5259C32.5507 14.4248 32.7272 14.2406 32.9127 14.1133C33.1297 13.9643 33.3227 13.751 33.4603 13.5084C33.6429 13.1864 33.6725 13.0663 33.671 12.6545C33.669 12.1229 33.5605 11.8477 33.2031 11.4675C32.7609 10.9971 32.0122 10.8034 31.4049 11.0023ZM20.4401 11.6833C20.228 11.9091 20.2406 12.2749 20.4679 12.4885L20.6445 12.6545L24.5565 12.6732C27.4743 12.6873 28.5189 12.6712 28.6663 12.6101C28.8862 12.519 29.0771 12.1533 29.0075 11.9566C28.9834 11.8886 28.9014 11.7636 28.8251 11.6789L28.6864 11.5248H24.6377H20.589L20.4401 11.6833ZM20.4593 14.0206C20.294 14.186 20.2424 14.4671 20.3338 14.7052C20.4505 15.0094 20.5469 15.0164 24.6298 15.0164C27.0252 15.0164 28.5641 14.9905 28.6749 14.9484C28.8773 14.8715 29.0753 14.476 29.0075 14.2843C28.9834 14.2163 28.9014 14.0913 28.8251 14.0066L28.6864 13.8525H24.6569H20.6273L20.4593 14.0206ZM31.5478 16.2114C31.3796 16.3796 31.3204 16.7673 31.4223 17.0329C31.4732 17.1656 31.798 17.3441 31.9886 17.3441C32.2238 17.3441 32.4799 17.0624 32.5206 16.7588C32.5991 16.1729 31.9509 15.8082 31.5478 16.2114ZM20.4593 16.3483C20.2524 16.5553 20.2356 16.9178 20.4222 17.1482L20.553 17.3099H23.4741H26.3952L26.526 17.1482C26.7126 16.9178 26.6958 16.5553 26.4889 16.3483L26.3209 16.1803H23.4741H20.6273L20.4593 16.3483ZM14.7097 19.1666C15.0122 19.2827 15.0208 19.3958 15.0208 23.2337V26.8709L14.8208 27.071L14.6207 27.2711H8.58676H2.55283L2.35276 27.071L2.15269 26.8709V23.1655V19.4602L2.32073 19.2922L2.4887 19.1241H8.54384C11.8742 19.1241 14.6488 19.1433 14.7097 19.1666ZM7.69694 20.4124C5.25288 21.2231 4.98211 24.6016 7.26866 25.756C8.74138 26.4996 10.5046 25.899 11.2077 24.4145C11.4135 23.9799 11.4273 23.9032 11.4273 23.1976C11.4273 22.4931 11.4132 22.4148 11.2093 21.9843C10.9074 21.3467 10.4591 20.889 9.83428 20.5801C9.37623 20.3537 9.25994 20.3258 8.69867 20.3077C8.23364 20.2928 7.97696 20.3196 7.69694 20.4124ZM23.2345 21.1437C22.0917 22.2895 22.0025 22.2836 22.0025 21.0616V20.288H23.0453H24.0881L23.2345 21.1437ZM9.14755 21.5323C9.50279 21.6388 9.97714 22.0646 10.1589 22.44C10.323 22.7791 10.3581 23.4094 10.2313 23.7413L10.1545 23.9426L8.99252 22.7828L7.83055 21.623L8.02042 21.5405C8.26581 21.4339 8.80593 21.43 9.14755 21.5323ZM8.17683 23.6102C9.39608 24.8324 9.39321 24.8266 8.81161 24.9146C7.65806 25.0891 6.63847 23.9978 6.87776 22.8448C6.91951 22.6435 6.97503 22.4788 7.00097 22.4788C7.02698 22.4788 7.55615 22.9879 8.17683 23.6102ZM12.0776 29.2541C12.0776 30.015 12.0674 30.0787 11.9345 30.1498C11.8054 30.2189 11.7032 30.1387 10.8907 29.3314L9.98993 28.4363L11.0338 28.4356L12.0776 28.435V29.2541ZM14.0253 32.7107C13.7428 32.9932 13.8163 33.4342 14.1778 33.6269C14.3911 33.7405 22.6322 33.7405 22.8455 33.6269C23.207 33.4342 23.2805 32.9932 22.998 32.7107L22.8301 32.5427H18.5117H14.1932L14.0253 32.7107Z" stroke="#FF8655" stroke-width="0.4" mask="url(#path-1-outside-1_1267_7902)"/>
</svg>
