<svg width="37" height="37" viewBox="0 0 37 37" fill="none" xmlns="http://www.w3.org/2000/svg">
<mask id="path-1-outside-1_1267_7899" maskUnits="userSpaceOnUse" x="0" y="0" width="37" height="37" fill="black">
<rect fill="white" width="37" height="37"/>
<path fill-rule="evenodd" clip-rule="evenodd" d="M3.19639 1.1006C2.18975 1.38068 1.37311 2.20573 1.10472 3.21374C0.965093 3.73828 0.965093 33.2595 1.10472 33.7841C1.38582 34.8398 2.27491 35.6965 3.31934 35.9182C3.83042 36.0266 33.1735 36.0276 33.6916 35.9192C34.7629 35.6951 35.6964 34.7612 35.9248 33.685C36.0341 33.1695 36.0341 3.82835 35.9248 3.31277C35.7031 2.26833 34.8464 1.37924 33.7907 1.09814C33.2933 0.965691 3.67255 0.968083 3.19639 1.1006ZM33.8487 2.34658C34.171 2.52079 34.5007 2.85589 34.6783 3.18981C34.7906 3.40093 34.8081 3.62783 34.827 5.12054L34.8484 6.81206H26.5522H18.256L18.0923 6.63785C17.9397 6.47546 17.9261 6.39734 17.8924 5.49308C17.8587 4.58889 17.8432 4.50045 17.6668 4.20021C17.5625 4.02293 17.3717 3.79739 17.2427 3.69898C16.741 3.31632 16.9575 3.3265 9.3365 3.3265C5.47075 3.3265 2.30792 3.30908 2.30792 3.28782C2.30792 3.19433 2.47782 2.9327 2.67493 2.72268C2.89329 2.48997 3.16352 2.32178 3.46936 2.22821C3.56354 2.19937 10.3759 2.18099 18.608 2.18727L33.5754 2.19882L33.8487 2.34658ZM26.8554 4.09975C26.6974 4.26794 26.6582 4.61151 26.7725 4.82522C26.8839 5.03333 27.2181 5.13468 27.4612 5.03401C27.7102 4.93088 27.8003 4.78121 27.8003 4.47058C27.8003 3.99327 27.183 3.75099 26.8554 4.09975ZM29.2106 4.08328C29.0774 4.18798 29.0305 4.28715 29.0305 4.46361C29.0305 4.78114 29.1191 4.93027 29.3696 5.03401C29.6426 5.14712 29.9537 5.02499 30.0966 4.74868C30.3754 4.20944 29.6975 3.70028 29.2106 4.08328ZM31.522 4.10939C31.0044 4.62689 31.7767 5.41613 32.3197 4.92466C32.5726 4.69585 32.5372 4.25086 32.2486 4.02922C32.0618 3.88576 31.7063 3.92499 31.522 4.10939ZM16.4576 4.5921C16.7002 4.71758 16.7153 4.78114 16.7484 5.82106C16.7781 6.75663 16.8673 7.04026 17.2616 7.45237C17.4006 7.59781 17.6375 7.774 17.7879 7.84385C18.0496 7.9655 18.419 7.97097 26.4505 7.9724L34.8397 7.97391V8.55483V9.13576H18.5055H2.17123V6.81206V4.48835H9.2141C15.3782 4.48835 16.282 4.50127 16.4576 4.5921ZM13.5922 5.74397C13.4152 5.84382 13.2493 6.0969 13.2454 6.27282C13.2441 6.33337 13.3153 6.4894 13.4036 6.6196L13.5642 6.85627L13.4036 7.04299C13.1924 7.28855 13.1953 7.59063 13.4108 7.80612C13.6285 8.02393 14.0235 8.03494 14.2422 7.82943L14.396 7.68495L14.5989 7.82943C15.2017 8.25863 15.8586 7.61141 15.421 7.01948L15.2753 6.82238L15.421 6.63716C15.6409 6.3575 15.6133 6.04332 15.3492 5.82106C15.101 5.61221 14.8103 5.62444 14.5814 5.85332C14.4526 5.98215 14.4465 5.98215 14.2694 5.85619C14.0153 5.67522 13.7825 5.6366 13.5922 5.74397ZM4.11596 6.43309C3.95084 6.59814 3.89938 6.87876 3.99062 7.11653C4.10537 7.4156 4.24349 7.42715 7.69925 7.42715C9.70617 7.42715 11.048 7.40077 11.1573 7.35922C11.3878 7.2716 11.5586 6.88477 11.4699 6.65138C11.3201 6.25731 11.3986 6.2653 7.68879 6.2653H4.28368L4.11596 6.43309ZM34.8234 21.9674C34.8062 33.132 34.8008 33.5778 34.6783 33.808C34.5007 34.1419 34.171 34.477 33.8487 34.6512L33.5754 34.799H18.5055C3.93923 34.799 3.4276 34.7947 3.19639 34.6717C2.86246 34.4941 2.52737 34.1644 2.35316 33.8422L2.2054 33.5688L2.18757 21.9674L2.16966 10.366H18.5055H34.8413L34.8234 21.9674ZM10.2567 11.6281C9.90027 11.7831 9.43416 12.2611 9.29973 12.6096C9.18717 12.9012 9.17651 13.2123 9.17651 16.2094C9.17651 19.8395 9.16181 19.7085 9.62881 20.2404C9.75538 20.3846 10.013 20.5742 10.2012 20.6619L10.5434 20.8212L14.2169 20.8219L17.8904 20.8226V21.4035V21.9845L13.1917 21.9849C10.3189 21.9851 8.39896 22.0114 8.25085 22.0525C7.97604 22.1289 7.61416 22.4716 7.50624 22.7578C7.4664 22.8636 7.43373 23.253 7.43373 23.6231V24.296L6.04976 24.3192C4.76277 24.3407 4.64303 24.3535 4.34136 24.5021C3.9259 24.7067 3.56251 25.1324 3.43403 25.5649C3.2782 26.0897 3.28592 31.9155 3.44318 32.4458C3.59422 32.955 4.0494 33.4102 4.55863 33.5612C5.08884 33.7185 10.9147 33.7262 11.4395 33.5704C11.872 33.4419 12.2977 33.0785 12.5023 32.663L12.6621 32.3386V28.9897C12.6621 25.8506 12.6541 25.6259 12.5344 25.4017C12.2952 24.9535 12.0731 24.7164 11.7181 24.5305C11.372 24.3492 11.3303 24.3441 9.97955 24.3203L8.59558 24.296V23.7211V23.1463H13.243H17.8904V23.7211V24.2958L16.5406 24.3222C15.4304 24.344 15.1391 24.3707 14.8998 24.4727C14.5372 24.6273 14.047 25.163 13.9393 25.5222C13.8194 25.9225 13.8305 32.1764 13.9518 32.5156C14.0889 32.8994 14.3724 33.2215 14.7634 33.4382L15.1224 33.6371H18.5055H21.8885L22.2476 33.4382C22.6386 33.2215 22.922 32.8994 23.0592 32.5156C23.1804 32.1764 23.1916 25.9225 23.0716 25.5222C22.964 25.163 22.4737 24.6273 22.1112 24.4727C21.8718 24.3707 21.5806 24.344 20.4704 24.3222L19.1206 24.2958V23.7211V23.1463H23.768H28.4154V23.7211V24.296L27.0314 24.3192L25.6474 24.3423L25.2804 24.5456C24.9102 24.7507 24.7106 24.9632 24.4766 25.4017C24.3569 25.6259 24.3489 25.8506 24.3489 28.9897V32.3386L24.5087 32.663C24.7133 33.0785 25.139 33.4419 25.5714 33.5704C26.0963 33.7262 31.9221 33.7185 32.4523 33.5612C32.9616 33.4102 33.4167 32.955 33.5678 32.4458C33.725 31.9155 33.7328 26.0897 33.5769 25.5649C33.4485 25.1324 33.0851 24.7067 32.6696 24.5021C32.3679 24.3535 32.2482 24.3407 30.9612 24.3192L29.5772 24.296V23.6231C29.5772 23.253 29.5446 22.8636 29.5047 22.7578C29.3968 22.4716 29.0349 22.1289 28.7601 22.0525C28.612 22.0114 26.692 21.9851 23.8192 21.9849L19.1206 21.9845V21.4035V20.8226L22.7941 20.8219L26.4676 20.8212L26.8098 20.6619C27.1848 20.4872 27.5296 20.1375 27.715 19.7437C27.8235 19.5131 27.8345 19.1898 27.8345 16.2094C27.8345 12.5452 27.8415 12.6071 27.3641 12.0871C26.8086 11.482 27.5845 11.5307 18.5055 11.532C11.8037 11.5329 10.4389 11.5489 10.2567 11.6281ZM26.4803 12.8382L26.6384 12.9869V16.1561V19.3253L26.4707 19.493L26.3029 19.6608H18.5055H10.708L10.5403 19.493L10.3725 19.3253V16.1656C10.3725 13.0157 10.373 13.0055 10.5211 12.8478L10.6698 12.6897H18.4959H26.3221L26.4803 12.8382ZM11.1514 25.5651C11.3058 25.6297 11.4042 25.732 11.4568 25.8829C11.51 26.0354 11.5344 27.0171 11.5344 29.0021C11.5344 32.1703 11.5195 32.3038 11.1521 32.4436C11.0338 32.4885 9.87451 32.5067 7.90428 32.4944L4.84034 32.4753L4.68472 32.3197L4.5291 32.164L4.51004 29.1001C4.49773 27.1323 4.51591 25.9705 4.56075 25.8525C4.69921 25.4883 4.81444 25.4756 7.99976 25.4727C10.3485 25.4706 10.9685 25.4887 11.1514 25.5651ZM21.8261 25.696L21.991 25.8877V29.0217V32.1556L21.7807 32.3325L21.5705 32.5095H18.5055H15.4405L15.2302 32.3325L15.0199 32.1556V29.0331C15.0199 25.6568 15.0167 25.6885 15.3861 25.5367C15.4666 25.5036 16.9115 25.4828 18.5969 25.4904L21.6612 25.5042L21.8261 25.696ZM32.1427 25.5692C32.2854 25.6288 32.4081 25.7418 32.4502 25.8523C32.4951 25.9706 32.5132 27.1299 32.5009 29.1001L32.4819 32.164L32.3262 32.3197L32.1706 32.4753L29.1067 32.4944C27.1365 32.5067 25.9771 32.4885 25.8589 32.4436C25.4914 32.3038 25.4766 32.1703 25.4766 29.0021C25.4766 27.0186 25.5011 26.0354 25.5541 25.8831C25.6941 25.4818 25.745 25.4756 28.9814 25.4727C31.3871 25.4705 31.9474 25.4876 32.1427 25.5692ZM5.88615 27.4089C5.74269 27.5324 5.69779 27.6322 5.69779 27.8279C5.69779 28.0236 5.74269 28.1234 5.88615 28.2468L6.0745 28.4088H7.98882C9.22742 28.4088 9.95173 28.3828 10.0409 28.3351C10.2474 28.2246 10.3714 27.8793 10.2893 27.6437C10.1537 27.2547 10.1093 27.247 8.00324 27.247H6.0745L5.88615 27.4089ZM16.4893 27.3295C16.1309 27.535 16.0704 27.9704 16.3626 28.2412L16.5435 28.4088H18.5062H20.4688L20.649 28.2287C20.9404 27.9372 20.8761 27.5219 20.5091 27.3264C20.3023 27.2163 16.6819 27.2191 16.4893 27.3295ZM26.8746 27.4147C26.6207 27.6686 26.6252 28.0211 26.8852 28.255C27.054 28.4069 27.0805 28.4088 28.9963 28.4088H30.9365L31.1248 28.2468C31.2683 28.1234 31.3132 28.0236 31.3132 27.8279C31.3132 27.6322 31.2683 27.5324 31.1248 27.4089L30.9365 27.247H28.9894H27.0423L26.8746 27.4147ZM5.89975 29.7244C5.63218 29.9599 5.60559 30.2512 5.82764 30.515L6.01067 30.7325H7.97734C9.83309 30.7325 9.95372 30.7249 10.1158 30.5974C10.2103 30.523 10.302 30.3872 10.3195 30.2956C10.366 30.0521 10.2005 29.7165 9.99527 29.6385C9.89303 29.5996 9.01815 29.5707 7.9457 29.5707C6.10252 29.5707 6.07184 29.573 5.89975 29.7244ZM16.3921 29.7476C16.1203 29.9763 16.1026 30.3177 16.3496 30.5647L16.5173 30.7325H18.5055H20.4937L20.6614 30.5647C20.8966 30.3296 20.8843 30.0254 20.6294 29.7704L20.4296 29.5707H18.516H16.6023L16.3921 29.7476ZM26.9944 29.6421C26.8075 29.7172 26.647 30.0632 26.6915 30.2956C26.709 30.3872 26.8006 30.523 26.8951 30.5974C27.0573 30.7249 27.1779 30.7325 29.0336 30.7325H31.0003L31.1833 30.515C31.4054 30.2512 31.3788 29.9599 31.1112 29.7244C30.9387 29.5726 30.9123 29.5707 29.0437 29.575C28.0027 29.5774 27.0806 29.6076 26.9944 29.6421Z"/>
</mask>
<path fill-rule="evenodd" clip-rule="evenodd" d="M3.19639 1.1006C2.18975 1.38068 1.37311 2.20573 1.10472 3.21374C0.965093 3.73828 0.965093 33.2595 1.10472 33.7841C1.38582 34.8398 2.27491 35.6965 3.31934 35.9182C3.83042 36.0266 33.1735 36.0276 33.6916 35.9192C34.7629 35.6951 35.6964 34.7612 35.9248 33.685C36.0341 33.1695 36.0341 3.82835 35.9248 3.31277C35.7031 2.26833 34.8464 1.37924 33.7907 1.09814C33.2933 0.965691 3.67255 0.968083 3.19639 1.1006ZM33.8487 2.34658C34.171 2.52079 34.5007 2.85589 34.6783 3.18981C34.7906 3.40093 34.8081 3.62783 34.827 5.12054L34.8484 6.81206H26.5522H18.256L18.0923 6.63785C17.9397 6.47546 17.9261 6.39734 17.8924 5.49308C17.8587 4.58889 17.8432 4.50045 17.6668 4.20021C17.5625 4.02293 17.3717 3.79739 17.2427 3.69898C16.741 3.31632 16.9575 3.3265 9.3365 3.3265C5.47075 3.3265 2.30792 3.30908 2.30792 3.28782C2.30792 3.19433 2.47782 2.9327 2.67493 2.72268C2.89329 2.48997 3.16352 2.32178 3.46936 2.22821C3.56354 2.19937 10.3759 2.18099 18.608 2.18727L33.5754 2.19882L33.8487 2.34658ZM26.8554 4.09975C26.6974 4.26794 26.6582 4.61151 26.7725 4.82522C26.8839 5.03333 27.2181 5.13468 27.4612 5.03401C27.7102 4.93088 27.8003 4.78121 27.8003 4.47058C27.8003 3.99327 27.183 3.75099 26.8554 4.09975ZM29.2106 4.08328C29.0774 4.18798 29.0305 4.28715 29.0305 4.46361C29.0305 4.78114 29.1191 4.93027 29.3696 5.03401C29.6426 5.14712 29.9537 5.02499 30.0966 4.74868C30.3754 4.20944 29.6975 3.70028 29.2106 4.08328ZM31.522 4.10939C31.0044 4.62689 31.7767 5.41613 32.3197 4.92466C32.5726 4.69585 32.5372 4.25086 32.2486 4.02922C32.0618 3.88576 31.7063 3.92499 31.522 4.10939ZM16.4576 4.5921C16.7002 4.71758 16.7153 4.78114 16.7484 5.82106C16.7781 6.75663 16.8673 7.04026 17.2616 7.45237C17.4006 7.59781 17.6375 7.774 17.7879 7.84385C18.0496 7.9655 18.419 7.97097 26.4505 7.9724L34.8397 7.97391V8.55483V9.13576H18.5055H2.17123V6.81206V4.48835H9.2141C15.3782 4.48835 16.282 4.50127 16.4576 4.5921ZM13.5922 5.74397C13.4152 5.84382 13.2493 6.0969 13.2454 6.27282C13.2441 6.33337 13.3153 6.4894 13.4036 6.6196L13.5642 6.85627L13.4036 7.04299C13.1924 7.28855 13.1953 7.59063 13.4108 7.80612C13.6285 8.02393 14.0235 8.03494 14.2422 7.82943L14.396 7.68495L14.5989 7.82943C15.2017 8.25863 15.8586 7.61141 15.421 7.01948L15.2753 6.82238L15.421 6.63716C15.6409 6.3575 15.6133 6.04332 15.3492 5.82106C15.101 5.61221 14.8103 5.62444 14.5814 5.85332C14.4526 5.98215 14.4465 5.98215 14.2694 5.85619C14.0153 5.67522 13.7825 5.6366 13.5922 5.74397ZM4.11596 6.43309C3.95084 6.59814 3.89938 6.87876 3.99062 7.11653C4.10537 7.4156 4.24349 7.42715 7.69925 7.42715C9.70617 7.42715 11.048 7.40077 11.1573 7.35922C11.3878 7.2716 11.5586 6.88477 11.4699 6.65138C11.3201 6.25731 11.3986 6.2653 7.68879 6.2653H4.28368L4.11596 6.43309ZM34.8234 21.9674C34.8062 33.132 34.8008 33.5778 34.6783 33.808C34.5007 34.1419 34.171 34.477 33.8487 34.6512L33.5754 34.799H18.5055C3.93923 34.799 3.4276 34.7947 3.19639 34.6717C2.86246 34.4941 2.52737 34.1644 2.35316 33.8422L2.2054 33.5688L2.18757 21.9674L2.16966 10.366H18.5055H34.8413L34.8234 21.9674ZM10.2567 11.6281C9.90027 11.7831 9.43416 12.2611 9.29973 12.6096C9.18717 12.9012 9.17651 13.2123 9.17651 16.2094C9.17651 19.8395 9.16181 19.7085 9.62881 20.2404C9.75538 20.3846 10.013 20.5742 10.2012 20.6619L10.5434 20.8212L14.2169 20.8219L17.8904 20.8226V21.4035V21.9845L13.1917 21.9849C10.3189 21.9851 8.39896 22.0114 8.25085 22.0525C7.97604 22.1289 7.61416 22.4716 7.50624 22.7578C7.4664 22.8636 7.43373 23.253 7.43373 23.6231V24.296L6.04976 24.3192C4.76277 24.3407 4.64303 24.3535 4.34136 24.5021C3.9259 24.7067 3.56251 25.1324 3.43403 25.5649C3.2782 26.0897 3.28592 31.9155 3.44318 32.4458C3.59422 32.955 4.0494 33.4102 4.55863 33.5612C5.08884 33.7185 10.9147 33.7262 11.4395 33.5704C11.872 33.4419 12.2977 33.0785 12.5023 32.663L12.6621 32.3386V28.9897C12.6621 25.8506 12.6541 25.6259 12.5344 25.4017C12.2952 24.9535 12.0731 24.7164 11.7181 24.5305C11.372 24.3492 11.3303 24.3441 9.97955 24.3203L8.59558 24.296V23.7211V23.1463H13.243H17.8904V23.7211V24.2958L16.5406 24.3222C15.4304 24.344 15.1391 24.3707 14.8998 24.4727C14.5372 24.6273 14.047 25.163 13.9393 25.5222C13.8194 25.9225 13.8305 32.1764 13.9518 32.5156C14.0889 32.8994 14.3724 33.2215 14.7634 33.4382L15.1224 33.6371H18.5055H21.8885L22.2476 33.4382C22.6386 33.2215 22.922 32.8994 23.0592 32.5156C23.1804 32.1764 23.1916 25.9225 23.0716 25.5222C22.964 25.163 22.4737 24.6273 22.1112 24.4727C21.8718 24.3707 21.5806 24.344 20.4704 24.3222L19.1206 24.2958V23.7211V23.1463H23.768H28.4154V23.7211V24.296L27.0314 24.3192L25.6474 24.3423L25.2804 24.5456C24.9102 24.7507 24.7106 24.9632 24.4766 25.4017C24.3569 25.6259 24.3489 25.8506 24.3489 28.9897V32.3386L24.5087 32.663C24.7133 33.0785 25.139 33.4419 25.5714 33.5704C26.0963 33.7262 31.9221 33.7185 32.4523 33.5612C32.9616 33.4102 33.4167 32.955 33.5678 32.4458C33.725 31.9155 33.7328 26.0897 33.5769 25.5649C33.4485 25.1324 33.0851 24.7067 32.6696 24.5021C32.3679 24.3535 32.2482 24.3407 30.9612 24.3192L29.5772 24.296V23.6231C29.5772 23.253 29.5446 22.8636 29.5047 22.7578C29.3968 22.4716 29.0349 22.1289 28.7601 22.0525C28.612 22.0114 26.692 21.9851 23.8192 21.9849L19.1206 21.9845V21.4035V20.8226L22.7941 20.8219L26.4676 20.8212L26.8098 20.6619C27.1848 20.4872 27.5296 20.1375 27.715 19.7437C27.8235 19.5131 27.8345 19.1898 27.8345 16.2094C27.8345 12.5452 27.8415 12.6071 27.3641 12.0871C26.8086 11.482 27.5845 11.5307 18.5055 11.532C11.8037 11.5329 10.4389 11.5489 10.2567 11.6281ZM26.4803 12.8382L26.6384 12.9869V16.1561V19.3253L26.4707 19.493L26.3029 19.6608H18.5055H10.708L10.5403 19.493L10.3725 19.3253V16.1656C10.3725 13.0157 10.373 13.0055 10.5211 12.8478L10.6698 12.6897H18.4959H26.3221L26.4803 12.8382ZM11.1514 25.5651C11.3058 25.6297 11.4042 25.732 11.4568 25.8829C11.51 26.0354 11.5344 27.0171 11.5344 29.0021C11.5344 32.1703 11.5195 32.3038 11.1521 32.4436C11.0338 32.4885 9.87451 32.5067 7.90428 32.4944L4.84034 32.4753L4.68472 32.3197L4.5291 32.164L4.51004 29.1001C4.49773 27.1323 4.51591 25.9705 4.56075 25.8525C4.69921 25.4883 4.81444 25.4756 7.99976 25.4727C10.3485 25.4706 10.9685 25.4887 11.1514 25.5651ZM21.8261 25.696L21.991 25.8877V29.0217V32.1556L21.7807 32.3325L21.5705 32.5095H18.5055H15.4405L15.2302 32.3325L15.0199 32.1556V29.0331C15.0199 25.6568 15.0167 25.6885 15.3861 25.5367C15.4666 25.5036 16.9115 25.4828 18.5969 25.4904L21.6612 25.5042L21.8261 25.696ZM32.1427 25.5692C32.2854 25.6288 32.4081 25.7418 32.4502 25.8523C32.4951 25.9706 32.5132 27.1299 32.5009 29.1001L32.4819 32.164L32.3262 32.3197L32.1706 32.4753L29.1067 32.4944C27.1365 32.5067 25.9771 32.4885 25.8589 32.4436C25.4914 32.3038 25.4766 32.1703 25.4766 29.0021C25.4766 27.0186 25.5011 26.0354 25.5541 25.8831C25.6941 25.4818 25.745 25.4756 28.9814 25.4727C31.3871 25.4705 31.9474 25.4876 32.1427 25.5692ZM5.88615 27.4089C5.74269 27.5324 5.69779 27.6322 5.69779 27.8279C5.69779 28.0236 5.74269 28.1234 5.88615 28.2468L6.0745 28.4088H7.98882C9.22742 28.4088 9.95173 28.3828 10.0409 28.3351C10.2474 28.2246 10.3714 27.8793 10.2893 27.6437C10.1537 27.2547 10.1093 27.247 8.00324 27.247H6.0745L5.88615 27.4089ZM16.4893 27.3295C16.1309 27.535 16.0704 27.9704 16.3626 28.2412L16.5435 28.4088H18.5062H20.4688L20.649 28.2287C20.9404 27.9372 20.8761 27.5219 20.5091 27.3264C20.3023 27.2163 16.6819 27.2191 16.4893 27.3295ZM26.8746 27.4147C26.6207 27.6686 26.6252 28.0211 26.8852 28.255C27.054 28.4069 27.0805 28.4088 28.9963 28.4088H30.9365L31.1248 28.2468C31.2683 28.1234 31.3132 28.0236 31.3132 27.8279C31.3132 27.6322 31.2683 27.5324 31.1248 27.4089L30.9365 27.247H28.9894H27.0423L26.8746 27.4147ZM5.89975 29.7244C5.63218 29.9599 5.60559 30.2512 5.82764 30.515L6.01067 30.7325H7.97734C9.83309 30.7325 9.95372 30.7249 10.1158 30.5974C10.2103 30.523 10.302 30.3872 10.3195 30.2956C10.366 30.0521 10.2005 29.7165 9.99527 29.6385C9.89303 29.5996 9.01815 29.5707 7.9457 29.5707C6.10252 29.5707 6.07184 29.573 5.89975 29.7244ZM16.3921 29.7476C16.1203 29.9763 16.1026 30.3177 16.3496 30.5647L16.5173 30.7325H18.5055H20.4937L20.6614 30.5647C20.8966 30.3296 20.8843 30.0254 20.6294 29.7704L20.4296 29.5707H18.516H16.6023L16.3921 29.7476ZM26.9944 29.6421C26.8075 29.7172 26.647 30.0632 26.6915 30.2956C26.709 30.3872 26.8006 30.523 26.8951 30.5974C27.0573 30.7249 27.1779 30.7325 29.0336 30.7325H31.0003L31.1833 30.515C31.4054 30.2512 31.3788 29.9599 31.1112 29.7244C30.9387 29.5726 30.9123 29.5707 29.0437 29.575C28.0027 29.5774 27.0806 29.6076 26.9944 29.6421Z" fill="#FF8655"/>
<path fill-rule="evenodd" clip-rule="evenodd" d="M3.19639 1.1006C2.18975 1.38068 1.37311 2.20573 1.10472 3.21374C0.965093 3.73828 0.965093 33.2595 1.10472 33.7841C1.38582 34.8398 2.27491 35.6965 3.31934 35.9182C3.83042 36.0266 33.1735 36.0276 33.6916 35.9192C34.7629 35.6951 35.6964 34.7612 35.9248 33.685C36.0341 33.1695 36.0341 3.82835 35.9248 3.31277C35.7031 2.26833 34.8464 1.37924 33.7907 1.09814C33.2933 0.965691 3.67255 0.968083 3.19639 1.1006ZM33.8487 2.34658C34.171 2.52079 34.5007 2.85589 34.6783 3.18981C34.7906 3.40093 34.8081 3.62783 34.827 5.12054L34.8484 6.81206H26.5522H18.256L18.0923 6.63785C17.9397 6.47546 17.9261 6.39734 17.8924 5.49308C17.8587 4.58889 17.8432 4.50045 17.6668 4.20021C17.5625 4.02293 17.3717 3.79739 17.2427 3.69898C16.741 3.31632 16.9575 3.3265 9.3365 3.3265C5.47075 3.3265 2.30792 3.30908 2.30792 3.28782C2.30792 3.19433 2.47782 2.9327 2.67493 2.72268C2.89329 2.48997 3.16352 2.32178 3.46936 2.22821C3.56354 2.19937 10.3759 2.18099 18.608 2.18727L33.5754 2.19882L33.8487 2.34658ZM26.8554 4.09975C26.6974 4.26794 26.6582 4.61151 26.7725 4.82522C26.8839 5.03333 27.2181 5.13468 27.4612 5.03401C27.7102 4.93088 27.8003 4.78121 27.8003 4.47058C27.8003 3.99327 27.183 3.75099 26.8554 4.09975ZM29.2106 4.08328C29.0774 4.18798 29.0305 4.28715 29.0305 4.46361C29.0305 4.78114 29.1191 4.93027 29.3696 5.03401C29.6426 5.14712 29.9537 5.02499 30.0966 4.74868C30.3754 4.20944 29.6975 3.70028 29.2106 4.08328ZM31.522 4.10939C31.0044 4.62689 31.7767 5.41613 32.3197 4.92466C32.5726 4.69585 32.5372 4.25086 32.2486 4.02922C32.0618 3.88576 31.7063 3.92499 31.522 4.10939ZM16.4576 4.5921C16.7002 4.71758 16.7153 4.78114 16.7484 5.82106C16.7781 6.75663 16.8673 7.04026 17.2616 7.45237C17.4006 7.59781 17.6375 7.774 17.7879 7.84385C18.0496 7.9655 18.419 7.97097 26.4505 7.9724L34.8397 7.97391V8.55483V9.13576H18.5055H2.17123V6.81206V4.48835H9.2141C15.3782 4.48835 16.282 4.50127 16.4576 4.5921ZM13.5922 5.74397C13.4152 5.84382 13.2493 6.0969 13.2454 6.27282C13.2441 6.33337 13.3153 6.4894 13.4036 6.6196L13.5642 6.85627L13.4036 7.04299C13.1924 7.28855 13.1953 7.59063 13.4108 7.80612C13.6285 8.02393 14.0235 8.03494 14.2422 7.82943L14.396 7.68495L14.5989 7.82943C15.2017 8.25863 15.8586 7.61141 15.421 7.01948L15.2753 6.82238L15.421 6.63716C15.6409 6.3575 15.6133 6.04332 15.3492 5.82106C15.101 5.61221 14.8103 5.62444 14.5814 5.85332C14.4526 5.98215 14.4465 5.98215 14.2694 5.85619C14.0153 5.67522 13.7825 5.6366 13.5922 5.74397ZM4.11596 6.43309C3.95084 6.59814 3.89938 6.87876 3.99062 7.11653C4.10537 7.4156 4.24349 7.42715 7.69925 7.42715C9.70617 7.42715 11.048 7.40077 11.1573 7.35922C11.3878 7.2716 11.5586 6.88477 11.4699 6.65138C11.3201 6.25731 11.3986 6.2653 7.68879 6.2653H4.28368L4.11596 6.43309ZM34.8234 21.9674C34.8062 33.132 34.8008 33.5778 34.6783 33.808C34.5007 34.1419 34.171 34.477 33.8487 34.6512L33.5754 34.799H18.5055C3.93923 34.799 3.4276 34.7947 3.19639 34.6717C2.86246 34.4941 2.52737 34.1644 2.35316 33.8422L2.2054 33.5688L2.18757 21.9674L2.16966 10.366H18.5055H34.8413L34.8234 21.9674ZM10.2567 11.6281C9.90027 11.7831 9.43416 12.2611 9.29973 12.6096C9.18717 12.9012 9.17651 13.2123 9.17651 16.2094C9.17651 19.8395 9.16181 19.7085 9.62881 20.2404C9.75538 20.3846 10.013 20.5742 10.2012 20.6619L10.5434 20.8212L14.2169 20.8219L17.8904 20.8226V21.4035V21.9845L13.1917 21.9849C10.3189 21.9851 8.39896 22.0114 8.25085 22.0525C7.97604 22.1289 7.61416 22.4716 7.50624 22.7578C7.4664 22.8636 7.43373 23.253 7.43373 23.6231V24.296L6.04976 24.3192C4.76277 24.3407 4.64303 24.3535 4.34136 24.5021C3.9259 24.7067 3.56251 25.1324 3.43403 25.5649C3.2782 26.0897 3.28592 31.9155 3.44318 32.4458C3.59422 32.955 4.0494 33.4102 4.55863 33.5612C5.08884 33.7185 10.9147 33.7262 11.4395 33.5704C11.872 33.4419 12.2977 33.0785 12.5023 32.663L12.6621 32.3386V28.9897C12.6621 25.8506 12.6541 25.6259 12.5344 25.4017C12.2952 24.9535 12.0731 24.7164 11.7181 24.5305C11.372 24.3492 11.3303 24.3441 9.97955 24.3203L8.59558 24.296V23.7211V23.1463H13.243H17.8904V23.7211V24.2958L16.5406 24.3222C15.4304 24.344 15.1391 24.3707 14.8998 24.4727C14.5372 24.6273 14.047 25.163 13.9393 25.5222C13.8194 25.9225 13.8305 32.1764 13.9518 32.5156C14.0889 32.8994 14.3724 33.2215 14.7634 33.4382L15.1224 33.6371H18.5055H21.8885L22.2476 33.4382C22.6386 33.2215 22.922 32.8994 23.0592 32.5156C23.1804 32.1764 23.1916 25.9225 23.0716 25.5222C22.964 25.163 22.4737 24.6273 22.1112 24.4727C21.8718 24.3707 21.5806 24.344 20.4704 24.3222L19.1206 24.2958V23.7211V23.1463H23.768H28.4154V23.7211V24.296L27.0314 24.3192L25.6474 24.3423L25.2804 24.5456C24.9102 24.7507 24.7106 24.9632 24.4766 25.4017C24.3569 25.6259 24.3489 25.8506 24.3489 28.9897V32.3386L24.5087 32.663C24.7133 33.0785 25.139 33.4419 25.5714 33.5704C26.0963 33.7262 31.9221 33.7185 32.4523 33.5612C32.9616 33.4102 33.4167 32.955 33.5678 32.4458C33.725 31.9155 33.7328 26.0897 33.5769 25.5649C33.4485 25.1324 33.0851 24.7067 32.6696 24.5021C32.3679 24.3535 32.2482 24.3407 30.9612 24.3192L29.5772 24.296V23.6231C29.5772 23.253 29.5446 22.8636 29.5047 22.7578C29.3968 22.4716 29.0349 22.1289 28.7601 22.0525C28.612 22.0114 26.692 21.9851 23.8192 21.9849L19.1206 21.9845V21.4035V20.8226L22.7941 20.8219L26.4676 20.8212L26.8098 20.6619C27.1848 20.4872 27.5296 20.1375 27.715 19.7437C27.8235 19.5131 27.8345 19.1898 27.8345 16.2094C27.8345 12.5452 27.8415 12.6071 27.3641 12.0871C26.8086 11.482 27.5845 11.5307 18.5055 11.532C11.8037 11.5329 10.4389 11.5489 10.2567 11.6281ZM26.4803 12.8382L26.6384 12.9869V16.1561V19.3253L26.4707 19.493L26.3029 19.6608H18.5055H10.708L10.5403 19.493L10.3725 19.3253V16.1656C10.3725 13.0157 10.373 13.0055 10.5211 12.8478L10.6698 12.6897H18.4959H26.3221L26.4803 12.8382ZM11.1514 25.5651C11.3058 25.6297 11.4042 25.732 11.4568 25.8829C11.51 26.0354 11.5344 27.0171 11.5344 29.0021C11.5344 32.1703 11.5195 32.3038 11.1521 32.4436C11.0338 32.4885 9.87451 32.5067 7.90428 32.4944L4.84034 32.4753L4.68472 32.3197L4.5291 32.164L4.51004 29.1001C4.49773 27.1323 4.51591 25.9705 4.56075 25.8525C4.69921 25.4883 4.81444 25.4756 7.99976 25.4727C10.3485 25.4706 10.9685 25.4887 11.1514 25.5651ZM21.8261 25.696L21.991 25.8877V29.0217V32.1556L21.7807 32.3325L21.5705 32.5095H18.5055H15.4405L15.2302 32.3325L15.0199 32.1556V29.0331C15.0199 25.6568 15.0167 25.6885 15.3861 25.5367C15.4666 25.5036 16.9115 25.4828 18.5969 25.4904L21.6612 25.5042L21.8261 25.696ZM32.1427 25.5692C32.2854 25.6288 32.4081 25.7418 32.4502 25.8523C32.4951 25.9706 32.5132 27.1299 32.5009 29.1001L32.4819 32.164L32.3262 32.3197L32.1706 32.4753L29.1067 32.4944C27.1365 32.5067 25.9771 32.4885 25.8589 32.4436C25.4914 32.3038 25.4766 32.1703 25.4766 29.0021C25.4766 27.0186 25.5011 26.0354 25.5541 25.8831C25.6941 25.4818 25.745 25.4756 28.9814 25.4727C31.3871 25.4705 31.9474 25.4876 32.1427 25.5692ZM5.88615 27.4089C5.74269 27.5324 5.69779 27.6322 5.69779 27.8279C5.69779 28.0236 5.74269 28.1234 5.88615 28.2468L6.0745 28.4088H7.98882C9.22742 28.4088 9.95173 28.3828 10.0409 28.3351C10.2474 28.2246 10.3714 27.8793 10.2893 27.6437C10.1537 27.2547 10.1093 27.247 8.00324 27.247H6.0745L5.88615 27.4089ZM16.4893 27.3295C16.1309 27.535 16.0704 27.9704 16.3626 28.2412L16.5435 28.4088H18.5062H20.4688L20.649 28.2287C20.9404 27.9372 20.8761 27.5219 20.5091 27.3264C20.3023 27.2163 16.6819 27.2191 16.4893 27.3295ZM26.8746 27.4147C26.6207 27.6686 26.6252 28.0211 26.8852 28.255C27.054 28.4069 27.0805 28.4088 28.9963 28.4088H30.9365L31.1248 28.2468C31.2683 28.1234 31.3132 28.0236 31.3132 27.8279C31.3132 27.6322 31.2683 27.5324 31.1248 27.4089L30.9365 27.247H28.9894H27.0423L26.8746 27.4147ZM5.89975 29.7244C5.63218 29.9599 5.60559 30.2512 5.82764 30.515L6.01067 30.7325H7.97734C9.83309 30.7325 9.95372 30.7249 10.1158 30.5974C10.2103 30.523 10.302 30.3872 10.3195 30.2956C10.366 30.0521 10.2005 29.7165 9.99527 29.6385C9.89303 29.5996 9.01815 29.5707 7.9457 29.5707C6.10252 29.5707 6.07184 29.573 5.89975 29.7244ZM16.3921 29.7476C16.1203 29.9763 16.1026 30.3177 16.3496 30.5647L16.5173 30.7325H18.5055H20.4937L20.6614 30.5647C20.8966 30.3296 20.8843 30.0254 20.6294 29.7704L20.4296 29.5707H18.516H16.6023L16.3921 29.7476ZM26.9944 29.6421C26.8075 29.7172 26.647 30.0632 26.6915 30.2956C26.709 30.3872 26.8006 30.523 26.8951 30.5974C27.0573 30.7249 27.1779 30.7325 29.0336 30.7325H31.0003L31.1833 30.515C31.4054 30.2512 31.3788 29.9599 31.1112 29.7244C30.9387 29.5726 30.9123 29.5707 29.0437 29.575C28.0027 29.5774 27.0806 29.6076 26.9944 29.6421Z" stroke="#FF8655" stroke-width="0.4" mask="url(#path-1-outside-1_1267_7899)"/>
</svg>
