<svg width="32" height="32" viewBox="0 0 32 32" fill="none" xmlns="http://www.w3.org/2000/svg">
<mask id="path-1-outside-1_1267_10535" maskUnits="userSpaceOnUse" x="0" y="0" width="32" height="32" fill="black">
<rect fill="white" width="32" height="32"/>
<path fill-rule="evenodd" clip-rule="evenodd" d="M14.575 1.0364C9.88177 1.52412 5.7686 4.07667 3.26997 8.05215C0.517262 12.4319 0.248468 18.0584 2.57112 22.6794C5.23178 27.9728 10.6792 31.2134 16.5396 30.9891C18.1077 30.929 19.2626 30.7239 20.7046 30.2494C22.9498 29.5106 24.8198 28.3658 26.534 26.6805C28.9458 24.3095 30.4265 21.3268 30.9229 17.8397C31.0211 17.1496 31.0211 14.8341 30.9229 14.144C30.4241 10.6402 28.9766 7.71401 26.5634 5.331C24.2166 3.01352 21.3801 1.60156 18.0941 1.115C17.3745 1.00841 15.2917 0.961952 14.575 1.0364ZM15.425 3.525V4.84398L15.5902 5.02895C15.7278 5.18294 15.7982 5.21385 16.0116 5.21385C16.2249 5.21385 16.2954 5.18294 16.433 5.02895L16.5982 4.84398V3.51814V2.19223L17.0529 2.23271C20.4517 2.53553 23.3972 3.8961 25.7522 6.25119C28.1022 8.60112 29.4792 11.5838 29.7684 14.9506L29.8074 15.4052H28.4834H27.1595L26.9692 15.5752C26.8118 15.7159 26.7789 15.7877 26.7789 15.9918C26.7789 16.196 26.8118 16.2678 26.9692 16.4085L27.1595 16.5785H28.4834H29.8074L29.7684 17.0331C29.5804 19.2219 28.9438 21.2252 27.8657 23.0209C27.2379 24.0664 26.6127 24.8669 25.7497 25.7299C23.3904 28.0892 20.4264 29.4588 17.0529 29.7486L16.5982 29.7877V28.4637V27.1397L16.4337 26.9556C16.3006 26.8066 16.2211 26.7701 16.0175 26.7648C15.8033 26.7592 15.7404 26.7867 15.5954 26.9489L15.425 27.1397V28.4637V29.7877L14.9703 29.7486C11.5822 29.4575 8.62702 28.0878 6.24178 25.7029C3.92072 23.3822 2.55334 20.4105 2.25246 17.0331L2.21198 16.5785H3.53788H4.86373L5.04869 16.4133C5.20268 16.2757 5.2336 16.2052 5.2336 15.9918C5.2336 15.7785 5.20268 15.708 5.04869 15.5704L4.86373 15.4052H3.53788H2.21198L2.25246 14.9506C2.55487 11.5564 3.92318 8.59425 6.27053 6.25254C8.07207 4.4554 10.2183 3.23491 12.6678 2.61467C13.4353 2.42032 14.5636 2.2428 15.205 2.21541L15.425 2.20602V3.525ZM23.4911 7.6164C22.1444 8.09702 13.33 11.4628 13.112 11.5797C12.7309 11.784 11.8633 12.6507 11.6604 13.0298C11.3584 13.5939 7.66659 23.4534 7.63697 23.7751C7.61198 24.0459 7.62605 24.096 7.76679 24.2366C7.90717 24.3771 7.95803 24.3915 8.22829 24.3673C8.59358 24.3347 18.4997 20.6097 19.0029 20.3158C19.5225 20.0124 20.2451 19.2471 20.4908 18.7402C20.8907 17.9151 24.4168 8.47311 24.4457 8.14988C24.4696 7.88249 24.4548 7.82811 24.322 7.69524C24.1558 7.52905 23.8241 7.49761 23.4911 7.6164ZM22.803 9.26025C22.4412 10.2785 19.4283 18.1809 19.3731 18.2564C19.3008 18.3552 19.2497 18.3187 18.7146 17.7856L18.1345 17.2077L18.2594 16.9371C18.3635 16.7115 18.3846 16.5541 18.3859 15.9918C18.3873 15.3688 18.3748 15.2914 18.2219 14.98C17.9811 14.4896 17.5582 14.0555 17.0892 13.8174C16.7051 13.6225 16.6705 13.616 16.0146 13.616C15.4459 13.616 15.2933 13.6362 15.0655 13.7415L14.7939 13.8671L14.2149 13.284C13.675 12.7404 13.6437 12.6961 13.7524 12.6304C13.8744 12.5568 22.6911 9.19678 22.7788 9.19051C22.8064 9.18857 22.8173 9.21995 22.803 9.26025ZM13.367 14.1392L13.9172 14.6917L13.7765 15.0338C13.6571 15.3238 13.6357 15.474 13.6359 16.0212C13.6361 16.6154 13.6497 16.6943 13.808 17.0184C14.0278 17.4686 14.5349 17.9757 14.985 18.1955C15.3091 18.3537 15.3881 18.3673 15.9823 18.3675C16.5297 18.3677 16.6795 18.3463 16.9702 18.2267L17.3128 18.0858L17.8795 18.6547C18.4089 19.1862 18.4384 19.2282 18.3289 19.2943C18.1658 19.3927 9.31197 22.7456 9.2854 22.7191C9.26287 22.6965 12.4942 14.1098 12.6503 13.7773C12.6995 13.6725 12.7571 13.5867 12.7783 13.5867C12.7994 13.5867 13.0644 13.8353 13.367 14.1392ZM16.6185 14.9505C17.5619 15.4713 17.3525 16.883 16.2894 17.1693C15.5016 17.3814 14.6719 16.6273 14.8078 15.8228C14.9528 14.9644 15.8557 14.5294 16.6185 14.9505Z"/>
</mask>
<path fill-rule="evenodd" clip-rule="evenodd" d="M14.575 1.0364C9.88177 1.52412 5.7686 4.07667 3.26997 8.05215C0.517262 12.4319 0.248468 18.0584 2.57112 22.6794C5.23178 27.9728 10.6792 31.2134 16.5396 30.9891C18.1077 30.929 19.2626 30.7239 20.7046 30.2494C22.9498 29.5106 24.8198 28.3658 26.534 26.6805C28.9458 24.3095 30.4265 21.3268 30.9229 17.8397C31.0211 17.1496 31.0211 14.8341 30.9229 14.144C30.4241 10.6402 28.9766 7.71401 26.5634 5.331C24.2166 3.01352 21.3801 1.60156 18.0941 1.115C17.3745 1.00841 15.2917 0.961952 14.575 1.0364ZM15.425 3.525V4.84398L15.5902 5.02895C15.7278 5.18294 15.7982 5.21385 16.0116 5.21385C16.2249 5.21385 16.2954 5.18294 16.433 5.02895L16.5982 4.84398V3.51814V2.19223L17.0529 2.23271C20.4517 2.53553 23.3972 3.8961 25.7522 6.25119C28.1022 8.60112 29.4792 11.5838 29.7684 14.9506L29.8074 15.4052H28.4834H27.1595L26.9692 15.5752C26.8118 15.7159 26.7789 15.7877 26.7789 15.9918C26.7789 16.196 26.8118 16.2678 26.9692 16.4085L27.1595 16.5785H28.4834H29.8074L29.7684 17.0331C29.5804 19.2219 28.9438 21.2252 27.8657 23.0209C27.2379 24.0664 26.6127 24.8669 25.7497 25.7299C23.3904 28.0892 20.4264 29.4588 17.0529 29.7486L16.5982 29.7877V28.4637V27.1397L16.4337 26.9556C16.3006 26.8066 16.2211 26.7701 16.0175 26.7648C15.8033 26.7592 15.7404 26.7867 15.5954 26.9489L15.425 27.1397V28.4637V29.7877L14.9703 29.7486C11.5822 29.4575 8.62702 28.0878 6.24178 25.7029C3.92072 23.3822 2.55334 20.4105 2.25246 17.0331L2.21198 16.5785H3.53788H4.86373L5.04869 16.4133C5.20268 16.2757 5.2336 16.2052 5.2336 15.9918C5.2336 15.7785 5.20268 15.708 5.04869 15.5704L4.86373 15.4052H3.53788H2.21198L2.25246 14.9506C2.55487 11.5564 3.92318 8.59425 6.27053 6.25254C8.07207 4.4554 10.2183 3.23491 12.6678 2.61467C13.4353 2.42032 14.5636 2.2428 15.205 2.21541L15.425 2.20602V3.525ZM23.4911 7.6164C22.1444 8.09702 13.33 11.4628 13.112 11.5797C12.7309 11.784 11.8633 12.6507 11.6604 13.0298C11.3584 13.5939 7.66659 23.4534 7.63697 23.7751C7.61198 24.0459 7.62605 24.096 7.76679 24.2366C7.90717 24.3771 7.95803 24.3915 8.22829 24.3673C8.59358 24.3347 18.4997 20.6097 19.0029 20.3158C19.5225 20.0124 20.2451 19.2471 20.4908 18.7402C20.8907 17.9151 24.4168 8.47311 24.4457 8.14988C24.4696 7.88249 24.4548 7.82811 24.322 7.69524C24.1558 7.52905 23.8241 7.49761 23.4911 7.6164ZM22.803 9.26025C22.4412 10.2785 19.4283 18.1809 19.3731 18.2564C19.3008 18.3552 19.2497 18.3187 18.7146 17.7856L18.1345 17.2077L18.2594 16.9371C18.3635 16.7115 18.3846 16.5541 18.3859 15.9918C18.3873 15.3688 18.3748 15.2914 18.2219 14.98C17.9811 14.4896 17.5582 14.0555 17.0892 13.8174C16.7051 13.6225 16.6705 13.616 16.0146 13.616C15.4459 13.616 15.2933 13.6362 15.0655 13.7415L14.7939 13.8671L14.2149 13.284C13.675 12.7404 13.6437 12.6961 13.7524 12.6304C13.8744 12.5568 22.6911 9.19678 22.7788 9.19051C22.8064 9.18857 22.8173 9.21995 22.803 9.26025ZM13.367 14.1392L13.9172 14.6917L13.7765 15.0338C13.6571 15.3238 13.6357 15.474 13.6359 16.0212C13.6361 16.6154 13.6497 16.6943 13.808 17.0184C14.0278 17.4686 14.5349 17.9757 14.985 18.1955C15.3091 18.3537 15.3881 18.3673 15.9823 18.3675C16.5297 18.3677 16.6795 18.3463 16.9702 18.2267L17.3128 18.0858L17.8795 18.6547C18.4089 19.1862 18.4384 19.2282 18.3289 19.2943C18.1658 19.3927 9.31197 22.7456 9.2854 22.7191C9.26287 22.6965 12.4942 14.1098 12.6503 13.7773C12.6995 13.6725 12.7571 13.5867 12.7783 13.5867C12.7994 13.5867 13.0644 13.8353 13.367 14.1392ZM16.6185 14.9505C17.5619 15.4713 17.3525 16.883 16.2894 17.1693C15.5016 17.3814 14.6719 16.6273 14.8078 15.8228C14.9528 14.9644 15.8557 14.5294 16.6185 14.9505Z" fill="#FF8655"/>
<path fill-rule="evenodd" clip-rule="evenodd" d="M14.575 1.0364C9.88177 1.52412 5.7686 4.07667 3.26997 8.05215C0.517262 12.4319 0.248468 18.0584 2.57112 22.6794C5.23178 27.9728 10.6792 31.2134 16.5396 30.9891C18.1077 30.929 19.2626 30.7239 20.7046 30.2494C22.9498 29.5106 24.8198 28.3658 26.534 26.6805C28.9458 24.3095 30.4265 21.3268 30.9229 17.8397C31.0211 17.1496 31.0211 14.8341 30.9229 14.144C30.4241 10.6402 28.9766 7.71401 26.5634 5.331C24.2166 3.01352 21.3801 1.60156 18.0941 1.115C17.3745 1.00841 15.2917 0.961952 14.575 1.0364ZM15.425 3.525V4.84398L15.5902 5.02895C15.7278 5.18294 15.7982 5.21385 16.0116 5.21385C16.2249 5.21385 16.2954 5.18294 16.433 5.02895L16.5982 4.84398V3.51814V2.19223L17.0529 2.23271C20.4517 2.53553 23.3972 3.8961 25.7522 6.25119C28.1022 8.60112 29.4792 11.5838 29.7684 14.9506L29.8074 15.4052H28.4834H27.1595L26.9692 15.5752C26.8118 15.7159 26.7789 15.7877 26.7789 15.9918C26.7789 16.196 26.8118 16.2678 26.9692 16.4085L27.1595 16.5785H28.4834H29.8074L29.7684 17.0331C29.5804 19.2219 28.9438 21.2252 27.8657 23.0209C27.2379 24.0664 26.6127 24.8669 25.7497 25.7299C23.3904 28.0892 20.4264 29.4588 17.0529 29.7486L16.5982 29.7877V28.4637V27.1397L16.4337 26.9556C16.3006 26.8066 16.2211 26.7701 16.0175 26.7648C15.8033 26.7592 15.7404 26.7867 15.5954 26.9489L15.425 27.1397V28.4637V29.7877L14.9703 29.7486C11.5822 29.4575 8.62702 28.0878 6.24178 25.7029C3.92072 23.3822 2.55334 20.4105 2.25246 17.0331L2.21198 16.5785H3.53788H4.86373L5.04869 16.4133C5.20268 16.2757 5.2336 16.2052 5.2336 15.9918C5.2336 15.7785 5.20268 15.708 5.04869 15.5704L4.86373 15.4052H3.53788H2.21198L2.25246 14.9506C2.55487 11.5564 3.92318 8.59425 6.27053 6.25254C8.07207 4.4554 10.2183 3.23491 12.6678 2.61467C13.4353 2.42032 14.5636 2.2428 15.205 2.21541L15.425 2.20602V3.525ZM23.4911 7.6164C22.1444 8.09702 13.33 11.4628 13.112 11.5797C12.7309 11.784 11.8633 12.6507 11.6604 13.0298C11.3584 13.5939 7.66659 23.4534 7.63697 23.7751C7.61198 24.0459 7.62605 24.096 7.76679 24.2366C7.90717 24.3771 7.95803 24.3915 8.22829 24.3673C8.59358 24.3347 18.4997 20.6097 19.0029 20.3158C19.5225 20.0124 20.2451 19.2471 20.4908 18.7402C20.8907 17.9151 24.4168 8.47311 24.4457 8.14988C24.4696 7.88249 24.4548 7.82811 24.322 7.69524C24.1558 7.52905 23.8241 7.49761 23.4911 7.6164ZM22.803 9.26025C22.4412 10.2785 19.4283 18.1809 19.3731 18.2564C19.3008 18.3552 19.2497 18.3187 18.7146 17.7856L18.1345 17.2077L18.2594 16.9371C18.3635 16.7115 18.3846 16.5541 18.3859 15.9918C18.3873 15.3688 18.3748 15.2914 18.2219 14.98C17.9811 14.4896 17.5582 14.0555 17.0892 13.8174C16.7051 13.6225 16.6705 13.616 16.0146 13.616C15.4459 13.616 15.2933 13.6362 15.0655 13.7415L14.7939 13.8671L14.2149 13.284C13.675 12.7404 13.6437 12.6961 13.7524 12.6304C13.8744 12.5568 22.6911 9.19678 22.7788 9.19051C22.8064 9.18857 22.8173 9.21995 22.803 9.26025ZM13.367 14.1392L13.9172 14.6917L13.7765 15.0338C13.6571 15.3238 13.6357 15.474 13.6359 16.0212C13.6361 16.6154 13.6497 16.6943 13.808 17.0184C14.0278 17.4686 14.5349 17.9757 14.985 18.1955C15.3091 18.3537 15.3881 18.3673 15.9823 18.3675C16.5297 18.3677 16.6795 18.3463 16.9702 18.2267L17.3128 18.0858L17.8795 18.6547C18.4089 19.1862 18.4384 19.2282 18.3289 19.2943C18.1658 19.3927 9.31197 22.7456 9.2854 22.7191C9.26287 22.6965 12.4942 14.1098 12.6503 13.7773C12.6995 13.6725 12.7571 13.5867 12.7783 13.5867C12.7994 13.5867 13.0644 13.8353 13.367 14.1392ZM16.6185 14.9505C17.5619 15.4713 17.3525 16.883 16.2894 17.1693C15.5016 17.3814 14.6719 16.6273 14.8078 15.8228C14.9528 14.9644 15.8557 14.5294 16.6185 14.9505Z" stroke="#FF8655" stroke-width="0.4" mask="url(#path-1-outside-1_1267_10535)"/>
</svg>
