<svg width="31" height="31" viewBox="0 0 31 31" fill="none" xmlns="http://www.w3.org/2000/svg">
<mask id="path-1-outside-1_1267_10541" maskUnits="userSpaceOnUse" x="0" y="0" width="31" height="31" fill="black">
<rect fill="white" width="31" height="31"/>
<path fill-rule="evenodd" clip-rule="evenodd" d="M2.20773 1.2217C1.70128 1.47538 1.45344 1.73856 1.18731 2.305L1 2.70375V11.4762C1 19.7442 1.00752 20.2703 1.13046 20.6236C1.30497 21.1249 1.74359 21.6084 2.25011 21.8578L2.66334 22.0612L6.83978 22.0821L11.0162 22.1031V23.8765V25.65L8.90087 25.6506C7.7374 25.6509 6.574 25.6841 6.31546 25.7246C5.38544 25.87 4.37644 26.5492 3.88026 27.3639C3.44034 28.0861 3.28218 29.2968 3.56654 29.7644L3.70987 30H15.4877H27.2656L27.4023 29.8486C27.5034 29.7366 27.546 29.5578 27.566 29.1623C27.6308 27.875 26.8757 26.6386 25.6631 26.0464C25.3834 25.9098 24.9431 25.765 24.6845 25.7246C24.426 25.6841 23.2625 25.6509 22.0991 25.6506L19.9838 25.65V23.8765V22.1031L24.1602 22.0821L28.3367 22.0612L28.7499 21.8578C29.2564 21.6084 29.695 21.1249 29.8695 20.6236C29.9925 20.2703 30 19.7439 30 11.4689V2.6891L29.7469 2.19168C29.4688 1.64518 29.0082 1.22845 28.5202 1.08193C28.3221 1.0224 24.7514 1 15.4489 1H2.65025L2.20773 1.2217ZM28.3029 2.34248C28.7604 2.57963 28.7344 2.02508 28.7344 11.5564V20.235L28.5522 20.4745C28.4417 20.6197 28.2639 20.7435 28.1002 20.7891C27.725 20.8936 3.27502 20.8936 2.89975 20.7891C2.73609 20.7435 2.55826 20.6197 2.44776 20.4745L2.26559 20.235V11.5564C2.26559 3.95184 2.27911 2.85158 2.37501 2.66576C2.61142 2.20734 1.65999 2.23859 15.4855 2.2354C26.615 2.23286 28.1156 2.2454 28.3029 2.34248ZM15.1959 3.2148C15.0709 3.28281 14.9731 3.41918 14.9251 3.59253C14.8201 3.97141 14.8211 19.7097 14.9261 20.0888C14.9832 20.2949 15.0649 20.3938 15.2512 20.4829C15.4818 20.5932 15.5182 20.5932 15.7489 20.4829C15.9351 20.3938 16.0168 20.2949 16.0739 20.0888C16.179 19.7093 16.1799 3.97141 16.0748 3.59202C16.0239 3.40838 15.9314 3.28491 15.7895 3.21139C15.5324 3.07807 15.4461 3.07858 15.1959 3.2148ZM7.94264 6.32215C6.8606 6.59091 6.04484 7.36217 5.72461 8.41929C5.4349 9.37535 5.67023 10.5109 6.3091 11.2404L6.54095 11.5052L6.22933 11.6626C4.82851 12.3706 3.75124 13.7568 3.46088 15.2251C3.29172 16.0804 3.31103 16.3417 3.56176 16.5931L3.77315 16.805H8.62006H13.467L13.6699 16.6295C13.8577 16.4671 13.8721 16.4172 13.8633 15.9581C13.8312 14.2798 12.7351 12.5638 11.1857 11.7662C10.9532 11.6466 10.7507 11.5417 10.7354 11.5331C10.7201 11.5245 10.8145 11.3954 10.945 11.2464C11.9408 10.1094 11.8662 8.26305 10.7799 7.1567C10.0359 6.399 8.93588 6.07543 7.94264 6.32215ZM18.3149 7.15692C18.1875 7.28466 18.1035 7.44525 18.1035 7.56125C18.1035 7.67725 18.1875 7.83784 18.3149 7.96558L18.5263 8.1775H22.4788H26.4313L26.6427 7.96558C26.917 7.69059 26.917 7.43191 26.6427 7.15692L26.4313 6.945H22.4788H18.5263L18.3149 7.15692ZM9.41629 7.66543C10.0689 7.99922 10.4028 8.5553 10.3987 9.30125C10.3953 9.90866 10.2268 10.2843 9.78982 10.6593C9.44811 10.9526 9.08203 11.0775 8.56473 11.0775C8.10261 11.0775 7.79056 10.9511 7.41688 10.6127C6.79544 10.0499 6.6469 9.08426 7.07026 8.35998C7.53107 7.57176 8.60906 7.25262 9.41629 7.66543ZM18.4874 9.62728C18.2305 9.73255 18.0803 10.0246 18.1344 10.3139C18.2264 10.8053 18.0627 10.7875 22.4869 10.7875C26.9489 10.7875 26.7418 10.8119 26.8276 10.2746C26.8609 10.0658 26.8336 9.97412 26.6871 9.80331L26.5051 9.59125L22.5755 9.57675C20.3881 9.5687 18.5756 9.5911 18.4874 9.62728ZM18.3865 12.3304C18.0547 12.5858 18.0252 12.9677 18.3149 13.2581L18.5263 13.47H22.4788H26.4313L26.6427 13.2581C26.9324 12.9677 26.9029 12.5858 26.5711 12.3304C26.4053 12.2028 18.5523 12.2028 18.3865 12.3304ZM9.82294 12.5383C11.2067 12.9371 12.2276 13.9937 12.5768 15.3883L12.6229 15.5725H8.63177H4.64062L4.68683 15.3369C4.78656 14.829 5.24969 14.0193 5.69496 13.5746C6.79725 12.4737 8.29462 12.0978 9.82294 12.5383ZM18.3149 15.0594C18.0252 15.3498 18.0547 15.7317 18.3865 15.9871C18.5523 16.1147 26.4053 16.1147 26.5711 15.9871C26.9029 15.7317 26.9324 15.3498 26.6427 15.0594L26.4313 14.8475H22.4788H18.5263L18.3149 15.0594ZM18.7544 23.8737V25.65H15.5H12.2456V23.8737V22.0975H15.5H18.7544V23.8737ZM25.0461 27.1078C25.5693 27.3566 26.0225 27.8287 26.2035 28.3135C26.2829 28.5263 26.3479 28.7318 26.3479 28.7703C26.3479 28.8146 22.4019 28.84 15.5 28.84C8.59815 28.84 4.65212 28.8146 4.65212 28.7703C4.65212 28.7318 4.71713 28.5263 4.79654 28.3135C5.03375 27.678 5.67471 27.1263 6.36854 26.9607C6.52302 26.9238 10.5383 26.9007 15.6446 26.9072L24.6484 26.9187L25.0461 27.1078Z"/>
</mask>
<path fill-rule="evenodd" clip-rule="evenodd" d="M2.20773 1.2217C1.70128 1.47538 1.45344 1.73856 1.18731 2.305L1 2.70375V11.4762C1 19.7442 1.00752 20.2703 1.13046 20.6236C1.30497 21.1249 1.74359 21.6084 2.25011 21.8578L2.66334 22.0612L6.83978 22.0821L11.0162 22.1031V23.8765V25.65L8.90087 25.6506C7.7374 25.6509 6.574 25.6841 6.31546 25.7246C5.38544 25.87 4.37644 26.5492 3.88026 27.3639C3.44034 28.0861 3.28218 29.2968 3.56654 29.7644L3.70987 30H15.4877H27.2656L27.4023 29.8486C27.5034 29.7366 27.546 29.5578 27.566 29.1623C27.6308 27.875 26.8757 26.6386 25.6631 26.0464C25.3834 25.9098 24.9431 25.765 24.6845 25.7246C24.426 25.6841 23.2625 25.6509 22.0991 25.6506L19.9838 25.65V23.8765V22.1031L24.1602 22.0821L28.3367 22.0612L28.7499 21.8578C29.2564 21.6084 29.695 21.1249 29.8695 20.6236C29.9925 20.2703 30 19.7439 30 11.4689V2.6891L29.7469 2.19168C29.4688 1.64518 29.0082 1.22845 28.5202 1.08193C28.3221 1.0224 24.7514 1 15.4489 1H2.65025L2.20773 1.2217ZM28.3029 2.34248C28.7604 2.57963 28.7344 2.02508 28.7344 11.5564V20.235L28.5522 20.4745C28.4417 20.6197 28.2639 20.7435 28.1002 20.7891C27.725 20.8936 3.27502 20.8936 2.89975 20.7891C2.73609 20.7435 2.55826 20.6197 2.44776 20.4745L2.26559 20.235V11.5564C2.26559 3.95184 2.27911 2.85158 2.37501 2.66576C2.61142 2.20734 1.65999 2.23859 15.4855 2.2354C26.615 2.23286 28.1156 2.2454 28.3029 2.34248ZM15.1959 3.2148C15.0709 3.28281 14.9731 3.41918 14.9251 3.59253C14.8201 3.97141 14.8211 19.7097 14.9261 20.0888C14.9832 20.2949 15.0649 20.3938 15.2512 20.4829C15.4818 20.5932 15.5182 20.5932 15.7489 20.4829C15.9351 20.3938 16.0168 20.2949 16.0739 20.0888C16.179 19.7093 16.1799 3.97141 16.0748 3.59202C16.0239 3.40838 15.9314 3.28491 15.7895 3.21139C15.5324 3.07807 15.4461 3.07858 15.1959 3.2148ZM7.94264 6.32215C6.8606 6.59091 6.04484 7.36217 5.72461 8.41929C5.4349 9.37535 5.67023 10.5109 6.3091 11.2404L6.54095 11.5052L6.22933 11.6626C4.82851 12.3706 3.75124 13.7568 3.46088 15.2251C3.29172 16.0804 3.31103 16.3417 3.56176 16.5931L3.77315 16.805H8.62006H13.467L13.6699 16.6295C13.8577 16.4671 13.8721 16.4172 13.8633 15.9581C13.8312 14.2798 12.7351 12.5638 11.1857 11.7662C10.9532 11.6466 10.7507 11.5417 10.7354 11.5331C10.7201 11.5245 10.8145 11.3954 10.945 11.2464C11.9408 10.1094 11.8662 8.26305 10.7799 7.1567C10.0359 6.399 8.93588 6.07543 7.94264 6.32215ZM18.3149 7.15692C18.1875 7.28466 18.1035 7.44525 18.1035 7.56125C18.1035 7.67725 18.1875 7.83784 18.3149 7.96558L18.5263 8.1775H22.4788H26.4313L26.6427 7.96558C26.917 7.69059 26.917 7.43191 26.6427 7.15692L26.4313 6.945H22.4788H18.5263L18.3149 7.15692ZM9.41629 7.66543C10.0689 7.99922 10.4028 8.5553 10.3987 9.30125C10.3953 9.90866 10.2268 10.2843 9.78982 10.6593C9.44811 10.9526 9.08203 11.0775 8.56473 11.0775C8.10261 11.0775 7.79056 10.9511 7.41688 10.6127C6.79544 10.0499 6.6469 9.08426 7.07026 8.35998C7.53107 7.57176 8.60906 7.25262 9.41629 7.66543ZM18.4874 9.62728C18.2305 9.73255 18.0803 10.0246 18.1344 10.3139C18.2264 10.8053 18.0627 10.7875 22.4869 10.7875C26.9489 10.7875 26.7418 10.8119 26.8276 10.2746C26.8609 10.0658 26.8336 9.97412 26.6871 9.80331L26.5051 9.59125L22.5755 9.57675C20.3881 9.5687 18.5756 9.5911 18.4874 9.62728ZM18.3865 12.3304C18.0547 12.5858 18.0252 12.9677 18.3149 13.2581L18.5263 13.47H22.4788H26.4313L26.6427 13.2581C26.9324 12.9677 26.9029 12.5858 26.5711 12.3304C26.4053 12.2028 18.5523 12.2028 18.3865 12.3304ZM9.82294 12.5383C11.2067 12.9371 12.2276 13.9937 12.5768 15.3883L12.6229 15.5725H8.63177H4.64062L4.68683 15.3369C4.78656 14.829 5.24969 14.0193 5.69496 13.5746C6.79725 12.4737 8.29462 12.0978 9.82294 12.5383ZM18.3149 15.0594C18.0252 15.3498 18.0547 15.7317 18.3865 15.9871C18.5523 16.1147 26.4053 16.1147 26.5711 15.9871C26.9029 15.7317 26.9324 15.3498 26.6427 15.0594L26.4313 14.8475H22.4788H18.5263L18.3149 15.0594ZM18.7544 23.8737V25.65H15.5H12.2456V23.8737V22.0975H15.5H18.7544V23.8737ZM25.0461 27.1078C25.5693 27.3566 26.0225 27.8287 26.2035 28.3135C26.2829 28.5263 26.3479 28.7318 26.3479 28.7703C26.3479 28.8146 22.4019 28.84 15.5 28.84C8.59815 28.84 4.65212 28.8146 4.65212 28.7703C4.65212 28.7318 4.71713 28.5263 4.79654 28.3135C5.03375 27.678 5.67471 27.1263 6.36854 26.9607C6.52302 26.9238 10.5383 26.9007 15.6446 26.9072L24.6484 26.9187L25.0461 27.1078Z" fill="#FF8655"/>
<path fill-rule="evenodd" clip-rule="evenodd" d="M2.20773 1.2217C1.70128 1.47538 1.45344 1.73856 1.18731 2.305L1 2.70375V11.4762C1 19.7442 1.00752 20.2703 1.13046 20.6236C1.30497 21.1249 1.74359 21.6084 2.25011 21.8578L2.66334 22.0612L6.83978 22.0821L11.0162 22.1031V23.8765V25.65L8.90087 25.6506C7.7374 25.6509 6.574 25.6841 6.31546 25.7246C5.38544 25.87 4.37644 26.5492 3.88026 27.3639C3.44034 28.0861 3.28218 29.2968 3.56654 29.7644L3.70987 30H15.4877H27.2656L27.4023 29.8486C27.5034 29.7366 27.546 29.5578 27.566 29.1623C27.6308 27.875 26.8757 26.6386 25.6631 26.0464C25.3834 25.9098 24.9431 25.765 24.6845 25.7246C24.426 25.6841 23.2625 25.6509 22.0991 25.6506L19.9838 25.65V23.8765V22.1031L24.1602 22.0821L28.3367 22.0612L28.7499 21.8578C29.2564 21.6084 29.695 21.1249 29.8695 20.6236C29.9925 20.2703 30 19.7439 30 11.4689V2.6891L29.7469 2.19168C29.4688 1.64518 29.0082 1.22845 28.5202 1.08193C28.3221 1.0224 24.7514 1 15.4489 1H2.65025L2.20773 1.2217ZM28.3029 2.34248C28.7604 2.57963 28.7344 2.02508 28.7344 11.5564V20.235L28.5522 20.4745C28.4417 20.6197 28.2639 20.7435 28.1002 20.7891C27.725 20.8936 3.27502 20.8936 2.89975 20.7891C2.73609 20.7435 2.55826 20.6197 2.44776 20.4745L2.26559 20.235V11.5564C2.26559 3.95184 2.27911 2.85158 2.37501 2.66576C2.61142 2.20734 1.65999 2.23859 15.4855 2.2354C26.615 2.23286 28.1156 2.2454 28.3029 2.34248ZM15.1959 3.2148C15.0709 3.28281 14.9731 3.41918 14.9251 3.59253C14.8201 3.97141 14.8211 19.7097 14.9261 20.0888C14.9832 20.2949 15.0649 20.3938 15.2512 20.4829C15.4818 20.5932 15.5182 20.5932 15.7489 20.4829C15.9351 20.3938 16.0168 20.2949 16.0739 20.0888C16.179 19.7093 16.1799 3.97141 16.0748 3.59202C16.0239 3.40838 15.9314 3.28491 15.7895 3.21139C15.5324 3.07807 15.4461 3.07858 15.1959 3.2148ZM7.94264 6.32215C6.8606 6.59091 6.04484 7.36217 5.72461 8.41929C5.4349 9.37535 5.67023 10.5109 6.3091 11.2404L6.54095 11.5052L6.22933 11.6626C4.82851 12.3706 3.75124 13.7568 3.46088 15.2251C3.29172 16.0804 3.31103 16.3417 3.56176 16.5931L3.77315 16.805H8.62006H13.467L13.6699 16.6295C13.8577 16.4671 13.8721 16.4172 13.8633 15.9581C13.8312 14.2798 12.7351 12.5638 11.1857 11.7662C10.9532 11.6466 10.7507 11.5417 10.7354 11.5331C10.7201 11.5245 10.8145 11.3954 10.945 11.2464C11.9408 10.1094 11.8662 8.26305 10.7799 7.1567C10.0359 6.399 8.93588 6.07543 7.94264 6.32215ZM18.3149 7.15692C18.1875 7.28466 18.1035 7.44525 18.1035 7.56125C18.1035 7.67725 18.1875 7.83784 18.3149 7.96558L18.5263 8.1775H22.4788H26.4313L26.6427 7.96558C26.917 7.69059 26.917 7.43191 26.6427 7.15692L26.4313 6.945H22.4788H18.5263L18.3149 7.15692ZM9.41629 7.66543C10.0689 7.99922 10.4028 8.5553 10.3987 9.30125C10.3953 9.90866 10.2268 10.2843 9.78982 10.6593C9.44811 10.9526 9.08203 11.0775 8.56473 11.0775C8.10261 11.0775 7.79056 10.9511 7.41688 10.6127C6.79544 10.0499 6.6469 9.08426 7.07026 8.35998C7.53107 7.57176 8.60906 7.25262 9.41629 7.66543ZM18.4874 9.62728C18.2305 9.73255 18.0803 10.0246 18.1344 10.3139C18.2264 10.8053 18.0627 10.7875 22.4869 10.7875C26.9489 10.7875 26.7418 10.8119 26.8276 10.2746C26.8609 10.0658 26.8336 9.97412 26.6871 9.80331L26.5051 9.59125L22.5755 9.57675C20.3881 9.5687 18.5756 9.5911 18.4874 9.62728ZM18.3865 12.3304C18.0547 12.5858 18.0252 12.9677 18.3149 13.2581L18.5263 13.47H22.4788H26.4313L26.6427 13.2581C26.9324 12.9677 26.9029 12.5858 26.5711 12.3304C26.4053 12.2028 18.5523 12.2028 18.3865 12.3304ZM9.82294 12.5383C11.2067 12.9371 12.2276 13.9937 12.5768 15.3883L12.6229 15.5725H8.63177H4.64062L4.68683 15.3369C4.78656 14.829 5.24969 14.0193 5.69496 13.5746C6.79725 12.4737 8.29462 12.0978 9.82294 12.5383ZM18.3149 15.0594C18.0252 15.3498 18.0547 15.7317 18.3865 15.9871C18.5523 16.1147 26.4053 16.1147 26.5711 15.9871C26.9029 15.7317 26.9324 15.3498 26.6427 15.0594L26.4313 14.8475H22.4788H18.5263L18.3149 15.0594ZM18.7544 23.8737V25.65H15.5H12.2456V23.8737V22.0975H15.5H18.7544V23.8737ZM25.0461 27.1078C25.5693 27.3566 26.0225 27.8287 26.2035 28.3135C26.2829 28.5263 26.3479 28.7318 26.3479 28.7703C26.3479 28.8146 22.4019 28.84 15.5 28.84C8.59815 28.84 4.65212 28.8146 4.65212 28.7703C4.65212 28.7318 4.71713 28.5263 4.79654 28.3135C5.03375 27.678 5.67471 27.1263 6.36854 26.9607C6.52302 26.9238 10.5383 26.9007 15.6446 26.9072L24.6484 26.9187L25.0461 27.1078Z" stroke="#FF8655" stroke-width="0.4" mask="url(#path-1-outside-1_1267_10541)"/>
</svg>
