<svg width="30" height="30" viewBox="0 0 30 30" fill="none" xmlns="http://www.w3.org/2000/svg">
<path fill-rule="evenodd" clip-rule="evenodd" d="M2.02508 0.0845114C1.53186 0.207962 1.16265 0.41877 0.790751 0.789355C0.407718 1.17107 0.176164 1.5914 0.0694962 2.09874C-0.0238749 2.54279 -0.0228206 20.3174 0.0706092 20.7541C0.285996 21.7607 1.09482 22.5697 2.10117 22.7851C2.31691 22.8313 3.75051 22.8516 6.80195 22.8516H11.1923V23.789V24.7265H10.3699C9.40609 24.7265 9.16387 24.8054 8.97531 25.1813C8.91492 25.3018 8.59515 26.2137 8.26472 27.208C7.61751 29.1554 7.59513 29.2852 7.84637 29.6381C8.12291 30.0266 7.36739 29.9996 17.9785 29.9996C24.7922 29.9996 27.6783 29.9807 27.8984 29.9346C28.347 29.8406 28.9545 29.5033 29.2562 29.1807C29.5661 28.8494 29.838 28.3329 29.9295 27.9021C30.0238 27.4579 30.0233 2.53957 29.929 2.09874C29.7131 1.08957 28.9018 0.277626 27.8984 0.0665827C27.4249 -0.0330797 2.42563 -0.0157369 2.02508 0.0845114ZM27.771 1.87691C27.9199 1.95285 28.0443 2.07729 28.1202 2.22617C28.2346 2.45045 28.2381 2.56506 28.2381 6.04059V9.62375L28.077 9.57717C27.806 9.49878 19.066 9.47616 18.6676 9.5528C17.6355 9.75136 16.8033 10.5667 16.5881 11.5904C16.5452 11.7941 16.5228 12.8773 16.5228 14.7396V17.5784H9.14214H1.76148V10.2989V3.01943L3.46103 4.71814L5.16063 6.41692L4.6472 6.44639C4.31513 6.46543 4.06683 6.51242 3.94405 6.57939C3.72591 6.69844 3.51878 7.06165 3.51878 7.32507C3.51878 7.6158 3.72597 7.95333 3.98587 8.08598C4.20132 8.1959 4.32896 8.20393 5.86185 8.20393C7.39474 8.20393 7.52238 8.1959 7.73782 8.08598C7.88667 8.01005 8.01108 7.8856 8.087 7.73673C8.19689 7.52123 8.20492 7.39356 8.20492 5.86031C8.20492 4.32705 8.19689 4.19938 8.087 3.98389C7.95438 3.72392 7.61692 3.51669 7.32627 3.51669C7.0629 3.51669 6.69979 3.72386 6.58076 3.94205C6.51381 4.06486 6.46683 4.31322 6.44779 4.64537L6.41833 5.15892L4.71996 3.45891L3.02164 1.75897H15.2807C27.4516 1.75897 27.5415 1.75979 27.771 1.87691ZM27.771 11.3686C27.9199 11.4445 28.0443 11.569 28.1202 11.7178C28.2367 11.9462 28.2381 12.0473 28.2381 19.7463C28.2381 27.4452 28.2367 27.5464 28.1202 27.7747C28.0443 27.9236 27.9199 28.048 27.771 28.1239C27.5456 28.239 27.4338 28.2419 23.2591 28.2419C19.0844 28.2419 18.9727 28.239 18.7472 28.1239C18.5983 28.048 18.4739 27.9236 18.398 27.7747C18.2816 27.5465 18.2801 27.4446 18.2801 20.0273V12.5111L19.9796 14.2098L21.6792 15.9086L21.1658 15.9381C20.8337 15.9571 20.5854 16.0041 20.4627 16.0711C20.2445 16.1901 20.0374 16.5533 20.0374 16.8167C20.0374 17.1075 20.2446 17.445 20.5045 17.5776C20.7199 17.6876 20.8476 17.6956 22.3805 17.6956C23.9134 17.6956 24.041 17.6876 24.2564 17.5776C24.4053 17.5017 24.5297 17.3773 24.6056 17.2284C24.7155 17.0129 24.7235 16.8852 24.7235 15.352C24.7235 13.8187 24.7155 13.691 24.6056 13.4755C24.473 13.2156 24.1355 13.0083 23.8449 13.0083C23.5815 13.0083 23.2184 13.2155 23.0994 13.4337C23.0324 13.5565 22.9854 13.8049 22.9664 14.137L22.9369 14.6506L21.2386 12.9506L19.5403 11.2506H23.54C27.4332 11.2506 27.546 11.2538 27.771 11.3686ZM16.5228 20.215V21.0938H9.48692H2.45105L2.21739 20.9625C1.86874 20.7665 1.76148 20.5085 1.76148 19.8658V19.3361H9.14214H16.5228V20.215ZM16.5228 23.789V24.7265H14.7362H12.9496V23.789V22.8516H14.7362H16.5228V23.789ZM16.5413 27.2019C16.5592 27.5967 16.5919 27.9922 16.6138 28.0808L16.6536 28.2419H13.2201C11.3316 28.2419 9.78648 28.2342 9.78648 28.2248C9.78648 28.2077 10.2893 26.6964 10.3412 26.5574C10.3626 26.5001 11.0362 26.4842 13.4386 26.4842H16.5087L16.5413 27.2019Z" fill="#FF8655"/>
</svg>
