<svg width="50" height="50" viewBox="0 0 50 50" fill="none" xmlns="http://www.w3.org/2000/svg">
<circle cx="25" cy="25" r="25" fill="#4680C2"/>
<path fill-rule="evenodd" clip-rule="evenodd" d="M40.8675 15.9596C41.1145 15.1834 40.8675 14.6188 39.7737 14.6188H36.1392C35.2218 14.6188 34.7983 15.1128 34.5514 15.6421C34.5514 15.6421 32.6812 20.1587 30.07 23.0873C29.2231 23.9342 28.835 24.2165 28.3764 24.2165C28.1293 24.2165 27.8118 23.9342 27.8118 23.158V15.9243C27.8118 15.0069 27.5295 14.5835 26.7531 14.5835H21.0369C20.4723 14.5835 20.1195 15.0069 20.1195 15.4304C20.1195 16.3126 21.425 16.5242 21.5662 18.9942V24.3577C21.5662 25.5221 21.3545 25.7338 20.8957 25.7338C19.6607 25.7338 16.6615 21.1819 14.8619 15.995C14.509 14.9716 14.1562 14.5835 13.2388 14.5835H9.56897C8.51042 14.5835 8.33398 15.0776 8.33398 15.6068C8.33398 16.5595 9.56897 21.3584 14.0855 27.7099C17.0849 32.05 21.3545 34.3788 25.2006 34.3788C27.5295 34.3788 27.8118 33.8495 27.8118 32.9675V29.6859C27.8118 28.6272 28.0235 28.4509 28.7645 28.4509C29.2938 28.4509 30.2465 28.7331 32.3989 30.815C34.8689 33.285 35.2923 34.4141 36.6685 34.4141H40.3029C41.3615 34.4141 41.8555 33.8848 41.5732 32.8615C41.2556 31.8383 40.056 30.3563 38.5033 28.5919C37.6565 27.604 36.3862 26.5102 35.998 25.9808C35.4688 25.2752 35.6099 24.9929 35.998 24.3577C35.9628 24.3577 40.4088 18.0768 40.8675 15.9596Z" fill="white"/>
</svg>
