<svg width="22" height="16" viewBox="0 0 22 16" fill="none" xmlns="http://www.w3.org/2000/svg">
<path fill-rule="evenodd" clip-rule="evenodd" d="M1.48502 0.0640904C1.12333 0.157711 0.852566 0.31758 0.579832 0.598618C0.298935 0.888099 0.129125 1.20686 0.0509005 1.59161C-0.0174872 1.92787 -0.016714 14.0755 0.0517167 14.4061C0.209069 15.1666 0.810726 15.7893 1.54083 15.9475C1.86485 16.0177 20.137 16.0174 20.4592 15.9472C21.1882 15.7884 21.797 15.1588 21.9494 14.4061C22.0175 14.0693 22.0166 1.92139 21.9483 1.59161C21.79 0.826293 21.195 0.210541 20.4592 0.0504939C20.1119 -0.0250865 1.77876 -0.0119343 1.48502 0.0640904ZM15.6178 5.64678C13.3261 8.01883 11.3989 9.98832 11.3351 10.0234C11.2713 10.0585 11.1205 10.0872 11 10.0872C10.8795 10.0872 10.7288 10.0585 10.665 10.0234C10.6012 9.98832 8.67394 8.01883 6.38222 5.64678L2.21547 1.33394H11H19.7846L15.6178 5.64678ZM4.07315 10.8759L1.29172 13.7528V7.99888V2.2449L4.07315 5.12189L6.85458 7.99888L4.07315 10.8759ZM20.7083 8.00994V13.7528L17.9269 10.8759L15.1456 7.99897L17.9161 5.133C19.4399 3.5567 20.6915 2.26703 20.6975 2.26703C20.7034 2.26703 20.7083 4.85134 20.7083 8.00994ZM8.76295 10.013C9.68653 10.9582 9.80582 11.0649 10.1172 11.2238L10.4586 11.398H10.9978C11.5327 11.398 11.5397 11.3967 11.8761 11.2305C12.1903 11.0753 12.2908 10.9855 13.2414 10.01L14.2675 8.95703L17.0261 11.8104L19.7847 14.6638H11.0001H2.21555L4.96455 11.8201C6.47651 10.2561 7.7218 8.9764 7.73185 8.9764C7.7419 8.9764 8.20588 9.44286 8.76295 10.013Z" fill="#2AA1D8"/>
</svg>
