<svg width="24" height="24" viewBox="0 0 24 24" fill="none" xmlns="http://www.w3.org/2000/svg">
<path d="M13.4719 2.33544L13.4611 2.38425C13.3094 2.35055 13.159 2.31174 13.0386 2.27629C12.9785 2.25858 12.9254 2.24158 12.8832 2.22634C12.8426 2.2117 12.8075 2.19713 12.7869 2.18361C12.3619 1.9051 12.4036 1.25939 12.8591 1.03055M13.4719 2.33544L13.1286 0.95C13.1286 0.95 13.1285 0.95 13.1285 0.95C13.0941 0.950009 13.0471 0.960305 13.0012 0.974276C12.9541 0.988628 12.9031 1.00844 12.8591 1.03055M13.4719 2.33544L13.4611 2.38425C14.3798 2.58841 14.8316 2.73806 15.6542 3.1107C16.8311 3.64381 17.8721 4.38493 18.8446 5.38268C20.2475 6.82196 21.1674 8.55201 21.5966 10.5588C21.6545 10.8292 21.6917 10.9875 21.7368 11.0935C21.7842 11.2051 21.8408 11.2597 21.9292 11.3255L21.9591 11.2854L21.9292 11.3255C22.2167 11.5394 22.5804 11.5212 22.8179 11.2733C22.9207 11.1659 22.9808 11.0713 22.9954 10.9244C23.0093 10.7837 22.9811 10.5973 22.922 10.3073C22.0562 6.0562 18.8407 2.54214 14.6784 1.29814L14.664 1.34605L13.4719 2.33544ZM12.8591 1.03055L12.8815 1.07523L12.8591 1.03055C12.8591 1.03055 12.8591 1.03055 12.8591 1.03055ZM5.52078 3.66756L5.52077 3.66756L5.52078 3.66756ZM5.52078 3.66756C5.53191 3.67279 5.55452 3.68779 5.58988 3.7154M5.52078 3.66756L5.58988 3.7154M5.58988 3.7154C5.62404 3.74207 5.66698 3.77801 5.71762 3.82219M5.58988 3.7154L5.71762 3.82219M5.71762 3.82219C5.81885 3.9105 5.94935 4.03042 6.09921 4.17201M5.71762 3.82219L6.09921 4.17201M6.09921 4.17201C6.39884 4.45511 6.77461 4.8237 7.14584 5.19672M6.09921 4.17201L7.14584 5.19672M7.14584 5.19672C7.51707 5.56973 7.88345 5.94687 8.1643 6.24704M7.14584 5.19672L8.1643 6.24704M8.1643 6.24704C8.30477 6.39717 8.42355 6.52774 8.51077 6.62878M8.1643 6.24704L8.51077 6.62878M8.51077 6.62878C8.55441 6.67933 8.5898 6.72209 8.61594 6.756M8.51077 6.62878L8.61594 6.756M8.61594 6.756C8.64309 6.79122 8.65742 6.81331 8.66214 6.82376M8.61594 6.756L8.66214 6.82376M8.66214 6.82376C8.71743 6.94632 8.75002 7.0421 8.75378 7.13528M8.66214 6.82376L8.75378 7.13528M8.75378 7.13528C8.75746 7.2268 8.73342 7.32086 8.66527 7.43928M8.75378 7.13528L8.66527 7.43928M8.66527 7.43928C8.59649 7.55881 8.48404 7.70099 8.31331 7.88766M8.66527 7.43928L8.31331 7.88766M8.31331 7.88766C8.14287 8.074 7.91641 8.3025 7.6212 8.59462M8.31331 7.88766L7.6212 8.59462M7.6212 8.59462C7.35807 8.85502 7.11033 9.10846 6.92309 9.30711M7.6212 8.59462L6.92309 9.30711M6.92309 9.30711C6.82951 9.4064 6.7508 9.49226 6.69277 9.55857M6.92309 9.30711L6.69277 9.55857M6.69277 9.55857C6.66377 9.5917 6.63965 9.62028 6.62131 9.6434M6.69277 9.55857L6.62131 9.6434M6.62131 9.6434C6.60388 9.66537 6.58908 9.68557 6.58136 9.70082L6.62131 9.6434ZM6.70959 10.8405C6.60843 10.6253 6.54432 10.4057 6.5211 10.2083L6.70959 10.8405ZM6.70959 10.8405C7.26563 12.0235 8.16532 13.2136 9.53222 14.5782M6.70959 10.8405L9.53222 14.5782M9.53222 14.5782C10.655 15.6991 11.8106 16.5682 12.9804 17.1706M9.53222 14.5782L12.9804 17.1706M12.9804 17.1706C13.2228 17.2954 13.3647 17.3657 13.4765 17.4039M12.9804 17.1706L13.4765 17.4039M13.4765 17.4039C13.5918 17.4432 13.6753 17.4484 13.799 17.4474M13.4765 17.4039L13.799 17.4474M13.799 17.4474C13.9724 17.446 14.1301 17.4164 14.2365 17.3605M13.799 17.4474L14.2365 17.3605M14.2365 17.3605C14.2515 17.3527 14.2717 17.3379 14.2942 17.3202M14.2365 17.3605L14.2942 17.3202M14.2942 17.3202C14.3177 17.3016 14.3469 17.2773 14.3807 17.248M14.2942 17.3202L14.3807 17.248M14.3807 17.248C14.4484 17.1895 14.5361 17.1104 14.6376 17.0164M14.3807 17.248L14.6376 17.0164M14.6376 17.0164C14.8407 16.8285 15.0998 16.5803 15.3661 16.3171M14.6376 17.0164L15.3661 16.3171M15.3661 16.3171C15.6318 16.0546 15.8897 15.8076 16.0911 15.6213M15.3661 16.3171L16.0911 15.6213M16.0911 15.6213C16.1918 15.5281 16.2782 15.4503 16.3442 15.3934M16.0911 15.6213L16.3442 15.3934M16.3442 15.3934C16.3772 15.3649 16.4048 15.3419 16.4264 15.3249M16.3442 15.3934L16.4264 15.3249M16.4264 15.3249C16.4492 15.3071 16.4623 15.2983 16.4674 15.2956M16.4264 15.3249L16.4674 15.2956M16.4674 15.2956C16.5637 15.2466 16.7011 15.2282 16.8433 15.2416C16.9851 15.255 17.1246 15.2994 17.2242 15.3685C17.2587 15.3924 17.3302 15.4545 17.4316 15.5485C17.5319 15.6415 17.659 15.7633 17.8036 15.9045C18.0927 16.1868 18.4509 16.5457 18.8029 16.9045C19.1549 17.2633 19.5006 17.6218 19.7646 17.9033C19.8966 18.0441 20.008 18.1654 20.0895 18.2577C20.1302 18.3039 20.1632 18.3425 20.1875 18.3725C20.2129 18.4039 20.2257 18.4223 20.2294 18.4296C20.3482 18.6647 20.348 18.9293 20.2288 19.1636C20.2202 19.1807 20.1922 19.2191 20.1437 19.278C20.0966 19.3353 20.0336 19.4081 19.9586 19.492C19.8087 19.6598 19.6124 19.871 19.4039 20.0897C18.9864 20.5275 18.5224 20.9928 18.286 21.1984C17.6169 21.7804 16.6711 21.8586 15.0861 21.4304C13.9325 21.1188 12.1461 20.2533 10.6727 19.2905C7.54103 17.2441 4.67658 13.9275 3.22914 10.6733C2.76368 9.62682 2.47466 8.70472 2.36263 7.92129C2.25054 7.13753 2.31613 6.49642 2.55522 6.00844C2.59612 5.92497 2.67971 5.8107 2.85052 5.61915C3.0206 5.42842 3.27411 5.16433 3.65146 4.78176C3.96438 4.46453 4.22904 4.20489 4.43055 4.0167C4.53133 3.92258 4.61599 3.84664 4.6828 3.79042C4.75082 3.73318 4.79711 3.69919 4.82229 3.68597L16.4674 15.2956ZM4.56329 2.32393L4.56329 2.32393C3.99796 2.5048 3.53173 2.89897 2.24485 4.26146L2.24485 4.26146C1.78233 4.7512 1.48418 5.12294 1.2914 5.49805C1.09801 5.87437 1.01222 6.25099 0.968977 6.74797C0.845849 8.16326 1.32304 9.94801 2.36703 12.0058C2.80897 12.8769 3.00751 13.2157 3.5669 14.0528C5.67864 17.2134 8.44681 19.7339 11.718 21.4742C13.5713 22.4602 15.1414 22.9688 16.575 23.0437C17.5925 23.0969 18.4996 22.8123 19.1823 22.2218L19.1824 22.2218C19.2632 22.1518 19.7592 21.6533 20.283 21.1158C21.1506 20.2256 21.2583 20.1001 21.4279 19.7618C21.593 19.4323 21.677 19.1182 21.6775 18.8006C21.678 18.4831 21.595 18.1655 21.431 17.829C21.3423 17.647 21.2853 17.5417 21.0547 17.2866C20.8265 17.0341 20.4253 16.6316 19.6482 15.8541C18.8938 15.0993 18.4896 14.6971 18.2357 14.4655C17.9799 14.2323 17.8733 14.1692 17.7143 14.0935C17.0409 13.773 16.3467 13.8044 15.6941 14.1839C15.6628 14.2022 15.6088 14.2448 15.5411 14.3024C15.472 14.3611 15.3852 14.4383 15.2867 14.5284C15.0897 14.7087 14.8451 14.9416 14.6002 15.1837L13.7373 16.0366L13.3416 15.8271C12.4028 15.3299 11.3134 14.4582 10.3427 13.4809C9.37199 12.5036 8.52405 11.4248 8.06568 10.5156L8.02103 10.5381L8.06568 10.5156L7.91678 10.2203L8.71781 9.41262C9.59746 8.52567 9.81789 8.25031 9.96447 7.83276C10.1612 7.27231 10.1209 6.73218 9.84254 6.16795C9.76937 6.01967 9.69456 5.90483 9.45588 5.6447C9.21822 5.38569 8.81532 4.97965 8.08446 4.249C7.25297 3.41773 6.80139 2.97168 6.49443 2.71507C6.34039 2.58631 6.22118 2.50387 6.10727 2.44403C5.99323 2.38413 5.88632 2.34786 5.75879 2.30999C5.59821 2.26231 5.37829 2.24092 5.16115 2.24346C4.94398 2.24599 4.72401 2.27252 4.56329 2.32393ZM12.4062 5.95641L12.4062 5.95642C12.47 6.06097 12.5327 6.13146 12.6494 6.19068C12.7618 6.24766 12.9237 6.29387 13.1825 6.35703C14.3659 6.64579 15.3135 7.18754 16.1212 8.03628C16.8819 8.8356 17.3982 9.79618 17.6254 10.8332C17.7144 11.2394 17.7796 11.3914 17.9472 11.5232C18.1369 11.6724 18.3823 11.6908 18.5892 11.616C18.7961 11.5413 18.9706 11.3711 19.0147 11.1364C19.0317 11.0455 19.0215 10.9066 18.9939 10.7436C18.966 10.5787 18.9193 10.3828 18.8593 10.1745C18.7393 9.75806 18.565 9.28849 18.3784 8.91225C17.4128 6.96577 15.6618 5.56379 13.5588 5.05356C13.2982 4.99035 13.1213 4.95652 12.9856 4.95361C12.8463 4.95062 12.7495 4.98015 12.6501 5.0408C12.3345 5.23319 12.2199 5.65085 12.4062 5.95641Z" fill="#2AA1D8" stroke="#2AA1D8" stroke-width="0.1"/>
</svg>
