<svg width="53" height="56" viewBox="0 0 53 56" fill="none" xmlns="http://www.w3.org/2000/svg">
<path fill-rule="evenodd" clip-rule="evenodd" d="M0.133602 56L1.85575 55.8897C6.49495 55.5929 9.25498 55.194 12.8791 54.2964C27.6085 50.6486 40.2095 40.6761 47.1583 27.1677C50.8409 20.009 52.6372 12.9923 52.891 4.77523L53 1.24265L52.3726 0.621414C51.8694 0.123131 51.6094 0 51.0602 0C50.1555 0 49.7435 0.313942 49.055 1.52738C42.7162 12.7011 31.3488 21.2682 18.5828 24.4933C14.0678 25.634 11.7547 25.9035 5.56499 26.0107L0.133602 26.1048C0.133602 26.1048 0.0419312 38.206 0.133602 38.6901V56Z" fill="white"/>
</svg>
