<svg width="50" height="37" viewBox="0 0 50 37" fill="none" xmlns="http://www.w3.org/2000/svg">
<mask id="path-1-outside-1_1267_10956" maskUnits="userSpaceOnUse" x="0" y="0" width="50" height="37" fill="black">
<rect fill="white" width="50" height="37"/>
<path fill-rule="evenodd" clip-rule="evenodd" d="M5.73052 1.06468C4.87804 1.21285 4.14924 1.76383 3.72542 2.58045L3.46546 3.08125L3.43942 15.6012L3.41348 28.1211H2.53787C1.6668 28.1211 1.34654 28.2081 1.12152 28.5061C1.03615 28.6191 1.00276 29.3498 1.00054 31.1509C0.997439 33.6036 1.00063 33.6429 1.21521 33.8584C1.40636 34.0502 2.10127 34.1944 6.90133 35.0385L12.3697 36L25.3873 35.9655L38.4049 35.9309L43.5247 34.9949C48.1525 34.1488 48.6617 34.0373 48.8237 33.8339C48.9876 33.6282 49.0025 33.3988 48.9997 31.1356C48.9975 29.3466 48.964 28.619 48.8787 28.5061C48.6537 28.2081 48.3334 28.1211 47.4624 28.1211H46.5868L46.5608 15.6012L46.5348 3.08125L46.2748 2.58045C45.9709 1.99484 45.4639 1.51284 44.846 1.2223L44.4055 1.01509L25.2905 1.00122C14.7772 0.993643 5.97519 1.02218 5.73052 1.06468ZM44.3902 2.7668C44.5368 2.8645 44.7416 3.08587 44.8453 3.25874C45.0296 3.56601 45.0339 3.85477 45.0342 15.8471L45.0346 28.1211H24.9991H4.9634L4.98876 15.726L5.01402 3.33096L5.31589 3.02418C5.48188 2.85535 5.76497 2.68169 5.94499 2.6382C6.12492 2.59462 14.7888 2.56579 25.198 2.57415C43.2625 2.58862 44.1359 2.59737 44.3902 2.7668ZM23.5123 6.20813C23.37 6.35285 23.2483 6.65874 23.17 7.06902C22.8566 8.71102 22.916 8.58499 22.3432 8.82634L21.8246 9.04476L20.8856 8.43249C19.5957 7.59156 19.5833 7.59324 18.4554 8.75668C17.7912 9.44185 17.5477 9.75984 17.5477 9.94216C17.5477 10.0827 17.8189 10.6123 18.1699 11.1574L18.7922 12.1234L18.6434 12.4725C18.5615 12.6646 18.4727 12.8977 18.4461 12.9906C18.3903 13.1858 18.3906 13.1857 17.1121 13.4598C15.8508 13.7303 15.7961 13.7881 15.7329 14.915C15.6728 15.9861 15.7611 16.6629 15.9918 16.8973C16.0975 17.0049 16.5846 17.1611 17.252 17.3016L18.3399 17.5307L18.569 18.0573L18.798 18.584L18.2199 19.4789C17.6106 20.4224 17.4932 20.7077 17.5887 21.0136C17.6209 21.1167 18.033 21.5847 18.5045 22.0538C19.5792 23.1228 19.6293 23.1285 20.8462 22.3162C21.3326 21.9915 21.7856 21.7258 21.8529 21.7258C21.9201 21.7258 22.1733 21.815 22.4156 21.9239C22.8448 22.1169 22.8596 22.1386 23.0038 22.7848C23.0852 23.1493 23.1796 23.6253 23.2136 23.8425C23.3382 24.6387 23.5992 24.7759 24.9892 24.7759C26.5532 24.7759 26.6194 24.7246 26.8937 23.3017C27.1246 22.1036 27.1362 22.0841 27.7316 21.8783L28.2562 21.6971L29.1409 22.3018C30.3612 23.1359 30.4135 23.1304 31.5006 22.049C31.9746 21.5774 32.3868 21.0936 32.4163 20.9738C32.4949 20.6557 32.4061 20.4478 31.7729 19.4675L31.2022 18.584L31.4308 18.0584L31.6594 17.5329L32.705 17.3099C33.2801 17.1872 33.8268 17.0453 33.92 16.9946C34.1597 16.8643 34.2904 16.2943 34.2904 15.3798C34.2904 14.5389 34.1717 13.9411 33.9709 13.7717C33.903 13.7144 33.4355 13.5765 32.9322 13.4653C32.4289 13.3542 31.9242 13.2418 31.8108 13.2156C31.6975 13.1896 31.5824 13.0902 31.5552 12.9949C31.528 12.8996 31.4387 12.6646 31.3569 12.4725L31.208 12.1234L31.8303 11.1574C32.1814 10.6123 32.4526 10.0827 32.4526 9.94216C32.4526 9.75984 32.2091 9.44185 31.5448 8.75668C30.4121 7.58812 30.3931 7.58566 29.1218 8.4378L28.2006 9.05528L27.6696 8.83155C27.0823 8.5841 27.1442 8.71408 26.8302 7.06902C26.635 6.04608 26.5297 5.9837 25.0001 5.9837C23.8101 5.9837 23.7198 5.99738 23.5123 6.20813ZM25.5245 8.46801C25.7674 9.70553 25.8678 9.88125 26.4284 10.0511C26.6809 10.1276 27.1764 10.3293 27.5297 10.4993C28.2878 10.8642 28.3244 10.8565 29.4217 10.1038C30.1806 9.58314 30.3181 9.56317 30.5515 9.9394C30.6249 10.0578 30.5182 10.2968 30.0983 10.956C29.4809 11.9249 29.4411 12.153 29.78 12.7847C29.907 13.0215 30.0864 13.4588 30.1785 13.7564C30.2707 14.054 30.4048 14.3608 30.4765 14.4381C30.5482 14.5155 31.0548 14.6733 31.6023 14.7888L32.5977 14.9987L32.6278 15.3614C32.6443 15.5609 32.6327 15.7241 32.6019 15.7241C32.2926 15.7241 30.6224 16.1723 30.4923 16.2903C30.3989 16.3749 30.2748 16.6241 30.2165 16.8442C30.1583 17.0642 29.9842 17.4987 29.8298 17.8096C29.6753 18.1206 29.549 18.4984 29.549 18.6492C29.549 18.8182 29.7536 19.2341 30.0813 19.7318C30.3741 20.1763 30.6137 20.5777 30.6137 20.6239C30.6137 20.6699 30.5142 20.8027 30.3925 20.9188L30.1714 21.13L29.3037 20.5426C28.8264 20.2196 28.3659 19.9551 28.2803 19.955C28.1946 19.9549 27.8026 20.1049 27.4092 20.2882C27.0158 20.4716 26.5568 20.6512 26.3894 20.6873C25.9178 20.7892 25.7686 21.046 25.5455 22.1396L25.3389 23.1525H25.0001H24.6614L24.4547 22.1396C24.2317 21.046 24.0824 20.7892 23.6109 20.6873C23.4434 20.6512 22.9845 20.4716 22.591 20.2882C22.1976 20.1049 21.8056 19.9549 21.72 19.955C21.6343 19.9551 21.1738 20.2196 20.6966 20.5426L19.8288 21.13L19.6077 20.9188C19.4861 20.8027 19.3866 20.6699 19.3866 20.6239C19.3866 20.5777 19.6261 20.1763 19.9189 19.7318C20.2466 19.2341 20.4512 18.8182 20.4512 18.6492C20.4512 18.4984 20.3249 18.1206 20.1705 17.8096C20.0161 17.4987 19.842 17.0642 19.7837 16.8442C19.7254 16.6241 19.6014 16.3749 19.508 16.2903C19.3779 16.1723 17.7077 15.7241 17.3983 15.7241C17.3676 15.7241 17.3559 15.5609 17.3725 15.3614L17.4025 14.9987L18.4091 14.7864C19.5227 14.5515 19.579 14.5091 19.8301 13.7171C19.9177 13.4411 20.0932 13.0215 20.2202 12.7847C20.5591 12.153 20.5194 11.9249 19.902 10.956C19.482 10.2968 19.3754 10.0578 19.4487 9.9394C19.6822 9.56317 19.8196 9.58314 20.5786 10.1038C21.6758 10.8565 21.7124 10.8642 22.4706 10.4993C22.8238 10.3293 23.3194 10.1276 23.5719 10.0511C24.1324 9.88125 24.2328 9.70553 24.4757 8.46801L24.6545 7.55791H25.0001H25.3457L25.5245 8.46801ZM23.9457 11.2556C23.1797 11.465 22.545 11.8513 21.9941 12.4435C19.67 14.9416 21.0736 19.0812 24.4015 19.5439C27.0812 19.9165 29.3218 17.7838 29.1366 15.0371C28.9599 12.4166 26.4328 10.5757 23.9457 11.2556ZM26.259 13.0283C26.8252 13.3416 27.1214 13.6872 27.4287 14.3934C27.6882 14.99 27.6513 15.9584 27.3459 16.5604C26.3495 18.5252 23.5519 18.467 22.618 16.4621C22.362 15.9125 22.3114 15.0932 22.4991 14.5335C23.0335 12.9397 24.8119 12.2277 26.259 13.0283ZM17.2573 30.7629C17.2573 31.905 17.3648 32.3964 17.6482 32.5506C17.7592 32.6109 20.5051 32.6469 25.0001 32.6469C29.4951 32.6469 32.2411 32.6109 32.352 32.5506C32.6355 32.3964 32.7429 31.905 32.7429 30.7629V29.6953H40.0986H47.4543V31.1645C47.4543 32.4785 47.4363 32.6392 47.2849 32.6852C47.1917 32.7135 44.9729 33.115 42.3542 33.5773L37.5928 34.4179H25.0092H12.4256L10.1716 34.0203C5.95245 33.2762 2.98202 32.7442 2.76377 32.6937C2.54987 32.6441 2.546 32.6172 2.546 31.1692V29.6953H9.90166H17.2573V30.7629ZM31.1944 30.384V31.0727H25.0001H18.8059V30.384V29.6953H25.0001H31.1944V30.384Z"/>
</mask>
<path fill-rule="evenodd" clip-rule="evenodd" d="M5.73052 1.06468C4.87804 1.21285 4.14924 1.76383 3.72542 2.58045L3.46546 3.08125L3.43942 15.6012L3.41348 28.1211H2.53787C1.6668 28.1211 1.34654 28.2081 1.12152 28.5061C1.03615 28.6191 1.00276 29.3498 1.00054 31.1509C0.997439 33.6036 1.00063 33.6429 1.21521 33.8584C1.40636 34.0502 2.10127 34.1944 6.90133 35.0385L12.3697 36L25.3873 35.9655L38.4049 35.9309L43.5247 34.9949C48.1525 34.1488 48.6617 34.0373 48.8237 33.8339C48.9876 33.6282 49.0025 33.3988 48.9997 31.1356C48.9975 29.3466 48.964 28.619 48.8787 28.5061C48.6537 28.2081 48.3334 28.1211 47.4624 28.1211H46.5868L46.5608 15.6012L46.5348 3.08125L46.2748 2.58045C45.9709 1.99484 45.4639 1.51284 44.846 1.2223L44.4055 1.01509L25.2905 1.00122C14.7772 0.993643 5.97519 1.02218 5.73052 1.06468ZM44.3902 2.7668C44.5368 2.8645 44.7416 3.08587 44.8453 3.25874C45.0296 3.56601 45.0339 3.85477 45.0342 15.8471L45.0346 28.1211H24.9991H4.9634L4.98876 15.726L5.01402 3.33096L5.31589 3.02418C5.48188 2.85535 5.76497 2.68169 5.94499 2.6382C6.12492 2.59462 14.7888 2.56579 25.198 2.57415C43.2625 2.58862 44.1359 2.59737 44.3902 2.7668ZM23.5123 6.20813C23.37 6.35285 23.2483 6.65874 23.17 7.06902C22.8566 8.71102 22.916 8.58499 22.3432 8.82634L21.8246 9.04476L20.8856 8.43249C19.5957 7.59156 19.5833 7.59324 18.4554 8.75668C17.7912 9.44185 17.5477 9.75984 17.5477 9.94216C17.5477 10.0827 17.8189 10.6123 18.1699 11.1574L18.7922 12.1234L18.6434 12.4725C18.5615 12.6646 18.4727 12.8977 18.4461 12.9906C18.3903 13.1858 18.3906 13.1857 17.1121 13.4598C15.8508 13.7303 15.7961 13.7881 15.7329 14.915C15.6728 15.9861 15.7611 16.6629 15.9918 16.8973C16.0975 17.0049 16.5846 17.1611 17.252 17.3016L18.3399 17.5307L18.569 18.0573L18.798 18.584L18.2199 19.4789C17.6106 20.4224 17.4932 20.7077 17.5887 21.0136C17.6209 21.1167 18.033 21.5847 18.5045 22.0538C19.5792 23.1228 19.6293 23.1285 20.8462 22.3162C21.3326 21.9915 21.7856 21.7258 21.8529 21.7258C21.9201 21.7258 22.1733 21.815 22.4156 21.9239C22.8448 22.1169 22.8596 22.1386 23.0038 22.7848C23.0852 23.1493 23.1796 23.6253 23.2136 23.8425C23.3382 24.6387 23.5992 24.7759 24.9892 24.7759C26.5532 24.7759 26.6194 24.7246 26.8937 23.3017C27.1246 22.1036 27.1362 22.0841 27.7316 21.8783L28.2562 21.6971L29.1409 22.3018C30.3612 23.1359 30.4135 23.1304 31.5006 22.049C31.9746 21.5774 32.3868 21.0936 32.4163 20.9738C32.4949 20.6557 32.4061 20.4478 31.7729 19.4675L31.2022 18.584L31.4308 18.0584L31.6594 17.5329L32.705 17.3099C33.2801 17.1872 33.8268 17.0453 33.92 16.9946C34.1597 16.8643 34.2904 16.2943 34.2904 15.3798C34.2904 14.5389 34.1717 13.9411 33.9709 13.7717C33.903 13.7144 33.4355 13.5765 32.9322 13.4653C32.4289 13.3542 31.9242 13.2418 31.8108 13.2156C31.6975 13.1896 31.5824 13.0902 31.5552 12.9949C31.528 12.8996 31.4387 12.6646 31.3569 12.4725L31.208 12.1234L31.8303 11.1574C32.1814 10.6123 32.4526 10.0827 32.4526 9.94216C32.4526 9.75984 32.2091 9.44185 31.5448 8.75668C30.4121 7.58812 30.3931 7.58566 29.1218 8.4378L28.2006 9.05528L27.6696 8.83155C27.0823 8.5841 27.1442 8.71408 26.8302 7.06902C26.635 6.04608 26.5297 5.9837 25.0001 5.9837C23.8101 5.9837 23.7198 5.99738 23.5123 6.20813ZM25.5245 8.46801C25.7674 9.70553 25.8678 9.88125 26.4284 10.0511C26.6809 10.1276 27.1764 10.3293 27.5297 10.4993C28.2878 10.8642 28.3244 10.8565 29.4217 10.1038C30.1806 9.58314 30.3181 9.56317 30.5515 9.9394C30.6249 10.0578 30.5182 10.2968 30.0983 10.956C29.4809 11.9249 29.4411 12.153 29.78 12.7847C29.907 13.0215 30.0864 13.4588 30.1785 13.7564C30.2707 14.054 30.4048 14.3608 30.4765 14.4381C30.5482 14.5155 31.0548 14.6733 31.6023 14.7888L32.5977 14.9987L32.6278 15.3614C32.6443 15.5609 32.6327 15.7241 32.6019 15.7241C32.2926 15.7241 30.6224 16.1723 30.4923 16.2903C30.3989 16.3749 30.2748 16.6241 30.2165 16.8442C30.1583 17.0642 29.9842 17.4987 29.8298 17.8096C29.6753 18.1206 29.549 18.4984 29.549 18.6492C29.549 18.8182 29.7536 19.2341 30.0813 19.7318C30.3741 20.1763 30.6137 20.5777 30.6137 20.6239C30.6137 20.6699 30.5142 20.8027 30.3925 20.9188L30.1714 21.13L29.3037 20.5426C28.8264 20.2196 28.3659 19.9551 28.2803 19.955C28.1946 19.9549 27.8026 20.1049 27.4092 20.2882C27.0158 20.4716 26.5568 20.6512 26.3894 20.6873C25.9178 20.7892 25.7686 21.046 25.5455 22.1396L25.3389 23.1525H25.0001H24.6614L24.4547 22.1396C24.2317 21.046 24.0824 20.7892 23.6109 20.6873C23.4434 20.6512 22.9845 20.4716 22.591 20.2882C22.1976 20.1049 21.8056 19.9549 21.72 19.955C21.6343 19.9551 21.1738 20.2196 20.6966 20.5426L19.8288 21.13L19.6077 20.9188C19.4861 20.8027 19.3866 20.6699 19.3866 20.6239C19.3866 20.5777 19.6261 20.1763 19.9189 19.7318C20.2466 19.2341 20.4512 18.8182 20.4512 18.6492C20.4512 18.4984 20.3249 18.1206 20.1705 17.8096C20.0161 17.4987 19.842 17.0642 19.7837 16.8442C19.7254 16.6241 19.6014 16.3749 19.508 16.2903C19.3779 16.1723 17.7077 15.7241 17.3983 15.7241C17.3676 15.7241 17.3559 15.5609 17.3725 15.3614L17.4025 14.9987L18.4091 14.7864C19.5227 14.5515 19.579 14.5091 19.8301 13.7171C19.9177 13.4411 20.0932 13.0215 20.2202 12.7847C20.5591 12.153 20.5194 11.9249 19.902 10.956C19.482 10.2968 19.3754 10.0578 19.4487 9.9394C19.6822 9.56317 19.8196 9.58314 20.5786 10.1038C21.6758 10.8565 21.7124 10.8642 22.4706 10.4993C22.8238 10.3293 23.3194 10.1276 23.5719 10.0511C24.1324 9.88125 24.2328 9.70553 24.4757 8.46801L24.6545 7.55791H25.0001H25.3457L25.5245 8.46801ZM23.9457 11.2556C23.1797 11.465 22.545 11.8513 21.9941 12.4435C19.67 14.9416 21.0736 19.0812 24.4015 19.5439C27.0812 19.9165 29.3218 17.7838 29.1366 15.0371C28.9599 12.4166 26.4328 10.5757 23.9457 11.2556ZM26.259 13.0283C26.8252 13.3416 27.1214 13.6872 27.4287 14.3934C27.6882 14.99 27.6513 15.9584 27.3459 16.5604C26.3495 18.5252 23.5519 18.467 22.618 16.4621C22.362 15.9125 22.3114 15.0932 22.4991 14.5335C23.0335 12.9397 24.8119 12.2277 26.259 13.0283ZM17.2573 30.7629C17.2573 31.905 17.3648 32.3964 17.6482 32.5506C17.7592 32.6109 20.5051 32.6469 25.0001 32.6469C29.4951 32.6469 32.2411 32.6109 32.352 32.5506C32.6355 32.3964 32.7429 31.905 32.7429 30.7629V29.6953H40.0986H47.4543V31.1645C47.4543 32.4785 47.4363 32.6392 47.2849 32.6852C47.1917 32.7135 44.9729 33.115 42.3542 33.5773L37.5928 34.4179H25.0092H12.4256L10.1716 34.0203C5.95245 33.2762 2.98202 32.7442 2.76377 32.6937C2.54987 32.6441 2.546 32.6172 2.546 31.1692V29.6953H9.90166H17.2573V30.7629ZM31.1944 30.384V31.0727H25.0001H18.8059V30.384V29.6953H25.0001H31.1944V30.384Z" fill="#2AA1D8"/>
<path fill-rule="evenodd" clip-rule="evenodd" d="M5.73052 1.06468C4.87804 1.21285 4.14924 1.76383 3.72542 2.58045L3.46546 3.08125L3.43942 15.6012L3.41348 28.1211H2.53787C1.6668 28.1211 1.34654 28.2081 1.12152 28.5061C1.03615 28.6191 1.00276 29.3498 1.00054 31.1509C0.997439 33.6036 1.00063 33.6429 1.21521 33.8584C1.40636 34.0502 2.10127 34.1944 6.90133 35.0385L12.3697 36L25.3873 35.9655L38.4049 35.9309L43.5247 34.9949C48.1525 34.1488 48.6617 34.0373 48.8237 33.8339C48.9876 33.6282 49.0025 33.3988 48.9997 31.1356C48.9975 29.3466 48.964 28.619 48.8787 28.5061C48.6537 28.2081 48.3334 28.1211 47.4624 28.1211H46.5868L46.5608 15.6012L46.5348 3.08125L46.2748 2.58045C45.9709 1.99484 45.4639 1.51284 44.846 1.2223L44.4055 1.01509L25.2905 1.00122C14.7772 0.993643 5.97519 1.02218 5.73052 1.06468ZM44.3902 2.7668C44.5368 2.8645 44.7416 3.08587 44.8453 3.25874C45.0296 3.56601 45.0339 3.85477 45.0342 15.8471L45.0346 28.1211H24.9991H4.9634L4.98876 15.726L5.01402 3.33096L5.31589 3.02418C5.48188 2.85535 5.76497 2.68169 5.94499 2.6382C6.12492 2.59462 14.7888 2.56579 25.198 2.57415C43.2625 2.58862 44.1359 2.59737 44.3902 2.7668ZM23.5123 6.20813C23.37 6.35285 23.2483 6.65874 23.17 7.06902C22.8566 8.71102 22.916 8.58499 22.3432 8.82634L21.8246 9.04476L20.8856 8.43249C19.5957 7.59156 19.5833 7.59324 18.4554 8.75668C17.7912 9.44185 17.5477 9.75984 17.5477 9.94216C17.5477 10.0827 17.8189 10.6123 18.1699 11.1574L18.7922 12.1234L18.6434 12.4725C18.5615 12.6646 18.4727 12.8977 18.4461 12.9906C18.3903 13.1858 18.3906 13.1857 17.1121 13.4598C15.8508 13.7303 15.7961 13.7881 15.7329 14.915C15.6728 15.9861 15.7611 16.6629 15.9918 16.8973C16.0975 17.0049 16.5846 17.1611 17.252 17.3016L18.3399 17.5307L18.569 18.0573L18.798 18.584L18.2199 19.4789C17.6106 20.4224 17.4932 20.7077 17.5887 21.0136C17.6209 21.1167 18.033 21.5847 18.5045 22.0538C19.5792 23.1228 19.6293 23.1285 20.8462 22.3162C21.3326 21.9915 21.7856 21.7258 21.8529 21.7258C21.9201 21.7258 22.1733 21.815 22.4156 21.9239C22.8448 22.1169 22.8596 22.1386 23.0038 22.7848C23.0852 23.1493 23.1796 23.6253 23.2136 23.8425C23.3382 24.6387 23.5992 24.7759 24.9892 24.7759C26.5532 24.7759 26.6194 24.7246 26.8937 23.3017C27.1246 22.1036 27.1362 22.0841 27.7316 21.8783L28.2562 21.6971L29.1409 22.3018C30.3612 23.1359 30.4135 23.1304 31.5006 22.049C31.9746 21.5774 32.3868 21.0936 32.4163 20.9738C32.4949 20.6557 32.4061 20.4478 31.7729 19.4675L31.2022 18.584L31.4308 18.0584L31.6594 17.5329L32.705 17.3099C33.2801 17.1872 33.8268 17.0453 33.92 16.9946C34.1597 16.8643 34.2904 16.2943 34.2904 15.3798C34.2904 14.5389 34.1717 13.9411 33.9709 13.7717C33.903 13.7144 33.4355 13.5765 32.9322 13.4653C32.4289 13.3542 31.9242 13.2418 31.8108 13.2156C31.6975 13.1896 31.5824 13.0902 31.5552 12.9949C31.528 12.8996 31.4387 12.6646 31.3569 12.4725L31.208 12.1234L31.8303 11.1574C32.1814 10.6123 32.4526 10.0827 32.4526 9.94216C32.4526 9.75984 32.2091 9.44185 31.5448 8.75668C30.4121 7.58812 30.3931 7.58566 29.1218 8.4378L28.2006 9.05528L27.6696 8.83155C27.0823 8.5841 27.1442 8.71408 26.8302 7.06902C26.635 6.04608 26.5297 5.9837 25.0001 5.9837C23.8101 5.9837 23.7198 5.99738 23.5123 6.20813ZM25.5245 8.46801C25.7674 9.70553 25.8678 9.88125 26.4284 10.0511C26.6809 10.1276 27.1764 10.3293 27.5297 10.4993C28.2878 10.8642 28.3244 10.8565 29.4217 10.1038C30.1806 9.58314 30.3181 9.56317 30.5515 9.9394C30.6249 10.0578 30.5182 10.2968 30.0983 10.956C29.4809 11.9249 29.4411 12.153 29.78 12.7847C29.907 13.0215 30.0864 13.4588 30.1785 13.7564C30.2707 14.054 30.4048 14.3608 30.4765 14.4381C30.5482 14.5155 31.0548 14.6733 31.6023 14.7888L32.5977 14.9987L32.6278 15.3614C32.6443 15.5609 32.6327 15.7241 32.6019 15.7241C32.2926 15.7241 30.6224 16.1723 30.4923 16.2903C30.3989 16.3749 30.2748 16.6241 30.2165 16.8442C30.1583 17.0642 29.9842 17.4987 29.8298 17.8096C29.6753 18.1206 29.549 18.4984 29.549 18.6492C29.549 18.8182 29.7536 19.2341 30.0813 19.7318C30.3741 20.1763 30.6137 20.5777 30.6137 20.6239C30.6137 20.6699 30.5142 20.8027 30.3925 20.9188L30.1714 21.13L29.3037 20.5426C28.8264 20.2196 28.3659 19.9551 28.2803 19.955C28.1946 19.9549 27.8026 20.1049 27.4092 20.2882C27.0158 20.4716 26.5568 20.6512 26.3894 20.6873C25.9178 20.7892 25.7686 21.046 25.5455 22.1396L25.3389 23.1525H25.0001H24.6614L24.4547 22.1396C24.2317 21.046 24.0824 20.7892 23.6109 20.6873C23.4434 20.6512 22.9845 20.4716 22.591 20.2882C22.1976 20.1049 21.8056 19.9549 21.72 19.955C21.6343 19.9551 21.1738 20.2196 20.6966 20.5426L19.8288 21.13L19.6077 20.9188C19.4861 20.8027 19.3866 20.6699 19.3866 20.6239C19.3866 20.5777 19.6261 20.1763 19.9189 19.7318C20.2466 19.2341 20.4512 18.8182 20.4512 18.6492C20.4512 18.4984 20.3249 18.1206 20.1705 17.8096C20.0161 17.4987 19.842 17.0642 19.7837 16.8442C19.7254 16.6241 19.6014 16.3749 19.508 16.2903C19.3779 16.1723 17.7077 15.7241 17.3983 15.7241C17.3676 15.7241 17.3559 15.5609 17.3725 15.3614L17.4025 14.9987L18.4091 14.7864C19.5227 14.5515 19.579 14.5091 19.8301 13.7171C19.9177 13.4411 20.0932 13.0215 20.2202 12.7847C20.5591 12.153 20.5194 11.9249 19.902 10.956C19.482 10.2968 19.3754 10.0578 19.4487 9.9394C19.6822 9.56317 19.8196 9.58314 20.5786 10.1038C21.6758 10.8565 21.7124 10.8642 22.4706 10.4993C22.8238 10.3293 23.3194 10.1276 23.5719 10.0511C24.1324 9.88125 24.2328 9.70553 24.4757 8.46801L24.6545 7.55791H25.0001H25.3457L25.5245 8.46801ZM23.9457 11.2556C23.1797 11.465 22.545 11.8513 21.9941 12.4435C19.67 14.9416 21.0736 19.0812 24.4015 19.5439C27.0812 19.9165 29.3218 17.7838 29.1366 15.0371C28.9599 12.4166 26.4328 10.5757 23.9457 11.2556ZM26.259 13.0283C26.8252 13.3416 27.1214 13.6872 27.4287 14.3934C27.6882 14.99 27.6513 15.9584 27.3459 16.5604C26.3495 18.5252 23.5519 18.467 22.618 16.4621C22.362 15.9125 22.3114 15.0932 22.4991 14.5335C23.0335 12.9397 24.8119 12.2277 26.259 13.0283ZM17.2573 30.7629C17.2573 31.905 17.3648 32.3964 17.6482 32.5506C17.7592 32.6109 20.5051 32.6469 25.0001 32.6469C29.4951 32.6469 32.2411 32.6109 32.352 32.5506C32.6355 32.3964 32.7429 31.905 32.7429 30.7629V29.6953H40.0986H47.4543V31.1645C47.4543 32.4785 47.4363 32.6392 47.2849 32.6852C47.1917 32.7135 44.9729 33.115 42.3542 33.5773L37.5928 34.4179H25.0092H12.4256L10.1716 34.0203C5.95245 33.2762 2.98202 32.7442 2.76377 32.6937C2.54987 32.6441 2.546 32.6172 2.546 31.1692V29.6953H9.90166H17.2573V30.7629ZM31.1944 30.384V31.0727H25.0001H18.8059V30.384V29.6953H25.0001H31.1944V30.384Z" stroke="#2AA1D8" mask="url(#path-1-outside-1_1267_10956)"/>
</svg>
