<svg width="36" height="37" viewBox="0 0 36 37" fill="none" xmlns="http://www.w3.org/2000/svg">
<path d="M25.1998 2.92154L25.1998 2.92152C24.8381 2.6515 24.657 2.26863 24.6715 1.89584C24.6861 1.521 24.8985 1.17212 25.2889 0.979701M25.1998 2.92154L11.0687 7.78277C11.0643 7.78684 11.0594 7.79134 11.0541 7.79625M25.1998 2.92154C25.3197 3.01104 25.4908 3.05101 25.9441 3.09836C26.4105 3.14709 27.2138 3.20491 28.6412 3.30214C29.5158 3.36172 30.3149 3.42006 30.8977 3.46605C31.1453 3.48558 31.3535 3.50286 31.5117 3.51704C31.4631 3.55677 31.4081 3.60156 31.3468 3.65118C31.0662 3.87835 30.6575 4.20476 30.1513 4.60633C29.1389 5.40939 27.7371 6.51209 26.1904 7.72058C23.3258 9.95883 20.8981 11.8581 20.5101 12.1647C20.4885 12.154 20.4583 12.1373 20.4171 12.1118C20.2886 12.0325 20.0827 11.8873 19.7564 11.6433C19.1057 11.1565 17.9929 10.2889 16.1007 8.80286C14.8789 7.84337 13.7503 6.96395 12.9161 6.31999C12.4991 5.99806 12.1553 5.73475 11.9102 5.54964C11.7878 5.45715 11.6894 5.38378 11.6186 5.33226C11.5833 5.30658 11.5541 5.28574 11.5318 5.27047C11.5207 5.26289 11.5104 5.25601 11.5014 5.25035L11.501 5.25013C11.4951 5.24645 11.4799 5.23694 11.4631 5.23028C11.4021 5.20614 11.3143 5.18862 11.2291 5.17692C11.1407 5.16477 11.0416 5.15714 10.952 5.15714C10.8136 5.15714 10.7004 5.16897 10.5757 5.2293C10.4597 5.28535 10.3421 5.37973 10.1822 5.5186L10.1822 5.5186M25.1998 2.92154L10.1822 5.5186M25.2889 0.979701L25.3552 1.11424L25.2889 0.979713C25.2889 0.979709 25.2889 0.979705 25.2889 0.979701ZM25.2889 0.979701C25.3542 0.947518 25.4219 0.917712 25.4792 0.895344C25.5078 0.884193 25.5353 0.874336 25.5594 0.866878C25.5792 0.860754 25.6101 0.851861 25.6398 0.850243L25.64 0.850228C25.6518 0.849609 25.6715 0.850688 25.6837 0.851359L25.6866 0.851518L25.7636 0.856052C25.8292 0.86008 25.9234 0.866126 26.043 0.873967C26.2822 0.889653 26.6235 0.912565 27.0417 0.940983C27.8782 0.997822 29.0224 1.07671 30.2726 1.16394C32.0596 1.28861 33.2102 1.37399 33.9377 1.43927C34.3013 1.47189 34.5613 1.49968 34.7431 1.5251C34.917 1.54941 35.0392 1.57377 35.1102 1.60714L35.0463 1.74287L35.1102 1.60715C35.4715 1.77722 35.7441 2.18701 35.7441 2.57732C35.7441 2.75967 35.5927 4.81371 35.4366 6.84233C35.3584 7.85977 35.2786 8.87493 35.2154 9.65291C35.1838 10.0419 35.1564 10.3717 35.1353 10.6131C35.1147 10.849 35.0994 11.0107 35.0919 11.0531C35.0588 11.242 34.9479 11.4213 34.8055 11.563C34.6622 11.7056 34.4766 11.8209 34.2775 11.8746L34.2774 11.8746C34.1513 11.9085 34.0471 11.9292 33.935 11.9185C33.8249 11.908 33.7202 11.8684 33.5902 11.8109C33.4182 11.7348 33.2775 11.6394 33.1662 11.511C33.055 11.3827 32.98 11.2293 32.9277 11.0471L32.9277 11.047C32.9173 11.0105 32.9147 10.9605 32.9134 10.9174C32.912 10.8677 32.9123 10.8038 32.914 10.7275C32.9175 10.5744 32.9269 10.3651 32.9419 10.1064C32.9718 9.58858 33.024 8.86819 33.0956 7.99435C33.1588 7.22426 33.2142 6.49872 33.2527 5.95026C33.272 5.67597 33.287 5.44638 33.2966 5.27782C33.3013 5.19347 33.3047 5.12499 33.3067 5.07409C33.3071 5.06258 33.3074 5.0521 33.3077 5.04263L27.8934 9.25989C27.3243 9.7032 26.8011 10.1108 26.3202 10.4855C23.5806 12.6201 22.209 13.6888 21.4958 14.22C21.0818 14.5285 20.8765 14.6661 20.75 14.7224C20.6787 14.7541 20.622 14.7651 20.5638 14.7623C20.5408 14.7612 20.5171 14.7577 20.5059 14.7562C20.4923 14.7545 20.4814 14.7535 20.4687 14.7534H20.4687C20.3776 14.7533 20.2757 14.7416 20.1838 14.7234C20.0946 14.7058 20.0017 14.6796 19.9347 14.6445M19.9347 14.6445L20.0041 14.5116L19.9347 14.6446C19.9347 14.6446 19.9347 14.6446 19.9347 14.6445ZM19.9347 14.6445C19.9174 14.6355 19.8944 14.6193 19.8765 14.6066C19.8545 14.5909 19.8255 14.5696 19.7904 14.5434C19.7199 14.491 19.6224 14.417 19.5011 14.3242C19.2584 14.1386 18.9192 13.8762 18.5084 13.5566C17.6866 12.9174 16.5774 12.0484 15.379 11.1039C13.4545 9.58702 12.3637 8.73259 11.7413 8.26728C11.4289 8.03373 11.2397 7.90224 11.1242 7.83418C11.0937 7.81616 11.0708 7.80414 11.0541 7.79625M11.0541 7.79625C11.0385 7.81074 11.0191 7.82889 10.996 7.85061C10.9341 7.90874 10.8464 7.99163 10.7358 8.09664C10.5146 8.3066 10.202 8.60443 9.821 8.96823C9.05907 9.6958 8.02388 10.6869 6.89934 11.7659C5.77465 12.845 4.73232 13.8417 3.95899 14.5782C3.57234 14.9464 3.25282 15.2497 3.02383 15.4658C2.79957 15.6773 2.65367 15.8135 2.62241 15.838M11.0541 7.79625C11.0386 7.78893 11.0285 7.78516 11.0225 7.78347C11.0206 7.78294 11.0198 7.78277 11.0198 7.78278L2.62241 15.838M2.62241 15.838L2.52973 15.7201L2.62253 15.8379C2.62249 15.838 2.62245 15.838 2.62241 15.838ZM10.1822 5.5186C9.73006 5.91144 7.44405 8.09596 5.26745 10.1964M10.1822 5.5186L5.26745 10.1964M26.6928 35.3396L26.6929 35.294L26.7107 24.8193C26.7194 19.6374 26.7242 17.0169 26.7437 15.6732C26.7535 15.0031 26.7669 14.6446 26.7871 14.4433C26.7971 14.3434 26.8097 14.2721 26.8285 14.2175C26.8503 14.1543 26.8785 14.119 26.903 14.0914C26.903 14.0914 26.903 14.0914 26.903 14.0914L27.0151 14.1911L26.6928 35.3396ZM26.6928 35.3396L26.7182 35.3776L26.874 35.6108C26.8809 35.621 26.8877 35.6314 26.8945 35.6417C26.9622 35.7439 27.0319 35.8493 27.1463 35.9281C27.274 36.0162 27.4426 36.0636 27.6977 36.0934C28.1829 36.15 29.0689 36.1499 30.8075 36.1498L31.0482 36.1498L31.2865 36.1498C33.0264 36.1499 33.9129 36.1499 34.3983 36.0934C34.6534 36.0637 34.8221 36.0164 34.9497 35.9285C35.0642 35.8498 35.1339 35.7445 35.2015 35.6424C35.2083 35.6321 35.215 35.6219 35.2218 35.6118L35.377 35.3795L35.4023 35.3417V35.2962L35.402 24.8987C35.4019 19.7722 35.4014 17.1707 35.3841 15.8237C35.3755 15.1516 35.3627 14.7864 35.343 14.5747C35.3332 14.4687 35.321 14.3943 35.3044 14.3361C35.2865 14.2733 35.2645 14.2342 35.244 14.2004C35.1568 14.0575 34.9784 13.879 34.8354 13.7919M26.6928 35.3396L34.8354 13.7919M34.8354 13.7919C34.8354 13.7919 34.8354 13.7919 34.8354 13.7919L34.7573 13.9199L34.8354 13.7919ZM1.19659 35.3417L1.19659 35.2962L1.19686 31.0852C1.19696 29.046 1.19806 27.9884 1.21569 27.4141C1.22447 27.1283 1.23749 26.9538 1.25848 26.8352C1.28109 26.7073 1.31368 26.6409 1.35488 26.5733C1.44204 26.4303 1.62048 26.2519 1.76345 26.1647C1.76346 26.1647 1.76348 26.1647 1.7635 26.1647L1.84157 26.2928L1.19659 35.3417ZM1.19659 35.3417L1.22186 35.3795M1.19659 35.3417L1.22186 35.3795M1.22186 35.3795L1.37703 35.6118M1.22186 35.3795L1.37703 35.6118M5.26745 10.1964C4.17798 11.2477 3.1142 12.2797 2.31831 13.0585M5.26745 10.1964L2.31831 13.0585M2.31831 13.0585C1.92041 13.4479 1.58917 13.7743 1.35506 14.0083M2.31831 13.0585L1.35506 14.0083M1.35506 14.0083C1.2381 14.1253 1.14484 14.2197 1.07948 14.2875M1.35506 14.0083L1.07948 14.2875M1.07948 14.2875C1.04692 14.3213 1.02045 14.3494 1.00117 14.3708M1.07948 14.2875L1.00117 14.3708M1.00117 14.3708C0.991633 14.3814 0.982805 14.3914 0.975519 14.4004M1.00117 14.3708L0.975519 14.4004M0.975519 14.4004L0.974948 14.4011M0.975519 14.4004L0.974948 14.4011M0.974948 14.4011C0.971015 14.4058 0.955954 14.4241 0.946021 14.4459L0.974948 14.4011ZM1.37703 35.6118C1.38398 35.6222 1.39091 35.6326 1.39785 35.6431M1.37703 35.6118L1.39785 35.6431M1.39785 35.6431C1.46522 35.745 1.53479 35.8502 1.64933 35.9288M1.39785 35.6431L1.64933 35.9288M1.64933 35.9288C1.77734 36.0167 1.94677 36.064 2.20358 36.0936M1.64933 35.9288L2.20358 36.0936M2.20358 36.0936C2.69156 36.1499 3.58357 36.1498 5.33446 36.1497M2.20358 36.0936L5.33446 36.1497M5.33446 36.1497L5.5848 36.1496M5.33446 36.1497L5.5848 36.1496M5.5848 36.1496C7.24514 36.1496 8.11399 36.1483 8.59391 36.1305M5.5848 36.1496L8.59391 36.1305M8.59391 36.1305C8.83294 36.1217 8.98423 36.1085 9.09171 36.0872M8.59391 36.1305L9.09171 36.0872M9.09171 36.0872C9.20736 36.0641 9.2725 36.0315 9.33778 35.9917M9.09171 36.0872L9.33778 35.9917M9.33778 35.9917C9.48075 35.9045 9.6592 35.726 9.74635 35.5831M9.33778 35.9917C9.33776 35.9917 9.33775 35.9917 9.33774 35.9917L9.25967 35.8636L9.74635 35.5831M9.74635 35.5831C9.78754 35.5155 9.82014 35.4491 9.84275 35.3214M9.74635 35.5831L9.84275 35.3214M9.84275 35.3214C9.86374 35.2028 9.87676 35.0286 9.88552 34.7432M9.84275 35.3214L9.88552 34.7432M9.88552 34.7432C9.90313 34.1699 9.90417 33.114 9.90417 31.0782M9.88552 34.7432L9.90417 31.0782M9.90417 31.0782C9.90417 29.0424 9.90313 27.9865 9.88552 27.4132M9.90417 31.0782L9.88552 27.4132M9.88552 27.4132C9.87676 27.1277 9.86374 26.9535 9.84275 26.835M9.88552 27.4132L9.84275 26.835M9.84275 26.835C9.82014 26.7073 9.78754 26.6409 9.74635 26.5733M9.84275 26.835L9.74635 26.5733M9.74635 26.5733C9.6592 26.4303 9.48076 26.2519 9.33779 26.1647L9.74635 26.5733ZM2.0131 16.0375L2.00071 15.888L1.32986 15.8457C1.42898 15.9292 1.51668 15.9934 1.63104 16.0247C1.74065 16.0546 1.86061 16.0502 2.0131 16.0375ZM14.1215 21.8524L14.1215 21.8525C14.0794 21.9308 14.053 22.0129 14.0347 22.185C14.0168 22.3525 14.0054 22.6172 13.9984 23.0665C13.9843 23.9673 13.9873 25.6324 13.9958 28.8002L14.0138 35.4425L14.0139 35.5014L14.0541 35.5445L14.225 35.7274L14.3347 35.625L14.225 35.7274C14.2336 35.7366 14.2421 35.7457 14.2505 35.7549C14.3252 35.8356 14.4008 35.9173 14.5138 35.9779C14.6398 36.0455 14.8011 36.0826 15.0484 36.106C15.516 36.1502 16.362 36.1501 18.0271 36.15C18.1155 36.15 18.2063 36.15 18.2994 36.15C18.3926 36.15 18.4833 36.15 18.5718 36.15C20.2369 36.1501 21.0828 36.1502 21.5504 36.106C21.7978 36.0826 21.9591 36.0455 22.085 35.9779C22.198 35.9173 22.2737 35.8356 22.3483 35.7549C22.3568 35.7457 22.3653 35.7366 22.3738 35.7274L22.2642 35.625L22.3738 35.7274L22.5447 35.5445L22.5849 35.5014L22.5851 35.4425L22.6032 28.7757C22.6121 25.4784 22.6163 23.8089 22.601 22.9365C22.5934 22.502 22.5809 22.2576 22.5604 22.1066C22.55 22.0297 22.5369 21.9716 22.5188 21.9219C22.5003 21.8709 22.4786 21.8349 22.4601 21.805L22.3325 21.8839L22.4601 21.805C22.4556 21.7977 22.4511 21.7904 22.4466 21.783C22.3858 21.6841 22.3209 21.5785 22.2033 21.5C22.0781 21.4164 21.9089 21.3721 21.6537 21.344C21.1582 21.2896 20.2437 21.2896 18.4471 21.2897L18.288 21.2897C16.6875 21.2897 15.8195 21.2918 15.3249 21.3086C14.8355 21.3253 14.6843 21.3558 14.5414 21.4324C14.4603 21.4759 14.3762 21.544 14.3048 21.6155C14.2333 21.687 14.1652 21.7711 14.1215 21.8524ZM33.1714 24.875L33.1884 33.8676H31.0485H28.9082V24.9032C28.9082 22.3969 28.9135 20.1133 28.9219 18.4532C28.9261 17.6231 28.9311 16.9491 28.9367 16.4812C28.9394 16.2472 28.9423 16.0652 28.9453 15.9412C28.9459 15.918 28.9465 15.8969 28.947 15.878C28.9643 15.8771 28.9834 15.8763 29.0043 15.8755C29.121 15.8709 29.2879 15.8673 29.4934 15.8647C29.9041 15.8596 30.4649 15.8588 31.0764 15.8638L33.1543 15.8806L33.1714 24.875ZM20.4052 28.6856V33.8676H18.2994H16.1936V28.6856V23.5037H18.2994H20.4052V28.6856ZM7.67428 31.062L7.69115 33.8676H5.55137H3.41062V31.0896C3.41062 30.2849 3.41585 29.5485 3.42425 29.0103C3.42846 28.7411 3.43345 28.5223 3.43896 28.3696C3.44062 28.3235 3.44231 28.2839 3.444 28.2511C3.46263 28.2502 3.48353 28.2492 3.5067 28.2483C3.62334 28.2438 3.79032 28.2401 3.99583 28.2375C4.4065 28.2324 4.96727 28.2317 5.5788 28.2366L7.65734 28.2534L7.67428 31.062Z" fill="#2AA1D8" stroke="#2AA1D8" stroke-width="0.3"/>
</svg>
