<svg width="35" height="75" viewBox="0 0 35 75" fill="none" xmlns="http://www.w3.org/2000/svg">
<path fill-rule="evenodd" clip-rule="evenodd" d="M25.9782 0.111837L26.8266 1.61454C29.1124 5.66244 30.2861 8.19216 31.5141 11.718C36.5053 26.0481 35.0363 42.0505 27.5179 55.2503C23.5335 62.2456 18.6377 67.5834 11.8939 72.2849L8.99454 74.306L8.13146 74.1199C7.43919 73.9706 7.19402 73.8201 6.89403 73.3602C6.39979 72.6024 6.43763 72.0857 7.07787 70.8461C12.974 59.4327 13.9399 45.2313 9.66721 32.7767C8.15609 28.3718 7.11817 26.2871 3.82659 21.0441L0.93826 16.4434C0.93826 16.4434 11.024 9.75582 11.4796 9.56814L25.9782 0.111837Z" fill="white"/>
</svg>
