<svg width="53" height="56" viewBox="0 0 53 56" fill="none" xmlns="http://www.w3.org/2000/svg">
<path fill-rule="evenodd" clip-rule="evenodd" d="M52.8664 56L51.1442 55.8897C46.5051 55.5929 43.745 55.194 40.1209 54.2964C25.3915 50.6486 12.7905 40.6761 5.8417 27.1677C2.15913 20.009 0.362799 12.9923 0.108981 4.77523L0 1.24265L0.627392 0.621414C1.13061 0.123131 1.39061 0 1.93976 0C2.84446 0 3.25654 0.313942 3.94504 1.52738C10.2838 12.7011 21.6512 21.2682 34.4172 24.4933C38.9322 25.634 41.2453 25.9035 47.435 26.0107L52.8664 26.1048C52.8664 26.1048 52.9581 38.206 52.8664 38.6901V56Z" fill="white"/>
</svg>
