<svg width="35" height="35" viewBox="0 0 35 35" fill="none" xmlns="http://www.w3.org/2000/svg">
<path d="M0 17.5C0 7.83502 7.83502 0 17.5 0C27.165 0 35 7.83502 35 17.5C35 27.165 27.165 35 17.5 35C7.83502 35 0 27.165 0 17.5Z" fill="white"/>
<path d="M0 17.5C0 7.83502 7.83502 0 17.5 0C27.165 0 35 7.83502 35 17.5C35 27.165 27.165 35 17.5 35C7.83502 35 0 27.165 0 17.5Z" fill="url(#paint0_linear_1267_11044)"/>
<mask id="mask0_1267_11044" style="mask-type:alpha" maskUnits="userSpaceOnUse" x="0" y="0" width="35" height="35">
<path fill-rule="evenodd" clip-rule="evenodd" d="M0 17.5C0 7.83502 7.83502 0 17.5 0C27.165 0 35 7.83502 35 17.5C35 27.165 27.165 35 17.5 35C7.83502 35 0 27.165 0 17.5Z" fill="white"/>
</mask>
<g mask="url(#mask0_1267_11044)">
<path fill-rule="evenodd" clip-rule="evenodd" d="M17.5012 8.1665C14.9664 8.1665 14.6483 8.17759 13.6527 8.22289C12.6591 8.26839 11.9809 8.4257 11.3874 8.65651C10.7735 8.8949 10.2528 9.21379 9.73404 9.73277C9.21486 10.2516 8.89597 10.7723 8.6568 11.386C8.42541 11.9796 8.26791 12.658 8.22319 13.6513C8.17866 14.6468 8.16699 14.9651 8.16699 17.4999C8.16699 20.0347 8.17827 20.3519 8.22338 21.3474C8.26908 22.3411 8.42638 23.0193 8.657 23.6127C8.89558 24.2266 9.21448 24.7473 9.73345 25.2661C10.252 25.7853 10.7728 26.105 11.3862 26.3434C11.9801 26.5742 12.6585 26.7315 13.6519 26.777C14.6475 26.8223 14.9654 26.8334 17.5 26.8334C20.035 26.8334 20.3522 26.8223 21.3477 26.777C22.3414 26.7315 23.0204 26.5742 23.6142 26.3434C24.2279 26.105 24.7478 25.7853 25.2664 25.2661C25.7856 24.7473 26.1045 24.2266 26.3437 23.6129C26.5731 23.0193 26.7306 22.3409 26.7773 21.3476C26.822 20.3521 26.8337 20.0347 26.8337 17.4999C26.8337 14.9651 26.822 14.647 26.7773 13.6515C26.7306 12.6578 26.5731 11.9796 26.3437 11.3861C26.1045 10.7723 25.7856 10.2516 25.2664 9.73277C24.7472 9.2136 24.2281 8.89471 23.6136 8.65651C23.0186 8.4257 22.34 8.26839 21.3464 8.22289C20.3508 8.17759 20.0339 8.1665 17.4983 8.1665H17.5012ZM17.1901 9.84837H17.1901L17.5012 9.84847C19.9932 9.84847 20.2886 9.85741 21.2727 9.90213C22.1827 9.94374 22.6766 10.0958 23.0056 10.2236C23.4412 10.3927 23.7517 10.5949 24.0782 10.9216C24.4048 11.2483 24.607 11.5594 24.7766 11.995C24.9044 12.3236 25.0566 12.8175 25.098 13.7275C25.1428 14.7114 25.1525 15.0069 25.1525 17.4978C25.1525 19.9887 25.1428 20.2842 25.098 21.2681C25.0564 22.1781 24.9044 22.672 24.7766 23.0006C24.6074 23.4362 24.4048 23.7463 24.0782 24.0728C23.7515 24.3995 23.4413 24.6017 23.0056 24.7709C22.677 24.8992 22.1827 25.0509 21.2727 25.0925C20.2888 25.1372 19.9932 25.1469 17.5012 25.1469C15.009 25.1469 14.7136 25.1372 13.7297 25.0925C12.8197 25.0505 12.3258 24.8984 11.9966 24.7707C11.5611 24.6015 11.2499 24.3993 10.9233 24.0726C10.5966 23.7459 10.3944 23.4356 10.2248 22.9999C10.0971 22.6712 9.94482 22.1773 9.9034 21.2673C9.85868 20.2834 9.84973 19.9879 9.84973 17.4955C9.84973 15.003 9.85868 14.709 9.9034 13.7251C9.94501 12.8151 10.0971 12.3212 10.2248 11.9922C10.394 11.5567 10.5966 11.2456 10.9233 10.9189C11.2499 10.5922 11.5611 10.39 11.9966 10.2204C12.3256 10.0921 12.8197 9.94044 13.7297 9.89863C14.5907 9.85974 14.9244 9.84808 16.6639 9.84613V9.84847C16.8265 9.84821 17.0014 9.84829 17.1901 9.84837H17.1901H17.1901ZM21.3633 12.5178C21.3633 11.8993 21.865 11.3982 22.4833 11.3982V11.3978C23.1016 11.3978 23.6033 11.8995 23.6033 12.5178C23.6033 13.1362 23.1016 13.6378 22.4833 13.6378C21.865 13.6378 21.3633 13.1362 21.3633 12.5178ZM17.501 12.7068C14.8541 12.7069 12.7081 14.853 12.7081 17.4999C12.7081 20.1469 14.8542 22.2921 17.5012 22.2921C20.1482 22.2921 22.2935 20.1469 22.2935 17.4999C22.2935 14.8529 20.148 12.7068 17.501 12.7068ZM20.6123 17.4999C20.6123 15.7816 19.2193 14.3888 17.5012 14.3888C15.7829 14.3888 14.3901 15.7816 14.3901 17.4999C14.3901 19.2181 15.7829 20.6111 17.5012 20.6111C19.2193 20.6111 20.6123 19.2181 20.6123 17.4999Z" fill="white"/>
</g>
<defs>
<linearGradient id="paint0_linear_1267_11044" x1="3.06239" y1="3.06332" x2="30.6246" y2="33.2508" gradientUnits="userSpaceOnUse">
<stop stop-color="#5F42B6"/>
<stop offset="0.186501" stop-color="#9F318D"/>
<stop offset="0.367678" stop-color="#DF3F49"/>
<stop offset="0.550755" stop-color="#EE5D24"/>
<stop offset="0.782293" stop-color="#F38536"/>
<stop offset="1" stop-color="#CE2C75"/>
</linearGradient>
</defs>
</svg>
