<svg width="50" height="72" viewBox="0 0 50 72" fill="none" xmlns="http://www.w3.org/2000/svg">
<path d="M2.23138 32.8703L1.75898 33.0342C0.773291 30.192 0.492057 28.3525 0.50017 24.8811C0.506233 22.3349 0.560948 21.5615 0.854122 20.2089C1.94113 15.1937 4.0674 11.2794 7.65744 7.68948C11.5405 3.80624 15.8642 1.58104 21.2946 0.669994C22.2216 0.514476 23.6284 0.47193 25.0284 0.516934C26.431 0.56202 27.8752 0.696578 28.8808 0.912012C38.1515 2.89797 45.5394 9.96845 47.8072 19.039C49.2074 24.6392 48.5215 30.8455 45.932 36.0054C44.5468 38.7661 43.4316 40.2491 40.72 42.9649C40.0427 43.6432 39.3801 44.3284 38.8589 44.8851C38.3231 45.4574 37.9704 45.8588 37.8806 45.9897L37.8806 45.9898C36.7391 47.6542 36.0783 49.5868 35.907 51.7979C35.877 52.186 35.8258 52.6051 35.7674 52.97C35.7109 53.3233 35.642 53.662 35.569 53.8694L35.569 53.8695C35.5208 54.0063 35.4703 54.3121 35.4372 54.9402C35.405 55.5505 35.3908 56.4145 35.3905 57.6295C35.3902 58.5537 35.3726 59.4581 35.3442 60.1719C35.33 60.5284 35.313 60.8406 35.2938 61.0855C35.2761 61.3107 35.2536 61.5282 35.217 61.6599M2.23138 32.8703L34.7352 61.5259M2.23138 32.8703L1.75898 33.0342C3.11165 36.9343 4.83494 39.5719 8.2137 42.9479M2.23138 32.8703L8.2137 42.9479M35.217 61.6599L34.7352 61.5259M35.217 61.6599C35.217 61.6598 35.217 61.6598 35.217 61.6597L34.7352 61.5259M35.217 61.6599C35.0799 62.1534 34.7781 62.6939 34.4239 63.169C34.068 63.6461 33.6279 64.099 33.1807 64.399L33.1807 64.3991L32.7045 64.7185M34.7352 61.5259C34.5057 62.3526 33.6766 63.4643 32.9022 63.9838L32.2179 64.4429M32.7045 64.7185L32.7172 64.4682L32.2179 64.4429M32.7045 64.7185L32.6428 65.9353C32.6108 66.5653 32.5737 67.0056 32.4835 67.4018C32.391 67.8076 32.2477 68.146 32.0338 68.5805C31.4933 69.6782 30.6935 70.4759 29.5407 71.0932M32.7045 64.7185L32.4964 64.8581L32.2179 64.4429M32.2179 64.4429L29.5407 71.0932M29.5407 71.0932L29.3046 70.6525M29.5407 71.0932L31.5852 68.3597C31.0952 69.3549 30.3744 70.0796 29.3046 70.6525M29.5407 71.0932C29.5407 71.0932 29.5406 71.0933 29.5406 71.0933L29.3046 70.6525M29.5407 71.0932C29.216 71.2672 28.8955 71.3473 28.2361 71.3952C27.5889 71.4422 26.5545 71.4614 24.7719 71.4821C21.068 71.5251 20.6357 71.5174 19.7472 71.185L19.9224 70.7167M29.3046 70.6525C28.8332 70.9051 28.343 70.9406 24.7661 70.9821C21.0184 71.0256 20.7018 71.0082 19.9224 70.7167M19.9224 70.7167L19.7472 71.185C18.4571 70.7023 17.5373 69.8511 16.9105 68.5783L17.3591 68.3574M19.9224 70.7167L17.3591 68.3574M17.3591 68.3574C16.9455 67.5173 16.8659 67.1674 16.8021 65.9099L16.7276 64.4429M17.3591 68.3574L16.9105 68.5782C16.6971 68.1448 16.5542 67.8067 16.4619 67.4011C16.3718 67.0052 16.3347 66.5649 16.3027 65.9353L16.241 64.7185M16.7276 64.4429L16.0433 63.9838C15.2689 63.4643 14.4397 62.3526 14.2102 61.5259M16.7276 64.4429L16.2283 64.4682L16.241 64.7185M16.7276 64.4429L16.4491 64.8581L16.241 64.7185M14.2102 61.5259L13.7285 61.6597C13.7285 61.6598 13.7285 61.6598 13.7285 61.6599M14.2102 61.5259L13.7285 61.6599M14.2102 61.5259L11.053 45.9724M13.7285 61.6599C13.8656 62.1534 14.1673 62.6939 14.5216 63.169C14.8775 63.6461 15.3175 64.099 15.7647 64.399L15.7648 64.3991L16.241 64.7185M13.7285 61.6599C13.6919 61.5282 13.6694 61.3107 13.6517 61.0855C13.6325 60.8406 13.6155 60.5284 13.6013 60.1719C13.5729 59.4581 13.5552 58.5537 13.555 57.6295C13.5547 56.4145 13.5404 55.5505 13.5083 54.9402C13.4752 54.3121 13.4246 54.0063 13.3765 53.8695L13.3765 53.8694C13.3035 53.662 13.2346 53.3233 13.1781 52.97C13.1196 52.6051 13.0685 52.186 13.0384 51.7979C12.8666 49.5789 12.207 47.6552 11.053 45.9724M11.053 45.9724C11.053 45.9725 11.053 45.9725 11.0531 45.9725L11.4653 45.6896M11.053 45.9724L13.537 51.7593C13.3589 49.46 12.673 47.4505 11.4653 45.6896M11.053 45.9724L11.4653 45.6896M11.053 45.9724L11.4653 45.6896M11.053 45.9724C10.9596 45.8364 10.6048 45.4323 10.0696 44.8607M11.053 45.9724L10.0696 44.8607M26.9478 4.85044C31.1794 5.47109 35.1681 7.50369 38.3225 10.6562C44.2815 16.612 45.9495 25.2589 42.6433 33.0913L43.104 33.2857L42.6433 33.0913C41.5426 35.6993 40.2733 37.4721 37.4955 40.2309L37.8478 40.5857L37.4955 40.2309C36.0653 41.6515 34.7345 43.1235 34.2781 43.811L34.278 43.8111C32.7745 46.0764 31.9325 48.4949 31.7394 51.1186L32.2381 51.1553L31.7394 51.1186C31.6843 51.8679 31.6143 52.3028 31.5141 52.576C31.4337 52.7951 31.3424 52.8912 31.2014 52.9691C31.1775 52.9745 31.1389 52.9815 31.0828 52.9894C30.9711 53.0051 30.8151 53.0206 30.6166 53.0356C30.221 53.0653 29.6828 53.0905 29.0455 53.1107C27.7725 53.1512 26.1238 53.1715 24.4727 53.1715C22.8217 53.1715 21.173 53.1512 19.9 53.1107C19.2627 53.0905 18.7245 53.0653 18.3289 53.0356C18.1303 53.0206 17.9744 53.0051 17.8627 52.9894C17.8066 52.9815 17.768 52.9745 17.7441 52.9691C17.6031 52.8913 17.5118 52.7951 17.4314 52.576C17.3312 52.3028 17.2611 51.8679 17.206 51.1186C17.0133 48.4988 16.1741 46.0857 14.6708 43.8118L14.2537 44.0876L14.6708 43.8118C14.2091 43.1134 12.9065 41.6736 11.4514 40.2307L11.0993 40.5857L11.4513 40.2306C8.73869 37.541 7.5249 35.8763 6.43781 33.4047C5.13888 30.4514 4.67756 28.2116 4.6857 24.8835C4.69237 22.2246 4.97445 20.5265 5.78621 18.2254C7.49925 13.3697 11.2833 9.0829 15.8748 6.79472M26.9478 4.85044L27.0203 4.35573L26.9478 4.85044ZM26.9478 4.85044C23.2531 4.30881 19.5829 4.94696 15.8748 6.79472M15.8748 6.79472L15.6518 6.3472L15.8748 6.79472ZM12.4075 11.7957L12.4075 11.7956C13.9094 10.2089 15.2331 9.24255 17.2332 8.27178C19.1083 7.36152 20.7104 6.86528 22.4689 6.66138L12.4075 11.7957ZM12.4075 11.7957C11.0803 13.1981 10.3315 14.311 9.43435 16.2046L9.43434 16.2047M12.4075 11.7957L9.43434 16.2047M9.43434 16.2047C8.60994 17.9451 8.17408 19.5587 7.94867 21.6764L7.94867 21.6765M9.43434 16.2047L7.94867 21.6765M7.94867 21.6765C7.87868 22.3347 7.84102 22.7717 7.85519 23.1052C7.87086 23.474 7.94958 23.7201 8.08142 23.998L8.08142 23.998M7.94867 21.6765L8.08142 23.998M8.08142 23.998C8.44835 24.7712 9.12392 25.206 9.97725 25.206M8.08142 23.998L9.97725 25.206M31.0611 61.3819C31.6216 60.9278 31.7205 60.5221 31.7205 58.6773V57.3931L31.0611 61.3819ZM31.0611 61.3819C30.7676 61.6197 30.185 61.6428 24.4727 61.6428M31.0611 61.3819L24.4727 61.6428M27.9933 67.6716C28.6351 67.3433 28.8446 66.9127 28.8483 65.915L28.8498 65.4713H28.3498M27.9933 67.6716L24.4727 64.9713H28.3516L28.3498 65.4713M27.9933 67.6716C27.7812 67.7801 26.5252 67.8402 24.4727 67.8402M27.9933 67.6716L24.4727 67.8402M28.3498 65.4713H24.4727H20.5957L20.5972 65.9132C20.5989 66.3895 20.652 66.655 20.735 66.8255C20.8051 66.9696 20.9175 67.0886 21.1582 67.2152C21.1635 67.2165 21.1709 67.2182 21.1806 67.2202C21.2199 67.2282 21.2788 67.2375 21.3609 67.2471C21.5244 67.2661 21.7527 67.2831 22.0462 67.2972C22.6318 67.3252 23.4499 67.3402 24.4727 67.3402C25.4955 67.3402 26.3136 67.3252 26.8992 67.2972C27.1928 67.2831 27.4211 67.2661 27.5846 67.2471C27.6666 67.2375 27.7256 67.2282 27.7648 67.2202C27.7746 67.2182 27.782 67.2165 27.7873 67.2152C28.028 67.0886 28.1404 66.9696 28.2105 66.8255C28.2935 66.655 28.3465 66.3895 28.3483 65.9132L28.3498 65.4713ZM8.2137 42.9479C8.88764 43.6214 9.5485 44.3041 10.0696 44.8607M8.2137 42.9479L8.56711 42.5942L8.21368 42.9479C8.21369 42.9479 8.2137 42.9479 8.2137 42.9479ZM8.2137 42.9479L10.0696 44.8607M9.97725 25.206C10.6535 25.206 11.227 24.948 11.6138 24.422M9.97725 25.206L11.6138 24.422M11.6138 24.422C11.9825 23.9205 12.1384 23.2337 12.1408 22.445M11.6138 24.422L12.1408 22.445M12.1408 22.445C12.1502 19.2725 14.1195 15.4938 16.91 13.369M12.1408 22.445L16.91 13.369M16.91 13.369C18.6967 12.0085 21.0544 11.0457 22.9297 10.886M16.91 13.369L22.9297 10.886M22.9297 10.886C23.9438 10.7997 24.5613 10.7392 24.9719 10.6442M22.9297 10.886L24.9719 10.6442M24.9719 10.6442C25.1874 10.5944 25.3687 10.5305 25.5336 10.4362M24.9719 10.6442L25.5336 10.4362M25.5336 10.4362C25.6988 10.3418 25.8236 10.2302 25.9358 10.1181M25.5336 10.4362L25.9358 10.1181M25.9358 10.1181C26.6451 9.40875 26.7196 8.46557 26.3321 7.72121M25.9358 10.1181L26.3321 7.72121M26.3321 7.72121C25.9491 6.98543 25.1336 6.47049 24.1287 6.50938M26.3321 7.72121L24.1287 6.50938M24.1287 6.50938C23.8299 6.5209 23.0839 6.58996 22.469 6.66137L24.1287 6.50938ZM24.4727 61.6428C18.7605 61.6428 18.1779 61.6197 17.8844 61.3819L24.4727 61.6428ZM24.4727 67.8402C22.4203 67.8402 21.1643 67.7801 20.9521 67.6716L24.4727 67.8402ZM30.7464 60.9934L30.7463 60.9934C30.7433 60.9958 30.742 60.9972 30.7329 61.001C30.7193 61.0068 30.6862 61.0186 30.6167 61.032C30.4711 61.06 30.2244 61.0843 29.7792 61.1019C28.8952 61.1369 27.3338 61.1428 24.4727 61.1428C21.6117 61.1428 20.0503 61.1369 19.1663 61.1019C18.7211 61.0843 18.4744 61.06 18.3288 61.032C18.2593 61.0186 18.2261 61.0068 18.2126 61.001C18.2041 60.9974 18.2024 60.996 18.1997 60.9939L18.1991 60.9934L18.1991 60.9934C17.9877 60.8221 17.8946 60.6965 17.8303 60.4327C17.7521 60.1122 17.725 59.6106 17.725 58.6773V57.3931H24.4727H31.2205V58.6773C31.2205 59.6106 31.1933 60.1122 31.1152 60.4327C31.0509 60.6965 30.9578 60.8221 30.7464 60.9934Z" fill="#FF8655" stroke="#FF8655"/>
</svg>
