<svg width="83" height="83" viewBox="0 0 83 83" fill="none" xmlns="http://www.w3.org/2000/svg">
<path fill-rule="evenodd" clip-rule="evenodd" d="M38.4456 1.04392C38.1408 1.07939 37.2284 1.18549 36.4182 1.27986C30.963 1.91515 24.9164 4.04491 20.1741 7.00139C15.1035 10.1623 10.1262 15.1464 6.92371 20.2697C4.09535 24.7941 2.03191 30.6443 1.19872 36.5002C0.933761 38.3625 0.933761 44.6137 1.19872 46.476C1.8623 51.1401 3.09522 55.2258 5.0215 59.1438C7.20086 63.5765 9.33556 66.5545 12.8598 70.0784C16.3456 73.5634 19.3705 75.7397 23.6378 77.8327C26.6154 79.2932 28.5379 80.004 31.5564 80.7611C34.6642 81.5404 36.9872 81.8676 40.1877 81.9764C49.4175 82.2902 58.2751 79.474 65.844 73.8195C67.9417 72.2525 71.802 68.4757 73.3184 66.5069C77.3035 61.3329 79.9757 55.5542 81.1898 49.4846C81.7853 46.5076 81.9134 45.0923 81.9134 41.4881C81.9134 37.1159 81.5031 33.9882 80.4881 30.6234C80.1644 29.5502 79.9882 29.2351 79.4192 28.7107C77.7265 27.1507 75.1948 27.5928 74.1818 29.625C73.666 30.6601 73.6605 31.1133 74.1416 32.975C74.3502 33.7817 74.6421 35.1186 74.7903 35.946C75.1558 37.986 75.2836 42.7351 75.034 44.9958C74.1641 52.8715 70.8673 59.7535 65.2951 65.3247C60.5783 70.0408 54.7741 73.2065 48.4592 74.5072C45.8856 75.0373 44.1366 75.2131 41.4232 75.2147C32.3816 75.2197 24.0567 71.7619 17.6126 65.3247C15.5495 63.2639 13.7345 60.9468 12.3679 58.6296C6.61505 48.8744 6.14959 36.8771 11.1287 26.6827C15.6597 17.4052 24.288 10.6383 34.328 8.48827C39.1347 7.45885 44.5761 7.50905 49.2789 8.62603C52.6728 9.43217 56.5536 11.0592 59.4182 12.8767C60.9481 13.8473 61.4825 14.0147 62.6826 13.8994C64.7851 13.6975 66.1383 11.2326 65.227 9.26464C64.8672 8.48763 64.3507 8.00167 62.9141 7.08832C58.3548 4.18979 52.839 2.18481 47.0769 1.3318C45.563 1.10758 39.6076 0.909014 38.4456 1.04392ZM77.2468 8.0099C76.8853 8.16445 70.5678 14.3686 59.0758 25.8546L41.4593 43.4624L35.5576 37.5936C30.5644 32.6282 29.5556 31.6962 29.0041 31.5394C28.0061 31.2555 27.342 31.3149 26.4298 31.7693C25.0047 32.4793 24.3131 33.9695 24.6782 35.5429C24.8571 36.3137 25.1219 36.6014 32.1693 43.6828C37.084 48.6212 39.6824 51.1205 40.1085 51.3195C40.9177 51.6974 41.9933 51.6969 42.8009 51.3184C43.2391 51.1129 49.3239 45.1241 62.5453 31.8849C82.7586 11.6444 81.9962 12.4598 81.9962 11.0856C81.9962 9.88346 81.2088 8.64392 80.0793 8.0677C79.3525 7.69701 78.0407 7.67025 77.2468 8.0099Z" fill="#2AA1D8" stroke="#2AA1D8" stroke-width="0.3"/>
</svg>
