<svg width="36" height="37" viewBox="0 0 36 37" fill="none" xmlns="http://www.w3.org/2000/svg">
<path d="M24.7817 2.92079L24.7817 2.92077C24.4256 2.65029 24.2482 2.26758 24.2624 1.89594C24.2767 1.52239 24.4848 1.1732 24.8698 0.980162V0.980162C24.934 0.947936 25.0006 0.918083 25.0571 0.895668C25.0853 0.884495 25.1123 0.874598 25.1362 0.867098C25.1556 0.860979 25.1865 0.851907 25.2164 0.850251L25.2166 0.850236C25.2285 0.8496 25.2481 0.850698 25.26 0.851364L25.2629 0.851525L25.3387 0.856062C25.4032 0.860091 25.4958 0.866138 25.6133 0.873979C25.8484 0.889665 26.1839 0.912577 26.5949 0.940995C27.417 0.997835 28.5415 1.07673 29.7702 1.16396C31.5266 1.28863 32.6575 1.374 33.3726 1.43929C33.7299 1.47191 33.9856 1.49971 34.1644 1.52515C34.3352 1.54945 34.456 1.57388 34.5264 1.60757L34.4617 1.74287L34.5264 1.60758C34.8829 1.7783 35.15 2.18844 35.15 2.57732C35.15 2.75954 35.0012 4.81341 34.8479 6.84213C34.771 7.85957 34.6926 8.87473 34.6305 9.6527C34.5994 10.0416 34.5724 10.3715 34.5517 10.6128C34.5314 10.8488 34.5164 11.0103 34.5091 11.0527C34.5091 11.0527 34.5091 11.0527 34.5091 11.0527L34.3613 11.0272C34.3095 11.3278 34.0035 11.6377 33.6677 11.7297L24.7817 2.92079ZM24.7817 2.92079C24.9005 3.01096 25.0699 3.051 25.5152 3.09833C25.9737 3.14707 26.7634 3.2049 28.1662 3.30213C29.0258 3.36171 29.8112 3.42005 30.3839 3.46603C30.6267 3.48552 30.8309 3.50276 30.9862 3.51692C30.9382 3.55689 30.8837 3.60198 30.823 3.65199C30.5473 3.87915 30.1457 4.20555 29.6481 4.60713C28.6531 5.41018 27.2754 6.51288 25.7553 7.72137C22.945 9.95552 20.5625 11.852 20.1745 12.1638C20.1537 12.1532 20.1249 12.1369 20.086 12.1125C19.9599 12.0332 19.7575 11.8881 19.4369 11.644C18.7973 11.1572 17.7037 10.2897 15.844 8.80364C14.6432 7.84415 13.5339 6.96473 12.7141 6.32077C12.3042 5.99883 11.9663 5.73551 11.7254 5.5504C11.6051 5.45791 11.5084 5.38453 11.4388 5.333C11.4041 5.30731 11.3753 5.28645 11.3534 5.27116C11.3425 5.26358 11.3323 5.25667 11.3234 5.25098L11.323 5.25073C11.3172 5.24705 11.3021 5.2374 11.2852 5.23062C11.2248 5.20627 11.138 5.18868 11.0542 5.17697C10.967 5.16479 10.8694 5.15714 10.7811 5.15714C10.6447 5.15714 10.5326 5.16902 10.4092 5.22975C10.2948 5.28602 10.1789 5.38065 10.0219 5.51945L10.0219 5.51945L24.7817 2.92079ZM6.69597 11.6577L6.80075 11.765C5.69537 12.8441 4.67094 13.8408 3.91089 14.5773C3.53088 14.9455 3.21684 15.2488 2.99178 15.4649C2.77143 15.6764 2.62795 15.8126 2.59713 15.8372M6.69597 11.6577L1.98352 15.888M6.69597 11.6577L6.80075 11.765C7.90598 10.686 8.92339 9.6949 9.67224 8.96733M6.69597 11.6577L9.67224 8.96733M2.59713 15.8372L2.50346 15.7201L2.59725 15.8371C2.59721 15.8372 2.59717 15.8372 2.59713 15.8372ZM2.59713 15.8372C2.45889 15.9479 2.22079 16.0185 1.99614 16.0375L1.98352 15.888M1.98352 15.888L1.99613 16.0375C1.84629 16.0501 1.72755 16.0547 1.61888 16.0245C1.50554 15.993 1.41889 15.9283 1.32154 15.8449M1.98352 15.888L0.944191 14.4468C0.72908 14.9272 0.892546 15.4776 1.32154 15.8449M1.32154 15.8449L1.41911 15.7309L1.32156 15.8449C1.32155 15.8449 1.32154 15.8449 1.32154 15.8449ZM26.4555 14.0924C26.4313 14.12 26.4036 14.1553 26.3823 14.2182C26.3639 14.2727 26.3516 14.3437 26.3417 14.4436C26.3219 14.6447 26.3087 15.0031 26.2991 15.6732C26.2799 17.0169 26.2752 19.6374 26.2666 24.8193L26.2491 35.294L26.2491 35.339L26.2737 35.3766L26.4269 35.6098C26.4336 35.6201 26.4403 35.6304 26.4471 35.6407C26.5135 35.7429 26.5821 35.8484 26.6948 35.9274C26.821 36.0159 26.9876 36.0635 27.2387 36.0933C27.7158 36.15 28.5868 36.1499 30.2949 36.1498L30.5322 36.1498L30.7669 36.1498C32.4764 36.1499 33.348 36.15 33.8254 36.0934C34.0765 36.0637 34.243 36.0162 34.3692 35.9278C34.482 35.8489 34.5506 35.7434 34.617 35.6414C34.6236 35.6311 34.6303 35.6209 34.637 35.6108L34.7895 35.3785L34.8141 35.341V35.2962L34.8138 24.8987C34.8137 19.7722 34.8132 17.1707 34.7962 15.8237C34.7878 15.1517 34.7752 14.7866 34.7559 14.575C34.7462 14.469 34.7343 14.3948 34.718 14.3368C34.7004 14.2742 34.6789 14.2352 34.6587 14.2014C34.5731 14.0586 34.3976 13.8799 34.2567 13.7925M26.4555 14.0924L26.5684 14.1911L26.4554 14.0924C26.4554 14.0924 26.4554 14.0924 26.4555 14.0924ZM26.4555 14.0924C26.5404 13.9951 26.7033 13.8599 26.8245 13.7838C26.9579 13.6999 27.1002 13.6695 27.5771 13.6529C28.0614 13.6359 28.9245 13.634 30.5322 13.634C32.1808 13.634 33.0433 13.6353 33.5192 13.653C33.7562 13.6618 33.9063 13.675 34.0128 13.6964C34.1277 13.7195 34.1922 13.7525 34.2567 13.7925M34.2567 13.7925L34.1776 13.9199L34.2567 13.7925C34.2567 13.7925 34.2567 13.7925 34.2567 13.7925ZM1.19063 35.341L1.19064 35.2962L1.19091 31.0852C1.19101 29.046 1.19208 27.9884 1.20941 27.4142C1.21803 27.1284 1.23083 26.9541 1.25142 26.8356C1.27359 26.7081 1.30552 26.6418 1.346 26.5743C1.43161 26.4314 1.60711 26.2527 1.74806 26.1653M1.19063 35.341L9.11783 26.2928L9.19694 26.1653C9.19692 26.1653 9.19691 26.1653 9.19689 26.1653C9.13244 26.1253 9.06791 26.0924 8.95305 26.0693C8.84651 26.0478 8.69646 26.0347 8.45944 26.0258C7.98349 26.0081 7.12108 26.0069 5.47247 26.0069C3.82387 26.0069 2.96146 26.0081 2.4855 26.0258C2.24849 26.0347 2.09844 26.0478 1.9919 26.0693C1.87704 26.0924 1.81251 26.1253 1.74806 26.1653M1.19063 35.341L1.21525 35.3785M1.19063 35.341L1.21525 35.3785M1.74806 26.1653L1.82712 26.2928L1.74801 26.1653C1.74803 26.1653 1.74804 26.1653 1.74806 26.1653ZM1.21525 35.3785L1.36776 35.6108M1.21525 35.3785L1.36776 35.6108M9.67224 8.96733C10.0467 8.60353 10.3539 8.3057 10.5713 8.09574M9.67224 8.96733L10.5713 8.09574M10.5713 8.09574C10.6801 7.99074 10.7662 7.90785 10.827 7.84972M10.5713 8.09574L10.827 7.84972M10.827 7.84972C10.8488 7.82889 10.8673 7.81136 10.8823 7.79718L10.827 7.84972ZM1.36776 35.6108C1.37459 35.6212 1.3814 35.6317 1.38824 35.6422M1.36776 35.6108L1.38824 35.6422M1.38824 35.6422C1.45437 35.7439 1.52285 35.8493 1.63572 35.9281M1.38824 35.6422L1.63572 35.9281M1.63572 35.9281C1.76221 36.0165 1.92956 36.0639 2.18232 36.0936M1.63572 35.9281L2.18232 36.0936M2.18232 36.0936C2.66221 36.1499 3.53916 36.1498 5.25932 36.1497M2.18232 36.0936L5.25932 36.1497M5.25932 36.1497L5.50607 36.1496M5.25932 36.1497L5.50607 36.1496M5.50607 36.1496C7.13784 36.1496 7.99189 36.1483 8.4637 36.1305M5.50607 36.1496L8.4637 36.1305M8.4637 36.1305C8.69866 36.1217 8.8477 36.1085 8.95375 36.0871M8.4637 36.1305L8.95375 36.0871M8.95375 36.0871C9.06808 36.0639 9.13256 36.031 9.19693 35.9911L8.95375 36.0871ZM27.4342 9.25911L32.7502 5.04601L19.6074 14.644C19.6074 14.6441 19.6074 14.6441 19.6075 14.6441C19.6738 14.6793 19.7655 14.7057 19.8534 14.7233C19.9439 14.7415 20.0444 14.7533 20.1343 14.7534H20.1344C20.1466 14.7535 20.157 14.7545 20.1702 14.7562C20.172 14.7564 20.174 14.7567 20.1763 14.757C20.1886 14.7587 20.2084 14.7614 20.2276 14.7623C20.2858 14.7651 20.3422 14.7539 20.4128 14.722C20.5375 14.6655 20.7396 14.5276 21.1464 14.2193C21.8473 13.688 23.1955 12.6192 25.8882 10.4846C26.3608 10.1099 26.8749 9.70235 27.4342 9.25911ZM31.2907 3.45537L31.3404 3.4065L31.2907 3.45533C31.2907 3.45534 31.2907 3.45535 31.2907 3.45537ZM32.6164 24.875L32.6331 33.8676H30.5325H28.4316V24.9032C28.4316 22.3969 28.4367 20.1133 28.445 18.4532C28.4491 17.6231 28.454 16.9491 28.4595 16.4812C28.4622 16.2472 28.4651 16.0652 28.468 15.9411C28.4686 15.9179 28.4691 15.8968 28.4697 15.8779C28.486 15.8771 28.504 15.8763 28.5236 15.8755C28.6382 15.8709 28.8023 15.8673 29.0042 15.8647C29.4078 15.8596 29.9589 15.8588 30.5599 15.8638L32.5996 15.8805L32.6164 24.875ZM13.8934 21.8534L13.8934 21.8534C13.8522 21.9315 13.8262 22.0134 13.8082 22.1852C13.7907 22.3527 13.7795 22.6172 13.7726 23.0665C13.7587 23.9673 13.7617 25.6324 13.7701 28.8002L13.7877 35.4425L13.7879 35.5007L13.8272 35.5436L13.9952 35.7265L14.1057 35.625L13.9952 35.7265C14.0036 35.7356 14.0119 35.7448 14.0202 35.754C14.0935 35.8346 14.1681 35.9166 14.2796 35.9774C14.4041 36.0454 14.5633 36.0825 14.8067 36.1059C15.2665 36.1502 16.0981 36.1501 17.7341 36.15C17.8212 36.15 17.9106 36.15 18.0024 36.15C18.0941 36.15 18.1835 36.15 18.2706 36.15C19.9066 36.1501 20.7382 36.1502 21.198 36.1059C21.4414 36.0825 21.6006 36.0454 21.7251 35.9774C21.8366 35.9166 21.9112 35.8346 21.9845 35.754C21.9928 35.7448 22.0012 35.7356 22.0095 35.7265L21.8991 35.625L22.0095 35.7265L22.1775 35.5436L22.2169 35.5007L22.217 35.4425L22.2348 28.7757C22.2436 25.4784 22.2477 23.8089 22.2327 22.9365C22.2252 22.502 22.2129 22.2578 22.1928 22.1069C22.1826 22.0302 22.1697 21.9722 22.152 21.9227C22.1338 21.8719 22.1126 21.8359 22.0944 21.806L21.9662 21.8839L22.0944 21.806C22.0899 21.7987 22.0855 21.7913 22.081 21.7839C22.0214 21.6852 21.9576 21.5794 21.8416 21.5006C21.7179 21.4166 21.5508 21.3721 21.2996 21.3441C20.8124 21.2896 19.9133 21.2896 18.1482 21.2897L17.9911 21.2897C16.4182 21.2897 15.565 21.2918 15.0788 21.3086C14.5978 21.3253 14.4481 21.3558 14.3067 21.4329C14.2266 21.4766 14.1438 21.5449 14.0736 21.6164C14.0033 21.688 13.9363 21.7722 13.8934 21.8534ZM20.0694 28.6856V33.8676H18.0024H15.9353V28.6856V23.5037H18.0024H20.0694V28.6856ZM7.5571 31.062L7.57367 33.8676H5.47321H3.3718V31.0896C3.3718 30.2849 3.37694 29.5485 3.3852 29.0103C3.38934 28.7411 3.39424 28.5222 3.39965 28.3695C3.40128 28.3234 3.40294 28.2838 3.40461 28.251C3.4223 28.2501 3.44206 28.2492 3.46385 28.2483C3.57843 28.2438 3.74249 28.2401 3.94445 28.2375C4.34803 28.2324 4.89912 28.2317 5.50013 28.2366L7.54044 28.2534L7.5571 31.062Z" fill="#FF8655" stroke="#FF8655" stroke-width="0.3"/>
</svg>
