<svg width="39" height="39" viewBox="0 0 39 39" fill="none" xmlns="http://www.w3.org/2000/svg">
<mask id="path-1-outside-1_1267_9111" maskUnits="userSpaceOnUse" x="0" y="0" width="39" height="39" fill="black">
<rect fill="white" width="39" height="39"/>
<path fill-rule="evenodd" clip-rule="evenodd" d="M31.5197 1.04705C30.3993 1.25165 29.4322 1.76954 28.5805 2.62102C27.8852 3.3162 27.4798 3.97056 27.1746 4.89078C27.0032 5.40728 26.9783 5.61435 26.9785 6.52377C26.9786 7.44313 27.0026 7.63762 27.183 8.18244C27.4764 9.06887 27.882 9.71505 28.5871 10.4197C29.5084 11.3405 30.4554 11.8299 31.6629 12.0094L32.2143 12.0914L31.2304 13.0647C30.6892 13.6001 30.2502 14.0744 30.2548 14.119C30.2593 14.1635 30.4515 14.3711 30.6817 14.5804L31.1002 14.9608L31.4836 14.5833L31.867 14.2057V16.3965C31.867 18.4536 31.8572 18.6073 31.7074 18.9168C31.2807 19.798 30.1053 20.3229 27.1597 20.9479C24.406 21.5321 23.5857 21.7819 22.6745 22.3133C22.1901 22.5959 21.8442 22.9541 21.5862 23.4405C21.4494 23.6986 21.4132 23.8945 21.4121 24.3834C21.4109 24.9183 21.4389 25.0485 21.6217 25.3594C22.2054 26.352 23.6672 27.0856 26.4267 27.7705C27.0208 27.918 28.4619 28.2522 29.6291 28.5132C34.1048 29.5138 35.9727 30.2367 36.5877 31.2063C36.8517 31.6224 36.8643 31.9499 36.6299 32.2976C36.0907 33.0975 34.316 33.7797 31.6109 34.2269L30.5446 34.4032L30.5925 34.7937C30.6705 35.4287 30.7169 35.6084 30.8034 35.6084C30.8484 35.6084 31.3053 35.5368 31.8186 35.4492C35.1653 34.8784 37.1846 33.9711 37.8176 32.754C37.9592 32.4816 37.9986 32.282 38 31.8282C38.0023 31.0671 37.7545 30.5431 37.1106 29.947C35.9574 28.8796 34.2332 28.2625 29.4362 27.2001C26.1627 26.4751 24.7226 26.0616 23.7258 25.5601C22.6631 25.0255 22.3663 24.4951 22.7826 23.8741C23.1845 23.2744 24.1167 22.8808 26.2337 22.417C26.8491 22.2822 27.752 22.0848 28.2401 21.9781C30.8572 21.4065 32.2404 20.6567 32.8099 19.5008L33.063 18.987L33.0874 16.6014L33.1118 14.2158L33.4901 14.5883L33.8684 14.9608L34.2869 14.5804C34.5171 14.3711 34.7093 14.1635 34.7138 14.119C34.7184 14.0744 34.2794 13.6001 33.7382 13.0647L32.7543 12.0914L33.3057 12.0094C34.5132 11.8299 35.4602 11.3405 36.3815 10.4197C37.0866 9.71505 37.4921 9.06887 37.7856 8.18244C37.966 7.63747 37.99 7.44337 37.99 6.52377C37.99 5.60417 37.966 5.41006 37.7856 4.86509C37.4922 3.97882 37.0866 3.33255 36.3815 2.62758C35.3048 1.55114 34.1925 1.05901 32.7158 1.00578C32.2702 0.989734 31.7319 1.00825 31.5197 1.04705ZM33.2996 2.28597C34.0614 2.42314 34.9259 2.89003 35.5224 3.48646C37.2178 5.1814 37.2159 7.8713 35.518 9.56878C33.8272 11.2592 31.1363 11.2507 29.4348 9.54973C27.3554 7.47091 27.9367 3.97596 30.5781 2.6761C31.4905 2.22703 32.3157 2.10876 33.2996 2.28597ZM33.6019 5.14059C33.1357 5.61034 32.4139 6.31022 31.9978 6.69581L31.2414 7.397L30.8763 7.03757C30.6755 6.83984 30.4764 6.67806 30.4338 6.67806C30.3303 6.67806 29.6291 7.39376 29.6291 7.49945C29.6291 7.6333 30.9146 8.82863 31.1119 8.87816C31.2109 8.903 31.364 8.89544 31.4521 8.86149C31.5403 8.82747 32.4561 7.97792 33.4873 6.97369L35.3623 5.14776L34.9942 4.71712C34.7918 4.48028 34.5865 4.28648 34.5378 4.28648C34.4892 4.28648 34.0681 4.67083 33.6019 5.14059ZM2.42412 12.2678L2.23468 12.4571L2.23638 15.4501C2.23792 18.1703 2.25027 18.4579 2.37142 18.6054C2.4448 18.6947 3.1211 19.2598 3.87449 19.8613C4.62787 20.4627 5.2432 20.9972 5.24205 21.049C5.24089 21.1009 4.86524 23.2609 4.4074 25.8492L3.57484 30.5553L3.05219 30.5938C2.24949 30.6531 2.23468 30.6847 2.23468 32.3382V33.6797H1.80678C1.45529 33.6797 1.34494 33.7136 1.18945 33.8691L1 34.0585V35.8399V37.6213L1.18945 37.8106L1.37881 38H9.02541H16.672L16.8614 37.8106L17.0508 37.6213V35.8399V34.0585L16.8614 33.8691C16.7059 33.7136 16.5955 33.6797 16.244 33.6797H15.8161V32.3382C15.8161 30.6847 15.8013 30.6531 14.9986 30.5938L14.476 30.5553L13.6434 25.8492C13.1856 23.2609 12.8099 21.1009 12.8088 21.049C12.8076 20.9972 13.423 20.4627 14.1763 19.8613C14.9296 19.2598 15.606 18.6947 15.6794 18.6054C15.8005 18.4579 15.8129 18.1703 15.8144 15.4501L15.8161 12.4571L15.6267 12.2678C15.4389 12.0799 15.4254 12.0784 13.9641 12.0784C12.5029 12.0784 12.4894 12.0799 12.3015 12.2678C12.119 12.4502 12.1121 12.4955 12.1121 13.5022V14.5471H11.4948H10.8774V13.5022C10.8774 12.4955 10.8705 12.4502 10.688 12.2678C10.5002 12.0799 10.4866 12.0784 9.02541 12.0784C7.56417 12.0784 7.55066 12.0799 7.36284 12.2678C7.18034 12.4502 7.17339 12.4955 7.17339 13.5022V14.5471H6.55605H5.93871V13.5022C5.93871 12.4955 5.93177 12.4502 5.74927 12.2678C5.56144 12.0799 5.54794 12.0784 4.0867 12.0784C2.62545 12.0784 2.61195 12.0799 2.42412 12.2678ZM4.70403 14.3577C4.70403 15.3644 4.71098 15.4097 4.89348 15.5921C5.08131 15.7799 5.09481 15.7815 6.55605 15.7815C8.01729 15.7815 8.0308 15.7799 8.21862 15.5921C8.40112 15.4097 8.40807 15.3644 8.40807 14.3577V13.3128H9.02541H9.64275V14.3577C9.64275 15.3644 9.64969 15.4097 9.83219 15.5921C10.02 15.7799 10.0335 15.7815 11.4948 15.7815C12.956 15.7815 12.9695 15.7799 13.1573 15.5921C13.3398 15.4097 13.3468 15.3644 13.3468 14.3577V13.3128H13.9641H14.5815V15.4729V17.633H9.02541H3.46936V15.4729V13.3128H4.0867H4.70403V14.3577ZM12.671 19.4846L11.8984 20.1017H9.02541H6.15239L5.37979 19.4846L4.60711 18.8674H9.02541H13.4437L12.671 19.4846ZM12.3928 25.8492C12.8288 28.3103 13.187 30.3846 13.1889 30.4588C13.1922 30.5858 12.9439 30.5938 9.02541 30.5938C5.75089 30.5938 4.85837 30.5732 4.85837 30.4977C4.85837 30.383 6.39925 21.5722 6.44393 21.4315C6.46816 21.355 7.02623 21.3384 9.03752 21.3543L11.6002 21.3747L12.3928 25.8492ZM14.5815 32.754V33.6797H9.02541H3.46936V32.754V31.8282H9.02541H14.5815V32.754ZM28.3225 34.6351L27.5175 34.7212L27.5375 35.2589C27.5484 35.5547 27.5765 35.8274 27.5998 35.8652C27.6399 35.93 28.6817 35.8808 29.2234 35.7884C29.4292 35.7533 29.4674 35.7166 29.4396 35.5807C29.421 35.4898 29.384 35.216 29.3575 34.972C29.328 34.7004 29.2741 34.5324 29.2184 34.5387C29.1684 34.5444 28.7653 34.5878 28.3225 34.6351ZM25.2884 34.8182L24.4589 34.8422V35.4568V36.0713L25.2884 36.0702C25.7447 36.0695 26.163 36.0404 26.2181 36.0055C26.3385 35.9291 26.3172 34.8155 26.1952 34.8025C26.1527 34.798 25.7447 34.8051 25.2884 34.8182ZM15.8161 35.8399V36.7656H9.02541H2.23468V35.8399V34.9141H9.02541H15.8161V35.8399ZM18.2855 35.5313V36.1485H19.2115H20.1375V35.5313V34.9141H19.2115H18.2855V35.5313ZM21.3722 35.5313V36.1485H22.2982H23.2242V35.5313V34.9141H22.2982H21.3722V35.5313Z"/>
</mask>
<path fill-rule="evenodd" clip-rule="evenodd" d="M31.5197 1.04705C30.3993 1.25165 29.4322 1.76954 28.5805 2.62102C27.8852 3.3162 27.4798 3.97056 27.1746 4.89078C27.0032 5.40728 26.9783 5.61435 26.9785 6.52377C26.9786 7.44313 27.0026 7.63762 27.183 8.18244C27.4764 9.06887 27.882 9.71505 28.5871 10.4197C29.5084 11.3405 30.4554 11.8299 31.6629 12.0094L32.2143 12.0914L31.2304 13.0647C30.6892 13.6001 30.2502 14.0744 30.2548 14.119C30.2593 14.1635 30.4515 14.3711 30.6817 14.5804L31.1002 14.9608L31.4836 14.5833L31.867 14.2057V16.3965C31.867 18.4536 31.8572 18.6073 31.7074 18.9168C31.2807 19.798 30.1053 20.3229 27.1597 20.9479C24.406 21.5321 23.5857 21.7819 22.6745 22.3133C22.1901 22.5959 21.8442 22.9541 21.5862 23.4405C21.4494 23.6986 21.4132 23.8945 21.4121 24.3834C21.4109 24.9183 21.4389 25.0485 21.6217 25.3594C22.2054 26.352 23.6672 27.0856 26.4267 27.7705C27.0208 27.918 28.4619 28.2522 29.6291 28.5132C34.1048 29.5138 35.9727 30.2367 36.5877 31.2063C36.8517 31.6224 36.8643 31.9499 36.6299 32.2976C36.0907 33.0975 34.316 33.7797 31.6109 34.2269L30.5446 34.4032L30.5925 34.7937C30.6705 35.4287 30.7169 35.6084 30.8034 35.6084C30.8484 35.6084 31.3053 35.5368 31.8186 35.4492C35.1653 34.8784 37.1846 33.9711 37.8176 32.754C37.9592 32.4816 37.9986 32.282 38 31.8282C38.0023 31.0671 37.7545 30.5431 37.1106 29.947C35.9574 28.8796 34.2332 28.2625 29.4362 27.2001C26.1627 26.4751 24.7226 26.0616 23.7258 25.5601C22.6631 25.0255 22.3663 24.4951 22.7826 23.8741C23.1845 23.2744 24.1167 22.8808 26.2337 22.417C26.8491 22.2822 27.752 22.0848 28.2401 21.9781C30.8572 21.4065 32.2404 20.6567 32.8099 19.5008L33.063 18.987L33.0874 16.6014L33.1118 14.2158L33.4901 14.5883L33.8684 14.9608L34.2869 14.5804C34.5171 14.3711 34.7093 14.1635 34.7138 14.119C34.7184 14.0744 34.2794 13.6001 33.7382 13.0647L32.7543 12.0914L33.3057 12.0094C34.5132 11.8299 35.4602 11.3405 36.3815 10.4197C37.0866 9.71505 37.4921 9.06887 37.7856 8.18244C37.966 7.63747 37.99 7.44337 37.99 6.52377C37.99 5.60417 37.966 5.41006 37.7856 4.86509C37.4922 3.97882 37.0866 3.33255 36.3815 2.62758C35.3048 1.55114 34.1925 1.05901 32.7158 1.00578C32.2702 0.989734 31.7319 1.00825 31.5197 1.04705ZM33.2996 2.28597C34.0614 2.42314 34.9259 2.89003 35.5224 3.48646C37.2178 5.1814 37.2159 7.8713 35.518 9.56878C33.8272 11.2592 31.1363 11.2507 29.4348 9.54973C27.3554 7.47091 27.9367 3.97596 30.5781 2.6761C31.4905 2.22703 32.3157 2.10876 33.2996 2.28597ZM33.6019 5.14059C33.1357 5.61034 32.4139 6.31022 31.9978 6.69581L31.2414 7.397L30.8763 7.03757C30.6755 6.83984 30.4764 6.67806 30.4338 6.67806C30.3303 6.67806 29.6291 7.39376 29.6291 7.49945C29.6291 7.6333 30.9146 8.82863 31.1119 8.87816C31.2109 8.903 31.364 8.89544 31.4521 8.86149C31.5403 8.82747 32.4561 7.97792 33.4873 6.97369L35.3623 5.14776L34.9942 4.71712C34.7918 4.48028 34.5865 4.28648 34.5378 4.28648C34.4892 4.28648 34.0681 4.67083 33.6019 5.14059ZM2.42412 12.2678L2.23468 12.4571L2.23638 15.4501C2.23792 18.1703 2.25027 18.4579 2.37142 18.6054C2.4448 18.6947 3.1211 19.2598 3.87449 19.8613C4.62787 20.4627 5.2432 20.9972 5.24205 21.049C5.24089 21.1009 4.86524 23.2609 4.4074 25.8492L3.57484 30.5553L3.05219 30.5938C2.24949 30.6531 2.23468 30.6847 2.23468 32.3382V33.6797H1.80678C1.45529 33.6797 1.34494 33.7136 1.18945 33.8691L1 34.0585V35.8399V37.6213L1.18945 37.8106L1.37881 38H9.02541H16.672L16.8614 37.8106L17.0508 37.6213V35.8399V34.0585L16.8614 33.8691C16.7059 33.7136 16.5955 33.6797 16.244 33.6797H15.8161V32.3382C15.8161 30.6847 15.8013 30.6531 14.9986 30.5938L14.476 30.5553L13.6434 25.8492C13.1856 23.2609 12.8099 21.1009 12.8088 21.049C12.8076 20.9972 13.423 20.4627 14.1763 19.8613C14.9296 19.2598 15.606 18.6947 15.6794 18.6054C15.8005 18.4579 15.8129 18.1703 15.8144 15.4501L15.8161 12.4571L15.6267 12.2678C15.4389 12.0799 15.4254 12.0784 13.9641 12.0784C12.5029 12.0784 12.4894 12.0799 12.3015 12.2678C12.119 12.4502 12.1121 12.4955 12.1121 13.5022V14.5471H11.4948H10.8774V13.5022C10.8774 12.4955 10.8705 12.4502 10.688 12.2678C10.5002 12.0799 10.4866 12.0784 9.02541 12.0784C7.56417 12.0784 7.55066 12.0799 7.36284 12.2678C7.18034 12.4502 7.17339 12.4955 7.17339 13.5022V14.5471H6.55605H5.93871V13.5022C5.93871 12.4955 5.93177 12.4502 5.74927 12.2678C5.56144 12.0799 5.54794 12.0784 4.0867 12.0784C2.62545 12.0784 2.61195 12.0799 2.42412 12.2678ZM4.70403 14.3577C4.70403 15.3644 4.71098 15.4097 4.89348 15.5921C5.08131 15.7799 5.09481 15.7815 6.55605 15.7815C8.01729 15.7815 8.0308 15.7799 8.21862 15.5921C8.40112 15.4097 8.40807 15.3644 8.40807 14.3577V13.3128H9.02541H9.64275V14.3577C9.64275 15.3644 9.64969 15.4097 9.83219 15.5921C10.02 15.7799 10.0335 15.7815 11.4948 15.7815C12.956 15.7815 12.9695 15.7799 13.1573 15.5921C13.3398 15.4097 13.3468 15.3644 13.3468 14.3577V13.3128H13.9641H14.5815V15.4729V17.633H9.02541H3.46936V15.4729V13.3128H4.0867H4.70403V14.3577ZM12.671 19.4846L11.8984 20.1017H9.02541H6.15239L5.37979 19.4846L4.60711 18.8674H9.02541H13.4437L12.671 19.4846ZM12.3928 25.8492C12.8288 28.3103 13.187 30.3846 13.1889 30.4588C13.1922 30.5858 12.9439 30.5938 9.02541 30.5938C5.75089 30.5938 4.85837 30.5732 4.85837 30.4977C4.85837 30.383 6.39925 21.5722 6.44393 21.4315C6.46816 21.355 7.02623 21.3384 9.03752 21.3543L11.6002 21.3747L12.3928 25.8492ZM14.5815 32.754V33.6797H9.02541H3.46936V32.754V31.8282H9.02541H14.5815V32.754ZM28.3225 34.6351L27.5175 34.7212L27.5375 35.2589C27.5484 35.5547 27.5765 35.8274 27.5998 35.8652C27.6399 35.93 28.6817 35.8808 29.2234 35.7884C29.4292 35.7533 29.4674 35.7166 29.4396 35.5807C29.421 35.4898 29.384 35.216 29.3575 34.972C29.328 34.7004 29.2741 34.5324 29.2184 34.5387C29.1684 34.5444 28.7653 34.5878 28.3225 34.6351ZM25.2884 34.8182L24.4589 34.8422V35.4568V36.0713L25.2884 36.0702C25.7447 36.0695 26.163 36.0404 26.2181 36.0055C26.3385 35.9291 26.3172 34.8155 26.1952 34.8025C26.1527 34.798 25.7447 34.8051 25.2884 34.8182ZM15.8161 35.8399V36.7656H9.02541H2.23468V35.8399V34.9141H9.02541H15.8161V35.8399ZM18.2855 35.5313V36.1485H19.2115H20.1375V35.5313V34.9141H19.2115H18.2855V35.5313ZM21.3722 35.5313V36.1485H22.2982H23.2242V35.5313V34.9141H22.2982H21.3722V35.5313Z" fill="#FF8655"/>
<path fill-rule="evenodd" clip-rule="evenodd" d="M31.5197 1.04705C30.3993 1.25165 29.4322 1.76954 28.5805 2.62102C27.8852 3.3162 27.4798 3.97056 27.1746 4.89078C27.0032 5.40728 26.9783 5.61435 26.9785 6.52377C26.9786 7.44313 27.0026 7.63762 27.183 8.18244C27.4764 9.06887 27.882 9.71505 28.5871 10.4197C29.5084 11.3405 30.4554 11.8299 31.6629 12.0094L32.2143 12.0914L31.2304 13.0647C30.6892 13.6001 30.2502 14.0744 30.2548 14.119C30.2593 14.1635 30.4515 14.3711 30.6817 14.5804L31.1002 14.9608L31.4836 14.5833L31.867 14.2057V16.3965C31.867 18.4536 31.8572 18.6073 31.7074 18.9168C31.2807 19.798 30.1053 20.3229 27.1597 20.9479C24.406 21.5321 23.5857 21.7819 22.6745 22.3133C22.1901 22.5959 21.8442 22.9541 21.5862 23.4405C21.4494 23.6986 21.4132 23.8945 21.4121 24.3834C21.4109 24.9183 21.4389 25.0485 21.6217 25.3594C22.2054 26.352 23.6672 27.0856 26.4267 27.7705C27.0208 27.918 28.4619 28.2522 29.6291 28.5132C34.1048 29.5138 35.9727 30.2367 36.5877 31.2063C36.8517 31.6224 36.8643 31.9499 36.6299 32.2976C36.0907 33.0975 34.316 33.7797 31.6109 34.2269L30.5446 34.4032L30.5925 34.7937C30.6705 35.4287 30.7169 35.6084 30.8034 35.6084C30.8484 35.6084 31.3053 35.5368 31.8186 35.4492C35.1653 34.8784 37.1846 33.9711 37.8176 32.754C37.9592 32.4816 37.9986 32.282 38 31.8282C38.0023 31.0671 37.7545 30.5431 37.1106 29.947C35.9574 28.8796 34.2332 28.2625 29.4362 27.2001C26.1627 26.4751 24.7226 26.0616 23.7258 25.5601C22.6631 25.0255 22.3663 24.4951 22.7826 23.8741C23.1845 23.2744 24.1167 22.8808 26.2337 22.417C26.8491 22.2822 27.752 22.0848 28.2401 21.9781C30.8572 21.4065 32.2404 20.6567 32.8099 19.5008L33.063 18.987L33.0874 16.6014L33.1118 14.2158L33.4901 14.5883L33.8684 14.9608L34.2869 14.5804C34.5171 14.3711 34.7093 14.1635 34.7138 14.119C34.7184 14.0744 34.2794 13.6001 33.7382 13.0647L32.7543 12.0914L33.3057 12.0094C34.5132 11.8299 35.4602 11.3405 36.3815 10.4197C37.0866 9.71505 37.4921 9.06887 37.7856 8.18244C37.966 7.63747 37.99 7.44337 37.99 6.52377C37.99 5.60417 37.966 5.41006 37.7856 4.86509C37.4922 3.97882 37.0866 3.33255 36.3815 2.62758C35.3048 1.55114 34.1925 1.05901 32.7158 1.00578C32.2702 0.989734 31.7319 1.00825 31.5197 1.04705ZM33.2996 2.28597C34.0614 2.42314 34.9259 2.89003 35.5224 3.48646C37.2178 5.1814 37.2159 7.8713 35.518 9.56878C33.8272 11.2592 31.1363 11.2507 29.4348 9.54973C27.3554 7.47091 27.9367 3.97596 30.5781 2.6761C31.4905 2.22703 32.3157 2.10876 33.2996 2.28597ZM33.6019 5.14059C33.1357 5.61034 32.4139 6.31022 31.9978 6.69581L31.2414 7.397L30.8763 7.03757C30.6755 6.83984 30.4764 6.67806 30.4338 6.67806C30.3303 6.67806 29.6291 7.39376 29.6291 7.49945C29.6291 7.6333 30.9146 8.82863 31.1119 8.87816C31.2109 8.903 31.364 8.89544 31.4521 8.86149C31.5403 8.82747 32.4561 7.97792 33.4873 6.97369L35.3623 5.14776L34.9942 4.71712C34.7918 4.48028 34.5865 4.28648 34.5378 4.28648C34.4892 4.28648 34.0681 4.67083 33.6019 5.14059ZM2.42412 12.2678L2.23468 12.4571L2.23638 15.4501C2.23792 18.1703 2.25027 18.4579 2.37142 18.6054C2.4448 18.6947 3.1211 19.2598 3.87449 19.8613C4.62787 20.4627 5.2432 20.9972 5.24205 21.049C5.24089 21.1009 4.86524 23.2609 4.4074 25.8492L3.57484 30.5553L3.05219 30.5938C2.24949 30.6531 2.23468 30.6847 2.23468 32.3382V33.6797H1.80678C1.45529 33.6797 1.34494 33.7136 1.18945 33.8691L1 34.0585V35.8399V37.6213L1.18945 37.8106L1.37881 38H9.02541H16.672L16.8614 37.8106L17.0508 37.6213V35.8399V34.0585L16.8614 33.8691C16.7059 33.7136 16.5955 33.6797 16.244 33.6797H15.8161V32.3382C15.8161 30.6847 15.8013 30.6531 14.9986 30.5938L14.476 30.5553L13.6434 25.8492C13.1856 23.2609 12.8099 21.1009 12.8088 21.049C12.8076 20.9972 13.423 20.4627 14.1763 19.8613C14.9296 19.2598 15.606 18.6947 15.6794 18.6054C15.8005 18.4579 15.8129 18.1703 15.8144 15.4501L15.8161 12.4571L15.6267 12.2678C15.4389 12.0799 15.4254 12.0784 13.9641 12.0784C12.5029 12.0784 12.4894 12.0799 12.3015 12.2678C12.119 12.4502 12.1121 12.4955 12.1121 13.5022V14.5471H11.4948H10.8774V13.5022C10.8774 12.4955 10.8705 12.4502 10.688 12.2678C10.5002 12.0799 10.4866 12.0784 9.02541 12.0784C7.56417 12.0784 7.55066 12.0799 7.36284 12.2678C7.18034 12.4502 7.17339 12.4955 7.17339 13.5022V14.5471H6.55605H5.93871V13.5022C5.93871 12.4955 5.93177 12.4502 5.74927 12.2678C5.56144 12.0799 5.54794 12.0784 4.0867 12.0784C2.62545 12.0784 2.61195 12.0799 2.42412 12.2678ZM4.70403 14.3577C4.70403 15.3644 4.71098 15.4097 4.89348 15.5921C5.08131 15.7799 5.09481 15.7815 6.55605 15.7815C8.01729 15.7815 8.0308 15.7799 8.21862 15.5921C8.40112 15.4097 8.40807 15.3644 8.40807 14.3577V13.3128H9.02541H9.64275V14.3577C9.64275 15.3644 9.64969 15.4097 9.83219 15.5921C10.02 15.7799 10.0335 15.7815 11.4948 15.7815C12.956 15.7815 12.9695 15.7799 13.1573 15.5921C13.3398 15.4097 13.3468 15.3644 13.3468 14.3577V13.3128H13.9641H14.5815V15.4729V17.633H9.02541H3.46936V15.4729V13.3128H4.0867H4.70403V14.3577ZM12.671 19.4846L11.8984 20.1017H9.02541H6.15239L5.37979 19.4846L4.60711 18.8674H9.02541H13.4437L12.671 19.4846ZM12.3928 25.8492C12.8288 28.3103 13.187 30.3846 13.1889 30.4588C13.1922 30.5858 12.9439 30.5938 9.02541 30.5938C5.75089 30.5938 4.85837 30.5732 4.85837 30.4977C4.85837 30.383 6.39925 21.5722 6.44393 21.4315C6.46816 21.355 7.02623 21.3384 9.03752 21.3543L11.6002 21.3747L12.3928 25.8492ZM14.5815 32.754V33.6797H9.02541H3.46936V32.754V31.8282H9.02541H14.5815V32.754ZM28.3225 34.6351L27.5175 34.7212L27.5375 35.2589C27.5484 35.5547 27.5765 35.8274 27.5998 35.8652C27.6399 35.93 28.6817 35.8808 29.2234 35.7884C29.4292 35.7533 29.4674 35.7166 29.4396 35.5807C29.421 35.4898 29.384 35.216 29.3575 34.972C29.328 34.7004 29.2741 34.5324 29.2184 34.5387C29.1684 34.5444 28.7653 34.5878 28.3225 34.6351ZM25.2884 34.8182L24.4589 34.8422V35.4568V36.0713L25.2884 36.0702C25.7447 36.0695 26.163 36.0404 26.2181 36.0055C26.3385 35.9291 26.3172 34.8155 26.1952 34.8025C26.1527 34.798 25.7447 34.8051 25.2884 34.8182ZM15.8161 35.8399V36.7656H9.02541H2.23468V35.8399V34.9141H9.02541H15.8161V35.8399ZM18.2855 35.5313V36.1485H19.2115H20.1375V35.5313V34.9141H19.2115H18.2855V35.5313ZM21.3722 35.5313V36.1485H22.2982H23.2242V35.5313V34.9141H22.2982H21.3722V35.5313Z" stroke="#FF8655" stroke-width="0.6" mask="url(#path-1-outside-1_1267_9111)"/>
</svg>
