<svg width="37" height="37" viewBox="0 0 37 37" fill="none" xmlns="http://www.w3.org/2000/svg">
<mask id="path-1-outside-1_1267_9118" maskUnits="userSpaceOnUse" x="0" y="0" width="37" height="37" fill="black">
<rect fill="white" width="37" height="37"/>
<path fill-rule="evenodd" clip-rule="evenodd" d="M31.2566 1.0697C31.1228 1.10964 30.1844 1.99908 28.5031 3.67942C26.5312 5.65025 25.9373 6.28291 25.8856 6.46795C25.8488 6.59959 25.8186 7.48192 25.8184 8.42866L25.8179 10.1501L25.6409 10.3604C25.5435 10.4761 25.4334 10.5709 25.3962 10.5709C25.359 10.5709 25.0979 10.3824 24.8159 10.152C22.7508 8.46449 20.3391 7.40123 17.6121 6.9761C16.6344 6.82361 14.5546 6.82388 13.5434 6.97658C8.78373 7.69534 4.7458 10.5991 2.58316 14.8583C0.0598128 19.8279 0.58006 25.6647 3.94936 30.1858C4.57943 31.0312 5.97346 32.4257 6.80785 33.0451C8.14409 34.0371 9.4681 34.7349 10.9602 35.2336C14.7022 36.4843 18.6468 36.1978 22.1459 34.4211C25.0004 32.9717 27.2407 30.7064 28.6572 27.8372C31.1887 22.7096 30.4772 16.6027 26.8321 12.1719C26.6128 11.9053 26.4334 11.6542 26.4334 11.6138C26.4334 11.5734 26.5281 11.4607 26.6438 11.3633L26.8541 11.1863H28.5825C29.6744 11.1863 30.3963 11.1581 30.5432 11.1097C30.8943 10.9939 35.8479 6.04228 35.9391 5.71576C36.0523 5.31107 36.0216 5.06545 35.8349 4.8787C35.5981 4.64189 35.4388 4.62165 33.81 4.62165H32.3826V3.19418C32.3826 1.58318 32.3617 1.41059 32.1382 1.16934C31.9674 0.985115 31.6573 0.950104 31.2566 1.0697ZM31.0033 5.77285C31.1642 6.05513 31.4715 6.12605 32.5338 6.12605H33.5099L31.6988 7.93816L29.8876 9.75027H28.5708H27.254V8.4344V7.11854L29.049 5.32222L30.844 3.5259L30.8782 4.56954C30.9006 5.2548 30.9436 5.66803 31.0033 5.77285ZM17.1353 8.38613C19.1896 8.64105 21.2224 9.38163 22.8338 10.4623C23.6153 10.9864 24.304 11.532 24.3096 11.6314C24.3118 11.6695 23.748 12.2655 23.0566 12.9561L21.7998 14.2116L21.159 13.7488C20.0898 12.9764 18.6658 12.3597 17.3386 12.0941C16.5278 11.9317 14.654 11.9335 13.8327 12.0973C10.0312 12.8556 7.20111 15.6029 6.31789 19.3921C6.12321 20.2274 6.07213 21.9463 6.21518 22.8478C6.37616 23.8622 6.62903 24.6646 7.07741 25.5834C8.44354 28.3828 11.0051 30.2745 14.1239 30.7869C14.9916 30.9295 16.78 30.8775 17.6121 30.6856C20.2686 30.0727 22.4625 28.4689 23.7828 26.1744C25.6629 22.907 25.4507 18.9062 23.2334 15.8183L22.7927 15.2045L24.0482 13.9476C24.7387 13.2563 25.3348 12.6925 25.3728 12.6946C25.5887 12.7067 26.8255 14.5138 27.3528 15.5874C28.2478 17.4098 28.69 19.3389 28.69 21.4212C28.69 24.5154 27.6718 27.3994 25.7486 29.7531C25.1735 30.4568 23.9544 31.5985 23.2144 32.1264C20.3621 34.1609 16.4856 34.9886 13.0419 34.2982C10.085 33.7055 7.42356 32.1527 5.58101 29.9451C3.71125 27.7051 2.71952 25.2614 2.49851 22.3497C2.25363 19.1233 3.25153 15.8546 5.26981 13.2719C5.79724 12.597 7.01067 11.4145 7.69681 10.9069C9.55091 9.53501 11.6635 8.68687 13.9604 8.39214C14.6371 8.3053 16.4559 8.30188 17.1353 8.38613ZM17.0696 13.5504C17.6476 13.66 18.3197 13.877 18.9432 14.1553C19.3699 14.3457 20.6893 15.1929 20.6893 15.2765C20.6893 15.3031 20.1274 15.8862 19.4405 16.5722L18.1916 17.8197L17.6536 17.5494C16.9817 17.2119 16.3579 17.0671 15.5753 17.0671C13.5397 17.0671 11.8667 18.3398 11.3501 20.281C11.1947 20.8649 11.1919 21.9452 11.3441 22.5376C11.7372 24.0675 12.9367 25.267 14.4666 25.6601C15.0603 25.8127 16.1398 25.8095 16.7232 25.6535C17.8029 25.3647 18.8046 24.6164 19.3406 23.6981C19.7218 23.045 19.8793 22.4847 19.9195 21.6388C19.9626 20.7323 19.8365 20.1104 19.4561 19.3531L19.1842 18.812L20.4503 17.5464L21.7162 16.2807L21.8807 16.4859C22.493 17.2493 23.0963 18.4784 23.3546 19.4886C24.2913 23.1506 22.4559 26.9865 18.9682 28.6561C15.9024 30.1238 12.3965 29.5011 9.94978 27.0544C7.50315 24.6078 6.88047 21.1018 8.34814 18.036C9.55077 15.5238 11.9471 13.7865 14.6785 13.4466C15.2946 13.37 16.3629 13.4163 17.0696 13.5504ZM16.2787 18.5958C16.4668 18.646 16.7244 18.7407 16.8513 18.8063L17.0819 18.9256L15.9452 20.0695C14.8347 21.187 14.8085 21.22 14.8085 21.5025C14.8085 21.9324 15.0288 22.1273 15.5145 22.1273H15.8848L16.98 21.0206L18.0752 19.9138L18.2194 20.1965C18.2987 20.352 18.4008 20.6962 18.4463 20.9613C18.6618 22.2185 17.9986 23.4738 16.8125 24.0538C16.3707 24.2698 16.3088 24.2814 15.5913 24.2814C14.8567 24.2814 14.8211 24.2743 14.3201 24.0266C13.6898 23.7151 13.2433 23.2602 12.9407 22.6213C12.7369 22.1912 12.7229 22.113 12.7229 21.4093C12.7229 20.6959 12.7346 20.6331 12.9504 20.1917C13.5696 18.9253 14.979 18.2495 16.2787 18.5958Z"/>
</mask>
<path fill-rule="evenodd" clip-rule="evenodd" d="M31.2566 1.0697C31.1228 1.10964 30.1844 1.99908 28.5031 3.67942C26.5312 5.65025 25.9373 6.28291 25.8856 6.46795C25.8488 6.59959 25.8186 7.48192 25.8184 8.42866L25.8179 10.1501L25.6409 10.3604C25.5435 10.4761 25.4334 10.5709 25.3962 10.5709C25.359 10.5709 25.0979 10.3824 24.8159 10.152C22.7508 8.46449 20.3391 7.40123 17.6121 6.9761C16.6344 6.82361 14.5546 6.82388 13.5434 6.97658C8.78373 7.69534 4.7458 10.5991 2.58316 14.8583C0.0598128 19.8279 0.58006 25.6647 3.94936 30.1858C4.57943 31.0312 5.97346 32.4257 6.80785 33.0451C8.14409 34.0371 9.4681 34.7349 10.9602 35.2336C14.7022 36.4843 18.6468 36.1978 22.1459 34.4211C25.0004 32.9717 27.2407 30.7064 28.6572 27.8372C31.1887 22.7096 30.4772 16.6027 26.8321 12.1719C26.6128 11.9053 26.4334 11.6542 26.4334 11.6138C26.4334 11.5734 26.5281 11.4607 26.6438 11.3633L26.8541 11.1863H28.5825C29.6744 11.1863 30.3963 11.1581 30.5432 11.1097C30.8943 10.9939 35.8479 6.04228 35.9391 5.71576C36.0523 5.31107 36.0216 5.06545 35.8349 4.8787C35.5981 4.64189 35.4388 4.62165 33.81 4.62165H32.3826V3.19418C32.3826 1.58318 32.3617 1.41059 32.1382 1.16934C31.9674 0.985115 31.6573 0.950104 31.2566 1.0697ZM31.0033 5.77285C31.1642 6.05513 31.4715 6.12605 32.5338 6.12605H33.5099L31.6988 7.93816L29.8876 9.75027H28.5708H27.254V8.4344V7.11854L29.049 5.32222L30.844 3.5259L30.8782 4.56954C30.9006 5.2548 30.9436 5.66803 31.0033 5.77285ZM17.1353 8.38613C19.1896 8.64105 21.2224 9.38163 22.8338 10.4623C23.6153 10.9864 24.304 11.532 24.3096 11.6314C24.3118 11.6695 23.748 12.2655 23.0566 12.9561L21.7998 14.2116L21.159 13.7488C20.0898 12.9764 18.6658 12.3597 17.3386 12.0941C16.5278 11.9317 14.654 11.9335 13.8327 12.0973C10.0312 12.8556 7.20111 15.6029 6.31789 19.3921C6.12321 20.2274 6.07213 21.9463 6.21518 22.8478C6.37616 23.8622 6.62903 24.6646 7.07741 25.5834C8.44354 28.3828 11.0051 30.2745 14.1239 30.7869C14.9916 30.9295 16.78 30.8775 17.6121 30.6856C20.2686 30.0727 22.4625 28.4689 23.7828 26.1744C25.6629 22.907 25.4507 18.9062 23.2334 15.8183L22.7927 15.2045L24.0482 13.9476C24.7387 13.2563 25.3348 12.6925 25.3728 12.6946C25.5887 12.7067 26.8255 14.5138 27.3528 15.5874C28.2478 17.4098 28.69 19.3389 28.69 21.4212C28.69 24.5154 27.6718 27.3994 25.7486 29.7531C25.1735 30.4568 23.9544 31.5985 23.2144 32.1264C20.3621 34.1609 16.4856 34.9886 13.0419 34.2982C10.085 33.7055 7.42356 32.1527 5.58101 29.9451C3.71125 27.7051 2.71952 25.2614 2.49851 22.3497C2.25363 19.1233 3.25153 15.8546 5.26981 13.2719C5.79724 12.597 7.01067 11.4145 7.69681 10.9069C9.55091 9.53501 11.6635 8.68687 13.9604 8.39214C14.6371 8.3053 16.4559 8.30188 17.1353 8.38613ZM17.0696 13.5504C17.6476 13.66 18.3197 13.877 18.9432 14.1553C19.3699 14.3457 20.6893 15.1929 20.6893 15.2765C20.6893 15.3031 20.1274 15.8862 19.4405 16.5722L18.1916 17.8197L17.6536 17.5494C16.9817 17.2119 16.3579 17.0671 15.5753 17.0671C13.5397 17.0671 11.8667 18.3398 11.3501 20.281C11.1947 20.8649 11.1919 21.9452 11.3441 22.5376C11.7372 24.0675 12.9367 25.267 14.4666 25.6601C15.0603 25.8127 16.1398 25.8095 16.7232 25.6535C17.8029 25.3647 18.8046 24.6164 19.3406 23.6981C19.7218 23.045 19.8793 22.4847 19.9195 21.6388C19.9626 20.7323 19.8365 20.1104 19.4561 19.3531L19.1842 18.812L20.4503 17.5464L21.7162 16.2807L21.8807 16.4859C22.493 17.2493 23.0963 18.4784 23.3546 19.4886C24.2913 23.1506 22.4559 26.9865 18.9682 28.6561C15.9024 30.1238 12.3965 29.5011 9.94978 27.0544C7.50315 24.6078 6.88047 21.1018 8.34814 18.036C9.55077 15.5238 11.9471 13.7865 14.6785 13.4466C15.2946 13.37 16.3629 13.4163 17.0696 13.5504ZM16.2787 18.5958C16.4668 18.646 16.7244 18.7407 16.8513 18.8063L17.0819 18.9256L15.9452 20.0695C14.8347 21.187 14.8085 21.22 14.8085 21.5025C14.8085 21.9324 15.0288 22.1273 15.5145 22.1273H15.8848L16.98 21.0206L18.0752 19.9138L18.2194 20.1965C18.2987 20.352 18.4008 20.6962 18.4463 20.9613C18.6618 22.2185 17.9986 23.4738 16.8125 24.0538C16.3707 24.2698 16.3088 24.2814 15.5913 24.2814C14.8567 24.2814 14.8211 24.2743 14.3201 24.0266C13.6898 23.7151 13.2433 23.2602 12.9407 22.6213C12.7369 22.1912 12.7229 22.113 12.7229 21.4093C12.7229 20.6959 12.7346 20.6331 12.9504 20.1917C13.5696 18.9253 14.979 18.2495 16.2787 18.5958Z" fill="#FF8655"/>
<path fill-rule="evenodd" clip-rule="evenodd" d="M31.2566 1.0697C31.1228 1.10964 30.1844 1.99908 28.5031 3.67942C26.5312 5.65025 25.9373 6.28291 25.8856 6.46795C25.8488 6.59959 25.8186 7.48192 25.8184 8.42866L25.8179 10.1501L25.6409 10.3604C25.5435 10.4761 25.4334 10.5709 25.3962 10.5709C25.359 10.5709 25.0979 10.3824 24.8159 10.152C22.7508 8.46449 20.3391 7.40123 17.6121 6.9761C16.6344 6.82361 14.5546 6.82388 13.5434 6.97658C8.78373 7.69534 4.7458 10.5991 2.58316 14.8583C0.0598128 19.8279 0.58006 25.6647 3.94936 30.1858C4.57943 31.0312 5.97346 32.4257 6.80785 33.0451C8.14409 34.0371 9.4681 34.7349 10.9602 35.2336C14.7022 36.4843 18.6468 36.1978 22.1459 34.4211C25.0004 32.9717 27.2407 30.7064 28.6572 27.8372C31.1887 22.7096 30.4772 16.6027 26.8321 12.1719C26.6128 11.9053 26.4334 11.6542 26.4334 11.6138C26.4334 11.5734 26.5281 11.4607 26.6438 11.3633L26.8541 11.1863H28.5825C29.6744 11.1863 30.3963 11.1581 30.5432 11.1097C30.8943 10.9939 35.8479 6.04228 35.9391 5.71576C36.0523 5.31107 36.0216 5.06545 35.8349 4.8787C35.5981 4.64189 35.4388 4.62165 33.81 4.62165H32.3826V3.19418C32.3826 1.58318 32.3617 1.41059 32.1382 1.16934C31.9674 0.985115 31.6573 0.950104 31.2566 1.0697ZM31.0033 5.77285C31.1642 6.05513 31.4715 6.12605 32.5338 6.12605H33.5099L31.6988 7.93816L29.8876 9.75027H28.5708H27.254V8.4344V7.11854L29.049 5.32222L30.844 3.5259L30.8782 4.56954C30.9006 5.2548 30.9436 5.66803 31.0033 5.77285ZM17.1353 8.38613C19.1896 8.64105 21.2224 9.38163 22.8338 10.4623C23.6153 10.9864 24.304 11.532 24.3096 11.6314C24.3118 11.6695 23.748 12.2655 23.0566 12.9561L21.7998 14.2116L21.159 13.7488C20.0898 12.9764 18.6658 12.3597 17.3386 12.0941C16.5278 11.9317 14.654 11.9335 13.8327 12.0973C10.0312 12.8556 7.20111 15.6029 6.31789 19.3921C6.12321 20.2274 6.07213 21.9463 6.21518 22.8478C6.37616 23.8622 6.62903 24.6646 7.07741 25.5834C8.44354 28.3828 11.0051 30.2745 14.1239 30.7869C14.9916 30.9295 16.78 30.8775 17.6121 30.6856C20.2686 30.0727 22.4625 28.4689 23.7828 26.1744C25.6629 22.907 25.4507 18.9062 23.2334 15.8183L22.7927 15.2045L24.0482 13.9476C24.7387 13.2563 25.3348 12.6925 25.3728 12.6946C25.5887 12.7067 26.8255 14.5138 27.3528 15.5874C28.2478 17.4098 28.69 19.3389 28.69 21.4212C28.69 24.5154 27.6718 27.3994 25.7486 29.7531C25.1735 30.4568 23.9544 31.5985 23.2144 32.1264C20.3621 34.1609 16.4856 34.9886 13.0419 34.2982C10.085 33.7055 7.42356 32.1527 5.58101 29.9451C3.71125 27.7051 2.71952 25.2614 2.49851 22.3497C2.25363 19.1233 3.25153 15.8546 5.26981 13.2719C5.79724 12.597 7.01067 11.4145 7.69681 10.9069C9.55091 9.53501 11.6635 8.68687 13.9604 8.39214C14.6371 8.3053 16.4559 8.30188 17.1353 8.38613ZM17.0696 13.5504C17.6476 13.66 18.3197 13.877 18.9432 14.1553C19.3699 14.3457 20.6893 15.1929 20.6893 15.2765C20.6893 15.3031 20.1274 15.8862 19.4405 16.5722L18.1916 17.8197L17.6536 17.5494C16.9817 17.2119 16.3579 17.0671 15.5753 17.0671C13.5397 17.0671 11.8667 18.3398 11.3501 20.281C11.1947 20.8649 11.1919 21.9452 11.3441 22.5376C11.7372 24.0675 12.9367 25.267 14.4666 25.6601C15.0603 25.8127 16.1398 25.8095 16.7232 25.6535C17.8029 25.3647 18.8046 24.6164 19.3406 23.6981C19.7218 23.045 19.8793 22.4847 19.9195 21.6388C19.9626 20.7323 19.8365 20.1104 19.4561 19.3531L19.1842 18.812L20.4503 17.5464L21.7162 16.2807L21.8807 16.4859C22.493 17.2493 23.0963 18.4784 23.3546 19.4886C24.2913 23.1506 22.4559 26.9865 18.9682 28.6561C15.9024 30.1238 12.3965 29.5011 9.94978 27.0544C7.50315 24.6078 6.88047 21.1018 8.34814 18.036C9.55077 15.5238 11.9471 13.7865 14.6785 13.4466C15.2946 13.37 16.3629 13.4163 17.0696 13.5504ZM16.2787 18.5958C16.4668 18.646 16.7244 18.7407 16.8513 18.8063L17.0819 18.9256L15.9452 20.0695C14.8347 21.187 14.8085 21.22 14.8085 21.5025C14.8085 21.9324 15.0288 22.1273 15.5145 22.1273H15.8848L16.98 21.0206L18.0752 19.9138L18.2194 20.1965C18.2987 20.352 18.4008 20.6962 18.4463 20.9613C18.6618 22.2185 17.9986 23.4738 16.8125 24.0538C16.3707 24.2698 16.3088 24.2814 15.5913 24.2814C14.8567 24.2814 14.8211 24.2743 14.3201 24.0266C13.6898 23.7151 13.2433 23.2602 12.9407 22.6213C12.7369 22.1912 12.7229 22.113 12.7229 21.4093C12.7229 20.6959 12.7346 20.6331 12.9504 20.1917C13.5696 18.9253 14.979 18.2495 16.2787 18.5958Z" stroke="#FF8655" stroke-width="0.6" mask="url(#path-1-outside-1_1267_9118)"/>
</svg>
