<svg width="33" height="35" viewBox="0 0 33 35" fill="none" xmlns="http://www.w3.org/2000/svg">
<path fill-rule="evenodd" clip-rule="evenodd" d="M20.5097 0.0760046C20.2149 0.209739 19.9092 0.581962 19.8546 0.873739C19.8303 1.00309 19.8208 1.73893 19.8334 2.50899C19.8585 4.04125 19.8744 4.10059 20.3589 4.46231C20.6416 4.67335 21.334 4.67335 21.6167 4.46231C22.1142 4.09089 22.1193 4.06913 22.1193 2.31336C22.1193 0.815997 22.11 0.705695 21.9688 0.516482C21.886 0.405596 21.7324 0.250765 21.6275 0.172437C21.3859 -0.00794434 20.8052 -0.0580218 20.5097 0.0760046ZM14.0894 2.12443C13.9689 2.17794 13.7991 2.29985 13.7119 2.39533C13.6247 2.49074 11.9036 5.68957 9.88712 9.50377L6.22081 16.4387L3.94535 18.7382C1.84524 20.8605 1.64653 21.0833 1.36593 21.63C1.19876 21.9558 1.01254 22.4321 0.952093 22.6884C0.826535 23.2211 0.808431 24.316 0.917345 24.7886C0.975599 25.041 0.969321 25.1334 0.887635 25.2266C0.673236 25.471 0.33452 26.1668 0.172754 26.6951C-0.0428852 27.3994 -0.059018 28.5554 0.137715 29.2092C0.388175 30.0416 0.747185 30.6348 1.37892 31.2602C2.32265 32.1945 3.31362 32.609 4.59804 32.6069C5.60367 32.6053 6.52667 32.3243 7.28506 31.7887C7.46902 31.6589 7.53289 31.6527 7.94804 31.725C8.90594 31.8918 9.9407 31.7498 10.7484 31.3404L11.108 31.1582L12.5622 32.6211C13.362 33.4257 14.2093 34.2284 14.445 34.405C15.9281 35.5163 17.9942 35.0179 18.8148 33.3511C19.0384 32.897 19.0533 32.8184 19.0533 32.0985C19.0533 30.9007 18.9951 30.8073 17.005 28.8098L15.3664 27.165L15.7499 26.7877C16.0857 26.4573 16.9983 25.9525 23.093 22.7258C26.9207 20.6992 30.1188 18.9813 30.1996 18.9081C30.5539 18.5874 30.6731 17.861 30.4314 17.4952C30.1887 17.1277 15.3226 2.29963 15.0595 2.16254C14.7464 1.99931 14.4014 1.98574 14.0894 2.12443ZM27.5212 3.58573C27.4008 3.63997 26.689 4.3039 25.9394 5.06104C24.4732 6.54227 24.4106 6.63943 24.5262 7.25547C24.5936 7.61477 25.0303 8.05145 25.3896 8.11883C26.0131 8.23585 26.0962 8.18103 27.6439 6.63345C28.8648 5.41246 29.0879 5.15572 29.1302 4.92308C29.3066 3.95262 28.3928 3.19307 27.5212 3.58573ZM21.1686 11.4365C25.2805 15.5486 27.4197 17.7374 27.3727 17.7844C27.3332 17.8239 24.6732 19.2499 21.4616 20.9533L15.6224 24.0502L12.0891 20.5254L8.55598 17.0005L11.6876 11.0811C13.4101 7.82545 14.8359 5.16142 14.856 5.16098C14.8762 5.16061 17.7169 7.98459 21.1686 11.4365ZM28.6856 10.5898C27.9816 10.9032 27.784 11.8389 28.2981 12.4244C28.6246 12.7963 28.8654 12.8389 30.4908 12.8122C32.0637 12.7865 32.1178 12.7722 32.4806 12.2861C32.6917 12.0035 32.6917 11.311 32.4806 11.0284C32.1143 10.5377 32.0737 10.5274 30.4178 10.5082C29.2731 10.495 28.8544 10.5147 28.6856 10.5898ZM11.9175 27.2656C9.93128 29.2582 9.73783 29.3986 8.90645 29.4512C8.50305 29.4766 8.30318 29.4496 7.95746 29.3225C7.54968 29.1725 7.3777 29.0196 5.46629 27.107C3.57583 25.2155 3.40238 25.0208 3.27843 24.6511C3.08141 24.0636 3.10805 23.3892 3.34917 22.8625C3.50874 22.514 3.84585 22.1353 5.30927 20.6607L7.07665 18.8799L10.3821 22.1848L13.6877 25.4897L11.9175 27.2656ZM5.14699 30.2258C5.14699 30.2612 4.87594 30.2754 4.54475 30.2571C3.82388 30.2174 3.3488 30.0065 2.92592 29.5384C2.46142 29.0243 2.22162 28.2672 2.33389 27.6691L2.38412 27.4011L3.76555 28.7811C4.52533 29.5401 5.14699 30.1902 5.14699 30.2258ZM16.7539 32.1093C16.7539 32.3131 16.7071 32.4151 16.5615 32.5297C16.1718 32.8362 16.1081 32.7944 14.4585 31.15L12.9225 29.619L13.3219 29.2146L13.7213 28.8102L15.2375 30.3252C16.6624 31.7489 16.7539 31.8564 16.7539 32.1093Z" fill="#FF8655"/>
</svg>
