<svg width="38" height="37" viewBox="0 0 38 37" fill="none" xmlns="http://www.w3.org/2000/svg">
<mask id="path-1-outside-1_1267_9108" maskUnits="userSpaceOnUse" x="0" y="0" width="38" height="37" fill="black">
<rect fill="white" width="38" height="37"/>
<path fill-rule="evenodd" clip-rule="evenodd" d="M15.7343 1.07011C8.07386 1.878 2.00816 7.88974 1.07505 15.5989C0.959352 16.5547 0.98036 18.5023 1.11783 19.5709C1.98715 26.325 7.00816 31.8722 13.6847 33.4547C16.2157 34.0545 19.1702 33.9983 21.7555 33.301C22.6868 33.0498 23.7945 32.6315 24.609 32.2234L25.272 31.8912L25.4211 32.4043C25.503 32.6864 25.6639 33.2598 25.7785 33.6785C26.0119 34.5311 26.1217 34.706 26.4231 34.706C26.6962 34.706 26.7573 34.6468 27.9359 33.2408C28.4887 32.5814 28.9648 32.042 28.994 32.042C29.023 32.042 29.937 32.9325 31.0248 34.021C32.5715 35.5685 33.0448 36 33.1957 36C33.468 36 36.9238 32.5423 36.9238 32.2698C36.9238 32.1318 36.4275 31.5875 34.9143 30.0662L32.9047 28.0459L34.0199 27.1157C35.5437 25.8447 35.6298 25.7611 35.6298 25.5529C35.6298 25.1908 35.4753 25.1112 33.9605 24.6924C33.1528 24.469 32.474 24.2684 32.4521 24.2464C32.4301 24.2245 32.4903 24.0258 32.5856 23.8047C33.0482 22.7323 33.4729 21.2162 33.7003 19.8253C33.8004 19.2131 33.8372 18.5685 33.8372 17.4276C33.8372 15.7614 33.7358 14.8804 33.3808 13.4637C31.7118 6.80273 26.1225 1.89993 19.2862 1.10025C18.2511 0.979148 16.7198 0.966132 15.7343 1.07011ZM16.9052 6.0102V10.0444H16.2007C15.4357 10.0444 13.9002 9.88475 12.8711 9.69826C12.1647 9.57024 10.2654 9.12975 10.2117 9.08149C10.1521 9.02791 10.4463 8.27725 10.8947 7.33927C11.7087 5.63632 12.9369 4.03856 14.1234 3.1391C14.8344 2.60012 16.1701 2.02506 16.8101 1.98236C16.8851 1.97741 16.9052 2.83022 16.9052 6.0102ZM19.0365 2.24983C21.092 2.89142 23.0446 5.09323 24.3592 8.2516C24.5296 8.66125 24.6691 9.02159 24.6691 9.05226C24.6691 9.12983 22.9104 9.55577 21.8528 9.73442C20.912 9.89335 19.8238 10.0103 18.6369 10.08L17.8948 10.1235V6.04636V1.96912L18.1802 2.02034C18.3372 2.04858 18.7225 2.1518 19.0365 2.24983ZM12.7076 3.13682C11.4131 4.4129 10.3453 6.08206 9.51824 8.12243C9.37819 8.46777 9.23486 8.75039 9.1997 8.75039C9.04 8.75039 7.69153 8.18302 6.95137 7.80441C5.66821 7.14806 5.7033 7.28515 6.59614 6.41446C8.27633 4.77605 10.343 3.50179 12.4905 2.78006C12.9301 2.63232 13.3021 2.51091 13.3172 2.51015C13.3323 2.50947 13.058 2.7914 12.7076 3.13682ZM24.2505 3.5757C25.8231 4.34874 27.1137 5.27119 28.3843 6.53053L29.0315 7.17181L28.7342 7.35632C27.9555 7.83966 25.9769 8.75039 25.7055 8.75039C25.6493 8.75039 25.4756 8.43717 25.3153 8.04631C24.4879 6.03053 23.5974 4.64102 22.24 3.24794L21.5139 2.50284L22.4255 2.81477C22.9269 2.98633 23.7481 3.32878 24.2505 3.5757ZM6.05381 8.41471C6.76314 8.82209 8.31309 9.52974 8.71963 9.63174C8.82604 9.65845 8.91304 9.7214 8.91304 9.77164C8.91304 9.82195 8.79278 10.328 8.6458 10.8963C8.21095 12.5782 7.91044 14.6515 7.82625 16.5523L7.80936 16.9329L4.89791 16.9528L1.98646 16.9728V16.6713C1.98646 16.1381 2.21527 14.5966 2.41606 13.7768C2.87322 11.9106 3.69276 10.1094 4.79827 8.54107C5.01224 8.23759 5.21554 7.98922 5.2501 7.98922C5.28466 7.98922 5.64629 8.18073 6.05381 8.41471ZM30.0975 8.57913C31.6603 10.7997 32.6234 13.5092 32.8575 16.3439L32.9094 16.9728L29.9881 16.9528L27.0668 16.9329L27.049 16.6284C26.8967 14.0086 26.6739 12.6293 25.9508 9.83055C25.9342 9.76654 26.2109 9.61431 26.7242 9.40506C27.5619 9.06361 28.6813 8.51191 29.198 8.18606C29.3655 8.08041 29.543 7.99288 29.5924 7.99158C29.6419 7.99029 29.8691 8.25464 30.0975 8.57913ZM11.0578 10.31C12.4725 10.6547 13.6582 10.8532 14.9291 10.9582C15.4927 11.0048 16.1679 11.0607 16.4295 11.0825L16.9052 11.1221V14.0466V16.9709H12.8838C10.6719 16.9709 8.84804 16.9567 8.83061 16.9393C8.7583 16.867 8.91464 14.6461 9.06413 13.6218C9.29674 12.0273 9.76143 10.0444 9.90248 10.0444C9.93833 10.0444 10.4583 10.1639 11.0578 10.31ZM25.3014 11.1671C25.7305 12.9353 25.9337 14.3025 26.014 15.9631L26.0629 16.9723L21.9978 16.9526L17.9328 16.9329V14.0024V11.0719L18.9984 11.0222C20.6978 10.9429 23.2243 10.5435 24.4408 10.162C25.0386 9.97441 25.0014 9.93087 25.3014 11.1671ZM7.84741 18.5335C7.84741 19.9234 8.24885 22.6328 8.69619 24.2622C8.82596 24.7349 8.91928 25.133 8.90353 25.147C8.88785 25.161 8.54959 25.3 8.15188 25.4559C7.42299 25.7417 5.86025 26.5278 5.46429 26.8077C5.21151 26.9865 5.28473 27.055 4.55036 25.9527C3.69984 24.676 3.20075 23.6527 2.7184 22.1957C2.32305 21.0018 1.98646 19.2037 1.98646 18.2859V17.9605H4.91694H7.84741V18.5335ZM16.9052 20.8791V23.7977L15.8586 23.8461C14.1921 23.9232 12.8524 24.1202 11.0202 24.5571C10.3999 24.705 9.87644 24.8102 9.85696 24.7907C9.77848 24.7123 9.50477 23.6447 9.29606 22.6035C9.05736 21.4127 8.86014 19.7914 8.81698 18.6645L8.79004 17.9605H12.8476H16.9052V20.8791ZM26.0385 18.3981C26.0371 19.3562 25.714 22.1881 25.5923 22.3083C25.566 22.3343 25.0307 22.2079 24.4027 22.0273C23.1209 21.6588 22.951 21.637 22.7532 21.8161C22.5603 21.9907 22.5773 22.1924 22.8795 23.3222C23.0245 23.8639 23.1287 24.3216 23.1109 24.3393C23.0932 24.357 22.7772 24.3163 22.4087 24.2489C21.2687 24.0402 20.0331 23.8967 18.9414 23.8461L17.8948 23.7977V20.8791V17.9605H21.967H26.0392L26.0385 18.3981ZM32.8485 18.4742C32.698 20.1766 32.3473 21.749 31.8228 23.073C31.6515 23.5056 31.4841 23.8868 31.4508 23.9202C31.4176 23.9536 30.3035 23.6796 28.9749 23.3113L26.5594 22.6416L26.6012 22.3371C26.6242 22.1697 26.6956 21.6901 26.7598 21.2715C26.824 20.8529 26.9169 19.9366 26.9661 19.2354L27.0557 17.9605H29.9749H32.8939L32.8485 18.4742ZM28.9954 24.3225C31.7861 25.1005 34.0793 25.7468 34.0913 25.7589C34.1034 25.7709 33.6067 26.2033 32.9877 26.7197C31.7516 27.7507 31.6777 27.8251 31.6742 28.0426C31.6727 28.1376 32.4083 28.9299 33.7068 30.2318L35.7419 32.2719L34.4681 33.5456L33.1944 34.8194L31.1899 32.816C29.2754 30.9024 29.1738 30.8137 28.9261 30.8373C28.6957 30.8594 28.5566 30.9924 27.6788 32.0299C26.7467 33.1318 26.6872 33.1869 26.627 33.006C26.3216 32.09 23.798 22.908 23.8515 22.908C23.89 22.908 26.2047 23.5445 28.9954 24.3225ZM16.9052 28.8518V32.8926L16.5818 32.8387C14.6927 32.5239 12.7848 30.9119 11.3711 28.4363C10.9068 27.6233 10.207 26.0754 10.207 25.8616C10.207 25.7847 10.5033 25.6827 11.2156 25.5139C13.1435 25.0573 14.718 24.8328 16.087 24.8191L16.9052 24.8109V28.8518ZM21.1678 25.036C21.7748 25.1242 22.5447 25.2552 22.8786 25.3271L23.4858 25.4579L23.7329 26.3332C23.8687 26.8147 23.9809 27.2692 23.982 27.3435C23.9831 27.4177 23.85 27.7449 23.6863 28.0706C22.7536 29.9256 21.2229 31.5907 19.784 32.3152C19.2937 32.5621 18.3073 32.8792 18.0295 32.8792C17.9023 32.8792 17.8948 32.6533 17.8948 28.8339V24.7885L18.9794 24.8321C19.5759 24.856 20.5607 24.9478 21.1678 25.036ZM9.48262 26.6567C9.80398 27.4894 10.6078 29.0427 11.0906 29.764C11.6463 30.5945 12.3884 31.4816 12.933 31.9666C13.3311 32.3211 13.3475 32.3479 13.1375 32.3016C12.6797 32.2005 11.4423 31.7142 10.6046 31.3061C9.66286 30.8473 8.46418 30.0853 7.69518 29.4565C7.1575 29.0168 5.86839 27.7745 5.86839 27.696C5.86839 27.5729 8.90589 26.1194 9.18645 26.1082C9.2322 26.1064 9.3654 26.3532 9.48262 26.6567ZM24.9715 30.8685C24.9757 31.0361 21.9578 32.3464 21.5676 32.3464C21.5411 32.3464 21.8634 31.9953 22.2838 31.5662C23.0955 30.7378 23.577 30.1238 24.0831 29.2721L24.3946 28.7476L24.682 29.7668C24.8401 30.3274 24.9704 30.8232 24.9715 30.8685Z"/>
</mask>
<path fill-rule="evenodd" clip-rule="evenodd" d="M15.7343 1.07011C8.07386 1.878 2.00816 7.88974 1.07505 15.5989C0.959352 16.5547 0.98036 18.5023 1.11783 19.5709C1.98715 26.325 7.00816 31.8722 13.6847 33.4547C16.2157 34.0545 19.1702 33.9983 21.7555 33.301C22.6868 33.0498 23.7945 32.6315 24.609 32.2234L25.272 31.8912L25.4211 32.4043C25.503 32.6864 25.6639 33.2598 25.7785 33.6785C26.0119 34.5311 26.1217 34.706 26.4231 34.706C26.6962 34.706 26.7573 34.6468 27.9359 33.2408C28.4887 32.5814 28.9648 32.042 28.994 32.042C29.023 32.042 29.937 32.9325 31.0248 34.021C32.5715 35.5685 33.0448 36 33.1957 36C33.468 36 36.9238 32.5423 36.9238 32.2698C36.9238 32.1318 36.4275 31.5875 34.9143 30.0662L32.9047 28.0459L34.0199 27.1157C35.5437 25.8447 35.6298 25.7611 35.6298 25.5529C35.6298 25.1908 35.4753 25.1112 33.9605 24.6924C33.1528 24.469 32.474 24.2684 32.4521 24.2464C32.4301 24.2245 32.4903 24.0258 32.5856 23.8047C33.0482 22.7323 33.4729 21.2162 33.7003 19.8253C33.8004 19.2131 33.8372 18.5685 33.8372 17.4276C33.8372 15.7614 33.7358 14.8804 33.3808 13.4637C31.7118 6.80273 26.1225 1.89993 19.2862 1.10025C18.2511 0.979148 16.7198 0.966132 15.7343 1.07011ZM16.9052 6.0102V10.0444H16.2007C15.4357 10.0444 13.9002 9.88475 12.8711 9.69826C12.1647 9.57024 10.2654 9.12975 10.2117 9.08149C10.1521 9.02791 10.4463 8.27725 10.8947 7.33927C11.7087 5.63632 12.9369 4.03856 14.1234 3.1391C14.8344 2.60012 16.1701 2.02506 16.8101 1.98236C16.8851 1.97741 16.9052 2.83022 16.9052 6.0102ZM19.0365 2.24983C21.092 2.89142 23.0446 5.09323 24.3592 8.2516C24.5296 8.66125 24.6691 9.02159 24.6691 9.05226C24.6691 9.12983 22.9104 9.55577 21.8528 9.73442C20.912 9.89335 19.8238 10.0103 18.6369 10.08L17.8948 10.1235V6.04636V1.96912L18.1802 2.02034C18.3372 2.04858 18.7225 2.1518 19.0365 2.24983ZM12.7076 3.13682C11.4131 4.4129 10.3453 6.08206 9.51824 8.12243C9.37819 8.46777 9.23486 8.75039 9.1997 8.75039C9.04 8.75039 7.69153 8.18302 6.95137 7.80441C5.66821 7.14806 5.7033 7.28515 6.59614 6.41446C8.27633 4.77605 10.343 3.50179 12.4905 2.78006C12.9301 2.63232 13.3021 2.51091 13.3172 2.51015C13.3323 2.50947 13.058 2.7914 12.7076 3.13682ZM24.2505 3.5757C25.8231 4.34874 27.1137 5.27119 28.3843 6.53053L29.0315 7.17181L28.7342 7.35632C27.9555 7.83966 25.9769 8.75039 25.7055 8.75039C25.6493 8.75039 25.4756 8.43717 25.3153 8.04631C24.4879 6.03053 23.5974 4.64102 22.24 3.24794L21.5139 2.50284L22.4255 2.81477C22.9269 2.98633 23.7481 3.32878 24.2505 3.5757ZM6.05381 8.41471C6.76314 8.82209 8.31309 9.52974 8.71963 9.63174C8.82604 9.65845 8.91304 9.7214 8.91304 9.77164C8.91304 9.82195 8.79278 10.328 8.6458 10.8963C8.21095 12.5782 7.91044 14.6515 7.82625 16.5523L7.80936 16.9329L4.89791 16.9528L1.98646 16.9728V16.6713C1.98646 16.1381 2.21527 14.5966 2.41606 13.7768C2.87322 11.9106 3.69276 10.1094 4.79827 8.54107C5.01224 8.23759 5.21554 7.98922 5.2501 7.98922C5.28466 7.98922 5.64629 8.18073 6.05381 8.41471ZM30.0975 8.57913C31.6603 10.7997 32.6234 13.5092 32.8575 16.3439L32.9094 16.9728L29.9881 16.9528L27.0668 16.9329L27.049 16.6284C26.8967 14.0086 26.6739 12.6293 25.9508 9.83055C25.9342 9.76654 26.2109 9.61431 26.7242 9.40506C27.5619 9.06361 28.6813 8.51191 29.198 8.18606C29.3655 8.08041 29.543 7.99288 29.5924 7.99158C29.6419 7.99029 29.8691 8.25464 30.0975 8.57913ZM11.0578 10.31C12.4725 10.6547 13.6582 10.8532 14.9291 10.9582C15.4927 11.0048 16.1679 11.0607 16.4295 11.0825L16.9052 11.1221V14.0466V16.9709H12.8838C10.6719 16.9709 8.84804 16.9567 8.83061 16.9393C8.7583 16.867 8.91464 14.6461 9.06413 13.6218C9.29674 12.0273 9.76143 10.0444 9.90248 10.0444C9.93833 10.0444 10.4583 10.1639 11.0578 10.31ZM25.3014 11.1671C25.7305 12.9353 25.9337 14.3025 26.014 15.9631L26.0629 16.9723L21.9978 16.9526L17.9328 16.9329V14.0024V11.0719L18.9984 11.0222C20.6978 10.9429 23.2243 10.5435 24.4408 10.162C25.0386 9.97441 25.0014 9.93087 25.3014 11.1671ZM7.84741 18.5335C7.84741 19.9234 8.24885 22.6328 8.69619 24.2622C8.82596 24.7349 8.91928 25.133 8.90353 25.147C8.88785 25.161 8.54959 25.3 8.15188 25.4559C7.42299 25.7417 5.86025 26.5278 5.46429 26.8077C5.21151 26.9865 5.28473 27.055 4.55036 25.9527C3.69984 24.676 3.20075 23.6527 2.7184 22.1957C2.32305 21.0018 1.98646 19.2037 1.98646 18.2859V17.9605H4.91694H7.84741V18.5335ZM16.9052 20.8791V23.7977L15.8586 23.8461C14.1921 23.9232 12.8524 24.1202 11.0202 24.5571C10.3999 24.705 9.87644 24.8102 9.85696 24.7907C9.77848 24.7123 9.50477 23.6447 9.29606 22.6035C9.05736 21.4127 8.86014 19.7914 8.81698 18.6645L8.79004 17.9605H12.8476H16.9052V20.8791ZM26.0385 18.3981C26.0371 19.3562 25.714 22.1881 25.5923 22.3083C25.566 22.3343 25.0307 22.2079 24.4027 22.0273C23.1209 21.6588 22.951 21.637 22.7532 21.8161C22.5603 21.9907 22.5773 22.1924 22.8795 23.3222C23.0245 23.8639 23.1287 24.3216 23.1109 24.3393C23.0932 24.357 22.7772 24.3163 22.4087 24.2489C21.2687 24.0402 20.0331 23.8967 18.9414 23.8461L17.8948 23.7977V20.8791V17.9605H21.967H26.0392L26.0385 18.3981ZM32.8485 18.4742C32.698 20.1766 32.3473 21.749 31.8228 23.073C31.6515 23.5056 31.4841 23.8868 31.4508 23.9202C31.4176 23.9536 30.3035 23.6796 28.9749 23.3113L26.5594 22.6416L26.6012 22.3371C26.6242 22.1697 26.6956 21.6901 26.7598 21.2715C26.824 20.8529 26.9169 19.9366 26.9661 19.2354L27.0557 17.9605H29.9749H32.8939L32.8485 18.4742ZM28.9954 24.3225C31.7861 25.1005 34.0793 25.7468 34.0913 25.7589C34.1034 25.7709 33.6067 26.2033 32.9877 26.7197C31.7516 27.7507 31.6777 27.8251 31.6742 28.0426C31.6727 28.1376 32.4083 28.9299 33.7068 30.2318L35.7419 32.2719L34.4681 33.5456L33.1944 34.8194L31.1899 32.816C29.2754 30.9024 29.1738 30.8137 28.9261 30.8373C28.6957 30.8594 28.5566 30.9924 27.6788 32.0299C26.7467 33.1318 26.6872 33.1869 26.627 33.006C26.3216 32.09 23.798 22.908 23.8515 22.908C23.89 22.908 26.2047 23.5445 28.9954 24.3225ZM16.9052 28.8518V32.8926L16.5818 32.8387C14.6927 32.5239 12.7848 30.9119 11.3711 28.4363C10.9068 27.6233 10.207 26.0754 10.207 25.8616C10.207 25.7847 10.5033 25.6827 11.2156 25.5139C13.1435 25.0573 14.718 24.8328 16.087 24.8191L16.9052 24.8109V28.8518ZM21.1678 25.036C21.7748 25.1242 22.5447 25.2552 22.8786 25.3271L23.4858 25.4579L23.7329 26.3332C23.8687 26.8147 23.9809 27.2692 23.982 27.3435C23.9831 27.4177 23.85 27.7449 23.6863 28.0706C22.7536 29.9256 21.2229 31.5907 19.784 32.3152C19.2937 32.5621 18.3073 32.8792 18.0295 32.8792C17.9023 32.8792 17.8948 32.6533 17.8948 28.8339V24.7885L18.9794 24.8321C19.5759 24.856 20.5607 24.9478 21.1678 25.036ZM9.48262 26.6567C9.80398 27.4894 10.6078 29.0427 11.0906 29.764C11.6463 30.5945 12.3884 31.4816 12.933 31.9666C13.3311 32.3211 13.3475 32.3479 13.1375 32.3016C12.6797 32.2005 11.4423 31.7142 10.6046 31.3061C9.66286 30.8473 8.46418 30.0853 7.69518 29.4565C7.1575 29.0168 5.86839 27.7745 5.86839 27.696C5.86839 27.5729 8.90589 26.1194 9.18645 26.1082C9.2322 26.1064 9.3654 26.3532 9.48262 26.6567ZM24.9715 30.8685C24.9757 31.0361 21.9578 32.3464 21.5676 32.3464C21.5411 32.3464 21.8634 31.9953 22.2838 31.5662C23.0955 30.7378 23.577 30.1238 24.0831 29.2721L24.3946 28.7476L24.682 29.7668C24.8401 30.3274 24.9704 30.8232 24.9715 30.8685Z" fill="#FF8655"/>
<path fill-rule="evenodd" clip-rule="evenodd" d="M15.7343 1.07011C8.07386 1.878 2.00816 7.88974 1.07505 15.5989C0.959352 16.5547 0.98036 18.5023 1.11783 19.5709C1.98715 26.325 7.00816 31.8722 13.6847 33.4547C16.2157 34.0545 19.1702 33.9983 21.7555 33.301C22.6868 33.0498 23.7945 32.6315 24.609 32.2234L25.272 31.8912L25.4211 32.4043C25.503 32.6864 25.6639 33.2598 25.7785 33.6785C26.0119 34.5311 26.1217 34.706 26.4231 34.706C26.6962 34.706 26.7573 34.6468 27.9359 33.2408C28.4887 32.5814 28.9648 32.042 28.994 32.042C29.023 32.042 29.937 32.9325 31.0248 34.021C32.5715 35.5685 33.0448 36 33.1957 36C33.468 36 36.9238 32.5423 36.9238 32.2698C36.9238 32.1318 36.4275 31.5875 34.9143 30.0662L32.9047 28.0459L34.0199 27.1157C35.5437 25.8447 35.6298 25.7611 35.6298 25.5529C35.6298 25.1908 35.4753 25.1112 33.9605 24.6924C33.1528 24.469 32.474 24.2684 32.4521 24.2464C32.4301 24.2245 32.4903 24.0258 32.5856 23.8047C33.0482 22.7323 33.4729 21.2162 33.7003 19.8253C33.8004 19.2131 33.8372 18.5685 33.8372 17.4276C33.8372 15.7614 33.7358 14.8804 33.3808 13.4637C31.7118 6.80273 26.1225 1.89993 19.2862 1.10025C18.2511 0.979148 16.7198 0.966132 15.7343 1.07011ZM16.9052 6.0102V10.0444H16.2007C15.4357 10.0444 13.9002 9.88475 12.8711 9.69826C12.1647 9.57024 10.2654 9.12975 10.2117 9.08149C10.1521 9.02791 10.4463 8.27725 10.8947 7.33927C11.7087 5.63632 12.9369 4.03856 14.1234 3.1391C14.8344 2.60012 16.1701 2.02506 16.8101 1.98236C16.8851 1.97741 16.9052 2.83022 16.9052 6.0102ZM19.0365 2.24983C21.092 2.89142 23.0446 5.09323 24.3592 8.2516C24.5296 8.66125 24.6691 9.02159 24.6691 9.05226C24.6691 9.12983 22.9104 9.55577 21.8528 9.73442C20.912 9.89335 19.8238 10.0103 18.6369 10.08L17.8948 10.1235V6.04636V1.96912L18.1802 2.02034C18.3372 2.04858 18.7225 2.1518 19.0365 2.24983ZM12.7076 3.13682C11.4131 4.4129 10.3453 6.08206 9.51824 8.12243C9.37819 8.46777 9.23486 8.75039 9.1997 8.75039C9.04 8.75039 7.69153 8.18302 6.95137 7.80441C5.66821 7.14806 5.7033 7.28515 6.59614 6.41446C8.27633 4.77605 10.343 3.50179 12.4905 2.78006C12.9301 2.63232 13.3021 2.51091 13.3172 2.51015C13.3323 2.50947 13.058 2.7914 12.7076 3.13682ZM24.2505 3.5757C25.8231 4.34874 27.1137 5.27119 28.3843 6.53053L29.0315 7.17181L28.7342 7.35632C27.9555 7.83966 25.9769 8.75039 25.7055 8.75039C25.6493 8.75039 25.4756 8.43717 25.3153 8.04631C24.4879 6.03053 23.5974 4.64102 22.24 3.24794L21.5139 2.50284L22.4255 2.81477C22.9269 2.98633 23.7481 3.32878 24.2505 3.5757ZM6.05381 8.41471C6.76314 8.82209 8.31309 9.52974 8.71963 9.63174C8.82604 9.65845 8.91304 9.7214 8.91304 9.77164C8.91304 9.82195 8.79278 10.328 8.6458 10.8963C8.21095 12.5782 7.91044 14.6515 7.82625 16.5523L7.80936 16.9329L4.89791 16.9528L1.98646 16.9728V16.6713C1.98646 16.1381 2.21527 14.5966 2.41606 13.7768C2.87322 11.9106 3.69276 10.1094 4.79827 8.54107C5.01224 8.23759 5.21554 7.98922 5.2501 7.98922C5.28466 7.98922 5.64629 8.18073 6.05381 8.41471ZM30.0975 8.57913C31.6603 10.7997 32.6234 13.5092 32.8575 16.3439L32.9094 16.9728L29.9881 16.9528L27.0668 16.9329L27.049 16.6284C26.8967 14.0086 26.6739 12.6293 25.9508 9.83055C25.9342 9.76654 26.2109 9.61431 26.7242 9.40506C27.5619 9.06361 28.6813 8.51191 29.198 8.18606C29.3655 8.08041 29.543 7.99288 29.5924 7.99158C29.6419 7.99029 29.8691 8.25464 30.0975 8.57913ZM11.0578 10.31C12.4725 10.6547 13.6582 10.8532 14.9291 10.9582C15.4927 11.0048 16.1679 11.0607 16.4295 11.0825L16.9052 11.1221V14.0466V16.9709H12.8838C10.6719 16.9709 8.84804 16.9567 8.83061 16.9393C8.7583 16.867 8.91464 14.6461 9.06413 13.6218C9.29674 12.0273 9.76143 10.0444 9.90248 10.0444C9.93833 10.0444 10.4583 10.1639 11.0578 10.31ZM25.3014 11.1671C25.7305 12.9353 25.9337 14.3025 26.014 15.9631L26.0629 16.9723L21.9978 16.9526L17.9328 16.9329V14.0024V11.0719L18.9984 11.0222C20.6978 10.9429 23.2243 10.5435 24.4408 10.162C25.0386 9.97441 25.0014 9.93087 25.3014 11.1671ZM7.84741 18.5335C7.84741 19.9234 8.24885 22.6328 8.69619 24.2622C8.82596 24.7349 8.91928 25.133 8.90353 25.147C8.88785 25.161 8.54959 25.3 8.15188 25.4559C7.42299 25.7417 5.86025 26.5278 5.46429 26.8077C5.21151 26.9865 5.28473 27.055 4.55036 25.9527C3.69984 24.676 3.20075 23.6527 2.7184 22.1957C2.32305 21.0018 1.98646 19.2037 1.98646 18.2859V17.9605H4.91694H7.84741V18.5335ZM16.9052 20.8791V23.7977L15.8586 23.8461C14.1921 23.9232 12.8524 24.1202 11.0202 24.5571C10.3999 24.705 9.87644 24.8102 9.85696 24.7907C9.77848 24.7123 9.50477 23.6447 9.29606 22.6035C9.05736 21.4127 8.86014 19.7914 8.81698 18.6645L8.79004 17.9605H12.8476H16.9052V20.8791ZM26.0385 18.3981C26.0371 19.3562 25.714 22.1881 25.5923 22.3083C25.566 22.3343 25.0307 22.2079 24.4027 22.0273C23.1209 21.6588 22.951 21.637 22.7532 21.8161C22.5603 21.9907 22.5773 22.1924 22.8795 23.3222C23.0245 23.8639 23.1287 24.3216 23.1109 24.3393C23.0932 24.357 22.7772 24.3163 22.4087 24.2489C21.2687 24.0402 20.0331 23.8967 18.9414 23.8461L17.8948 23.7977V20.8791V17.9605H21.967H26.0392L26.0385 18.3981ZM32.8485 18.4742C32.698 20.1766 32.3473 21.749 31.8228 23.073C31.6515 23.5056 31.4841 23.8868 31.4508 23.9202C31.4176 23.9536 30.3035 23.6796 28.9749 23.3113L26.5594 22.6416L26.6012 22.3371C26.6242 22.1697 26.6956 21.6901 26.7598 21.2715C26.824 20.8529 26.9169 19.9366 26.9661 19.2354L27.0557 17.9605H29.9749H32.8939L32.8485 18.4742ZM28.9954 24.3225C31.7861 25.1005 34.0793 25.7468 34.0913 25.7589C34.1034 25.7709 33.6067 26.2033 32.9877 26.7197C31.7516 27.7507 31.6777 27.8251 31.6742 28.0426C31.6727 28.1376 32.4083 28.9299 33.7068 30.2318L35.7419 32.2719L34.4681 33.5456L33.1944 34.8194L31.1899 32.816C29.2754 30.9024 29.1738 30.8137 28.9261 30.8373C28.6957 30.8594 28.5566 30.9924 27.6788 32.0299C26.7467 33.1318 26.6872 33.1869 26.627 33.006C26.3216 32.09 23.798 22.908 23.8515 22.908C23.89 22.908 26.2047 23.5445 28.9954 24.3225ZM16.9052 28.8518V32.8926L16.5818 32.8387C14.6927 32.5239 12.7848 30.9119 11.3711 28.4363C10.9068 27.6233 10.207 26.0754 10.207 25.8616C10.207 25.7847 10.5033 25.6827 11.2156 25.5139C13.1435 25.0573 14.718 24.8328 16.087 24.8191L16.9052 24.8109V28.8518ZM21.1678 25.036C21.7748 25.1242 22.5447 25.2552 22.8786 25.3271L23.4858 25.4579L23.7329 26.3332C23.8687 26.8147 23.9809 27.2692 23.982 27.3435C23.9831 27.4177 23.85 27.7449 23.6863 28.0706C22.7536 29.9256 21.2229 31.5907 19.784 32.3152C19.2937 32.5621 18.3073 32.8792 18.0295 32.8792C17.9023 32.8792 17.8948 32.6533 17.8948 28.8339V24.7885L18.9794 24.8321C19.5759 24.856 20.5607 24.9478 21.1678 25.036ZM9.48262 26.6567C9.80398 27.4894 10.6078 29.0427 11.0906 29.764C11.6463 30.5945 12.3884 31.4816 12.933 31.9666C13.3311 32.3211 13.3475 32.3479 13.1375 32.3016C12.6797 32.2005 11.4423 31.7142 10.6046 31.3061C9.66286 30.8473 8.46418 30.0853 7.69518 29.4565C7.1575 29.0168 5.86839 27.7745 5.86839 27.696C5.86839 27.5729 8.90589 26.1194 9.18645 26.1082C9.2322 26.1064 9.3654 26.3532 9.48262 26.6567ZM24.9715 30.8685C24.9757 31.0361 21.9578 32.3464 21.5676 32.3464C21.5411 32.3464 21.8634 31.9953 22.2838 31.5662C23.0955 30.7378 23.577 30.1238 24.0831 29.2721L24.3946 28.7476L24.682 29.7668C24.8401 30.3274 24.9704 30.8232 24.9715 30.8685Z" stroke="#FF8655" mask="url(#path-1-outside-1_1267_9108)"/>
</svg>
