<svg width="37" height="37" viewBox="0 0 37 37" fill="none" xmlns="http://www.w3.org/2000/svg">
<path fill-rule="evenodd" clip-rule="evenodd" d="M2.13551 1.08856C1.78931 1.19775 1.19884 1.80952 1.09269 2.16905C0.969105 2.58757 0.969105 15.2146 1.09269 15.6331C1.20717 16.0208 1.7915 16.6055 2.17896 16.72C2.38295 16.7803 3.22221 16.8062 5.00045 16.8069L7.53161 16.808L7.98023 17.3539L8.42891 17.8998L5.89938 17.9351C3.61002 17.9671 3.34466 17.9829 3.10356 18.1028C2.75454 18.2763 2.32264 18.7733 2.21846 19.1213C2.0977 19.5247 2.10031 31.0329 2.22128 31.4426C2.33576 31.8303 2.9201 32.415 3.30756 32.5295C3.51571 32.5911 4.47431 32.6159 6.69335 32.6173L9.7888 32.6193L11.0821 34.1762C12.451 35.824 12.6563 36 13.2099 36C13.5123 36 13.9676 35.7977 14.1764 35.5703C14.4942 35.2244 14.5501 34.9519 14.5501 33.7469V32.6154H17.769C20.0901 32.6154 21.0688 32.5914 21.2782 32.5295C21.6657 32.415 22.25 31.8303 22.3645 31.4426C22.4282 31.2267 22.4502 29.8898 22.4502 26.2375V21.3228H23.0145H23.5788L23.5804 22.4697C23.5817 23.4336 23.6028 23.6617 23.7122 23.8989C24.0332 24.5948 24.7794 24.8831 25.4597 24.574C25.6923 24.4684 26.0225 24.1166 27.0468 22.8837L28.3401 21.3268L31.4356 21.3248C33.6546 21.3234 34.6132 21.2986 34.8214 21.237C35.2088 21.1225 35.7931 20.5378 35.9076 20.1501C36.0296 19.7372 36.0313 7.10338 35.9095 6.6965C35.8634 6.54249 35.6885 6.26378 35.5207 6.0771C34.9787 5.47387 35.5878 5.51332 26.811 5.51332H19.0645V3.98643C19.0645 3.01097 19.0342 2.35841 18.9806 2.17949C18.9345 2.02549 18.7595 1.74678 18.5918 1.5601C18.0496 0.956723 18.6458 0.99533 10.0055 1.00352C4.66307 1.0086 2.30854 1.03401 2.13551 1.08856ZM17.7627 2.29884L17.9359 2.47204V8.90108V15.3301L17.7627 15.5033L17.5896 15.6766H14.3769H11.1643V17.3276C11.1643 18.7947 11.1514 18.9836 11.0482 19.0232C10.8876 19.0849 10.8324 19.0273 9.34929 17.2497L8.03673 15.6766H5.25925H2.48178L2.30868 15.5033L2.13551 15.3301V8.90108V2.47204L2.30868 2.29884L2.48178 2.12557H10.0357H17.5896L17.7627 2.29884ZM6.93945 4.49128C5.73453 4.82977 4.79173 5.83812 4.49237 7.1086C4.34692 7.72602 4.39595 8.62003 4.60939 9.24303C4.90621 10.1091 5.18187 10.4144 7.66253 12.6241C8.93714 13.7595 10.0071 14.6885 10.0402 14.6885C10.122 14.6885 14.5356 10.7522 14.78 10.4613C15.2973 9.84562 15.599 9.06432 15.655 8.19529C15.8456 5.24096 12.7704 3.36365 10.4076 4.99189L10.0357 5.24823L9.66374 4.99189C9.45918 4.85095 9.11799 4.66864 8.90546 4.58684C8.39633 4.39085 7.45896 4.34525 6.93945 4.49128ZM8.65322 5.71468C8.84396 5.79909 9.21703 6.08395 9.51293 6.37099L10.0357 6.87816L10.5584 6.37099C11.2217 5.72746 11.5812 5.5599 12.3008 5.55877C12.743 5.55807 12.907 5.59173 13.2292 5.74948C13.7002 5.97999 14.078 6.38094 14.3289 6.91642C14.4893 7.25865 14.5147 7.40496 14.5135 7.98356C14.5124 8.5599 14.4859 8.71073 14.3245 9.05762C14.2212 9.27959 13.9837 9.62493 13.7967 9.82502C13.388 10.2625 10.1228 13.1711 10.0406 13.1711C9.9583 13.1711 6.60666 10.1893 6.23796 9.78817C4.99939 8.44062 5.45316 6.22652 7.08758 5.64269C7.55418 5.47599 8.17886 5.50471 8.65322 5.71468ZM34.6916 6.81584L34.8648 6.98904V13.4181V19.8471L34.6916 20.0203L34.5185 20.1936H31.1775H27.8364L26.4858 21.8064C25.7429 22.6934 25.0906 23.4562 25.0361 23.5014C24.9815 23.5468 24.8853 23.564 24.8222 23.5397C24.7208 23.5007 24.7074 23.3043 24.7074 21.8446V20.1936H20.9305H17.1535L16.9804 20.0203C16.8073 19.8471 16.8073 19.8469 16.8073 18.3264V16.8058H17.2047C17.4233 16.8058 17.7327 16.7672 17.8924 16.72C18.2799 16.6055 18.8642 16.0208 18.9787 15.6331C19.042 15.4188 19.0645 14.2016 19.0645 10.9926V6.64257H26.7915H34.5185L34.6916 6.81584ZM26.7449 7.86485C26.1273 8.0962 25.8302 8.44408 25.5928 9.21395C25.3875 9.87985 25.0059 10.5617 24.5822 11.02L24.2489 11.3806L24.022 11.266C23.8299 11.1691 23.5728 11.1548 22.3516 11.1732C20.7699 11.1969 20.7265 11.2081 20.3738 11.6808C20.2318 11.871 20.2283 11.9534 20.2283 15.112C20.2283 18.2705 20.2318 18.3529 20.3738 18.5431C20.7272 19.0168 20.7677 19.0271 22.367 19.0491C24.0153 19.0717 24.1666 19.0361 24.4878 18.5498L24.6561 18.2949L24.911 18.4245C25.3413 18.6431 26.2827 18.9117 26.9135 18.9957C27.2703 19.0432 28.2096 19.066 29.2317 19.0521C30.9402 19.0288 30.952 19.0276 31.3102 18.8387C31.8438 18.5573 32.0636 18.3446 32.3313 17.8505L32.5723 17.4058V15.112V12.8182L32.3822 12.4577C32.0997 11.9219 31.8872 11.7029 31.3944 11.44C30.9815 11.2196 30.8933 11.2007 30.1506 11.1721L29.3512 11.1414L29.4099 10.7094C29.5515 9.66861 29.4205 9.10004 28.8986 8.48996C28.418 7.92823 27.3801 7.627 26.7449 7.86485ZM27.6932 8.99734C27.9743 9.11486 28.2773 9.4621 28.3374 9.73538C28.3618 9.84675 28.301 10.4156 28.2022 10.9994C28.1035 11.5833 28.0227 12.1104 28.0227 12.1708C28.0227 12.2655 28.21 12.2834 29.3932 12.3023C30.8936 12.3262 30.9481 12.3407 31.2983 12.8101C31.4376 12.9967 31.4437 13.094 31.4437 15.112C31.4437 17.1299 31.4376 17.2272 31.2983 17.4139C30.941 17.8927 30.9206 17.8976 29.164 17.9222C27.0134 17.9522 26.2751 17.8349 25.1483 17.2842L24.7074 17.0687V14.8109V12.553L25.1733 12.0588C25.7974 11.3969 26.2681 10.6582 26.5338 9.9234C26.6543 9.58999 26.753 9.2894 26.753 9.25538C26.753 9.14281 27.1219 8.90108 27.2938 8.90108C27.3868 8.90108 27.5665 8.94441 27.6932 8.99734ZM23.5788 15.112V17.9351H22.4502H21.3216V15.112V12.2888H22.4502H23.5788V15.112ZM15.6787 17.3705V17.9351H13.9858H12.2929V17.3705V16.8058H13.9858H15.6787V17.3705ZM9.76285 19.4985C10.3384 20.1633 10.8771 20.3394 11.4817 20.0602C11.8238 19.9022 12.0381 19.679 12.1847 19.328L12.2948 19.0643H13.9867H15.6787V19.462C15.6787 19.6807 15.7172 19.9903 15.7644 20.1501C15.8789 20.5378 16.4633 21.1225 16.8507 21.237C17.0501 21.2959 17.7963 21.3228 19.2313 21.3228H21.3216V26.2312V31.1396L21.1485 31.3128L20.9754 31.4861H17.1984H13.4215V33.1371C13.4215 34.6042 13.4086 34.7931 13.3054 34.8327C13.1431 34.895 13.0743 34.8232 11.6034 33.0565L10.296 31.4861H6.9532H3.61037L3.43727 31.3128L3.26411 31.1396V25.2752V19.4108L3.43727 19.2376L3.61037 19.0643H6.49866H9.38688L9.76285 19.4985ZM11.7638 21.3841C11.1134 21.5551 10.542 22.0246 10.2492 22.6285C10.1095 22.9168 10.078 23.0914 10.0774 23.5813C10.0768 24.0958 10.1037 24.2333 10.2665 24.5468C10.3708 24.7479 10.4886 24.9324 10.5281 24.9568C10.6589 25.0377 10.6037 25.1106 10.2415 25.3359L9.88311 25.5589L9.94173 25.3288C9.97403 25.2023 9.99788 24.8751 9.9947 24.6018C9.9899 24.18 9.95337 24.0378 9.75375 23.6629C9.49184 23.1713 9.2705 22.9571 8.73829 22.6804C8.43061 22.5204 8.29066 22.4932 7.77849 22.4938C7.07114 22.4946 6.64912 22.6612 6.18971 23.1209C5.7303 23.5806 5.56383 24.0028 5.56299 24.7106C5.56228 25.3115 5.65468 25.5931 6.03333 26.1435C6.10704 26.2508 6.09857 26.2834 5.97979 26.3504C5.66364 26.5287 5.03064 27.2119 4.82651 27.5952C4.50704 28.1948 4.3927 28.7221 4.3927 29.5953V30.3568H4.94846H5.5043L5.5359 29.4923C5.56249 28.7664 5.59466 28.5711 5.73672 28.2748C6.21094 27.2856 7.33643 26.7689 8.36529 27.0682C8.58572 27.1323 8.7658 27.2077 8.76559 27.2357C8.76538 27.2638 8.73448 27.3979 8.69689 27.5337C8.6243 27.796 8.33249 30.229 8.36924 30.2657C8.39795 30.2945 9.4285 30.4233 9.45086 30.4009C9.46045 30.3913 9.53198 29.8296 9.60985 29.1527C9.68765 28.4757 9.77963 27.8248 9.8142 27.7061C10.0569 26.8722 10.7404 26.1937 11.5827 25.9505C12.9386 25.5589 14.3771 26.3508 14.7716 27.7061C14.8061 27.8248 14.8981 28.4757 14.9759 29.1527C15.0538 29.8296 15.1253 30.3913 15.1349 30.4009C15.1573 30.4233 16.1878 30.2945 16.2165 30.2657C16.2533 30.229 15.9614 27.796 15.8889 27.5337C15.8513 27.3979 15.8204 27.2638 15.8202 27.2357C15.8192 27.1138 16.6296 26.9525 17.0319 26.9946C17.8009 27.075 18.4153 27.4915 18.7849 28.183C19.0104 28.6046 19.0242 28.6726 19.052 29.4923L19.0815 30.3568H19.6373H20.193V29.5953C20.193 28.7221 20.0787 28.1948 19.7592 27.5952C19.5551 27.2119 18.9221 26.5287 18.606 26.3504C18.4872 26.2834 18.4787 26.2508 18.5524 26.1435C18.9296 25.5952 19.0235 25.3105 19.025 24.7106C19.0264 24.1612 19.0063 24.0732 18.7869 23.666C18.52 23.1706 18.2986 22.9568 17.7671 22.6804C17.4594 22.5204 17.3194 22.4932 16.8073 22.4938C16.3176 22.4944 16.1431 22.5259 15.855 22.6657C15.403 22.8851 14.9797 23.31 14.7671 23.7578C14.5876 24.1358 14.5293 24.8792 14.644 25.3288L14.7026 25.5589L14.3442 25.3359C14.1471 25.2133 13.9858 25.1032 13.9858 25.0914C13.9858 25.0795 14.0658 24.9517 14.1637 24.8074C14.6183 24.1371 14.6539 23.258 14.2565 22.5119C14.0059 22.0415 13.7755 21.8209 13.2635 21.5613C12.8867 21.3703 12.1483 21.283 11.7638 21.3841ZM12.7393 22.5484C13.464 22.8514 13.6407 23.802 13.0771 24.366C12.6195 24.8238 11.9662 24.8238 11.5086 24.366C10.6364 23.4932 11.5989 22.0716 12.7393 22.5484ZM8.22492 23.6776C8.94962 23.9806 9.12632 24.9313 8.56272 25.4953C7.77024 26.2882 6.47158 25.578 6.68008 24.4656C6.80472 23.8012 7.57753 23.4069 8.22492 23.6776ZM17.2537 23.6776C17.9784 23.9806 18.1551 24.9313 17.5915 25.4953C17.1339 25.9531 16.4806 25.9531 16.023 25.4953C15.1508 24.6224 16.1132 23.2009 17.2537 23.6776Z" fill="#FF8655" stroke="#FF8655" stroke-width="0.5"/>
</svg>
