<svg width="217" height="43" viewBox="0 0 217 43" fill="none" xmlns="http://www.w3.org/2000/svg">
<g clip-path="url(#clip0_1267_11656)">
<path d="M88.6333 36.1245V22.9791L79.255 36.1245H75.0869V11.9092H80.6444V25.0547L90.0224 11.9092H94.1904V36.1245H88.6333Z" fill="#3B3B3B"/>
<path d="M113.43 23.5672C115.422 24.8356 116.417 26.6575 116.417 29.0329C116.417 31.1316 115.664 32.8381 114.159 34.1527C112.654 35.4672 110.79 36.1245 108.567 36.1245H98.3555V11.9092H107.873C110.049 11.9092 111.867 12.5549 113.326 13.8464C114.808 15.1148 115.549 16.7753 115.549 18.8278C115.549 20.7651 114.843 22.3448 113.43 23.5672ZM107.873 17.0982H103.913V21.3878H107.873C108.498 21.3878 109.007 21.1917 109.401 20.7997C109.795 20.3846 109.991 19.8657 109.991 19.243C109.991 18.6203 109.795 18.1129 109.401 17.7209C109.007 17.3058 108.498 17.0982 107.873 17.0982ZM108.567 30.9355C109.262 30.9355 109.818 30.728 110.235 30.3128C110.651 29.8747 110.86 29.3096 110.86 28.6178C110.86 27.9259 110.651 27.3724 110.235 26.9573C109.818 26.5191 109.262 26.3 108.567 26.3H103.913V30.9355H108.567Z" fill="#3B3B3B"/>
<path d="M137.592 30.7971H140.197V40.7602H134.639V36.1245H119.183V11.9092H124.74V30.7971H132.034V11.9092H137.592V30.7971Z" fill="#3B3B3B"/>
<path d="M156.766 23.4979C158.873 24.8585 159.927 26.7958 159.927 29.3095C159.927 31.5466 159.139 33.3224 157.565 34.6369C156.013 35.9515 153.825 36.6087 151 36.6087C148.175 36.6087 145.975 35.9515 144.401 34.6369C142.849 33.3224 142.073 31.5466 142.073 29.3095C142.073 26.7958 143.127 24.8585 145.234 23.4979C143.683 22.2986 142.907 20.6728 142.907 18.6202C142.907 16.3601 143.671 14.5958 145.199 13.3274C146.727 12.059 148.661 11.4248 151 11.4248C153.338 11.4248 155.272 12.059 156.8 13.3274C158.329 14.5958 159.093 16.3601 159.093 18.6202C159.093 20.6728 158.317 22.2986 156.766 23.4979ZM152.841 17.2711C152.378 16.8329 151.764 16.6138 151 16.6138C150.236 16.6138 149.622 16.8329 149.159 17.2711C148.696 17.7093 148.464 18.2743 148.464 18.9661C148.464 19.658 148.696 20.2231 149.159 20.6612C149.622 21.0994 150.236 21.3185 151 21.3185C151.764 21.3185 152.378 21.0994 152.841 20.6612C153.304 20.2231 153.536 19.658 153.536 18.9661C153.536 18.2743 153.304 17.7093 152.841 17.2711ZM148.569 30.6587C149.194 31.1661 150.004 31.4197 151 31.4197C151.996 31.4197 152.806 31.1661 153.431 30.6587C154.056 30.1283 154.369 29.4133 154.369 28.5139C154.369 27.6145 154.056 26.9111 153.431 26.4037C152.806 25.8733 151.996 25.6081 151 25.6081C150.004 25.6081 149.194 25.8733 148.569 26.4037C147.943 26.9111 147.631 27.6145 147.631 28.5139C147.631 29.4133 147.943 30.1283 148.569 30.6587Z" fill="#2AA1D8"/>
<path d="M171.292 36.6088C168.467 36.6088 166.21 35.7209 164.519 33.9451C162.852 32.1693 162.019 29.9208 162.019 27.1994C162.019 24.2474 162.459 21.9643 163.339 20.3499C164.218 18.7356 165.99 17.2711 168.653 15.9566C168.954 15.8182 169.428 15.5876 170.077 15.2647C170.748 14.9418 171.177 14.7343 171.362 14.642C171.57 14.5267 171.895 14.3537 172.335 14.1231C172.774 13.8695 173.064 13.6734 173.203 13.535C173.365 13.3736 173.573 13.166 173.828 12.9123C174.106 12.6587 174.314 12.405 174.453 12.1513C174.615 11.8745 174.766 11.5632 174.905 11.2173L179.212 13.6734C178.887 15.0341 178.216 16.118 177.197 16.9252C176.202 17.7093 174.697 18.4819 172.682 19.2429C171.246 19.7734 170.204 20.3038 169.556 20.8342C168.931 21.3416 168.479 21.9297 168.201 22.5985C169.428 21.5146 171.015 20.9726 172.96 20.9726C174.743 20.9726 176.387 21.6645 177.892 23.0482C179.397 24.4089 180.15 26.2308 180.15 28.5139C180.15 30.8893 179.339 32.8381 177.718 34.3602C176.121 35.8592 173.979 36.6088 171.292 36.6088ZM168.548 30.9355C169.29 31.6043 170.192 31.9387 171.258 31.9387C172.323 31.9387 173.203 31.6158 173.898 30.9701C174.592 30.3243 174.939 29.5056 174.939 28.5139C174.939 27.4992 174.581 26.669 173.863 26.0232C173.145 25.3544 172.242 25.02 171.154 25.02C170.181 25.02 169.324 25.3313 168.583 25.954C167.842 26.5537 167.472 27.3608 167.472 28.3756C167.472 29.4134 167.831 30.2667 168.548 30.9355Z" fill="#2AA1D8"/>
<path d="M195.098 18.8281H198.919V36.1248H193.847V27.4765L186.414 36.1248H182.594V18.8281H187.665V27.4765L195.098 18.8281Z" fill="#2AA1D8"/>
<path d="M216.81 18.8281V23.8096H211.635V36.1248H206.424V23.8096H201.18V18.8281H216.81Z" fill="#2AA1D8"/>
<path d="M45.356 27.917C47.4603 27.6449 49.5042 27.0232 51.4028 26.0779C56.1561 23.7092 65.6624 14.5726 67.1901 0.586947C67.246 0.0793623 67.1308 -0.0746054 66.5841 0.0455235C58.2491 1.87791 49.0499 5.46823 49.0721 5.45978L49.0041 5.49698C48.3801 5.82158 47.8316 6.27364 47.395 6.82366C46.958 7.37369 46.6423 8.00934 46.4684 8.68912C46.2946 9.36893 46.2665 10.0776 46.3859 10.769C46.5056 11.4603 46.7699 12.1188 47.1619 12.7015C47.5538 13.2841 48.0648 13.7779 48.661 14.1506C49.2572 14.5232 49.9258 14.7664 50.6226 14.8643C51.3198 14.9621 52.0294 14.9124 52.7059 14.7185C53.3824 14.5245 54.0101 14.1906 54.5485 13.7385C54.5485 13.7385 56.3971 24.4079 45.2881 27.9069L45.356 27.917Z" fill="#2AA1D8"/>
<path d="M42.571 28.0864C43.5021 28.0869 44.432 28.0265 45.3552 27.9054L45.2858 27.8919C56.3944 24.3929 54.5458 13.7234 54.5458 13.7234C54.0074 14.1755 53.3797 14.5094 52.7036 14.7034C52.027 14.8974 51.3171 14.9471 50.6203 14.8492C49.9231 14.7514 49.2548 14.5082 48.6583 14.1355C48.0621 13.7629 47.5511 13.2691 47.1592 12.6864C46.7672 12.1037 46.5029 11.4452 46.3835 10.7539C46.2641 10.0626 46.2923 9.35384 46.4661 8.67407C46.64 7.99426 46.9553 7.35864 47.3923 6.80861C47.8293 6.25859 48.3775 5.80653 49.0014 5.48193C47.0721 6.33229 45.2009 7.30783 43.3996 8.40223C41.1586 9.74903 39.3611 11.5053 38.4582 14.0432C37.5396 16.6454 37.2052 19.2561 37.9945 21.9463C38.0302 22.0891 38.0302 22.2384 37.9945 22.3812C37.6686 23.8565 36.752 24.9478 35.6621 25.9342C35.2886 26.2726 34.9118 26.611 34.5672 26.9714C34.2226 27.3318 34.2039 27.7396 34.518 28.1761C34.832 28.6126 35.3039 28.7784 35.7861 28.9391C36.0433 29.0194 36.2887 29.1332 36.516 29.2775C36.571 29.3066 36.6192 29.3468 36.6576 29.3956C36.6959 29.4445 36.7235 29.5008 36.7386 29.561C36.7537 29.6212 36.7558 29.6838 36.7449 29.7449C36.7341 29.8059 36.7104 29.8641 36.6756 29.9154C36.4752 30.269 36.3089 30.6446 36.0831 30.9813C35.7436 31.4805 35.7758 31.9441 36.2359 32.3349C36.4138 32.4692 36.601 32.5907 36.7961 32.6987C36.2766 33.6817 36.2733 33.6851 37.0864 34.4126C37.2455 34.5619 37.3711 34.7432 37.4548 34.9444C37.5385 35.1457 37.5785 35.3623 37.5718 35.5801C37.5853 36.1232 37.5582 36.668 37.5718 37.2094C37.5992 37.9793 37.9472 38.3667 38.6905 38.5495C39.7091 38.8 40.7175 38.6392 41.7293 38.5188C42.1348 38.4717 42.6322 38.4362 43.0651 38.3921C42.4013 37.2077 42.2046 36.1925 42.9108 35.2045C43.7596 34.0201 45.6267 34.5277 45.6267 34.5277C45.457 32.1589 42.571 28.0983 42.571 28.0983V28.0864ZM41.5528 24.6501C40.4051 24.6501 39.5052 24.0274 39.5052 23.2322C39.5052 22.437 40.4051 21.8143 41.5528 21.8143C42.7002 21.8143 43.6001 22.437 43.6001 23.2322C43.6001 24.0274 42.7137 24.6484 41.5664 24.6484L41.5528 24.6501Z" fill="#FF6B2F"/>
<path d="M52.8336 42.8787C52.8539 42.8787 52.8742 42.8686 52.8708 42.8484C51.9168 37.9127 48.5252 31.3177 42.5821 28.0962C42.5821 28.0962 45.4676 32.1569 45.6377 34.5256C45.6377 34.5256 43.7703 34.018 42.9215 35.2024C42.2153 36.1888 42.412 37.2141 43.0758 38.3902H43.1201C46.9938 42.8162 51.5774 42.8162 52.8336 42.8787Z" fill="#2AA1D8"/>
<path d="M21.8462 27.9169C19.7416 27.645 17.6977 27.0233 15.7994 26.0778C11.0463 23.709 1.53993 14.5725 0.0121262 0.586815C-0.0421956 0.0724618 0.0732386 -0.0815059 0.619854 0.0386226C8.95489 1.871 18.154 5.46134 18.1302 5.45289L18.1998 5.49009C18.8255 5.81371 19.3756 6.26536 19.8141 6.81546C20.2526 7.36556 20.5697 8.00178 20.7445 8.68241C20.9194 9.36304 20.948 10.0728 20.8287 10.7653C20.7094 11.4577 20.4447 12.1173 20.052 12.7008C19.6593 13.2843 19.1475 13.7785 18.5499 14.1513C17.9524 14.5241 17.2826 14.7668 16.5844 14.8638C15.8862 14.9608 15.1754 14.9098 14.4983 14.7141C13.8213 14.5184 13.1934 14.1824 12.6556 13.7282C12.6556 13.7282 10.8069 24.3976 21.9158 27.8966L21.8462 27.9169Z" fill="#2AA1D8"/>
<path d="M24.6146 28.0964C24.6146 28.0964 21.7288 32.1571 21.559 34.5258C21.559 34.5258 23.4264 34.0182 24.2751 35.2025C24.9813 36.189 24.7844 37.2143 24.119 38.3904C24.5518 38.4341 25.0492 38.4696 25.4549 38.5171C26.4735 38.6372 27.4768 38.7979 28.4953 38.5474C29.2371 38.365 29.5868 37.9772 29.6123 37.2075C29.6326 36.6661 29.6123 36.1213 29.6123 35.5782C29.6046 35.3603 29.644 35.1433 29.7278 34.9419C29.8115 34.7405 29.9377 34.5593 30.0978 34.4107C30.9109 33.6832 30.9075 33.6798 30.388 32.6968C30.5832 32.5888 30.7703 32.4673 30.9483 32.333C31.4066 31.9439 31.4338 31.487 31.0993 30.9795C30.8736 30.6411 30.7089 30.2671 30.5069 29.9135C30.4723 29.8621 30.4488 29.804 30.4381 29.743C30.4274 29.682 30.4296 29.6194 30.4447 29.5593C30.4597 29.4992 30.4872 29.4429 30.5254 29.394C30.5636 29.3452 30.6117 29.3049 30.6665 29.2757C30.8945 29.1315 31.1404 29.0178 31.3981 28.9373C31.8802 28.7765 32.3538 28.6107 32.6662 28.1742C32.9785 27.7377 32.9819 27.3553 32.6169 26.9695C32.252 26.5837 31.8955 26.2691 31.5203 25.9323C30.4305 24.9544 29.5138 23.8631 29.1879 22.3793C29.1531 22.2364 29.1531 22.0873 29.1879 21.9444C29.9772 19.2542 29.6428 16.6435 28.7245 14.0413C27.84 11.5051 26.0423 9.74883 23.7947 8.40711C21.9933 7.31304 20.122 6.33754 18.1928 5.48682C18.8193 5.80958 19.3704 6.26063 19.8099 6.81043C20.2494 7.3602 20.5674 7.9963 20.7431 8.67712C20.9189 9.3579 20.9484 10.068 20.8296 10.7609C20.7109 11.4538 20.4467 12.114 20.0543 12.6981C19.6618 13.2822 19.15 13.777 18.5523 14.1503C17.9547 14.5235 17.2847 14.7667 16.5862 14.864C15.8877 14.9613 15.1764 14.9104 14.499 14.7147C13.8216 14.5189 13.1933 14.1828 12.6553 13.7283C12.6553 13.7283 10.8067 24.3978 21.9155 27.8967L21.8459 27.9102C22.7685 28.0296 23.6979 28.0884 24.6282 28.0862L24.6146 28.0964ZM23.5961 23.2303C23.5961 22.4351 24.4941 21.8125 25.6417 21.8125C26.7892 21.8125 27.6889 22.4351 27.6889 23.2303C27.6889 24.0255 26.7892 24.6482 25.6417 24.6482C24.4941 24.6482 23.5961 24.0255 23.5961 23.2303Z" fill="#FF6B2F"/>
<path d="M14.3688 42.8787C14.3484 42.8787 14.328 42.8686 14.3314 42.8484C15.2786 37.9127 18.6738 31.3177 24.6152 28.0962C24.6152 28.0962 21.7294 32.1569 21.5596 34.5256C21.5596 34.5256 23.427 34.018 24.2757 35.2024C24.9819 36.1888 24.785 37.2141 24.1196 38.3902H24.0771C20.2016 42.8162 15.6182 42.8162 14.3688 42.8787Z" fill="#2AA1D8"/>
</g>
<defs>
<clipPath id="clip0_1267_11656">
<rect width="217" height="43" fill="white"/>
</clipPath>
</defs>
</svg>
