<svg width="360" height="71" viewBox="0 0 360 71" fill="none" xmlns="http://www.w3.org/2000/svg">
<g clip-path="url(#clip0_1267_4976)">
<path d="M147.04 59.6475V37.9422L131.481 59.6475H124.566V19.6641H133.786V41.3694L149.344 19.6641H156.259V59.6475H147.04Z" fill="white"/>
<path d="M188.181 38.9133C191.484 41.0077 193.136 44.0159 193.136 47.9381C193.136 51.4034 191.887 54.2212 189.39 56.3917C186.893 58.5622 183.801 59.6475 180.113 59.6475H163.172V19.6641H178.961C182.572 19.6641 185.587 20.7303 188.008 22.8628C190.466 24.9571 191.695 27.6989 191.695 31.0879C191.695 34.2866 190.524 36.895 188.181 38.9133ZM178.961 28.232H172.392V35.3147H178.961C179.998 35.3147 180.843 34.9911 181.496 34.3437C182.149 33.6583 182.475 32.8015 182.475 31.7733C182.475 30.7452 182.149 29.9074 181.496 29.2601C180.843 28.5747 179.998 28.232 178.961 28.232ZM180.113 51.0797C181.266 51.0797 182.188 50.7369 182.879 50.0515C183.57 49.328 183.916 48.3951 183.916 47.2527C183.916 46.1103 183.57 45.1963 182.879 44.5109C182.188 43.7875 181.266 43.4257 180.113 43.4257H172.392V51.0797H180.113Z" fill="white"/>
<path d="M228.263 50.8512H232.585V67.3018H223.365V59.6475H197.723V19.6641H206.943V50.8512H219.044V19.6641H228.263V50.8512Z" fill="white"/>
<path d="M260.074 38.7988C263.569 41.0455 265.318 44.2442 265.318 48.3949C265.318 52.0886 264.012 55.0207 261.399 57.1912C258.825 59.3618 255.195 60.447 250.508 60.447C245.822 60.447 242.172 59.3618 239.56 57.1912C236.986 55.0207 235.699 52.0886 235.699 48.3949C235.699 44.2442 237.447 41.0455 240.943 38.7988C238.369 36.8187 237.082 34.1341 237.082 30.745C237.082 27.0133 238.35 24.1002 240.886 22.0058C243.421 19.9114 246.628 18.8643 250.508 18.8643C254.388 18.8643 257.596 19.9114 260.131 22.0058C262.667 24.1002 263.934 27.0133 263.934 30.745C263.934 34.1341 262.648 36.8187 260.074 38.7988ZM253.562 28.5174C252.794 27.7939 251.776 27.4322 250.508 27.4322C249.241 27.4322 248.223 27.7939 247.454 28.5174C246.686 29.2409 246.302 30.1739 246.302 31.3162C246.302 32.4587 246.686 33.3916 247.454 34.1151C248.223 34.8386 249.241 35.2004 250.508 35.2004C251.776 35.2004 252.794 34.8386 253.562 34.1151C254.331 33.3916 254.715 32.4587 254.715 31.3162C254.715 30.1739 254.331 29.2409 253.562 28.5174ZM246.475 50.6226C247.512 51.4603 248.857 51.8791 250.508 51.8791C252.16 51.8791 253.505 51.4603 254.542 50.6226C255.579 49.7467 256.098 48.5662 256.098 47.0811C256.098 45.5961 255.579 44.4346 254.542 43.5969C253.505 42.7211 252.16 42.2831 250.508 42.2831C248.857 42.2831 247.512 42.7211 246.475 43.5969C245.437 44.4346 244.919 45.5961 244.919 47.0811C244.919 48.5662 245.437 49.7467 246.475 50.6226Z" fill="#2AA1D8"/>
<path d="M284.17 60.4475C279.484 60.4475 275.739 58.9814 272.934 56.0493C270.168 53.1172 268.785 49.4044 268.785 44.9111C268.785 40.0369 269.515 36.267 270.975 33.6014C272.434 30.9359 275.374 28.5178 279.791 26.3473C280.291 26.1188 281.078 25.738 282.154 25.2049C283.268 24.6718 283.979 24.3291 284.286 24.1768C284.631 23.9864 285.17 23.7008 285.899 23.32C286.629 22.9011 287.109 22.5774 287.34 22.3489C287.609 22.0824 287.954 21.7397 288.377 21.3208C288.838 20.902 289.184 20.4831 289.414 20.0642C289.683 19.6072 289.933 19.0932 290.163 18.522L297.309 22.5774C296.77 24.8241 295.657 26.6139 293.966 27.9466C292.315 29.2414 289.818 30.517 286.476 31.7736C284.094 32.6494 282.365 33.5253 281.289 34.4011C280.252 35.2388 279.503 36.2099 279.042 37.3142C281.078 35.5244 283.71 34.6296 286.937 34.6296C289.894 34.6296 292.622 35.7719 295.119 38.0567C297.616 40.3034 298.864 43.3117 298.864 47.0816C298.864 51.0037 297.52 54.2215 294.831 56.7347C292.18 59.2098 288.627 60.4475 284.17 60.4475ZM279.618 51.0799C280.848 52.1842 282.346 52.7364 284.113 52.7364C285.88 52.7364 287.34 52.2033 288.492 51.137C289.645 50.0708 290.221 48.719 290.221 47.0816C290.221 45.4061 289.625 44.0352 288.434 42.969C287.244 41.8647 285.746 41.3125 283.94 41.3125C282.327 41.3125 280.905 41.8266 279.676 42.8547C278.447 43.8448 277.832 45.1776 277.832 46.8531C277.832 48.5666 278.427 49.9756 279.618 51.0799Z" fill="#2AA1D8"/>
<path d="M323.666 31.0879H330.005V59.6475H321.591V45.3677L309.26 59.6475H302.922V31.0879H311.335V45.3677L323.666 31.0879Z" fill="#2AA1D8"/>
<path d="M359.684 31.0879V39.3131H351.099V59.6475H342.455V39.3131H333.754V31.0879H359.684Z" fill="#2AA1D8"/>
<path d="M75.2455 46.0955C78.7365 45.6462 82.1273 44.6197 85.277 43.0588C93.1627 39.1476 108.934 24.0617 111.468 0.969089C111.561 0.130983 111.369 -0.123242 110.463 0.07511C96.635 3.10068 81.3736 9.02888 81.4104 9.01493L81.2977 9.07636C80.2625 9.61231 79.3525 10.3587 78.6282 11.2669C77.9032 12.1751 77.3794 13.2247 77.091 14.3471C76.8026 15.4696 76.7559 16.6397 76.954 17.7813C77.1527 18.9228 77.5912 20.01 78.2414 20.9721C78.8916 21.9342 79.7393 22.7495 80.7284 23.3649C81.7175 23.9802 82.8267 24.3817 83.9827 24.5433C85.1393 24.7049 86.3165 24.6228 87.4388 24.3025C88.5612 23.9823 89.6026 23.4309 90.4957 22.6845C90.4957 22.6845 93.5626 40.3014 75.1328 46.0788L75.2455 46.0955Z" fill="#2AA1D8"/>
<path d="M70.6245 46.3749C72.1691 46.3758 73.7119 46.276 75.2434 46.076L75.1282 46.0537C93.5573 40.2763 90.4905 22.6593 90.4905 22.6593C89.5973 23.4058 88.5559 23.9571 87.4342 24.2774C86.3119 24.5977 85.1341 24.6798 83.9781 24.5182C82.8215 24.3566 81.7128 23.9551 80.7231 23.3397C79.7341 22.7244 78.8864 21.9091 78.2362 20.947C77.5859 19.985 77.1474 18.8977 76.9494 17.7561C76.7513 16.6146 76.798 15.4444 77.0864 14.322C77.3748 13.1995 77.898 12.15 78.6229 11.2418C79.3479 10.3337 80.2573 9.58723 81.2924 9.05127C78.0917 10.4553 74.9874 12.0661 71.9991 13.8732C68.2813 16.0969 65.2992 18.9968 63.8013 23.1873C62.2774 27.484 61.7226 31.7947 63.0321 36.2367C63.0912 36.4724 63.0912 36.7189 63.0321 36.9546C62.4914 39.3907 60.9707 41.1927 59.1627 42.8213C58.5431 43.3801 57.9179 43.9388 57.3462 44.5339C56.7745 45.129 56.7435 45.8022 57.2645 46.523C57.7855 47.2438 58.5684 47.5175 59.3683 47.7829C59.795 47.9154 60.2022 48.1033 60.5793 48.3417C60.6705 48.3896 60.7505 48.456 60.8141 48.5367C60.8777 48.6173 60.9236 48.7103 60.9486 48.8097C60.9735 48.9091 60.9771 49.0125 60.9591 49.1134C60.9411 49.2142 60.9018 49.3101 60.844 49.3949C60.5116 49.9788 60.2357 50.599 59.8611 51.1549C59.2979 51.9791 59.3514 52.7445 60.1146 53.3899C60.4097 53.6116 60.7203 53.8123 61.0439 53.9905C60.1822 55.6137 60.1766 55.6192 61.5255 56.8206C61.7896 57.067 61.9979 57.3663 62.1368 57.6986C62.2756 58.0309 62.342 58.3886 62.3308 58.7482C62.3532 59.6449 62.3083 60.5445 62.3308 61.4385C62.3762 62.7097 62.9536 63.3493 64.1868 63.6512C65.8766 64.0648 67.5495 63.7994 69.2281 63.6006C69.9007 63.5228 70.726 63.4641 71.4441 63.3913C70.3429 61.4357 70.0166 59.7595 71.1881 58.128C72.5964 56.1724 75.6937 57.0105 75.6937 57.0105C75.4122 53.0994 70.6245 46.3945 70.6245 46.3945V46.3749ZM68.9353 40.701C67.0313 40.701 65.5384 39.6729 65.5384 38.3598C65.5384 37.0468 67.0313 36.0187 68.9353 36.0187C70.8387 36.0187 72.3317 37.0468 72.3317 38.3598C72.3317 39.6729 70.8611 40.6982 68.9577 40.6982L68.9353 40.701Z" fill="#FF6B2F"/>
<path d="M87.651 70.7999C87.6846 70.7999 87.7183 70.7832 87.7127 70.7498C86.13 62.6003 80.5033 51.7108 70.6438 46.3916C70.6438 46.3916 75.4309 53.0965 75.7131 57.0076C75.7131 57.0076 72.6151 56.1695 71.2068 58.1251C70.0353 59.7538 70.3616 61.4468 71.4628 63.3887H71.5363C77.9628 70.6968 85.567 70.6968 87.651 70.7999Z" fill="#2AA1D8"/>
<path d="M36.2425 46.0954C32.7511 45.6464 29.3603 44.6199 26.2111 43.0587C18.3256 39.1475 2.55473 24.0615 0.0201173 0.968928C-0.0700019 0.119646 0.121502 -0.13458 1.02833 0.0637723C14.856 3.08933 30.1172 9.01756 30.0778 9.0036L30.1932 9.06503C31.2312 9.59939 32.1439 10.3451 32.8714 11.2534C33.5988 12.1617 34.1248 13.2122 34.4149 14.3361C34.7049 15.4599 34.7525 16.6318 34.5545 17.7752C34.3566 18.9186 33.9175 20.0076 33.2661 20.9711C32.6146 21.9345 31.7654 22.7506 30.7741 23.3661C29.7828 23.9816 28.6716 24.3825 27.5133 24.5426C26.3551 24.7028 25.1758 24.6185 24.0525 24.2953C22.9294 23.9723 21.8876 23.4175 20.9954 22.6675C20.9954 22.6675 17.9286 40.2845 36.3579 46.0618L36.2425 46.0954Z" fill="#2AA1D8"/>
<path d="M40.8363 46.3916C40.8363 46.3916 36.0487 53.0965 35.7671 57.0076C35.7671 57.0076 38.8649 56.1695 40.2731 58.1251C41.4446 59.7538 41.1179 61.4468 40.014 63.3887C40.7321 63.4609 41.5573 63.5196 42.2303 63.598C43.9201 63.7962 45.5845 64.0617 47.2742 63.648C48.5049 63.3467 49.085 62.7065 49.1273 61.4356C49.1611 60.5417 49.1273 59.6421 49.1273 58.7453C49.1146 58.3855 49.1799 58.0272 49.3189 57.6947C49.4578 57.3621 49.6672 57.063 49.9327 56.8176C51.2817 55.6164 51.2761 55.6107 50.4143 53.9876C50.738 53.8094 51.0485 53.6087 51.3437 53.387C52.104 52.7444 52.1491 51.9902 51.5943 51.1521C51.2197 50.5933 50.9466 49.9759 50.6115 49.392C50.554 49.3071 50.5151 49.2112 50.4974 49.1104C50.4796 49.0097 50.4833 48.9064 50.5082 48.8072C50.5332 48.7079 50.5788 48.615 50.6422 48.5343C50.7056 48.4536 50.7852 48.387 50.8762 48.3388C51.2544 48.1008 51.6625 47.913 52.09 47.7801C52.8898 47.5147 53.6755 47.2409 54.1937 46.5201C54.7119 45.7994 54.7175 45.1679 54.112 44.531C53.5065 43.894 52.9151 43.3744 52.2928 42.8185C50.4847 41.2037 48.9639 39.4018 48.4233 36.9518C48.3655 36.7159 48.3655 36.4696 48.4233 36.2337C49.7328 31.7918 49.178 27.4811 47.6544 23.1844C46.1871 18.9967 43.2048 16.0968 39.4761 13.8815C36.4874 12.075 33.383 10.4643 30.1825 9.05957C31.2219 9.5925 32.1361 10.3373 32.8653 11.2451C33.5944 12.1528 34.122 13.2031 34.4135 14.3273C34.7051 15.4514 34.754 16.6238 34.557 17.768C34.3601 18.9121 33.9217 20.0021 33.2707 20.9665C32.6196 21.9309 31.7705 22.7481 30.779 23.3643C29.7875 23.9807 28.676 24.3822 27.5172 24.5429C26.3584 24.7035 25.1784 24.6194 24.0546 24.2962C22.9308 23.9731 21.8885 23.4181 20.9959 22.6676C20.9959 22.6676 17.9291 40.2846 36.3585 46.0619L36.243 46.0843C37.7735 46.2814 39.3154 46.3785 40.8588 46.3748L40.8363 46.3916ZM39.1465 38.3569C39.1465 37.0439 40.6364 36.0159 42.5401 36.0159C44.4439 36.0159 45.9365 37.0439 45.9365 38.3569C45.9365 39.67 44.4439 40.6981 42.5401 40.6981C40.6364 40.6981 39.1465 39.67 39.1465 38.3569Z" fill="#FF6B2F"/>
<path d="M23.836 70.7999C23.8022 70.7999 23.7684 70.7832 23.7741 70.7498C25.3455 62.6003 30.978 51.7108 40.8348 46.3916C40.8348 46.3916 36.0472 53.0965 35.7656 57.0076C35.7656 57.0076 38.8634 56.1695 40.2715 58.1251C41.4431 59.7538 41.1164 61.4468 40.0124 63.3887H39.9421C33.5126 70.6968 25.9088 70.6968 23.836 70.7999Z" fill="#2AA1D8"/>
</g>
<defs>
<clipPath id="clip0_1267_4976">
<rect width="360" height="71" fill="white"/>
</clipPath>
</defs>
</svg>
