<svg width="38" height="37" viewBox="0 0 38 37" fill="none" xmlns="http://www.w3.org/2000/svg">
<mask id="path-1-outside-1_1267_8419" maskUnits="userSpaceOnUse" x="0" y="0" width="38" height="37" fill="black">
<rect fill="white" width="38" height="37"/>
<path fill-rule="evenodd" clip-rule="evenodd" d="M12.995 1.07519C8.36876 1.59528 4.35967 4.40252 2.35971 8.52209C0.554992 12.2395 0.546445 16.494 2.33619 20.21C4.29059 24.2679 8.0875 27.0335 12.5607 27.6574C14.0108 27.8597 16.0137 27.7764 17.393 27.4565C19.0557 27.0709 20.8236 26.2678 22.1979 25.274L22.6774 24.9272L23.0809 25.3007C23.3027 25.5061 24.0191 26.1993 24.6726 26.8412L25.8609 28.0082L25.7413 28.3884C25.6012 28.8341 25.6277 29.3063 25.815 29.7003C25.9768 30.0407 31.6913 35.6236 32.1017 35.8422C32.4988 36.0537 33.26 36.0524 33.6631 35.8396C33.9959 35.664 36.6741 32.9224 36.9292 32.4963C37.0304 32.3272 37.1094 32.0581 37.1325 31.8035C37.2051 31.0028 37.1811 30.973 33.9123 27.8003C32.313 26.248 30.8798 24.9042 30.7273 24.8142C30.3526 24.5929 29.7901 24.5422 29.3823 24.6929C29.2075 24.7575 29.0264 24.8163 28.98 24.8235C28.9336 24.8307 28.1626 24.1267 27.2667 23.259L25.6377 21.6814L25.8206 21.3872C26.1837 20.803 26.839 19.3822 27.0804 18.656C27.2159 18.2481 27.4147 17.5011 27.5221 16.9961C27.7043 16.1388 27.7172 15.9653 27.7172 14.3826C27.7172 12.8055 27.7039 12.6246 27.5251 11.7863C26.6186 7.53602 24.0155 4.18758 20.1785 2.33581C17.9486 1.25962 15.3736 0.807768 12.995 1.07519ZM16.4561 2.30742C21.4734 3.18682 25.3353 6.94764 26.4259 12.0163C26.5652 12.6633 26.5857 12.9652 26.587 14.3826C26.5882 15.8122 26.569 16.0962 26.4276 16.7489C25.7558 19.8467 24.139 22.4208 21.7451 24.2035C20.2064 25.3494 18.6182 26.0568 16.7213 26.4413C16.0299 26.5815 15.7193 26.6021 14.3371 26.5997C12.9572 26.5973 12.65 26.5758 12.0061 26.4367C10.3324 26.0753 8.55976 25.3105 7.27456 24.3954C6.44848 23.8072 5.11398 22.4959 4.5246 21.6933C3.3979 20.159 2.63314 18.3587 2.28922 16.431C2.13403 15.561 2.11122 13.4566 2.24797 12.6167C2.78289 9.33086 4.45199 6.52319 6.99937 4.62396C8.92558 3.18781 10.8011 2.46253 13.3482 2.16862C13.8708 2.1083 15.8157 2.19518 16.4561 2.30742ZM12.4765 3.68197C10.2546 4.08579 8.31515 5.10505 6.70503 6.71525C5.44448 7.9758 4.61367 9.31482 4.06265 10.9741C3.67684 12.1361 3.59378 12.639 3.55203 14.0647C3.51947 15.1806 3.53508 15.4953 3.65904 16.2191C4.37457 20.3964 7.48329 23.8247 11.5311 24.9003C12.6156 25.1885 13.1842 25.2593 14.4077 25.2586C15.7786 25.2578 16.564 25.1346 17.8288 24.7218C20.3347 23.9038 22.5305 22.0964 23.8666 19.7517C26.1692 15.7109 25.5756 10.4731 22.4298 7.07315C20.8464 5.36188 18.9787 4.29021 16.6327 3.74703C15.6745 3.52516 13.5245 3.49147 12.4765 3.68197ZM15.971 4.77371C18.9252 5.28885 21.4713 7.07633 22.9093 9.64476C24.5122 12.5078 24.5502 15.9893 23.0109 18.9489C22.5397 19.8548 21.9103 20.6793 21.0948 21.4589C19.7417 22.7525 18.1905 23.5617 16.2928 23.964C15.3414 24.1657 13.6157 24.184 12.6771 24.0024C8.45784 23.1859 5.32136 19.911 4.72521 15.6994C4.61855 14.9463 4.67689 13.1469 4.83066 12.4461C5.0141 11.6101 5.34001 10.7143 5.75485 9.90611C7.11648 7.25334 9.77143 5.30036 12.7125 4.78804C13.5089 4.64932 15.2146 4.64176 15.971 4.77371ZM11.0525 8.55345C8.38748 10.0895 7.85384 10.4232 7.74916 10.6182C7.63367 10.8334 7.62576 11.1247 7.6432 14.5047L7.66206 18.1585L7.83865 18.328C8.15142 18.6283 14.1588 22.0465 14.3737 22.0465C14.5882 22.0465 14.7622 21.9547 17.0212 20.6495C20.5517 18.6096 20.9847 18.3493 21.0497 18.2278C21.0912 18.1503 21.118 16.6443 21.118 14.3912V10.6822L20.9591 10.5052C20.8716 10.408 19.481 9.56854 17.8688 8.63984C14.5509 6.72874 14.5317 6.71821 14.3583 6.72005C14.2883 6.72076 12.8008 7.54577 11.0525 8.55345ZM17.0174 9.45327C18.278 10.1831 19.311 10.808 19.3131 10.8419C19.3168 10.904 14.4994 13.7116 14.389 13.7116C14.2757 13.7116 9.39078 10.8645 9.43203 10.8225C9.45478 10.7992 10.5758 10.1415 11.9229 9.36088C14.2329 8.02235 14.3824 7.94684 14.549 8.034C14.6461 8.08479 15.7569 8.72347 17.0174 9.45327ZM11.3965 13.3231L13.8421 14.7358L13.8424 17.6141C13.8425 19.1973 13.8187 20.4919 13.7896 20.4912C13.7605 20.4906 12.6242 19.8464 11.2644 19.0598L8.79222 17.6295L8.77379 14.7469C8.75825 12.3212 8.77082 11.8681 8.85311 11.8874C8.90686 11.9001 10.0514 12.5461 11.3965 13.3231ZM19.9874 14.7534L19.9869 17.6318L17.5415 19.0445C16.1965 19.8215 15.0683 20.4678 15.0344 20.4807C14.9999 20.4939 14.9728 19.2291 14.9728 17.6091V14.714L17.4273 13.2959C18.7774 12.516 19.9057 11.8772 19.9349 11.8765C19.964 11.8757 19.9876 13.1704 19.9874 14.7534ZM27.629 25.202L28.1008 25.6842L27.3818 26.4418L26.6628 27.1994L25.1094 25.6906L23.5559 24.1818L24.091 23.6219C24.3852 23.3138 24.7 22.9617 24.7905 22.8393L24.955 22.6168L26.0562 23.6683C26.6618 24.2467 27.3696 24.9369 27.629 25.202ZM30.3128 25.9137C30.8939 26.3941 35.8558 31.2658 35.9431 31.4418C35.9998 31.5559 36.0215 31.7157 35.9948 31.8222C35.9421 32.0321 33.2612 34.8014 33.0439 34.8704C32.9669 34.8948 32.8245 34.8949 32.7276 34.8705C32.5158 34.8174 26.9033 29.3939 26.8116 29.1539C26.7769 29.0629 26.7699 28.9031 26.7961 28.7987C26.8252 28.683 27.4023 28.0433 28.272 27.1628C29.8441 25.571 29.8752 25.552 30.3128 25.9137Z"/>
</mask>
<path fill-rule="evenodd" clip-rule="evenodd" d="M12.995 1.07519C8.36876 1.59528 4.35967 4.40252 2.35971 8.52209C0.554992 12.2395 0.546445 16.494 2.33619 20.21C4.29059 24.2679 8.0875 27.0335 12.5607 27.6574C14.0108 27.8597 16.0137 27.7764 17.393 27.4565C19.0557 27.0709 20.8236 26.2678 22.1979 25.274L22.6774 24.9272L23.0809 25.3007C23.3027 25.5061 24.0191 26.1993 24.6726 26.8412L25.8609 28.0082L25.7413 28.3884C25.6012 28.8341 25.6277 29.3063 25.815 29.7003C25.9768 30.0407 31.6913 35.6236 32.1017 35.8422C32.4988 36.0537 33.26 36.0524 33.6631 35.8396C33.9959 35.664 36.6741 32.9224 36.9292 32.4963C37.0304 32.3272 37.1094 32.0581 37.1325 31.8035C37.2051 31.0028 37.1811 30.973 33.9123 27.8003C32.313 26.248 30.8798 24.9042 30.7273 24.8142C30.3526 24.5929 29.7901 24.5422 29.3823 24.6929C29.2075 24.7575 29.0264 24.8163 28.98 24.8235C28.9336 24.8307 28.1626 24.1267 27.2667 23.259L25.6377 21.6814L25.8206 21.3872C26.1837 20.803 26.839 19.3822 27.0804 18.656C27.2159 18.2481 27.4147 17.5011 27.5221 16.9961C27.7043 16.1388 27.7172 15.9653 27.7172 14.3826C27.7172 12.8055 27.7039 12.6246 27.5251 11.7863C26.6186 7.53602 24.0155 4.18758 20.1785 2.33581C17.9486 1.25962 15.3736 0.807768 12.995 1.07519ZM16.4561 2.30742C21.4734 3.18682 25.3353 6.94764 26.4259 12.0163C26.5652 12.6633 26.5857 12.9652 26.587 14.3826C26.5882 15.8122 26.569 16.0962 26.4276 16.7489C25.7558 19.8467 24.139 22.4208 21.7451 24.2035C20.2064 25.3494 18.6182 26.0568 16.7213 26.4413C16.0299 26.5815 15.7193 26.6021 14.3371 26.5997C12.9572 26.5973 12.65 26.5758 12.0061 26.4367C10.3324 26.0753 8.55976 25.3105 7.27456 24.3954C6.44848 23.8072 5.11398 22.4959 4.5246 21.6933C3.3979 20.159 2.63314 18.3587 2.28922 16.431C2.13403 15.561 2.11122 13.4566 2.24797 12.6167C2.78289 9.33086 4.45199 6.52319 6.99937 4.62396C8.92558 3.18781 10.8011 2.46253 13.3482 2.16862C13.8708 2.1083 15.8157 2.19518 16.4561 2.30742ZM12.4765 3.68197C10.2546 4.08579 8.31515 5.10505 6.70503 6.71525C5.44448 7.9758 4.61367 9.31482 4.06265 10.9741C3.67684 12.1361 3.59378 12.639 3.55203 14.0647C3.51947 15.1806 3.53508 15.4953 3.65904 16.2191C4.37457 20.3964 7.48329 23.8247 11.5311 24.9003C12.6156 25.1885 13.1842 25.2593 14.4077 25.2586C15.7786 25.2578 16.564 25.1346 17.8288 24.7218C20.3347 23.9038 22.5305 22.0964 23.8666 19.7517C26.1692 15.7109 25.5756 10.4731 22.4298 7.07315C20.8464 5.36188 18.9787 4.29021 16.6327 3.74703C15.6745 3.52516 13.5245 3.49147 12.4765 3.68197ZM15.971 4.77371C18.9252 5.28885 21.4713 7.07633 22.9093 9.64476C24.5122 12.5078 24.5502 15.9893 23.0109 18.9489C22.5397 19.8548 21.9103 20.6793 21.0948 21.4589C19.7417 22.7525 18.1905 23.5617 16.2928 23.964C15.3414 24.1657 13.6157 24.184 12.6771 24.0024C8.45784 23.1859 5.32136 19.911 4.72521 15.6994C4.61855 14.9463 4.67689 13.1469 4.83066 12.4461C5.0141 11.6101 5.34001 10.7143 5.75485 9.90611C7.11648 7.25334 9.77143 5.30036 12.7125 4.78804C13.5089 4.64932 15.2146 4.64176 15.971 4.77371ZM11.0525 8.55345C8.38748 10.0895 7.85384 10.4232 7.74916 10.6182C7.63367 10.8334 7.62576 11.1247 7.6432 14.5047L7.66206 18.1585L7.83865 18.328C8.15142 18.6283 14.1588 22.0465 14.3737 22.0465C14.5882 22.0465 14.7622 21.9547 17.0212 20.6495C20.5517 18.6096 20.9847 18.3493 21.0497 18.2278C21.0912 18.1503 21.118 16.6443 21.118 14.3912V10.6822L20.9591 10.5052C20.8716 10.408 19.481 9.56854 17.8688 8.63984C14.5509 6.72874 14.5317 6.71821 14.3583 6.72005C14.2883 6.72076 12.8008 7.54577 11.0525 8.55345ZM17.0174 9.45327C18.278 10.1831 19.311 10.808 19.3131 10.8419C19.3168 10.904 14.4994 13.7116 14.389 13.7116C14.2757 13.7116 9.39078 10.8645 9.43203 10.8225C9.45478 10.7992 10.5758 10.1415 11.9229 9.36088C14.2329 8.02235 14.3824 7.94684 14.549 8.034C14.6461 8.08479 15.7569 8.72347 17.0174 9.45327ZM11.3965 13.3231L13.8421 14.7358L13.8424 17.6141C13.8425 19.1973 13.8187 20.4919 13.7896 20.4912C13.7605 20.4906 12.6242 19.8464 11.2644 19.0598L8.79222 17.6295L8.77379 14.7469C8.75825 12.3212 8.77082 11.8681 8.85311 11.8874C8.90686 11.9001 10.0514 12.5461 11.3965 13.3231ZM19.9874 14.7534L19.9869 17.6318L17.5415 19.0445C16.1965 19.8215 15.0683 20.4678 15.0344 20.4807C14.9999 20.4939 14.9728 19.2291 14.9728 17.6091V14.714L17.4273 13.2959C18.7774 12.516 19.9057 11.8772 19.9349 11.8765C19.964 11.8757 19.9876 13.1704 19.9874 14.7534ZM27.629 25.202L28.1008 25.6842L27.3818 26.4418L26.6628 27.1994L25.1094 25.6906L23.5559 24.1818L24.091 23.6219C24.3852 23.3138 24.7 22.9617 24.7905 22.8393L24.955 22.6168L26.0562 23.6683C26.6618 24.2467 27.3696 24.9369 27.629 25.202ZM30.3128 25.9137C30.8939 26.3941 35.8558 31.2658 35.9431 31.4418C35.9998 31.5559 36.0215 31.7157 35.9948 31.8222C35.9421 32.0321 33.2612 34.8014 33.0439 34.8704C32.9669 34.8948 32.8245 34.8949 32.7276 34.8705C32.5158 34.8174 26.9033 29.3939 26.8116 29.1539C26.7769 29.0629 26.7699 28.9031 26.7961 28.7987C26.8252 28.683 27.4023 28.0433 28.272 27.1628C29.8441 25.571 29.8752 25.552 30.3128 25.9137Z" fill="#FF8655"/>
<path fill-rule="evenodd" clip-rule="evenodd" d="M12.995 1.07519C8.36876 1.59528 4.35967 4.40252 2.35971 8.52209C0.554992 12.2395 0.546445 16.494 2.33619 20.21C4.29059 24.2679 8.0875 27.0335 12.5607 27.6574C14.0108 27.8597 16.0137 27.7764 17.393 27.4565C19.0557 27.0709 20.8236 26.2678 22.1979 25.274L22.6774 24.9272L23.0809 25.3007C23.3027 25.5061 24.0191 26.1993 24.6726 26.8412L25.8609 28.0082L25.7413 28.3884C25.6012 28.8341 25.6277 29.3063 25.815 29.7003C25.9768 30.0407 31.6913 35.6236 32.1017 35.8422C32.4988 36.0537 33.26 36.0524 33.6631 35.8396C33.9959 35.664 36.6741 32.9224 36.9292 32.4963C37.0304 32.3272 37.1094 32.0581 37.1325 31.8035C37.2051 31.0028 37.1811 30.973 33.9123 27.8003C32.313 26.248 30.8798 24.9042 30.7273 24.8142C30.3526 24.5929 29.7901 24.5422 29.3823 24.6929C29.2075 24.7575 29.0264 24.8163 28.98 24.8235C28.9336 24.8307 28.1626 24.1267 27.2667 23.259L25.6377 21.6814L25.8206 21.3872C26.1837 20.803 26.839 19.3822 27.0804 18.656C27.2159 18.2481 27.4147 17.5011 27.5221 16.9961C27.7043 16.1388 27.7172 15.9653 27.7172 14.3826C27.7172 12.8055 27.7039 12.6246 27.5251 11.7863C26.6186 7.53602 24.0155 4.18758 20.1785 2.33581C17.9486 1.25962 15.3736 0.807768 12.995 1.07519ZM16.4561 2.30742C21.4734 3.18682 25.3353 6.94764 26.4259 12.0163C26.5652 12.6633 26.5857 12.9652 26.587 14.3826C26.5882 15.8122 26.569 16.0962 26.4276 16.7489C25.7558 19.8467 24.139 22.4208 21.7451 24.2035C20.2064 25.3494 18.6182 26.0568 16.7213 26.4413C16.0299 26.5815 15.7193 26.6021 14.3371 26.5997C12.9572 26.5973 12.65 26.5758 12.0061 26.4367C10.3324 26.0753 8.55976 25.3105 7.27456 24.3954C6.44848 23.8072 5.11398 22.4959 4.5246 21.6933C3.3979 20.159 2.63314 18.3587 2.28922 16.431C2.13403 15.561 2.11122 13.4566 2.24797 12.6167C2.78289 9.33086 4.45199 6.52319 6.99937 4.62396C8.92558 3.18781 10.8011 2.46253 13.3482 2.16862C13.8708 2.1083 15.8157 2.19518 16.4561 2.30742ZM12.4765 3.68197C10.2546 4.08579 8.31515 5.10505 6.70503 6.71525C5.44448 7.9758 4.61367 9.31482 4.06265 10.9741C3.67684 12.1361 3.59378 12.639 3.55203 14.0647C3.51947 15.1806 3.53508 15.4953 3.65904 16.2191C4.37457 20.3964 7.48329 23.8247 11.5311 24.9003C12.6156 25.1885 13.1842 25.2593 14.4077 25.2586C15.7786 25.2578 16.564 25.1346 17.8288 24.7218C20.3347 23.9038 22.5305 22.0964 23.8666 19.7517C26.1692 15.7109 25.5756 10.4731 22.4298 7.07315C20.8464 5.36188 18.9787 4.29021 16.6327 3.74703C15.6745 3.52516 13.5245 3.49147 12.4765 3.68197ZM15.971 4.77371C18.9252 5.28885 21.4713 7.07633 22.9093 9.64476C24.5122 12.5078 24.5502 15.9893 23.0109 18.9489C22.5397 19.8548 21.9103 20.6793 21.0948 21.4589C19.7417 22.7525 18.1905 23.5617 16.2928 23.964C15.3414 24.1657 13.6157 24.184 12.6771 24.0024C8.45784 23.1859 5.32136 19.911 4.72521 15.6994C4.61855 14.9463 4.67689 13.1469 4.83066 12.4461C5.0141 11.6101 5.34001 10.7143 5.75485 9.90611C7.11648 7.25334 9.77143 5.30036 12.7125 4.78804C13.5089 4.64932 15.2146 4.64176 15.971 4.77371ZM11.0525 8.55345C8.38748 10.0895 7.85384 10.4232 7.74916 10.6182C7.63367 10.8334 7.62576 11.1247 7.6432 14.5047L7.66206 18.1585L7.83865 18.328C8.15142 18.6283 14.1588 22.0465 14.3737 22.0465C14.5882 22.0465 14.7622 21.9547 17.0212 20.6495C20.5517 18.6096 20.9847 18.3493 21.0497 18.2278C21.0912 18.1503 21.118 16.6443 21.118 14.3912V10.6822L20.9591 10.5052C20.8716 10.408 19.481 9.56854 17.8688 8.63984C14.5509 6.72874 14.5317 6.71821 14.3583 6.72005C14.2883 6.72076 12.8008 7.54577 11.0525 8.55345ZM17.0174 9.45327C18.278 10.1831 19.311 10.808 19.3131 10.8419C19.3168 10.904 14.4994 13.7116 14.389 13.7116C14.2757 13.7116 9.39078 10.8645 9.43203 10.8225C9.45478 10.7992 10.5758 10.1415 11.9229 9.36088C14.2329 8.02235 14.3824 7.94684 14.549 8.034C14.6461 8.08479 15.7569 8.72347 17.0174 9.45327ZM11.3965 13.3231L13.8421 14.7358L13.8424 17.6141C13.8425 19.1973 13.8187 20.4919 13.7896 20.4912C13.7605 20.4906 12.6242 19.8464 11.2644 19.0598L8.79222 17.6295L8.77379 14.7469C8.75825 12.3212 8.77082 11.8681 8.85311 11.8874C8.90686 11.9001 10.0514 12.5461 11.3965 13.3231ZM19.9874 14.7534L19.9869 17.6318L17.5415 19.0445C16.1965 19.8215 15.0683 20.4678 15.0344 20.4807C14.9999 20.4939 14.9728 19.2291 14.9728 17.6091V14.714L17.4273 13.2959C18.7774 12.516 19.9057 11.8772 19.9349 11.8765C19.964 11.8757 19.9876 13.1704 19.9874 14.7534ZM27.629 25.202L28.1008 25.6842L27.3818 26.4418L26.6628 27.1994L25.1094 25.6906L23.5559 24.1818L24.091 23.6219C24.3852 23.3138 24.7 22.9617 24.7905 22.8393L24.955 22.6168L26.0562 23.6683C26.6618 24.2467 27.3696 24.9369 27.629 25.202ZM30.3128 25.9137C30.8939 26.3941 35.8558 31.2658 35.9431 31.4418C35.9998 31.5559 36.0215 31.7157 35.9948 31.8222C35.9421 32.0321 33.2612 34.8014 33.0439 34.8704C32.9669 34.8948 32.8245 34.8949 32.7276 34.8705C32.5158 34.8174 26.9033 29.3939 26.8116 29.1539C26.7769 29.0629 26.7699 28.9031 26.7961 28.7987C26.8252 28.683 27.4023 28.0433 28.272 27.1628C29.8441 25.571 29.8752 25.552 30.3128 25.9137Z" stroke="#FF8655" stroke-width="0.6" mask="url(#path-1-outside-1_1267_8419)"/>
</svg>
