<svg width="36" height="37" viewBox="0 0 36 37" fill="none" xmlns="http://www.w3.org/2000/svg">
<mask id="path-1-outside-1_1267_8415" maskUnits="userSpaceOnUse" x="0" y="0" width="36" height="37" fill="black">
<rect fill="white" width="36" height="37"/>
<path fill-rule="evenodd" clip-rule="evenodd" d="M17.3281 1.01944C14.3305 1.3997 11.8511 3.12439 10.5306 5.74786C9.90404 6.99262 9.64055 8.14422 9.64239 9.6299C9.64376 10.7548 9.76963 11.5114 10.1147 12.4687C11.2006 15.481 13.8518 17.6419 17.0229 18.0994L17.6359 18.1878L17.6547 19.3299L17.6734 20.4721H11.0809C6.33844 20.4721 4.42584 20.4939 4.26563 20.5497C3.88448 20.6826 3.85233 20.8599 3.85233 22.8272V24.5711L3.56332 24.649C2.20261 25.0153 1.18926 26.2158 1.01701 27.6655C0.895321 28.6897 1.43852 29.9743 2.26048 30.606L2.53738 30.8188L2.29044 31.0323C1.91373 31.358 1.75086 31.552 1.49284 31.982C1.08638 32.6593 1.01934 33.0016 1.01626 34.4152L1.01352 35.6692L1.20547 35.8346L1.39741 36H4.44287H7.48832L7.68827 35.8001L7.88822 35.6001L7.88767 34.5859C7.8874 34.028 7.856 33.3715 7.81783 33.127C7.71686 32.4794 7.34878 31.777 6.83971 31.2603L6.41272 30.827L6.80407 30.4431C7.24733 30.0083 7.55981 29.5052 7.72877 28.9543C7.87255 28.4854 7.88719 27.533 7.7577 27.0732C7.43552 25.9294 6.60563 25.0617 5.49042 24.7025L5.01521 24.5494V23.0919V21.6343L11.3256 21.6517L17.6359 21.6692L17.6544 23.1143L17.6728 24.5595L17.3553 24.6394C16.3243 24.899 15.4104 25.7268 15.0027 26.7705C14.7931 27.307 14.7416 28.3177 14.8966 28.8511C15.0866 29.5046 15.3333 29.9172 15.8153 30.3881L16.2678 30.83L15.8535 31.2431C14.9984 32.0957 14.7971 32.7 14.7971 34.4139C14.7971 35.0544 14.8163 35.6282 14.8396 35.6891C14.9531 35.9851 15.1153 36 18.2174 36C21.3194 36 21.4816 35.9851 21.5951 35.6891C21.6185 35.6282 21.6376 35.0492 21.6376 34.4025C21.6376 32.6827 21.4407 32.0937 20.5824 31.2459L20.1669 30.8354L20.5822 30.425C21.3038 29.7119 21.6376 28.9249 21.6376 27.937C21.6376 26.4036 20.5576 25.0116 19.0789 24.6392L18.7619 24.5595L18.7803 23.1143L18.7988 21.6692L25.1092 21.6517L31.4195 21.6343V23.0919V24.5494L30.9519 24.7001C28.4843 25.4949 27.7595 28.5927 29.6123 30.4262L30.0282 30.8378L29.6375 31.2211C29.198 31.6521 28.926 32.0781 28.7302 32.6415C28.6235 32.949 28.5907 33.2763 28.5637 34.3041L28.5302 35.5838L28.7383 35.7919L28.9464 36H31.9919H35.0373L35.2293 35.8346L35.4212 35.6692L35.4185 34.4152C35.4163 33.4106 35.3912 33.0796 35.2925 32.7508C35.127 32.1994 34.767 31.622 34.3114 31.1772L33.9355 30.8102L34.1948 30.5834C34.5859 30.2412 34.7587 30.0438 34.948 29.7232C36.0907 27.7868 35.0429 25.2336 32.8646 24.6471L32.5824 24.5711V22.7918C32.5824 20.817 32.5578 20.6852 32.1638 20.5479C32.0105 20.4945 30.0023 20.4721 25.3538 20.4721H18.7613L18.7801 19.3299L18.7988 18.1878L19.4144 18.0996C23.0987 17.5716 26.0615 14.6995 26.7052 11.0322C26.8224 10.3647 26.8237 8.81137 26.7076 8.1592C26.0766 4.61425 23.3702 1.84071 19.8591 1.14085C19.3434 1.03804 17.7746 0.962796 17.3281 1.01944ZM20.001 2.36585C21.3844 2.72532 22.5084 3.36066 23.4804 4.3327C24.4473 5.2996 25.0757 6.4079 25.4531 7.81211C25.6086 8.39068 25.629 8.59856 25.629 9.5957C25.629 10.5928 25.6086 10.8007 25.4531 11.3793C25.0757 12.7835 24.4473 13.8918 23.4804 14.8587C22.5135 15.8257 21.4052 16.454 20.001 16.8314C19.4224 16.9869 19.2145 17.0074 18.2174 17.0074C17.2202 17.0074 17.0123 16.9869 16.4338 16.8314C15.0296 16.454 13.9213 15.8257 12.9544 14.8587C11.9874 13.8918 11.359 12.7835 10.9816 11.3793C10.8261 10.8007 10.8057 10.5928 10.8057 9.5957C10.8057 8.59856 10.8261 8.39068 10.9816 7.81211C11.3585 6.40968 11.9874 5.2996 12.9506 4.33639C14.0624 3.22461 15.3669 2.54883 17.0021 2.23745C17.7653 2.09216 19.1809 2.15277 20.001 2.36585ZM17.1913 3.45814C16.59 3.66383 16.1991 3.90523 15.7764 4.33167C14.8736 5.24241 14.5632 6.58301 14.9726 7.8026C15.1716 8.39547 15.6188 9.06762 16.0062 9.35601C16.1501 9.46313 16.2802 9.56047 16.2954 9.57231C16.3105 9.58414 16.2336 9.66349 16.1244 9.74866C15.7732 10.0225 15.4204 10.441 15.2153 10.827C14.8538 11.5073 14.7971 11.827 14.7971 13.1874V14.4286L14.9737 14.5945L15.1502 14.7603H18.2174H21.2846L21.4611 14.5945L21.6376 14.4286V13.1874C21.6376 11.8864 21.581 11.5292 21.2799 10.9296C21.0721 10.5158 20.6767 10.0176 20.3848 9.80194L20.124 9.60911L20.4101 9.38009C20.5674 9.25416 20.8252 8.96638 20.983 8.74064C21.4654 8.0505 21.6367 7.51989 21.6372 6.71278C21.6384 5.18701 20.6186 3.85434 19.1113 3.41156C18.567 3.25169 17.7356 3.27187 17.1913 3.45814ZM19.2092 4.66768C20.6158 5.35617 20.929 7.22308 19.8234 8.32871C18.3862 9.76596 15.96 8.76116 15.96 6.72872C15.96 5.95601 16.2615 5.34146 16.8536 4.90675C17.3425 4.5479 17.6196 4.46615 18.2858 4.48435C18.7418 4.4968 18.941 4.53641 19.2092 4.66768ZM17.6701 11.1735C17.6701 11.6651 17.6997 12.1226 17.7359 12.1902C17.8474 12.3985 18.1819 12.5 18.4252 12.3992C18.5395 12.3519 18.6626 12.2578 18.6988 12.1902C18.735 12.1226 18.7646 11.663 18.7646 11.1689V10.2705L18.9185 10.3164C19.5705 10.5109 20.1 11.0048 20.3457 11.6479C20.4584 11.9431 20.4916 12.1934 20.4991 12.8107L20.5089 13.5974H18.2174H15.9258L15.9372 12.8107C15.9513 11.8258 16.0959 11.3872 16.5637 10.9093C16.8568 10.6099 17.376 10.2914 17.5846 10.2832C17.6488 10.2806 17.6701 10.5023 17.6701 11.1735ZM5.45759 25.9383C5.93724 26.1744 6.25847 26.4998 6.52286 27.0174C6.75913 27.4798 6.76617 28.4258 6.53688 28.8911C6.28624 29.3997 5.93882 29.7497 5.44131 29.9946C5.03922 30.1926 4.91746 30.2198 4.43521 30.2197C3.98476 30.2197 3.81737 30.1872 3.50018 30.0386C3.00705 29.8074 2.58718 29.3869 2.35946 28.896C2.12086 28.3816 2.10732 27.5805 2.32888 27.0914C2.89904 25.8328 4.23964 25.3387 5.45759 25.9383ZM19.1364 25.867C19.3057 25.9419 19.5951 26.1444 19.7796 26.3169C20.7312 27.207 20.7312 28.7178 19.7796 29.6079C19.277 30.078 18.9176 30.2184 18.2174 30.2184C17.526 30.2184 17.1666 30.0811 16.6772 29.6301C15.7094 28.738 15.7025 27.1933 16.6622 26.3085C16.8295 26.1544 17.0398 25.9889 17.1297 25.9408C17.6714 25.651 18.5729 25.6178 19.1364 25.867ZM32.941 25.8934C33.4256 26.1153 33.8473 26.5374 34.0753 27.0288C34.3304 27.5789 34.3304 28.346 34.0753 28.896C33.3259 30.5115 31.0948 30.7048 30.1154 29.2391C29.5707 28.4241 29.5707 27.5008 30.1154 26.6857C30.7247 25.7738 31.9372 25.4338 32.941 25.8934ZM5.146 31.552C5.7834 31.7237 6.41991 32.3564 6.62239 33.0197C6.68689 33.2312 6.72534 33.6331 6.72534 34.0971V34.8371H4.42549H2.12572L2.15438 33.9992C2.17901 33.2783 2.20787 33.1072 2.36083 32.7748C2.84951 31.7131 3.94987 31.23 5.146 31.552ZM19.175 31.6649C19.6716 31.8885 20.08 32.2988 20.3052 32.8005C20.4592 33.1437 20.4942 33.3375 20.5258 34.0228L20.5632 34.8371H18.2274H15.8916L15.8921 34.3412C15.8932 33.2623 16.1178 32.569 16.6211 32.0911C17.3161 31.431 18.2932 31.2679 19.175 31.6649ZM32.4138 31.4915C33.1816 31.6334 33.7512 32.0738 34.0739 32.7748C34.2268 33.1072 34.2557 33.2783 34.2803 33.9992L34.309 34.8371H32.0092H29.7094V34.0971C29.7094 33.6398 29.7482 33.2281 29.8109 33.0197C30.0238 32.3126 30.6896 31.6964 31.4365 31.5155C31.8987 31.4035 31.9334 31.4027 32.4138 31.4915Z"/>
</mask>
<path fill-rule="evenodd" clip-rule="evenodd" d="M17.3281 1.01944C14.3305 1.3997 11.8511 3.12439 10.5306 5.74786C9.90404 6.99262 9.64055 8.14422 9.64239 9.6299C9.64376 10.7548 9.76963 11.5114 10.1147 12.4687C11.2006 15.481 13.8518 17.6419 17.0229 18.0994L17.6359 18.1878L17.6547 19.3299L17.6734 20.4721H11.0809C6.33844 20.4721 4.42584 20.4939 4.26563 20.5497C3.88448 20.6826 3.85233 20.8599 3.85233 22.8272V24.5711L3.56332 24.649C2.20261 25.0153 1.18926 26.2158 1.01701 27.6655C0.895321 28.6897 1.43852 29.9743 2.26048 30.606L2.53738 30.8188L2.29044 31.0323C1.91373 31.358 1.75086 31.552 1.49284 31.982C1.08638 32.6593 1.01934 33.0016 1.01626 34.4152L1.01352 35.6692L1.20547 35.8346L1.39741 36H4.44287H7.48832L7.68827 35.8001L7.88822 35.6001L7.88767 34.5859C7.8874 34.028 7.856 33.3715 7.81783 33.127C7.71686 32.4794 7.34878 31.777 6.83971 31.2603L6.41272 30.827L6.80407 30.4431C7.24733 30.0083 7.55981 29.5052 7.72877 28.9543C7.87255 28.4854 7.88719 27.533 7.7577 27.0732C7.43552 25.9294 6.60563 25.0617 5.49042 24.7025L5.01521 24.5494V23.0919V21.6343L11.3256 21.6517L17.6359 21.6692L17.6544 23.1143L17.6728 24.5595L17.3553 24.6394C16.3243 24.899 15.4104 25.7268 15.0027 26.7705C14.7931 27.307 14.7416 28.3177 14.8966 28.8511C15.0866 29.5046 15.3333 29.9172 15.8153 30.3881L16.2678 30.83L15.8535 31.2431C14.9984 32.0957 14.7971 32.7 14.7971 34.4139C14.7971 35.0544 14.8163 35.6282 14.8396 35.6891C14.9531 35.9851 15.1153 36 18.2174 36C21.3194 36 21.4816 35.9851 21.5951 35.6891C21.6185 35.6282 21.6376 35.0492 21.6376 34.4025C21.6376 32.6827 21.4407 32.0937 20.5824 31.2459L20.1669 30.8354L20.5822 30.425C21.3038 29.7119 21.6376 28.9249 21.6376 27.937C21.6376 26.4036 20.5576 25.0116 19.0789 24.6392L18.7619 24.5595L18.7803 23.1143L18.7988 21.6692L25.1092 21.6517L31.4195 21.6343V23.0919V24.5494L30.9519 24.7001C28.4843 25.4949 27.7595 28.5927 29.6123 30.4262L30.0282 30.8378L29.6375 31.2211C29.198 31.6521 28.926 32.0781 28.7302 32.6415C28.6235 32.949 28.5907 33.2763 28.5637 34.3041L28.5302 35.5838L28.7383 35.7919L28.9464 36H31.9919H35.0373L35.2293 35.8346L35.4212 35.6692L35.4185 34.4152C35.4163 33.4106 35.3912 33.0796 35.2925 32.7508C35.127 32.1994 34.767 31.622 34.3114 31.1772L33.9355 30.8102L34.1948 30.5834C34.5859 30.2412 34.7587 30.0438 34.948 29.7232C36.0907 27.7868 35.0429 25.2336 32.8646 24.6471L32.5824 24.5711V22.7918C32.5824 20.817 32.5578 20.6852 32.1638 20.5479C32.0105 20.4945 30.0023 20.4721 25.3538 20.4721H18.7613L18.7801 19.3299L18.7988 18.1878L19.4144 18.0996C23.0987 17.5716 26.0615 14.6995 26.7052 11.0322C26.8224 10.3647 26.8237 8.81137 26.7076 8.1592C26.0766 4.61425 23.3702 1.84071 19.8591 1.14085C19.3434 1.03804 17.7746 0.962796 17.3281 1.01944ZM20.001 2.36585C21.3844 2.72532 22.5084 3.36066 23.4804 4.3327C24.4473 5.2996 25.0757 6.4079 25.4531 7.81211C25.6086 8.39068 25.629 8.59856 25.629 9.5957C25.629 10.5928 25.6086 10.8007 25.4531 11.3793C25.0757 12.7835 24.4473 13.8918 23.4804 14.8587C22.5135 15.8257 21.4052 16.454 20.001 16.8314C19.4224 16.9869 19.2145 17.0074 18.2174 17.0074C17.2202 17.0074 17.0123 16.9869 16.4338 16.8314C15.0296 16.454 13.9213 15.8257 12.9544 14.8587C11.9874 13.8918 11.359 12.7835 10.9816 11.3793C10.8261 10.8007 10.8057 10.5928 10.8057 9.5957C10.8057 8.59856 10.8261 8.39068 10.9816 7.81211C11.3585 6.40968 11.9874 5.2996 12.9506 4.33639C14.0624 3.22461 15.3669 2.54883 17.0021 2.23745C17.7653 2.09216 19.1809 2.15277 20.001 2.36585ZM17.1913 3.45814C16.59 3.66383 16.1991 3.90523 15.7764 4.33167C14.8736 5.24241 14.5632 6.58301 14.9726 7.8026C15.1716 8.39547 15.6188 9.06762 16.0062 9.35601C16.1501 9.46313 16.2802 9.56047 16.2954 9.57231C16.3105 9.58414 16.2336 9.66349 16.1244 9.74866C15.7732 10.0225 15.4204 10.441 15.2153 10.827C14.8538 11.5073 14.7971 11.827 14.7971 13.1874V14.4286L14.9737 14.5945L15.1502 14.7603H18.2174H21.2846L21.4611 14.5945L21.6376 14.4286V13.1874C21.6376 11.8864 21.581 11.5292 21.2799 10.9296C21.0721 10.5158 20.6767 10.0176 20.3848 9.80194L20.124 9.60911L20.4101 9.38009C20.5674 9.25416 20.8252 8.96638 20.983 8.74064C21.4654 8.0505 21.6367 7.51989 21.6372 6.71278C21.6384 5.18701 20.6186 3.85434 19.1113 3.41156C18.567 3.25169 17.7356 3.27187 17.1913 3.45814ZM19.2092 4.66768C20.6158 5.35617 20.929 7.22308 19.8234 8.32871C18.3862 9.76596 15.96 8.76116 15.96 6.72872C15.96 5.95601 16.2615 5.34146 16.8536 4.90675C17.3425 4.5479 17.6196 4.46615 18.2858 4.48435C18.7418 4.4968 18.941 4.53641 19.2092 4.66768ZM17.6701 11.1735C17.6701 11.6651 17.6997 12.1226 17.7359 12.1902C17.8474 12.3985 18.1819 12.5 18.4252 12.3992C18.5395 12.3519 18.6626 12.2578 18.6988 12.1902C18.735 12.1226 18.7646 11.663 18.7646 11.1689V10.2705L18.9185 10.3164C19.5705 10.5109 20.1 11.0048 20.3457 11.6479C20.4584 11.9431 20.4916 12.1934 20.4991 12.8107L20.5089 13.5974H18.2174H15.9258L15.9372 12.8107C15.9513 11.8258 16.0959 11.3872 16.5637 10.9093C16.8568 10.6099 17.376 10.2914 17.5846 10.2832C17.6488 10.2806 17.6701 10.5023 17.6701 11.1735ZM5.45759 25.9383C5.93724 26.1744 6.25847 26.4998 6.52286 27.0174C6.75913 27.4798 6.76617 28.4258 6.53688 28.8911C6.28624 29.3997 5.93882 29.7497 5.44131 29.9946C5.03922 30.1926 4.91746 30.2198 4.43521 30.2197C3.98476 30.2197 3.81737 30.1872 3.50018 30.0386C3.00705 29.8074 2.58718 29.3869 2.35946 28.896C2.12086 28.3816 2.10732 27.5805 2.32888 27.0914C2.89904 25.8328 4.23964 25.3387 5.45759 25.9383ZM19.1364 25.867C19.3057 25.9419 19.5951 26.1444 19.7796 26.3169C20.7312 27.207 20.7312 28.7178 19.7796 29.6079C19.277 30.078 18.9176 30.2184 18.2174 30.2184C17.526 30.2184 17.1666 30.0811 16.6772 29.6301C15.7094 28.738 15.7025 27.1933 16.6622 26.3085C16.8295 26.1544 17.0398 25.9889 17.1297 25.9408C17.6714 25.651 18.5729 25.6178 19.1364 25.867ZM32.941 25.8934C33.4256 26.1153 33.8473 26.5374 34.0753 27.0288C34.3304 27.5789 34.3304 28.346 34.0753 28.896C33.3259 30.5115 31.0948 30.7048 30.1154 29.2391C29.5707 28.4241 29.5707 27.5008 30.1154 26.6857C30.7247 25.7738 31.9372 25.4338 32.941 25.8934ZM5.146 31.552C5.7834 31.7237 6.41991 32.3564 6.62239 33.0197C6.68689 33.2312 6.72534 33.6331 6.72534 34.0971V34.8371H4.42549H2.12572L2.15438 33.9992C2.17901 33.2783 2.20787 33.1072 2.36083 32.7748C2.84951 31.7131 3.94987 31.23 5.146 31.552ZM19.175 31.6649C19.6716 31.8885 20.08 32.2988 20.3052 32.8005C20.4592 33.1437 20.4942 33.3375 20.5258 34.0228L20.5632 34.8371H18.2274H15.8916L15.8921 34.3412C15.8932 33.2623 16.1178 32.569 16.6211 32.0911C17.3161 31.431 18.2932 31.2679 19.175 31.6649ZM32.4138 31.4915C33.1816 31.6334 33.7512 32.0738 34.0739 32.7748C34.2268 33.1072 34.2557 33.2783 34.2803 33.9992L34.309 34.8371H32.0092H29.7094V34.0971C29.7094 33.6398 29.7482 33.2281 29.8109 33.0197C30.0238 32.3126 30.6896 31.6964 31.4365 31.5155C31.8987 31.4035 31.9334 31.4027 32.4138 31.4915Z" fill="#FF8655"/>
<path fill-rule="evenodd" clip-rule="evenodd" d="M17.3281 1.01944C14.3305 1.3997 11.8511 3.12439 10.5306 5.74786C9.90404 6.99262 9.64055 8.14422 9.64239 9.6299C9.64376 10.7548 9.76963 11.5114 10.1147 12.4687C11.2006 15.481 13.8518 17.6419 17.0229 18.0994L17.6359 18.1878L17.6547 19.3299L17.6734 20.4721H11.0809C6.33844 20.4721 4.42584 20.4939 4.26563 20.5497C3.88448 20.6826 3.85233 20.8599 3.85233 22.8272V24.5711L3.56332 24.649C2.20261 25.0153 1.18926 26.2158 1.01701 27.6655C0.895321 28.6897 1.43852 29.9743 2.26048 30.606L2.53738 30.8188L2.29044 31.0323C1.91373 31.358 1.75086 31.552 1.49284 31.982C1.08638 32.6593 1.01934 33.0016 1.01626 34.4152L1.01352 35.6692L1.20547 35.8346L1.39741 36H4.44287H7.48832L7.68827 35.8001L7.88822 35.6001L7.88767 34.5859C7.8874 34.028 7.856 33.3715 7.81783 33.127C7.71686 32.4794 7.34878 31.777 6.83971 31.2603L6.41272 30.827L6.80407 30.4431C7.24733 30.0083 7.55981 29.5052 7.72877 28.9543C7.87255 28.4854 7.88719 27.533 7.7577 27.0732C7.43552 25.9294 6.60563 25.0617 5.49042 24.7025L5.01521 24.5494V23.0919V21.6343L11.3256 21.6517L17.6359 21.6692L17.6544 23.1143L17.6728 24.5595L17.3553 24.6394C16.3243 24.899 15.4104 25.7268 15.0027 26.7705C14.7931 27.307 14.7416 28.3177 14.8966 28.8511C15.0866 29.5046 15.3333 29.9172 15.8153 30.3881L16.2678 30.83L15.8535 31.2431C14.9984 32.0957 14.7971 32.7 14.7971 34.4139C14.7971 35.0544 14.8163 35.6282 14.8396 35.6891C14.9531 35.9851 15.1153 36 18.2174 36C21.3194 36 21.4816 35.9851 21.5951 35.6891C21.6185 35.6282 21.6376 35.0492 21.6376 34.4025C21.6376 32.6827 21.4407 32.0937 20.5824 31.2459L20.1669 30.8354L20.5822 30.425C21.3038 29.7119 21.6376 28.9249 21.6376 27.937C21.6376 26.4036 20.5576 25.0116 19.0789 24.6392L18.7619 24.5595L18.7803 23.1143L18.7988 21.6692L25.1092 21.6517L31.4195 21.6343V23.0919V24.5494L30.9519 24.7001C28.4843 25.4949 27.7595 28.5927 29.6123 30.4262L30.0282 30.8378L29.6375 31.2211C29.198 31.6521 28.926 32.0781 28.7302 32.6415C28.6235 32.949 28.5907 33.2763 28.5637 34.3041L28.5302 35.5838L28.7383 35.7919L28.9464 36H31.9919H35.0373L35.2293 35.8346L35.4212 35.6692L35.4185 34.4152C35.4163 33.4106 35.3912 33.0796 35.2925 32.7508C35.127 32.1994 34.767 31.622 34.3114 31.1772L33.9355 30.8102L34.1948 30.5834C34.5859 30.2412 34.7587 30.0438 34.948 29.7232C36.0907 27.7868 35.0429 25.2336 32.8646 24.6471L32.5824 24.5711V22.7918C32.5824 20.817 32.5578 20.6852 32.1638 20.5479C32.0105 20.4945 30.0023 20.4721 25.3538 20.4721H18.7613L18.7801 19.3299L18.7988 18.1878L19.4144 18.0996C23.0987 17.5716 26.0615 14.6995 26.7052 11.0322C26.8224 10.3647 26.8237 8.81137 26.7076 8.1592C26.0766 4.61425 23.3702 1.84071 19.8591 1.14085C19.3434 1.03804 17.7746 0.962796 17.3281 1.01944ZM20.001 2.36585C21.3844 2.72532 22.5084 3.36066 23.4804 4.3327C24.4473 5.2996 25.0757 6.4079 25.4531 7.81211C25.6086 8.39068 25.629 8.59856 25.629 9.5957C25.629 10.5928 25.6086 10.8007 25.4531 11.3793C25.0757 12.7835 24.4473 13.8918 23.4804 14.8587C22.5135 15.8257 21.4052 16.454 20.001 16.8314C19.4224 16.9869 19.2145 17.0074 18.2174 17.0074C17.2202 17.0074 17.0123 16.9869 16.4338 16.8314C15.0296 16.454 13.9213 15.8257 12.9544 14.8587C11.9874 13.8918 11.359 12.7835 10.9816 11.3793C10.8261 10.8007 10.8057 10.5928 10.8057 9.5957C10.8057 8.59856 10.8261 8.39068 10.9816 7.81211C11.3585 6.40968 11.9874 5.2996 12.9506 4.33639C14.0624 3.22461 15.3669 2.54883 17.0021 2.23745C17.7653 2.09216 19.1809 2.15277 20.001 2.36585ZM17.1913 3.45814C16.59 3.66383 16.1991 3.90523 15.7764 4.33167C14.8736 5.24241 14.5632 6.58301 14.9726 7.8026C15.1716 8.39547 15.6188 9.06762 16.0062 9.35601C16.1501 9.46313 16.2802 9.56047 16.2954 9.57231C16.3105 9.58414 16.2336 9.66349 16.1244 9.74866C15.7732 10.0225 15.4204 10.441 15.2153 10.827C14.8538 11.5073 14.7971 11.827 14.7971 13.1874V14.4286L14.9737 14.5945L15.1502 14.7603H18.2174H21.2846L21.4611 14.5945L21.6376 14.4286V13.1874C21.6376 11.8864 21.581 11.5292 21.2799 10.9296C21.0721 10.5158 20.6767 10.0176 20.3848 9.80194L20.124 9.60911L20.4101 9.38009C20.5674 9.25416 20.8252 8.96638 20.983 8.74064C21.4654 8.0505 21.6367 7.51989 21.6372 6.71278C21.6384 5.18701 20.6186 3.85434 19.1113 3.41156C18.567 3.25169 17.7356 3.27187 17.1913 3.45814ZM19.2092 4.66768C20.6158 5.35617 20.929 7.22308 19.8234 8.32871C18.3862 9.76596 15.96 8.76116 15.96 6.72872C15.96 5.95601 16.2615 5.34146 16.8536 4.90675C17.3425 4.5479 17.6196 4.46615 18.2858 4.48435C18.7418 4.4968 18.941 4.53641 19.2092 4.66768ZM17.6701 11.1735C17.6701 11.6651 17.6997 12.1226 17.7359 12.1902C17.8474 12.3985 18.1819 12.5 18.4252 12.3992C18.5395 12.3519 18.6626 12.2578 18.6988 12.1902C18.735 12.1226 18.7646 11.663 18.7646 11.1689V10.2705L18.9185 10.3164C19.5705 10.5109 20.1 11.0048 20.3457 11.6479C20.4584 11.9431 20.4916 12.1934 20.4991 12.8107L20.5089 13.5974H18.2174H15.9258L15.9372 12.8107C15.9513 11.8258 16.0959 11.3872 16.5637 10.9093C16.8568 10.6099 17.376 10.2914 17.5846 10.2832C17.6488 10.2806 17.6701 10.5023 17.6701 11.1735ZM5.45759 25.9383C5.93724 26.1744 6.25847 26.4998 6.52286 27.0174C6.75913 27.4798 6.76617 28.4258 6.53688 28.8911C6.28624 29.3997 5.93882 29.7497 5.44131 29.9946C5.03922 30.1926 4.91746 30.2198 4.43521 30.2197C3.98476 30.2197 3.81737 30.1872 3.50018 30.0386C3.00705 29.8074 2.58718 29.3869 2.35946 28.896C2.12086 28.3816 2.10732 27.5805 2.32888 27.0914C2.89904 25.8328 4.23964 25.3387 5.45759 25.9383ZM19.1364 25.867C19.3057 25.9419 19.5951 26.1444 19.7796 26.3169C20.7312 27.207 20.7312 28.7178 19.7796 29.6079C19.277 30.078 18.9176 30.2184 18.2174 30.2184C17.526 30.2184 17.1666 30.0811 16.6772 29.6301C15.7094 28.738 15.7025 27.1933 16.6622 26.3085C16.8295 26.1544 17.0398 25.9889 17.1297 25.9408C17.6714 25.651 18.5729 25.6178 19.1364 25.867ZM32.941 25.8934C33.4256 26.1153 33.8473 26.5374 34.0753 27.0288C34.3304 27.5789 34.3304 28.346 34.0753 28.896C33.3259 30.5115 31.0948 30.7048 30.1154 29.2391C29.5707 28.4241 29.5707 27.5008 30.1154 26.6857C30.7247 25.7738 31.9372 25.4338 32.941 25.8934ZM5.146 31.552C5.7834 31.7237 6.41991 32.3564 6.62239 33.0197C6.68689 33.2312 6.72534 33.6331 6.72534 34.0971V34.8371H4.42549H2.12572L2.15438 33.9992C2.17901 33.2783 2.20787 33.1072 2.36083 32.7748C2.84951 31.7131 3.94987 31.23 5.146 31.552ZM19.175 31.6649C19.6716 31.8885 20.08 32.2988 20.3052 32.8005C20.4592 33.1437 20.4942 33.3375 20.5258 34.0228L20.5632 34.8371H18.2274H15.8916L15.8921 34.3412C15.8932 33.2623 16.1178 32.569 16.6211 32.0911C17.3161 31.431 18.2932 31.2679 19.175 31.6649ZM32.4138 31.4915C33.1816 31.6334 33.7512 32.0738 34.0739 32.7748C34.2268 33.1072 34.2557 33.2783 34.2803 33.9992L34.309 34.8371H32.0092H29.7094V34.0971C29.7094 33.6398 29.7482 33.2281 29.8109 33.0197C30.0238 32.3126 30.6896 31.6964 31.4365 31.5155C31.8987 31.4035 31.9334 31.4027 32.4138 31.4915Z" stroke="#FF8655" stroke-width="0.6" mask="url(#path-1-outside-1_1267_8415)"/>
</svg>
