<svg width="37" height="37" viewBox="0 0 37 37" fill="none" xmlns="http://www.w3.org/2000/svg">
<mask id="path-1-outside-1_1267_8431" maskUnits="userSpaceOnUse" x="0" y="0" width="37" height="37" fill="black">
<rect fill="white" width="37" height="37"/>
<path fill-rule="evenodd" clip-rule="evenodd" d="M18.2658 1.05803C18.1863 1.09013 18.054 1.20204 17.9716 1.30662C17.8256 1.49231 17.8226 1.53693 17.8424 3.19314L17.8628 4.88938L18.051 5.07747C18.3138 5.34002 18.7124 5.34002 18.975 5.0774L19.1632 4.88918V3.13975V1.3904L18.9397 1.19068C18.7134 0.988425 18.5283 0.952013 18.2658 1.05803ZM25.9392 3.89674C25.8262 3.94677 25.0794 4.64716 24.2794 5.45316C22.9016 6.8414 22.825 6.93223 22.825 7.17691C22.825 7.55349 23.1214 7.83534 23.5176 7.83534C23.8065 7.83534 23.8269 7.81851 25.2391 6.41513C26.0251 5.63405 26.712 4.91176 26.7657 4.81013C26.9126 4.53163 26.8839 4.30042 26.6749 4.0786C26.445 3.83446 26.2106 3.77655 25.9392 3.89674ZM10.5098 4.12226C10.3118 4.30604 10.2758 4.41 10.2919 4.75147C10.3018 4.96187 12.8901 7.59627 13.2316 7.74363C13.6876 7.94034 14.1326 7.62426 14.1326 7.10375C14.1326 6.86002 14.0559 6.76974 12.6764 5.39026C11.304 4.01782 11.2056 3.93404 10.9664 3.93404C10.7843 3.93404 10.6553 3.98723 10.5098 4.12226ZM18.0678 6.4948C17.852 6.71061 17.7925 6.967 17.8987 7.22339C18.0115 7.49573 18.2144 7.63001 18.513 7.63001C18.8116 7.63001 19.0145 7.49573 19.1273 7.22339C19.3074 6.78884 18.9917 6.32958 18.513 6.32958C18.3083 6.32958 18.1886 6.374 18.0678 6.4948ZM17.9046 9.14837C15.8804 9.3188 13.9916 10.648 13.0847 12.5405C12.9555 12.8101 12.8323 13.0977 12.8109 13.1796C12.7741 13.32 12.7513 13.3106 12.4127 13.0144C11.6275 12.3275 10.7949 12.0107 9.64283 11.9605C8.5517 11.9128 8.03447 12.0062 7.22744 12.3964C6.05041 12.9656 5.19274 14.0592 4.92684 15.3299C4.78188 16.023 4.78311 19.4012 4.92862 20.0995C5.13539 21.0918 5.74611 22.0587 6.52384 22.6253L6.93827 22.9272L6.9421 23.3229C6.9447 23.5826 6.91657 23.7277 6.86045 23.7451C6.81343 23.7596 6.1897 23.9115 5.47446 24.0828C3.75371 24.4947 3.24449 24.7406 2.42412 25.5555C1.92523 26.051 1.78157 26.2469 1.51567 26.7943C1.06236 27.7273 0.978039 28.2388 1.00432 29.8971L1.02561 31.2403L1.21533 31.43L1.40506 31.6196L4.32056 31.6388L7.236 31.6581L7.1937 31.8698C7.17036 31.9863 7.15133 32.6617 7.15133 33.3707V34.6599L4.96257 34.6797L2.77387 34.6996L2.58572 34.8878C2.32317 35.1505 2.32317 35.5492 2.58579 35.8118L2.77401 36H18.513H34.252L34.4402 35.8118C34.7029 35.5492 34.7029 35.1505 34.4403 34.8878L34.2522 34.6996L32.0635 34.6797L29.8747 34.6599V33.3707C29.8747 32.6617 29.8557 31.9863 29.8323 31.8698L29.79 31.6581L32.7055 31.6388L35.621 31.6196L35.8107 31.43L36.0004 31.2403L36.0217 29.8971C36.048 28.2388 35.9637 27.7273 35.5104 26.7943C35.2445 26.2469 35.1008 26.051 34.6019 25.5555C33.7815 24.7406 33.2723 24.4947 31.5516 24.0828C30.8363 23.9115 30.2127 23.7596 30.1656 23.7451C30.1095 23.7277 30.0813 23.5826 30.0839 23.3229L30.0878 22.9272L30.5022 22.6253C31.2687 22.0669 31.8983 21.0707 32.0986 20.0995C32.2429 19.3991 32.2433 16.0191 32.0992 15.3299C31.8333 14.0592 30.9756 12.9656 29.7986 12.3964C28.9916 12.0062 28.4743 11.9128 27.3832 11.9605C26.2312 12.0107 25.3985 12.3275 24.6134 13.0144C24.2748 13.3106 24.2519 13.32 24.2151 13.1796C24.1937 13.0977 24.0705 12.8101 23.9413 12.5405C23.2995 11.2013 22.078 10.0563 20.7386 9.53837C19.7951 9.17356 18.9639 9.05919 17.9046 9.14837ZM19.5977 10.6175C20.8576 10.8801 22.0448 11.8234 22.6446 13.0386C22.9758 13.7094 23.164 14.4066 23.166 14.9706L23.1672 15.2957H22.8717C22.4772 15.2957 21.952 15.1337 21.6685 14.9245C21.5415 14.8309 21.3187 14.5958 21.1732 14.4023L20.9088 14.0503L21.1893 13.7319C21.3436 13.5568 21.5149 13.3266 21.57 13.2203C21.8189 12.74 21.342 12.1778 20.8009 12.3136C20.704 12.3379 20.3334 12.6506 19.9772 13.0085C18.4707 14.5224 16.6401 15.2954 14.5604 15.2957L13.8588 15.2957L13.86 14.9706C13.8621 14.4078 14.05 13.7099 14.3789 13.0436C15.0751 11.6332 16.4387 10.681 17.9997 10.5153C18.5711 10.4546 18.9246 10.4772 19.5977 10.6175ZM10.3025 13.4085C11.0631 13.6071 11.7866 14.1715 12.1173 14.8241C12.3158 15.2158 12.49 15.8458 12.49 16.1721V16.4037L12.1306 16.3599C11.2485 16.2524 10.9267 16.1537 10.0791 15.7306C9.75063 15.5668 9.41874 15.4326 9.34154 15.4326C9.26433 15.4326 8.93245 15.5668 8.60399 15.7306C7.75638 16.1537 7.43456 16.2524 6.55245 16.3599L6.19312 16.4037V16.1721C6.19312 15.8458 6.36731 15.2158 6.5658 14.8241C6.88947 14.1853 7.61347 13.6123 8.3491 13.4127C8.80412 13.2893 9.83748 13.287 10.3025 13.4085ZM28.6454 13.4085C29.4061 13.6071 30.1295 14.1715 30.4602 14.8241C30.6587 15.2158 30.8329 15.8458 30.8329 16.1721V16.4037L30.4736 16.3599C29.5915 16.2524 29.2697 16.1537 28.422 15.7306C28.0936 15.5668 27.7617 15.4326 27.6845 15.4326C27.6073 15.4326 27.2754 15.5668 26.9469 15.7306C26.0993 16.1537 25.7775 16.2524 24.8954 16.3599L24.5361 16.4037V16.1721C24.5361 15.8458 24.7103 15.2158 24.9088 14.8241C25.2324 14.1853 25.9564 13.6123 26.6921 13.4127C27.1471 13.2893 28.1804 13.287 28.6454 13.4085ZM20.4971 15.7064C21.1196 16.3276 21.922 16.6646 22.7786 16.6646H23.1825L23.1488 18.119C23.1111 19.7446 23.0607 19.9919 22.5795 20.9138C22.3988 21.2597 22.1499 21.585 21.798 21.9348C21.2163 22.5129 20.7409 22.8184 20.0075 23.0855C19.5499 23.2521 19.4176 23.2683 18.513 23.2683C17.6085 23.2683 17.4762 23.2521 17.0185 23.0855C15.587 22.5643 14.5227 21.4557 14.0463 19.9898C13.9349 19.6471 13.905 19.3179 13.8775 18.1286L13.8438 16.6837L14.8609 16.6469C15.9265 16.6083 16.5334 16.5057 17.4068 16.2165C18.0403 16.0067 19.0376 15.5228 19.5055 15.1982L19.8477 14.9608L19.9838 15.1454C20.0587 15.2469 20.2897 15.4993 20.4971 15.7064ZM9.73735 17.1015C10.3765 17.4245 11.7339 17.7597 12.4026 17.7597C12.5124 17.7597 12.525 19.1988 12.4201 19.752C12.2093 20.8636 11.3794 21.7613 10.3025 22.0425C9.81681 22.1693 8.88413 22.1672 8.38593 22.0381C7.29705 21.7559 6.47518 20.871 6.263 19.752C6.15808 19.1988 6.17067 17.7597 6.28045 17.7597C6.94436 17.7597 8.4441 17.3828 8.99932 17.0763C9.30882 16.9055 9.35249 16.907 9.73735 17.1015ZM28.0803 17.1015C28.7195 17.4245 30.0769 17.7597 30.7456 17.7597C30.8554 17.7597 30.868 19.1988 30.763 19.752C30.5528 20.861 29.7205 21.7582 28.6432 22.0373C28.1422 22.1671 27.2103 22.1696 26.7235 22.0425C25.6865 21.7717 24.9203 20.9853 24.6382 19.9025C24.5049 19.3908 24.4936 17.7597 24.6234 17.7597C25.2873 17.7597 26.7871 17.3828 27.3423 17.0763C27.6518 16.9055 27.6954 16.907 28.0803 17.1015ZM14.1467 22.7945C14.3801 23.044 14.765 23.3865 15.0021 23.5557L15.433 23.8633V24.3363C15.433 24.5965 15.4211 24.8094 15.4065 24.8094C15.3919 24.8094 15.1758 24.7139 14.9262 24.5971C14.6767 24.4803 13.9725 24.263 13.3615 24.1141C12.7504 23.9652 12.1349 23.8132 11.9937 23.7762L11.7371 23.7091V23.301C11.7371 23.0766 11.7619 22.893 11.7922 22.893C11.9165 22.893 12.7688 22.1232 12.9729 21.8266L13.1925 21.5074L13.4574 21.9242C13.6031 22.1534 13.9133 22.545 14.1467 22.7945ZM24.3084 22.1381C24.4278 22.2736 24.6958 22.5066 24.904 22.6559L25.2824 22.9272L25.2857 23.3181L25.289 23.7091L25.0323 23.7762C24.8912 23.8132 24.2756 23.9652 23.6646 24.1141C23.0535 24.263 22.3494 24.4803 22.0998 24.5971C21.8503 24.7139 21.6341 24.8094 21.6195 24.8094C21.6049 24.8094 21.593 24.5965 21.593 24.3363V23.8633L22.0284 23.5525C22.5594 23.1736 23.2723 22.4154 23.5854 21.8966L23.8174 21.5121L23.9543 21.7019C24.0296 21.8062 24.1889 22.0025 24.3084 22.1381ZM10.3682 23.8428C10.3682 24.3903 9.56042 27.4779 9.37822 27.6268C9.30157 27.6895 9.23292 27.7349 9.22566 27.7277C9.21841 27.7205 9.01048 26.9281 8.76367 25.9668C8.48031 24.8632 8.31488 24.0817 8.31488 23.8468V23.4748H9.34154H10.3682V23.8428ZM28.7112 23.8468C28.7112 24.0817 28.5457 24.8632 28.2624 25.9668C28.0156 26.9281 27.8072 27.7211 27.7993 27.7289C27.7915 27.7368 27.7213 27.6913 27.6432 27.6281C27.4594 27.4791 26.6578 24.3997 26.6578 23.8428V23.4748H27.6845H28.7112V23.8468ZM17.3153 24.5685C17.5514 24.6255 18.0603 24.6677 18.513 24.6677C18.9657 24.6677 19.4746 24.6255 19.7108 24.5685C19.9366 24.514 20.1445 24.4688 20.1728 24.4683C20.201 24.4677 20.2242 24.7983 20.2243 25.203C20.2243 25.9205 20.2036 26.0196 19.3862 29.2069C18.9253 31.0044 18.5325 32.4749 18.5134 32.4745C18.4944 32.4742 18.1004 30.9881 17.638 29.1721C16.8276 25.9899 16.7972 25.8449 16.7995 25.1688C16.8008 24.7829 16.8251 24.4677 16.8533 24.4683C16.8815 24.4688 17.0894 24.514 17.3153 24.5685ZM7.61689 27.0167C7.88868 28.0802 8.11078 28.9785 8.1103 29.013C8.10989 29.0474 7.97868 29.3472 7.81866 29.6791L7.52778 30.2826L4.93567 30.2838L2.34363 30.2849L2.37573 29.2412C2.40386 28.3257 2.42973 28.1405 2.58654 27.7347C2.91172 26.8931 3.45283 26.2872 4.2307 25.8936C4.52439 25.7451 6.53069 25.1798 7.08563 25.0892C7.10602 25.0859 7.34503 25.9533 7.61689 27.0167ZM12.8182 25.3907C13.7603 25.6128 14.2284 25.7464 14.1326 25.7659C14.032 25.7865 11.4727 26.4508 11.3357 26.492C11.1988 26.5331 11.1799 26.5206 11.2131 26.4107C11.2346 26.3394 11.3191 26.0107 11.4008 25.6803C11.5204 25.1972 11.5712 25.0859 11.6603 25.1118C11.7214 25.1295 12.2424 25.2551 12.8182 25.3907ZM25.6528 25.7831C25.7494 26.1681 25.8189 26.4925 25.8073 26.5041C25.7957 26.5157 25.528 26.4508 25.2125 26.36C24.8969 26.2691 24.2691 26.1103 23.8174 26.0073C23.3657 25.9041 22.9713 25.7971 22.941 25.7694C22.9107 25.7417 23.0185 25.6833 23.1805 25.6397C23.5006 25.5533 25.3647 25.0978 25.4345 25.0887C25.458 25.0857 25.5563 25.3982 25.6528 25.7831ZM31.2573 25.4191C32.5048 25.7188 33.0127 25.9353 33.5211 26.3838C33.9433 26.7562 34.217 27.1588 34.4395 27.7347C34.5963 28.1405 34.6222 28.3257 34.6503 29.2412L34.6824 30.2849L32.0904 30.2838L29.4983 30.2826L29.2074 29.6791C29.0474 29.3472 28.9157 29.0474 28.9149 29.013C28.914 28.9785 29.1363 28.0802 29.4089 27.0168C29.8099 25.452 29.9244 25.0892 30.0093 25.1139C30.067 25.1307 30.6286 25.268 31.2573 25.4191ZM15.6998 27.1194C15.7365 27.2606 16.078 28.5927 16.4587 30.0796C16.8394 31.5665 17.1678 32.8447 17.1884 32.92C17.209 32.9953 16.0377 31.8719 14.5856 30.4237C13.1335 28.9755 11.9686 27.7674 11.9968 27.7392C12.0505 27.6855 15.3131 26.8781 15.5159 26.8684C15.5958 26.8645 15.6543 26.9445 15.6998 27.1194ZM23.2505 27.2769C24.2023 27.5047 25.0033 27.7134 25.0307 27.7408C25.0582 27.7681 23.8961 28.9746 22.4485 30.4218L19.8165 33.0532L20.3999 30.7622C21.2868 27.2801 21.4005 26.8627 21.4626 26.8627C21.4942 26.8627 22.2987 27.0491 23.2505 27.2769ZM13.7219 31.5511L16.8356 34.6653H12.6779H8.52021V33.3709C8.52021 31.5798 8.67873 30.8432 9.28302 29.8262C9.49526 29.469 10.4423 28.437 10.5578 28.437C10.5856 28.437 12.0095 29.8383 13.7219 31.5511ZM27.0161 28.9384C27.5472 29.4738 27.8704 29.9595 28.1403 30.6279C28.4212 31.3232 28.5058 31.9583 28.5058 33.3709V34.6653H24.3481H20.1904L23.3041 31.5511C25.0166 29.8383 26.4405 28.437 26.4682 28.437C26.496 28.437 26.7425 28.6625 27.0161 28.9384Z"/>
</mask>
<path fill-rule="evenodd" clip-rule="evenodd" d="M18.2658 1.05803C18.1863 1.09013 18.054 1.20204 17.9716 1.30662C17.8256 1.49231 17.8226 1.53693 17.8424 3.19314L17.8628 4.88938L18.051 5.07747C18.3138 5.34002 18.7124 5.34002 18.975 5.0774L19.1632 4.88918V3.13975V1.3904L18.9397 1.19068C18.7134 0.988425 18.5283 0.952013 18.2658 1.05803ZM25.9392 3.89674C25.8262 3.94677 25.0794 4.64716 24.2794 5.45316C22.9016 6.8414 22.825 6.93223 22.825 7.17691C22.825 7.55349 23.1214 7.83534 23.5176 7.83534C23.8065 7.83534 23.8269 7.81851 25.2391 6.41513C26.0251 5.63405 26.712 4.91176 26.7657 4.81013C26.9126 4.53163 26.8839 4.30042 26.6749 4.0786C26.445 3.83446 26.2106 3.77655 25.9392 3.89674ZM10.5098 4.12226C10.3118 4.30604 10.2758 4.41 10.2919 4.75147C10.3018 4.96187 12.8901 7.59627 13.2316 7.74363C13.6876 7.94034 14.1326 7.62426 14.1326 7.10375C14.1326 6.86002 14.0559 6.76974 12.6764 5.39026C11.304 4.01782 11.2056 3.93404 10.9664 3.93404C10.7843 3.93404 10.6553 3.98723 10.5098 4.12226ZM18.0678 6.4948C17.852 6.71061 17.7925 6.967 17.8987 7.22339C18.0115 7.49573 18.2144 7.63001 18.513 7.63001C18.8116 7.63001 19.0145 7.49573 19.1273 7.22339C19.3074 6.78884 18.9917 6.32958 18.513 6.32958C18.3083 6.32958 18.1886 6.374 18.0678 6.4948ZM17.9046 9.14837C15.8804 9.3188 13.9916 10.648 13.0847 12.5405C12.9555 12.8101 12.8323 13.0977 12.8109 13.1796C12.7741 13.32 12.7513 13.3106 12.4127 13.0144C11.6275 12.3275 10.7949 12.0107 9.64283 11.9605C8.5517 11.9128 8.03447 12.0062 7.22744 12.3964C6.05041 12.9656 5.19274 14.0592 4.92684 15.3299C4.78188 16.023 4.78311 19.4012 4.92862 20.0995C5.13539 21.0918 5.74611 22.0587 6.52384 22.6253L6.93827 22.9272L6.9421 23.3229C6.9447 23.5826 6.91657 23.7277 6.86045 23.7451C6.81343 23.7596 6.1897 23.9115 5.47446 24.0828C3.75371 24.4947 3.24449 24.7406 2.42412 25.5555C1.92523 26.051 1.78157 26.2469 1.51567 26.7943C1.06236 27.7273 0.978039 28.2388 1.00432 29.8971L1.02561 31.2403L1.21533 31.43L1.40506 31.6196L4.32056 31.6388L7.236 31.6581L7.1937 31.8698C7.17036 31.9863 7.15133 32.6617 7.15133 33.3707V34.6599L4.96257 34.6797L2.77387 34.6996L2.58572 34.8878C2.32317 35.1505 2.32317 35.5492 2.58579 35.8118L2.77401 36H18.513H34.252L34.4402 35.8118C34.7029 35.5492 34.7029 35.1505 34.4403 34.8878L34.2522 34.6996L32.0635 34.6797L29.8747 34.6599V33.3707C29.8747 32.6617 29.8557 31.9863 29.8323 31.8698L29.79 31.6581L32.7055 31.6388L35.621 31.6196L35.8107 31.43L36.0004 31.2403L36.0217 29.8971C36.048 28.2388 35.9637 27.7273 35.5104 26.7943C35.2445 26.2469 35.1008 26.051 34.6019 25.5555C33.7815 24.7406 33.2723 24.4947 31.5516 24.0828C30.8363 23.9115 30.2127 23.7596 30.1656 23.7451C30.1095 23.7277 30.0813 23.5826 30.0839 23.3229L30.0878 22.9272L30.5022 22.6253C31.2687 22.0669 31.8983 21.0707 32.0986 20.0995C32.2429 19.3991 32.2433 16.0191 32.0992 15.3299C31.8333 14.0592 30.9756 12.9656 29.7986 12.3964C28.9916 12.0062 28.4743 11.9128 27.3832 11.9605C26.2312 12.0107 25.3985 12.3275 24.6134 13.0144C24.2748 13.3106 24.2519 13.32 24.2151 13.1796C24.1937 13.0977 24.0705 12.8101 23.9413 12.5405C23.2995 11.2013 22.078 10.0563 20.7386 9.53837C19.7951 9.17356 18.9639 9.05919 17.9046 9.14837ZM19.5977 10.6175C20.8576 10.8801 22.0448 11.8234 22.6446 13.0386C22.9758 13.7094 23.164 14.4066 23.166 14.9706L23.1672 15.2957H22.8717C22.4772 15.2957 21.952 15.1337 21.6685 14.9245C21.5415 14.8309 21.3187 14.5958 21.1732 14.4023L20.9088 14.0503L21.1893 13.7319C21.3436 13.5568 21.5149 13.3266 21.57 13.2203C21.8189 12.74 21.342 12.1778 20.8009 12.3136C20.704 12.3379 20.3334 12.6506 19.9772 13.0085C18.4707 14.5224 16.6401 15.2954 14.5604 15.2957L13.8588 15.2957L13.86 14.9706C13.8621 14.4078 14.05 13.7099 14.3789 13.0436C15.0751 11.6332 16.4387 10.681 17.9997 10.5153C18.5711 10.4546 18.9246 10.4772 19.5977 10.6175ZM10.3025 13.4085C11.0631 13.6071 11.7866 14.1715 12.1173 14.8241C12.3158 15.2158 12.49 15.8458 12.49 16.1721V16.4037L12.1306 16.3599C11.2485 16.2524 10.9267 16.1537 10.0791 15.7306C9.75063 15.5668 9.41874 15.4326 9.34154 15.4326C9.26433 15.4326 8.93245 15.5668 8.60399 15.7306C7.75638 16.1537 7.43456 16.2524 6.55245 16.3599L6.19312 16.4037V16.1721C6.19312 15.8458 6.36731 15.2158 6.5658 14.8241C6.88947 14.1853 7.61347 13.6123 8.3491 13.4127C8.80412 13.2893 9.83748 13.287 10.3025 13.4085ZM28.6454 13.4085C29.4061 13.6071 30.1295 14.1715 30.4602 14.8241C30.6587 15.2158 30.8329 15.8458 30.8329 16.1721V16.4037L30.4736 16.3599C29.5915 16.2524 29.2697 16.1537 28.422 15.7306C28.0936 15.5668 27.7617 15.4326 27.6845 15.4326C27.6073 15.4326 27.2754 15.5668 26.9469 15.7306C26.0993 16.1537 25.7775 16.2524 24.8954 16.3599L24.5361 16.4037V16.1721C24.5361 15.8458 24.7103 15.2158 24.9088 14.8241C25.2324 14.1853 25.9564 13.6123 26.6921 13.4127C27.1471 13.2893 28.1804 13.287 28.6454 13.4085ZM20.4971 15.7064C21.1196 16.3276 21.922 16.6646 22.7786 16.6646H23.1825L23.1488 18.119C23.1111 19.7446 23.0607 19.9919 22.5795 20.9138C22.3988 21.2597 22.1499 21.585 21.798 21.9348C21.2163 22.5129 20.7409 22.8184 20.0075 23.0855C19.5499 23.2521 19.4176 23.2683 18.513 23.2683C17.6085 23.2683 17.4762 23.2521 17.0185 23.0855C15.587 22.5643 14.5227 21.4557 14.0463 19.9898C13.9349 19.6471 13.905 19.3179 13.8775 18.1286L13.8438 16.6837L14.8609 16.6469C15.9265 16.6083 16.5334 16.5057 17.4068 16.2165C18.0403 16.0067 19.0376 15.5228 19.5055 15.1982L19.8477 14.9608L19.9838 15.1454C20.0587 15.2469 20.2897 15.4993 20.4971 15.7064ZM9.73735 17.1015C10.3765 17.4245 11.7339 17.7597 12.4026 17.7597C12.5124 17.7597 12.525 19.1988 12.4201 19.752C12.2093 20.8636 11.3794 21.7613 10.3025 22.0425C9.81681 22.1693 8.88413 22.1672 8.38593 22.0381C7.29705 21.7559 6.47518 20.871 6.263 19.752C6.15808 19.1988 6.17067 17.7597 6.28045 17.7597C6.94436 17.7597 8.4441 17.3828 8.99932 17.0763C9.30882 16.9055 9.35249 16.907 9.73735 17.1015ZM28.0803 17.1015C28.7195 17.4245 30.0769 17.7597 30.7456 17.7597C30.8554 17.7597 30.868 19.1988 30.763 19.752C30.5528 20.861 29.7205 21.7582 28.6432 22.0373C28.1422 22.1671 27.2103 22.1696 26.7235 22.0425C25.6865 21.7717 24.9203 20.9853 24.6382 19.9025C24.5049 19.3908 24.4936 17.7597 24.6234 17.7597C25.2873 17.7597 26.7871 17.3828 27.3423 17.0763C27.6518 16.9055 27.6954 16.907 28.0803 17.1015ZM14.1467 22.7945C14.3801 23.044 14.765 23.3865 15.0021 23.5557L15.433 23.8633V24.3363C15.433 24.5965 15.4211 24.8094 15.4065 24.8094C15.3919 24.8094 15.1758 24.7139 14.9262 24.5971C14.6767 24.4803 13.9725 24.263 13.3615 24.1141C12.7504 23.9652 12.1349 23.8132 11.9937 23.7762L11.7371 23.7091V23.301C11.7371 23.0766 11.7619 22.893 11.7922 22.893C11.9165 22.893 12.7688 22.1232 12.9729 21.8266L13.1925 21.5074L13.4574 21.9242C13.6031 22.1534 13.9133 22.545 14.1467 22.7945ZM24.3084 22.1381C24.4278 22.2736 24.6958 22.5066 24.904 22.6559L25.2824 22.9272L25.2857 23.3181L25.289 23.7091L25.0323 23.7762C24.8912 23.8132 24.2756 23.9652 23.6646 24.1141C23.0535 24.263 22.3494 24.4803 22.0998 24.5971C21.8503 24.7139 21.6341 24.8094 21.6195 24.8094C21.6049 24.8094 21.593 24.5965 21.593 24.3363V23.8633L22.0284 23.5525C22.5594 23.1736 23.2723 22.4154 23.5854 21.8966L23.8174 21.5121L23.9543 21.7019C24.0296 21.8062 24.1889 22.0025 24.3084 22.1381ZM10.3682 23.8428C10.3682 24.3903 9.56042 27.4779 9.37822 27.6268C9.30157 27.6895 9.23292 27.7349 9.22566 27.7277C9.21841 27.7205 9.01048 26.9281 8.76367 25.9668C8.48031 24.8632 8.31488 24.0817 8.31488 23.8468V23.4748H9.34154H10.3682V23.8428ZM28.7112 23.8468C28.7112 24.0817 28.5457 24.8632 28.2624 25.9668C28.0156 26.9281 27.8072 27.7211 27.7993 27.7289C27.7915 27.7368 27.7213 27.6913 27.6432 27.6281C27.4594 27.4791 26.6578 24.3997 26.6578 23.8428V23.4748H27.6845H28.7112V23.8468ZM17.3153 24.5685C17.5514 24.6255 18.0603 24.6677 18.513 24.6677C18.9657 24.6677 19.4746 24.6255 19.7108 24.5685C19.9366 24.514 20.1445 24.4688 20.1728 24.4683C20.201 24.4677 20.2242 24.7983 20.2243 25.203C20.2243 25.9205 20.2036 26.0196 19.3862 29.2069C18.9253 31.0044 18.5325 32.4749 18.5134 32.4745C18.4944 32.4742 18.1004 30.9881 17.638 29.1721C16.8276 25.9899 16.7972 25.8449 16.7995 25.1688C16.8008 24.7829 16.8251 24.4677 16.8533 24.4683C16.8815 24.4688 17.0894 24.514 17.3153 24.5685ZM7.61689 27.0167C7.88868 28.0802 8.11078 28.9785 8.1103 29.013C8.10989 29.0474 7.97868 29.3472 7.81866 29.6791L7.52778 30.2826L4.93567 30.2838L2.34363 30.2849L2.37573 29.2412C2.40386 28.3257 2.42973 28.1405 2.58654 27.7347C2.91172 26.8931 3.45283 26.2872 4.2307 25.8936C4.52439 25.7451 6.53069 25.1798 7.08563 25.0892C7.10602 25.0859 7.34503 25.9533 7.61689 27.0167ZM12.8182 25.3907C13.7603 25.6128 14.2284 25.7464 14.1326 25.7659C14.032 25.7865 11.4727 26.4508 11.3357 26.492C11.1988 26.5331 11.1799 26.5206 11.2131 26.4107C11.2346 26.3394 11.3191 26.0107 11.4008 25.6803C11.5204 25.1972 11.5712 25.0859 11.6603 25.1118C11.7214 25.1295 12.2424 25.2551 12.8182 25.3907ZM25.6528 25.7831C25.7494 26.1681 25.8189 26.4925 25.8073 26.5041C25.7957 26.5157 25.528 26.4508 25.2125 26.36C24.8969 26.2691 24.2691 26.1103 23.8174 26.0073C23.3657 25.9041 22.9713 25.7971 22.941 25.7694C22.9107 25.7417 23.0185 25.6833 23.1805 25.6397C23.5006 25.5533 25.3647 25.0978 25.4345 25.0887C25.458 25.0857 25.5563 25.3982 25.6528 25.7831ZM31.2573 25.4191C32.5048 25.7188 33.0127 25.9353 33.5211 26.3838C33.9433 26.7562 34.217 27.1588 34.4395 27.7347C34.5963 28.1405 34.6222 28.3257 34.6503 29.2412L34.6824 30.2849L32.0904 30.2838L29.4983 30.2826L29.2074 29.6791C29.0474 29.3472 28.9157 29.0474 28.9149 29.013C28.914 28.9785 29.1363 28.0802 29.4089 27.0168C29.8099 25.452 29.9244 25.0892 30.0093 25.1139C30.067 25.1307 30.6286 25.268 31.2573 25.4191ZM15.6998 27.1194C15.7365 27.2606 16.078 28.5927 16.4587 30.0796C16.8394 31.5665 17.1678 32.8447 17.1884 32.92C17.209 32.9953 16.0377 31.8719 14.5856 30.4237C13.1335 28.9755 11.9686 27.7674 11.9968 27.7392C12.0505 27.6855 15.3131 26.8781 15.5159 26.8684C15.5958 26.8645 15.6543 26.9445 15.6998 27.1194ZM23.2505 27.2769C24.2023 27.5047 25.0033 27.7134 25.0307 27.7408C25.0582 27.7681 23.8961 28.9746 22.4485 30.4218L19.8165 33.0532L20.3999 30.7622C21.2868 27.2801 21.4005 26.8627 21.4626 26.8627C21.4942 26.8627 22.2987 27.0491 23.2505 27.2769ZM13.7219 31.5511L16.8356 34.6653H12.6779H8.52021V33.3709C8.52021 31.5798 8.67873 30.8432 9.28302 29.8262C9.49526 29.469 10.4423 28.437 10.5578 28.437C10.5856 28.437 12.0095 29.8383 13.7219 31.5511ZM27.0161 28.9384C27.5472 29.4738 27.8704 29.9595 28.1403 30.6279C28.4212 31.3232 28.5058 31.9583 28.5058 33.3709V34.6653H24.3481H20.1904L23.3041 31.5511C25.0166 29.8383 26.4405 28.437 26.4682 28.437C26.496 28.437 26.7425 28.6625 27.0161 28.9384Z" fill="#FF8655"/>
<path fill-rule="evenodd" clip-rule="evenodd" d="M18.2658 1.05803C18.1863 1.09013 18.054 1.20204 17.9716 1.30662C17.8256 1.49231 17.8226 1.53693 17.8424 3.19314L17.8628 4.88938L18.051 5.07747C18.3138 5.34002 18.7124 5.34002 18.975 5.0774L19.1632 4.88918V3.13975V1.3904L18.9397 1.19068C18.7134 0.988425 18.5283 0.952013 18.2658 1.05803ZM25.9392 3.89674C25.8262 3.94677 25.0794 4.64716 24.2794 5.45316C22.9016 6.8414 22.825 6.93223 22.825 7.17691C22.825 7.55349 23.1214 7.83534 23.5176 7.83534C23.8065 7.83534 23.8269 7.81851 25.2391 6.41513C26.0251 5.63405 26.712 4.91176 26.7657 4.81013C26.9126 4.53163 26.8839 4.30042 26.6749 4.0786C26.445 3.83446 26.2106 3.77655 25.9392 3.89674ZM10.5098 4.12226C10.3118 4.30604 10.2758 4.41 10.2919 4.75147C10.3018 4.96187 12.8901 7.59627 13.2316 7.74363C13.6876 7.94034 14.1326 7.62426 14.1326 7.10375C14.1326 6.86002 14.0559 6.76974 12.6764 5.39026C11.304 4.01782 11.2056 3.93404 10.9664 3.93404C10.7843 3.93404 10.6553 3.98723 10.5098 4.12226ZM18.0678 6.4948C17.852 6.71061 17.7925 6.967 17.8987 7.22339C18.0115 7.49573 18.2144 7.63001 18.513 7.63001C18.8116 7.63001 19.0145 7.49573 19.1273 7.22339C19.3074 6.78884 18.9917 6.32958 18.513 6.32958C18.3083 6.32958 18.1886 6.374 18.0678 6.4948ZM17.9046 9.14837C15.8804 9.3188 13.9916 10.648 13.0847 12.5405C12.9555 12.8101 12.8323 13.0977 12.8109 13.1796C12.7741 13.32 12.7513 13.3106 12.4127 13.0144C11.6275 12.3275 10.7949 12.0107 9.64283 11.9605C8.5517 11.9128 8.03447 12.0062 7.22744 12.3964C6.05041 12.9656 5.19274 14.0592 4.92684 15.3299C4.78188 16.023 4.78311 19.4012 4.92862 20.0995C5.13539 21.0918 5.74611 22.0587 6.52384 22.6253L6.93827 22.9272L6.9421 23.3229C6.9447 23.5826 6.91657 23.7277 6.86045 23.7451C6.81343 23.7596 6.1897 23.9115 5.47446 24.0828C3.75371 24.4947 3.24449 24.7406 2.42412 25.5555C1.92523 26.051 1.78157 26.2469 1.51567 26.7943C1.06236 27.7273 0.978039 28.2388 1.00432 29.8971L1.02561 31.2403L1.21533 31.43L1.40506 31.6196L4.32056 31.6388L7.236 31.6581L7.1937 31.8698C7.17036 31.9863 7.15133 32.6617 7.15133 33.3707V34.6599L4.96257 34.6797L2.77387 34.6996L2.58572 34.8878C2.32317 35.1505 2.32317 35.5492 2.58579 35.8118L2.77401 36H18.513H34.252L34.4402 35.8118C34.7029 35.5492 34.7029 35.1505 34.4403 34.8878L34.2522 34.6996L32.0635 34.6797L29.8747 34.6599V33.3707C29.8747 32.6617 29.8557 31.9863 29.8323 31.8698L29.79 31.6581L32.7055 31.6388L35.621 31.6196L35.8107 31.43L36.0004 31.2403L36.0217 29.8971C36.048 28.2388 35.9637 27.7273 35.5104 26.7943C35.2445 26.2469 35.1008 26.051 34.6019 25.5555C33.7815 24.7406 33.2723 24.4947 31.5516 24.0828C30.8363 23.9115 30.2127 23.7596 30.1656 23.7451C30.1095 23.7277 30.0813 23.5826 30.0839 23.3229L30.0878 22.9272L30.5022 22.6253C31.2687 22.0669 31.8983 21.0707 32.0986 20.0995C32.2429 19.3991 32.2433 16.0191 32.0992 15.3299C31.8333 14.0592 30.9756 12.9656 29.7986 12.3964C28.9916 12.0062 28.4743 11.9128 27.3832 11.9605C26.2312 12.0107 25.3985 12.3275 24.6134 13.0144C24.2748 13.3106 24.2519 13.32 24.2151 13.1796C24.1937 13.0977 24.0705 12.8101 23.9413 12.5405C23.2995 11.2013 22.078 10.0563 20.7386 9.53837C19.7951 9.17356 18.9639 9.05919 17.9046 9.14837ZM19.5977 10.6175C20.8576 10.8801 22.0448 11.8234 22.6446 13.0386C22.9758 13.7094 23.164 14.4066 23.166 14.9706L23.1672 15.2957H22.8717C22.4772 15.2957 21.952 15.1337 21.6685 14.9245C21.5415 14.8309 21.3187 14.5958 21.1732 14.4023L20.9088 14.0503L21.1893 13.7319C21.3436 13.5568 21.5149 13.3266 21.57 13.2203C21.8189 12.74 21.342 12.1778 20.8009 12.3136C20.704 12.3379 20.3334 12.6506 19.9772 13.0085C18.4707 14.5224 16.6401 15.2954 14.5604 15.2957L13.8588 15.2957L13.86 14.9706C13.8621 14.4078 14.05 13.7099 14.3789 13.0436C15.0751 11.6332 16.4387 10.681 17.9997 10.5153C18.5711 10.4546 18.9246 10.4772 19.5977 10.6175ZM10.3025 13.4085C11.0631 13.6071 11.7866 14.1715 12.1173 14.8241C12.3158 15.2158 12.49 15.8458 12.49 16.1721V16.4037L12.1306 16.3599C11.2485 16.2524 10.9267 16.1537 10.0791 15.7306C9.75063 15.5668 9.41874 15.4326 9.34154 15.4326C9.26433 15.4326 8.93245 15.5668 8.60399 15.7306C7.75638 16.1537 7.43456 16.2524 6.55245 16.3599L6.19312 16.4037V16.1721C6.19312 15.8458 6.36731 15.2158 6.5658 14.8241C6.88947 14.1853 7.61347 13.6123 8.3491 13.4127C8.80412 13.2893 9.83748 13.287 10.3025 13.4085ZM28.6454 13.4085C29.4061 13.6071 30.1295 14.1715 30.4602 14.8241C30.6587 15.2158 30.8329 15.8458 30.8329 16.1721V16.4037L30.4736 16.3599C29.5915 16.2524 29.2697 16.1537 28.422 15.7306C28.0936 15.5668 27.7617 15.4326 27.6845 15.4326C27.6073 15.4326 27.2754 15.5668 26.9469 15.7306C26.0993 16.1537 25.7775 16.2524 24.8954 16.3599L24.5361 16.4037V16.1721C24.5361 15.8458 24.7103 15.2158 24.9088 14.8241C25.2324 14.1853 25.9564 13.6123 26.6921 13.4127C27.1471 13.2893 28.1804 13.287 28.6454 13.4085ZM20.4971 15.7064C21.1196 16.3276 21.922 16.6646 22.7786 16.6646H23.1825L23.1488 18.119C23.1111 19.7446 23.0607 19.9919 22.5795 20.9138C22.3988 21.2597 22.1499 21.585 21.798 21.9348C21.2163 22.5129 20.7409 22.8184 20.0075 23.0855C19.5499 23.2521 19.4176 23.2683 18.513 23.2683C17.6085 23.2683 17.4762 23.2521 17.0185 23.0855C15.587 22.5643 14.5227 21.4557 14.0463 19.9898C13.9349 19.6471 13.905 19.3179 13.8775 18.1286L13.8438 16.6837L14.8609 16.6469C15.9265 16.6083 16.5334 16.5057 17.4068 16.2165C18.0403 16.0067 19.0376 15.5228 19.5055 15.1982L19.8477 14.9608L19.9838 15.1454C20.0587 15.2469 20.2897 15.4993 20.4971 15.7064ZM9.73735 17.1015C10.3765 17.4245 11.7339 17.7597 12.4026 17.7597C12.5124 17.7597 12.525 19.1988 12.4201 19.752C12.2093 20.8636 11.3794 21.7613 10.3025 22.0425C9.81681 22.1693 8.88413 22.1672 8.38593 22.0381C7.29705 21.7559 6.47518 20.871 6.263 19.752C6.15808 19.1988 6.17067 17.7597 6.28045 17.7597C6.94436 17.7597 8.4441 17.3828 8.99932 17.0763C9.30882 16.9055 9.35249 16.907 9.73735 17.1015ZM28.0803 17.1015C28.7195 17.4245 30.0769 17.7597 30.7456 17.7597C30.8554 17.7597 30.868 19.1988 30.763 19.752C30.5528 20.861 29.7205 21.7582 28.6432 22.0373C28.1422 22.1671 27.2103 22.1696 26.7235 22.0425C25.6865 21.7717 24.9203 20.9853 24.6382 19.9025C24.5049 19.3908 24.4936 17.7597 24.6234 17.7597C25.2873 17.7597 26.7871 17.3828 27.3423 17.0763C27.6518 16.9055 27.6954 16.907 28.0803 17.1015ZM14.1467 22.7945C14.3801 23.044 14.765 23.3865 15.0021 23.5557L15.433 23.8633V24.3363C15.433 24.5965 15.4211 24.8094 15.4065 24.8094C15.3919 24.8094 15.1758 24.7139 14.9262 24.5971C14.6767 24.4803 13.9725 24.263 13.3615 24.1141C12.7504 23.9652 12.1349 23.8132 11.9937 23.7762L11.7371 23.7091V23.301C11.7371 23.0766 11.7619 22.893 11.7922 22.893C11.9165 22.893 12.7688 22.1232 12.9729 21.8266L13.1925 21.5074L13.4574 21.9242C13.6031 22.1534 13.9133 22.545 14.1467 22.7945ZM24.3084 22.1381C24.4278 22.2736 24.6958 22.5066 24.904 22.6559L25.2824 22.9272L25.2857 23.3181L25.289 23.7091L25.0323 23.7762C24.8912 23.8132 24.2756 23.9652 23.6646 24.1141C23.0535 24.263 22.3494 24.4803 22.0998 24.5971C21.8503 24.7139 21.6341 24.8094 21.6195 24.8094C21.6049 24.8094 21.593 24.5965 21.593 24.3363V23.8633L22.0284 23.5525C22.5594 23.1736 23.2723 22.4154 23.5854 21.8966L23.8174 21.5121L23.9543 21.7019C24.0296 21.8062 24.1889 22.0025 24.3084 22.1381ZM10.3682 23.8428C10.3682 24.3903 9.56042 27.4779 9.37822 27.6268C9.30157 27.6895 9.23292 27.7349 9.22566 27.7277C9.21841 27.7205 9.01048 26.9281 8.76367 25.9668C8.48031 24.8632 8.31488 24.0817 8.31488 23.8468V23.4748H9.34154H10.3682V23.8428ZM28.7112 23.8468C28.7112 24.0817 28.5457 24.8632 28.2624 25.9668C28.0156 26.9281 27.8072 27.7211 27.7993 27.7289C27.7915 27.7368 27.7213 27.6913 27.6432 27.6281C27.4594 27.4791 26.6578 24.3997 26.6578 23.8428V23.4748H27.6845H28.7112V23.8468ZM17.3153 24.5685C17.5514 24.6255 18.0603 24.6677 18.513 24.6677C18.9657 24.6677 19.4746 24.6255 19.7108 24.5685C19.9366 24.514 20.1445 24.4688 20.1728 24.4683C20.201 24.4677 20.2242 24.7983 20.2243 25.203C20.2243 25.9205 20.2036 26.0196 19.3862 29.2069C18.9253 31.0044 18.5325 32.4749 18.5134 32.4745C18.4944 32.4742 18.1004 30.9881 17.638 29.1721C16.8276 25.9899 16.7972 25.8449 16.7995 25.1688C16.8008 24.7829 16.8251 24.4677 16.8533 24.4683C16.8815 24.4688 17.0894 24.514 17.3153 24.5685ZM7.61689 27.0167C7.88868 28.0802 8.11078 28.9785 8.1103 29.013C8.10989 29.0474 7.97868 29.3472 7.81866 29.6791L7.52778 30.2826L4.93567 30.2838L2.34363 30.2849L2.37573 29.2412C2.40386 28.3257 2.42973 28.1405 2.58654 27.7347C2.91172 26.8931 3.45283 26.2872 4.2307 25.8936C4.52439 25.7451 6.53069 25.1798 7.08563 25.0892C7.10602 25.0859 7.34503 25.9533 7.61689 27.0167ZM12.8182 25.3907C13.7603 25.6128 14.2284 25.7464 14.1326 25.7659C14.032 25.7865 11.4727 26.4508 11.3357 26.492C11.1988 26.5331 11.1799 26.5206 11.2131 26.4107C11.2346 26.3394 11.3191 26.0107 11.4008 25.6803C11.5204 25.1972 11.5712 25.0859 11.6603 25.1118C11.7214 25.1295 12.2424 25.2551 12.8182 25.3907ZM25.6528 25.7831C25.7494 26.1681 25.8189 26.4925 25.8073 26.5041C25.7957 26.5157 25.528 26.4508 25.2125 26.36C24.8969 26.2691 24.2691 26.1103 23.8174 26.0073C23.3657 25.9041 22.9713 25.7971 22.941 25.7694C22.9107 25.7417 23.0185 25.6833 23.1805 25.6397C23.5006 25.5533 25.3647 25.0978 25.4345 25.0887C25.458 25.0857 25.5563 25.3982 25.6528 25.7831ZM31.2573 25.4191C32.5048 25.7188 33.0127 25.9353 33.5211 26.3838C33.9433 26.7562 34.217 27.1588 34.4395 27.7347C34.5963 28.1405 34.6222 28.3257 34.6503 29.2412L34.6824 30.2849L32.0904 30.2838L29.4983 30.2826L29.2074 29.6791C29.0474 29.3472 28.9157 29.0474 28.9149 29.013C28.914 28.9785 29.1363 28.0802 29.4089 27.0168C29.8099 25.452 29.9244 25.0892 30.0093 25.1139C30.067 25.1307 30.6286 25.268 31.2573 25.4191ZM15.6998 27.1194C15.7365 27.2606 16.078 28.5927 16.4587 30.0796C16.8394 31.5665 17.1678 32.8447 17.1884 32.92C17.209 32.9953 16.0377 31.8719 14.5856 30.4237C13.1335 28.9755 11.9686 27.7674 11.9968 27.7392C12.0505 27.6855 15.3131 26.8781 15.5159 26.8684C15.5958 26.8645 15.6543 26.9445 15.6998 27.1194ZM23.2505 27.2769C24.2023 27.5047 25.0033 27.7134 25.0307 27.7408C25.0582 27.7681 23.8961 28.9746 22.4485 30.4218L19.8165 33.0532L20.3999 30.7622C21.2868 27.2801 21.4005 26.8627 21.4626 26.8627C21.4942 26.8627 22.2987 27.0491 23.2505 27.2769ZM13.7219 31.5511L16.8356 34.6653H12.6779H8.52021V33.3709C8.52021 31.5798 8.67873 30.8432 9.28302 29.8262C9.49526 29.469 10.4423 28.437 10.5578 28.437C10.5856 28.437 12.0095 29.8383 13.7219 31.5511ZM27.0161 28.9384C27.5472 29.4738 27.8704 29.9595 28.1403 30.6279C28.4212 31.3232 28.5058 31.9583 28.5058 33.3709V34.6653H24.3481H20.1904L23.3041 31.5511C25.0166 29.8383 26.4405 28.437 26.4682 28.437C26.496 28.437 26.7425 28.6625 27.0161 28.9384Z" stroke="#FF8655" stroke-width="0.6" mask="url(#path-1-outside-1_1267_8431)"/>
</svg>
