<svg width="37" height="37" viewBox="0 0 37 37" fill="none" xmlns="http://www.w3.org/2000/svg">
<mask id="path-1-outside-1_1267_8427" maskUnits="userSpaceOnUse" x="0" y="0" width="37" height="37" fill="black">
<rect fill="white" width="37" height="37"/>
<path fill-rule="evenodd" clip-rule="evenodd" d="M6.91027 1.07204C6.49156 1.1707 5.9919 1.45299 5.57953 1.82386C5.37028 2.01201 4.98883 2.26777 4.73173 2.39226C3.53586 2.97139 3.05525 4.11631 3.39866 5.56808C3.54828 6.20042 3.54948 6.23324 3.43106 6.48272C3.11467 7.1495 3.24227 7.83357 3.78378 8.37275C4.16319 8.75054 4.50865 8.89966 5.00464 8.89966H5.28785L5.36697 9.43172C5.41051 9.72438 5.50776 10.0847 5.58313 10.2324C5.70967 10.4804 6.16092 10.9449 6.27786 10.9474C6.3056 10.948 6.36961 10.9747 6.42 11.0066C6.49375 11.0534 6.48168 11.1846 6.35846 11.676L6.2051 12.2872L5.63155 12.2884C3.84412 12.2922 2.2704 13.2345 1.50827 14.7573C1.08575 15.6016 1.00268 16.0841 1.0012 17.7037L1 19.0623H3.25519H5.5103L5.54594 19.2917C5.56556 19.4178 5.60085 19.7433 5.62449 20.015C5.72527 21.175 6.17433 22.7534 6.75501 23.9881C6.96476 24.4342 7.03625 24.6542 6.97824 24.6752C6.9313 24.6922 5.72809 24.7145 4.30441 24.7248C1.81534 24.7428 1.70842 24.7491 1.52112 24.889C1.41399 24.969 1.26084 25.1222 1.18081 25.2294C1.03705 25.4219 1.03529 25.4851 1.03529 30.3541C1.03529 35.2231 1.03705 35.2863 1.18081 35.4788C1.26084 35.586 1.41399 35.7392 1.52119 35.8192C1.71449 35.9635 1.76566 35.9647 7.77509 35.9647C13.7845 35.9647 13.8357 35.9635 14.029 35.8192C14.1362 35.7392 14.2893 35.5861 14.3694 35.479C14.508 35.2934 14.5159 35.1792 14.5353 33.0736L14.5558 30.863L15.1464 31.0255C17.0071 31.5374 19.1239 31.6105 21.043 31.229C21.4911 31.1399 22.6872 30.8028 23.0523 30.6627C23.1288 30.6334 23.0892 30.7731 22.917 31.1404C22.5331 31.9598 22.4544 32.5091 22.4544 34.3738V36H29.2295H36.0046V34.3738C36.0046 33.1762 35.9755 32.6043 35.894 32.2037C35.7689 31.5879 35.4542 30.851 35.109 30.3655L34.8754 30.0369L34.873 26.5786C34.8711 23.9977 34.8464 22.986 34.7754 22.591C34.6526 21.9068 34.3143 21.0414 33.965 20.5177C33.4569 19.7561 32.4761 18.8707 31.7671 18.5338L31.5171 18.4149L31.4352 17.4735C31.2814 15.707 30.8844 14.3078 30.0739 12.6754C28.5511 9.60822 25.8258 7.25331 22.5526 6.17622C19.796 5.26913 16.8813 5.31013 14.0919 6.29527C13.3765 6.54793 13.3081 6.56021 13.2269 6.45082C13.1117 6.2957 13.1139 6.25992 13.2793 5.56949C13.4472 4.86954 13.4563 4.36522 13.3123 3.75433C13.0063 2.45592 11.9605 1.41008 10.662 1.10408C10.1534 0.984172 7.38347 0.960459 6.91027 1.07204ZM10.8922 2.38993C11.1502 2.51703 11.4768 2.75007 11.6219 2.91077C12.1713 3.5189 12.4066 4.43481 12.2073 5.18966L12.1154 5.53766L11.6214 5.51946C10.7697 5.48812 9.73231 5.26567 9.25763 5.01267C8.69812 4.71449 8.12979 4.10001 7.91602 3.5623C7.82548 3.33435 7.74693 3.14084 7.74163 3.13216C7.73627 3.12355 7.6225 3.14528 7.48884 3.18057C7.35517 3.21586 7.11247 3.2793 6.94958 3.32151L6.65339 3.39836L6.75289 3.68037C6.80766 3.83557 6.9054 4.0741 6.97012 4.21052C7.03484 4.34694 7.0757 4.46988 7.06095 4.48372C7.04613 4.49762 6.66348 4.73221 6.21054 5.00511C5.47304 5.44952 5.3441 5.50337 4.97662 5.52037L4.56624 5.53936L4.48232 5.26109C4.22028 4.39225 4.59531 3.63401 5.44255 3.31988C5.70508 3.22249 5.96233 3.04909 6.22246 2.79425C6.88621 2.14391 6.9836 2.11956 8.83553 2.14123L10.4253 2.15986L10.8922 2.38993ZM29.2295 2.68916V3.25375H29.7941H30.3587V2.68916V2.12457H29.7941H29.2295V2.68916ZM31.4879 2.68916V3.25375H33.7462H36.0046V2.68916V2.12457H33.7462H31.4879V2.68916ZM29.2295 4.94753V5.51212H29.7941H30.3587V4.94753V4.38294H29.7941H29.2295V4.94753ZM31.4879 4.94753V5.51212H33.7462H36.0046V4.94753V4.38294H33.7462H31.4879V4.94753ZM8.15089 5.65009C8.7267 6.08482 9.77232 6.50015 10.2911 6.50015C10.3777 6.50015 10.4675 6.53092 10.4908 6.56854C10.5306 6.63304 10.2093 9.35549 10.13 9.62544C10.1097 9.69467 10.026 9.81373 9.94403 9.89009C9.80578 10.0189 9.69095 10.0287 8.34398 10.0266C6.83335 10.0243 6.75261 10.0096 6.59206 9.70801C6.47102 9.48055 6.12069 6.43254 6.20588 6.34736C6.26537 6.28786 7.69534 5.39511 7.76048 5.37676C7.77184 5.37358 7.9475 5.49659 8.15089 5.65009ZM5.0551 7.01181C5.08022 7.21563 5.11749 7.46962 5.13788 7.5764C5.17204 7.75467 5.15708 7.77048 4.95453 7.77048C4.66193 7.77048 4.38754 7.49729 4.38754 7.20589C4.38754 6.95549 4.65699 6.6413 4.87175 6.6413C4.98502 6.6413 5.01756 6.707 5.0551 7.01181ZM12.1186 6.81456C12.4697 7.16559 12.2205 7.77048 11.7248 7.77048C11.5223 7.77048 11.5073 7.75467 11.5415 7.5764C11.5619 7.46962 11.5991 7.21563 11.6243 7.01181C11.6618 6.707 11.6943 6.6413 11.8076 6.6413C11.8834 6.6413 12.0233 6.71928 12.1186 6.81456ZM17.9364 12.4107L17.935 18.1801L14.1684 20.3518L10.4019 22.5234L10.0155 22.4781C9.42863 22.4091 9.17696 22.5275 8.47821 23.2011L7.86507 23.7921L7.50895 22.8916C7.05079 21.7332 6.81789 20.751 6.68881 19.4328L6.65254 19.0623H11.1728H15.693L15.6629 17.492C15.629 15.7251 15.5641 15.4059 15.0637 14.5466C14.246 13.1426 12.7335 12.292 11.0478 12.2884L10.4743 12.2872L10.3209 11.676C10.1977 11.1846 10.1856 11.0534 10.2594 11.0066C10.3097 10.9747 10.3738 10.948 10.4015 10.9474C10.5184 10.9449 10.9696 10.4805 11.0961 10.2327C11.2038 10.0214 11.3643 9.27956 11.3729 8.95259C11.3737 8.92351 11.5056 8.89966 11.6661 8.89966C11.8266 8.89966 12.0825 8.86233 12.2349 8.81666C12.5481 8.7228 13.1071 8.26358 13.1773 8.04233C13.2615 7.77711 14.7125 7.19756 15.9874 6.91992C16.5298 6.80178 17.2944 6.689 17.8142 6.65047C17.9309 6.64179 17.9376 6.95909 17.9364 12.4107ZM20.8204 6.89127C21.6963 7.05486 22.8073 7.43871 23.7601 7.90704C27.0952 9.54647 29.5152 12.7645 30.1401 16.3911C30.2161 16.8317 30.291 17.3741 30.3065 17.5965L30.3348 18.0009L29.6234 17.9575C28.4503 17.886 27.2884 18.1661 26.3209 18.7539C25.7056 19.1276 24.9016 19.9162 24.4874 20.5521L24.1351 21.093L22.3597 20.0694C21.3832 19.5064 20.2432 18.851 19.8263 18.6129L19.0685 18.1801L19.0677 12.4248L19.0669 6.66953L19.6491 6.72542C19.9694 6.75612 20.4964 6.83079 20.8204 6.89127ZM29.2295 7.20589V7.77048H29.7941H30.3587V7.20589V6.6413H29.7941H29.2295V7.20589ZM31.4879 7.20589V7.77048H33.7462H36.0046V7.20589V6.6413H33.7462H31.4879V7.20589ZM9.16977 11.7226L9.31155 12.2872H8.33968H7.3678L7.50959 11.7226L7.65137 11.158H8.33968H9.02798L9.16977 11.7226ZM6.72692 14.286L7.16004 15.1556L6.70314 16.5267L6.24617 17.8978L5.31686 17.9175L4.38754 17.9372V16.806V15.6747H3.82295H3.25836V16.8039V17.9331H2.69377H2.12918V17.1716C2.12918 15.8967 2.44775 15.0656 3.20522 14.3643C3.92458 13.6983 4.63032 13.4289 5.67587 13.421L6.29374 13.4164L6.72692 14.286ZM8.83369 13.981C8.57433 14.4967 8.53164 14.5456 8.33968 14.5456C8.14772 14.5456 8.10502 14.4967 7.84566 13.981L7.56181 13.4164H8.33968H9.11754L8.83369 13.981ZM11.9713 13.5244C12.586 13.6846 13.1557 14.018 13.5864 14.4695C14.2838 15.2006 14.5502 15.9475 14.5502 17.1716V17.9331H13.9856H13.421V16.8039V15.6747H12.8564H12.2918V16.806V17.9372L11.3625 17.9175L10.4332 17.8978L9.97621 16.5267L9.51932 15.1556L9.95243 14.286L10.3856 13.4164H10.971C11.293 13.4164 11.7431 13.465 11.9713 13.5244ZM8.87547 16.8216L9.24648 17.9331H8.33939H7.43224L7.78017 16.8921C7.97149 16.3196 8.14376 15.8093 8.16296 15.758C8.18216 15.7068 8.26691 15.675 8.35118 15.6874C8.48181 15.7067 8.55951 15.8748 8.87547 16.8216ZM30.1823 19.1675C31.6878 19.4809 33.0359 20.7093 33.552 22.2381C33.7006 22.6785 33.7077 22.8234 33.7305 25.8622C33.7436 27.6032 33.7287 29.0148 33.6973 28.9991C33.1975 28.7485 32.6521 28.5226 32.3701 28.4493C31.8161 28.3054 31.5137 28.1075 31.336 27.7724L31.1758 27.4705L31.547 27.0779C32.0382 26.5586 32.3114 25.9557 32.4804 25.0183C32.6462 24.099 32.6507 23.7885 32.5053 23.2987C32.3127 22.6505 31.9807 22.244 31.1269 21.6116L30.7307 21.3181L30.8259 20.9136C30.999 20.1778 31.0079 20.1915 30.3587 20.1915C29.86 20.1915 29.7941 20.2064 29.7941 20.3198C29.7941 20.6625 29.5616 21.1873 29.2626 21.52C28.8599 21.9679 28.5111 22.1342 27.7063 22.2624C27.0048 22.374 26.6124 22.5409 26.3264 22.8491C25.8528 23.3597 25.7664 23.8902 25.974 25.0126C26.1486 25.9566 26.4232 26.561 26.9121 27.0779L27.2832 27.4705L27.123 27.7724C26.9453 28.1075 26.6429 28.3054 26.089 28.4493C25.8092 28.522 25.2 28.7744 24.7657 28.9977C24.7366 29.0127 24.7134 27.6964 24.714 26.0726C24.7154 22.7217 24.7408 22.4901 25.2091 21.5595C26.1363 19.7166 28.1551 18.7457 30.1823 19.1675ZM21.1488 20.6762L23.6895 22.1469L23.6668 22.3866C23.6543 22.5184 23.6285 24.1075 23.6094 25.9179L23.5749 29.2096L23.1734 29.3853C20.8792 30.3897 18.1283 30.6171 15.7146 30.0018C15.2877 29.893 14.8524 29.7702 14.7472 29.729L14.5561 29.6541L14.5355 27.539C14.5159 25.5302 14.5076 25.4142 14.3694 25.2292C14.0202 24.7618 13.9602 24.7455 12.4986 24.7215L11.1626 24.6997V24.104C11.1626 23.7765 11.1566 23.4847 11.1494 23.4555C11.132 23.3864 18.3638 19.2072 18.5023 19.2063C18.5605 19.2059 19.7515 19.8674 21.1488 20.6762ZM30.679 22.692C31.2203 23.0995 31.4879 23.5013 31.4879 23.9069C31.4879 24.233 31.2303 25.5882 31.1325 25.7763C30.5183 26.9582 28.9889 27.3165 27.9478 26.5224C27.4704 26.1583 27.2672 25.7614 27.1089 24.8836C26.9335 23.9112 26.9339 23.9032 27.1652 23.657C27.3331 23.4784 27.4523 23.4354 28.0481 23.339C28.8126 23.2152 29.3707 22.9728 29.8294 22.5654C29.9847 22.4274 30.1248 22.3133 30.1407 22.3116C30.1567 22.31 30.3989 22.4812 30.679 22.692ZM9.94876 23.6637C10.007 23.7219 10.0334 24.0746 10.0334 24.7929V25.8374H11.7272H13.421V30.3541V34.8708H7.77509H2.12918V30.3541V25.8374H4.79419H7.45913L8.58668 24.7082C9.20682 24.0871 9.7479 23.579 9.78912 23.579C9.83034 23.579 9.90218 23.6171 9.94876 23.6637ZM8.38435 29.7646L6.06473 32.346L5.45412 31.7382C5.11826 31.404 4.81113 31.1304 4.77168 31.1304C4.68028 31.1304 4.03467 31.7825 4.03467 31.8748C4.03467 31.9128 4.4951 32.4034 5.05778 32.9651L6.08089 33.9864L6.28965 33.7758C6.4044 33.66 7.64297 32.2949 9.04189 30.7423L11.5854 27.9193L11.1799 27.5505C10.9569 27.3477 10.7586 27.182 10.7392 27.1824C10.7198 27.1829 9.66011 28.3448 8.38435 29.7646ZM29.2295 28.0604C29.4818 28.0604 29.8009 28.0364 29.9386 28.007C30.1792 27.9556 30.1924 27.9635 30.2812 28.2091C30.332 28.3496 30.5291 28.6258 30.7191 28.8229C30.909 29.02 31.0644 29.1901 31.0644 29.2008C31.0644 29.2115 30.9025 29.4754 30.7045 29.7872L30.3446 30.3541H29.2292H28.114L27.7542 29.7934C27.5564 29.4851 27.3946 29.2212 27.3946 29.207C27.3946 29.1929 27.5501 29.02 27.74 28.8229C27.93 28.6258 28.127 28.3496 28.1778 28.2091C28.2666 27.9635 28.2799 27.9556 28.5205 28.007C28.6582 28.0364 28.9772 28.0604 29.2295 28.0604ZM27.7427 31.8743C28.5358 33.1342 29.2048 34.1651 29.2295 34.1651C29.2542 34.1651 29.9233 33.1342 30.7164 31.8743C31.5095 30.6144 32.1856 29.5823 32.2188 29.5807C32.2521 29.5791 32.4846 29.6757 32.7356 29.7955C33.4272 30.1256 34.1064 30.8037 34.454 31.5109C34.8097 32.2349 34.8754 32.6006 34.8754 33.8571V34.8708H34.3108H33.7462V33.7416V32.6125H33.1817H32.6171V33.7416V34.8708H29.2295H25.842V33.7416V32.6125H25.2774H24.7128V33.7416V34.8708H24.1403H23.5679L23.5993 33.6181C23.6267 32.524 23.6514 32.3119 23.7941 31.942C24.0984 31.1536 24.5909 30.5198 25.2535 30.064C25.5283 29.8749 26.1385 29.5854 26.2654 29.584C26.2848 29.5838 26.9496 30.6144 27.7427 31.8743ZM29.5824 31.5279C29.5824 31.614 29.288 32.0479 29.2295 32.0479C29.1711 32.0479 28.8767 31.614 28.8767 31.5279C28.8767 31.5033 29.0354 31.4833 29.2295 31.4833C29.4236 31.4833 29.5824 31.5033 29.5824 31.5279Z"/>
</mask>
<path fill-rule="evenodd" clip-rule="evenodd" d="M6.91027 1.07204C6.49156 1.1707 5.9919 1.45299 5.57953 1.82386C5.37028 2.01201 4.98883 2.26777 4.73173 2.39226C3.53586 2.97139 3.05525 4.11631 3.39866 5.56808C3.54828 6.20042 3.54948 6.23324 3.43106 6.48272C3.11467 7.1495 3.24227 7.83357 3.78378 8.37275C4.16319 8.75054 4.50865 8.89966 5.00464 8.89966H5.28785L5.36697 9.43172C5.41051 9.72438 5.50776 10.0847 5.58313 10.2324C5.70967 10.4804 6.16092 10.9449 6.27786 10.9474C6.3056 10.948 6.36961 10.9747 6.42 11.0066C6.49375 11.0534 6.48168 11.1846 6.35846 11.676L6.2051 12.2872L5.63155 12.2884C3.84412 12.2922 2.2704 13.2345 1.50827 14.7573C1.08575 15.6016 1.00268 16.0841 1.0012 17.7037L1 19.0623H3.25519H5.5103L5.54594 19.2917C5.56556 19.4178 5.60085 19.7433 5.62449 20.015C5.72527 21.175 6.17433 22.7534 6.75501 23.9881C6.96476 24.4342 7.03625 24.6542 6.97824 24.6752C6.9313 24.6922 5.72809 24.7145 4.30441 24.7248C1.81534 24.7428 1.70842 24.7491 1.52112 24.889C1.41399 24.969 1.26084 25.1222 1.18081 25.2294C1.03705 25.4219 1.03529 25.4851 1.03529 30.3541C1.03529 35.2231 1.03705 35.2863 1.18081 35.4788C1.26084 35.586 1.41399 35.7392 1.52119 35.8192C1.71449 35.9635 1.76566 35.9647 7.77509 35.9647C13.7845 35.9647 13.8357 35.9635 14.029 35.8192C14.1362 35.7392 14.2893 35.5861 14.3694 35.479C14.508 35.2934 14.5159 35.1792 14.5353 33.0736L14.5558 30.863L15.1464 31.0255C17.0071 31.5374 19.1239 31.6105 21.043 31.229C21.4911 31.1399 22.6872 30.8028 23.0523 30.6627C23.1288 30.6334 23.0892 30.7731 22.917 31.1404C22.5331 31.9598 22.4544 32.5091 22.4544 34.3738V36H29.2295H36.0046V34.3738C36.0046 33.1762 35.9755 32.6043 35.894 32.2037C35.7689 31.5879 35.4542 30.851 35.109 30.3655L34.8754 30.0369L34.873 26.5786C34.8711 23.9977 34.8464 22.986 34.7754 22.591C34.6526 21.9068 34.3143 21.0414 33.965 20.5177C33.4569 19.7561 32.4761 18.8707 31.7671 18.5338L31.5171 18.4149L31.4352 17.4735C31.2814 15.707 30.8844 14.3078 30.0739 12.6754C28.5511 9.60822 25.8258 7.25331 22.5526 6.17622C19.796 5.26913 16.8813 5.31013 14.0919 6.29527C13.3765 6.54793 13.3081 6.56021 13.2269 6.45082C13.1117 6.2957 13.1139 6.25992 13.2793 5.56949C13.4472 4.86954 13.4563 4.36522 13.3123 3.75433C13.0063 2.45592 11.9605 1.41008 10.662 1.10408C10.1534 0.984172 7.38347 0.960459 6.91027 1.07204ZM10.8922 2.38993C11.1502 2.51703 11.4768 2.75007 11.6219 2.91077C12.1713 3.5189 12.4066 4.43481 12.2073 5.18966L12.1154 5.53766L11.6214 5.51946C10.7697 5.48812 9.73231 5.26567 9.25763 5.01267C8.69812 4.71449 8.12979 4.10001 7.91602 3.5623C7.82548 3.33435 7.74693 3.14084 7.74163 3.13216C7.73627 3.12355 7.6225 3.14528 7.48884 3.18057C7.35517 3.21586 7.11247 3.2793 6.94958 3.32151L6.65339 3.39836L6.75289 3.68037C6.80766 3.83557 6.9054 4.0741 6.97012 4.21052C7.03484 4.34694 7.0757 4.46988 7.06095 4.48372C7.04613 4.49762 6.66348 4.73221 6.21054 5.00511C5.47304 5.44952 5.3441 5.50337 4.97662 5.52037L4.56624 5.53936L4.48232 5.26109C4.22028 4.39225 4.59531 3.63401 5.44255 3.31988C5.70508 3.22249 5.96233 3.04909 6.22246 2.79425C6.88621 2.14391 6.9836 2.11956 8.83553 2.14123L10.4253 2.15986L10.8922 2.38993ZM29.2295 2.68916V3.25375H29.7941H30.3587V2.68916V2.12457H29.7941H29.2295V2.68916ZM31.4879 2.68916V3.25375H33.7462H36.0046V2.68916V2.12457H33.7462H31.4879V2.68916ZM29.2295 4.94753V5.51212H29.7941H30.3587V4.94753V4.38294H29.7941H29.2295V4.94753ZM31.4879 4.94753V5.51212H33.7462H36.0046V4.94753V4.38294H33.7462H31.4879V4.94753ZM8.15089 5.65009C8.7267 6.08482 9.77232 6.50015 10.2911 6.50015C10.3777 6.50015 10.4675 6.53092 10.4908 6.56854C10.5306 6.63304 10.2093 9.35549 10.13 9.62544C10.1097 9.69467 10.026 9.81373 9.94403 9.89009C9.80578 10.0189 9.69095 10.0287 8.34398 10.0266C6.83335 10.0243 6.75261 10.0096 6.59206 9.70801C6.47102 9.48055 6.12069 6.43254 6.20588 6.34736C6.26537 6.28786 7.69534 5.39511 7.76048 5.37676C7.77184 5.37358 7.9475 5.49659 8.15089 5.65009ZM5.0551 7.01181C5.08022 7.21563 5.11749 7.46962 5.13788 7.5764C5.17204 7.75467 5.15708 7.77048 4.95453 7.77048C4.66193 7.77048 4.38754 7.49729 4.38754 7.20589C4.38754 6.95549 4.65699 6.6413 4.87175 6.6413C4.98502 6.6413 5.01756 6.707 5.0551 7.01181ZM12.1186 6.81456C12.4697 7.16559 12.2205 7.77048 11.7248 7.77048C11.5223 7.77048 11.5073 7.75467 11.5415 7.5764C11.5619 7.46962 11.5991 7.21563 11.6243 7.01181C11.6618 6.707 11.6943 6.6413 11.8076 6.6413C11.8834 6.6413 12.0233 6.71928 12.1186 6.81456ZM17.9364 12.4107L17.935 18.1801L14.1684 20.3518L10.4019 22.5234L10.0155 22.4781C9.42863 22.4091 9.17696 22.5275 8.47821 23.2011L7.86507 23.7921L7.50895 22.8916C7.05079 21.7332 6.81789 20.751 6.68881 19.4328L6.65254 19.0623H11.1728H15.693L15.6629 17.492C15.629 15.7251 15.5641 15.4059 15.0637 14.5466C14.246 13.1426 12.7335 12.292 11.0478 12.2884L10.4743 12.2872L10.3209 11.676C10.1977 11.1846 10.1856 11.0534 10.2594 11.0066C10.3097 10.9747 10.3738 10.948 10.4015 10.9474C10.5184 10.9449 10.9696 10.4805 11.0961 10.2327C11.2038 10.0214 11.3643 9.27956 11.3729 8.95259C11.3737 8.92351 11.5056 8.89966 11.6661 8.89966C11.8266 8.89966 12.0825 8.86233 12.2349 8.81666C12.5481 8.7228 13.1071 8.26358 13.1773 8.04233C13.2615 7.77711 14.7125 7.19756 15.9874 6.91992C16.5298 6.80178 17.2944 6.689 17.8142 6.65047C17.9309 6.64179 17.9376 6.95909 17.9364 12.4107ZM20.8204 6.89127C21.6963 7.05486 22.8073 7.43871 23.7601 7.90704C27.0952 9.54647 29.5152 12.7645 30.1401 16.3911C30.2161 16.8317 30.291 17.3741 30.3065 17.5965L30.3348 18.0009L29.6234 17.9575C28.4503 17.886 27.2884 18.1661 26.3209 18.7539C25.7056 19.1276 24.9016 19.9162 24.4874 20.5521L24.1351 21.093L22.3597 20.0694C21.3832 19.5064 20.2432 18.851 19.8263 18.6129L19.0685 18.1801L19.0677 12.4248L19.0669 6.66953L19.6491 6.72542C19.9694 6.75612 20.4964 6.83079 20.8204 6.89127ZM29.2295 7.20589V7.77048H29.7941H30.3587V7.20589V6.6413H29.7941H29.2295V7.20589ZM31.4879 7.20589V7.77048H33.7462H36.0046V7.20589V6.6413H33.7462H31.4879V7.20589ZM9.16977 11.7226L9.31155 12.2872H8.33968H7.3678L7.50959 11.7226L7.65137 11.158H8.33968H9.02798L9.16977 11.7226ZM6.72692 14.286L7.16004 15.1556L6.70314 16.5267L6.24617 17.8978L5.31686 17.9175L4.38754 17.9372V16.806V15.6747H3.82295H3.25836V16.8039V17.9331H2.69377H2.12918V17.1716C2.12918 15.8967 2.44775 15.0656 3.20522 14.3643C3.92458 13.6983 4.63032 13.4289 5.67587 13.421L6.29374 13.4164L6.72692 14.286ZM8.83369 13.981C8.57433 14.4967 8.53164 14.5456 8.33968 14.5456C8.14772 14.5456 8.10502 14.4967 7.84566 13.981L7.56181 13.4164H8.33968H9.11754L8.83369 13.981ZM11.9713 13.5244C12.586 13.6846 13.1557 14.018 13.5864 14.4695C14.2838 15.2006 14.5502 15.9475 14.5502 17.1716V17.9331H13.9856H13.421V16.8039V15.6747H12.8564H12.2918V16.806V17.9372L11.3625 17.9175L10.4332 17.8978L9.97621 16.5267L9.51932 15.1556L9.95243 14.286L10.3856 13.4164H10.971C11.293 13.4164 11.7431 13.465 11.9713 13.5244ZM8.87547 16.8216L9.24648 17.9331H8.33939H7.43224L7.78017 16.8921C7.97149 16.3196 8.14376 15.8093 8.16296 15.758C8.18216 15.7068 8.26691 15.675 8.35118 15.6874C8.48181 15.7067 8.55951 15.8748 8.87547 16.8216ZM30.1823 19.1675C31.6878 19.4809 33.0359 20.7093 33.552 22.2381C33.7006 22.6785 33.7077 22.8234 33.7305 25.8622C33.7436 27.6032 33.7287 29.0148 33.6973 28.9991C33.1975 28.7485 32.6521 28.5226 32.3701 28.4493C31.8161 28.3054 31.5137 28.1075 31.336 27.7724L31.1758 27.4705L31.547 27.0779C32.0382 26.5586 32.3114 25.9557 32.4804 25.0183C32.6462 24.099 32.6507 23.7885 32.5053 23.2987C32.3127 22.6505 31.9807 22.244 31.1269 21.6116L30.7307 21.3181L30.8259 20.9136C30.999 20.1778 31.0079 20.1915 30.3587 20.1915C29.86 20.1915 29.7941 20.2064 29.7941 20.3198C29.7941 20.6625 29.5616 21.1873 29.2626 21.52C28.8599 21.9679 28.5111 22.1342 27.7063 22.2624C27.0048 22.374 26.6124 22.5409 26.3264 22.8491C25.8528 23.3597 25.7664 23.8902 25.974 25.0126C26.1486 25.9566 26.4232 26.561 26.9121 27.0779L27.2832 27.4705L27.123 27.7724C26.9453 28.1075 26.6429 28.3054 26.089 28.4493C25.8092 28.522 25.2 28.7744 24.7657 28.9977C24.7366 29.0127 24.7134 27.6964 24.714 26.0726C24.7154 22.7217 24.7408 22.4901 25.2091 21.5595C26.1363 19.7166 28.1551 18.7457 30.1823 19.1675ZM21.1488 20.6762L23.6895 22.1469L23.6668 22.3866C23.6543 22.5184 23.6285 24.1075 23.6094 25.9179L23.5749 29.2096L23.1734 29.3853C20.8792 30.3897 18.1283 30.6171 15.7146 30.0018C15.2877 29.893 14.8524 29.7702 14.7472 29.729L14.5561 29.6541L14.5355 27.539C14.5159 25.5302 14.5076 25.4142 14.3694 25.2292C14.0202 24.7618 13.9602 24.7455 12.4986 24.7215L11.1626 24.6997V24.104C11.1626 23.7765 11.1566 23.4847 11.1494 23.4555C11.132 23.3864 18.3638 19.2072 18.5023 19.2063C18.5605 19.2059 19.7515 19.8674 21.1488 20.6762ZM30.679 22.692C31.2203 23.0995 31.4879 23.5013 31.4879 23.9069C31.4879 24.233 31.2303 25.5882 31.1325 25.7763C30.5183 26.9582 28.9889 27.3165 27.9478 26.5224C27.4704 26.1583 27.2672 25.7614 27.1089 24.8836C26.9335 23.9112 26.9339 23.9032 27.1652 23.657C27.3331 23.4784 27.4523 23.4354 28.0481 23.339C28.8126 23.2152 29.3707 22.9728 29.8294 22.5654C29.9847 22.4274 30.1248 22.3133 30.1407 22.3116C30.1567 22.31 30.3989 22.4812 30.679 22.692ZM9.94876 23.6637C10.007 23.7219 10.0334 24.0746 10.0334 24.7929V25.8374H11.7272H13.421V30.3541V34.8708H7.77509H2.12918V30.3541V25.8374H4.79419H7.45913L8.58668 24.7082C9.20682 24.0871 9.7479 23.579 9.78912 23.579C9.83034 23.579 9.90218 23.6171 9.94876 23.6637ZM8.38435 29.7646L6.06473 32.346L5.45412 31.7382C5.11826 31.404 4.81113 31.1304 4.77168 31.1304C4.68028 31.1304 4.03467 31.7825 4.03467 31.8748C4.03467 31.9128 4.4951 32.4034 5.05778 32.9651L6.08089 33.9864L6.28965 33.7758C6.4044 33.66 7.64297 32.2949 9.04189 30.7423L11.5854 27.9193L11.1799 27.5505C10.9569 27.3477 10.7586 27.182 10.7392 27.1824C10.7198 27.1829 9.66011 28.3448 8.38435 29.7646ZM29.2295 28.0604C29.4818 28.0604 29.8009 28.0364 29.9386 28.007C30.1792 27.9556 30.1924 27.9635 30.2812 28.2091C30.332 28.3496 30.5291 28.6258 30.7191 28.8229C30.909 29.02 31.0644 29.1901 31.0644 29.2008C31.0644 29.2115 30.9025 29.4754 30.7045 29.7872L30.3446 30.3541H29.2292H28.114L27.7542 29.7934C27.5564 29.4851 27.3946 29.2212 27.3946 29.207C27.3946 29.1929 27.5501 29.02 27.74 28.8229C27.93 28.6258 28.127 28.3496 28.1778 28.2091C28.2666 27.9635 28.2799 27.9556 28.5205 28.007C28.6582 28.0364 28.9772 28.0604 29.2295 28.0604ZM27.7427 31.8743C28.5358 33.1342 29.2048 34.1651 29.2295 34.1651C29.2542 34.1651 29.9233 33.1342 30.7164 31.8743C31.5095 30.6144 32.1856 29.5823 32.2188 29.5807C32.2521 29.5791 32.4846 29.6757 32.7356 29.7955C33.4272 30.1256 34.1064 30.8037 34.454 31.5109C34.8097 32.2349 34.8754 32.6006 34.8754 33.8571V34.8708H34.3108H33.7462V33.7416V32.6125H33.1817H32.6171V33.7416V34.8708H29.2295H25.842V33.7416V32.6125H25.2774H24.7128V33.7416V34.8708H24.1403H23.5679L23.5993 33.6181C23.6267 32.524 23.6514 32.3119 23.7941 31.942C24.0984 31.1536 24.5909 30.5198 25.2535 30.064C25.5283 29.8749 26.1385 29.5854 26.2654 29.584C26.2848 29.5838 26.9496 30.6144 27.7427 31.8743ZM29.5824 31.5279C29.5824 31.614 29.288 32.0479 29.2295 32.0479C29.1711 32.0479 28.8767 31.614 28.8767 31.5279C28.8767 31.5033 29.0354 31.4833 29.2295 31.4833C29.4236 31.4833 29.5824 31.5033 29.5824 31.5279Z" fill="#FF8655"/>
<path fill-rule="evenodd" clip-rule="evenodd" d="M6.91027 1.07204C6.49156 1.1707 5.9919 1.45299 5.57953 1.82386C5.37028 2.01201 4.98883 2.26777 4.73173 2.39226C3.53586 2.97139 3.05525 4.11631 3.39866 5.56808C3.54828 6.20042 3.54948 6.23324 3.43106 6.48272C3.11467 7.1495 3.24227 7.83357 3.78378 8.37275C4.16319 8.75054 4.50865 8.89966 5.00464 8.89966H5.28785L5.36697 9.43172C5.41051 9.72438 5.50776 10.0847 5.58313 10.2324C5.70967 10.4804 6.16092 10.9449 6.27786 10.9474C6.3056 10.948 6.36961 10.9747 6.42 11.0066C6.49375 11.0534 6.48168 11.1846 6.35846 11.676L6.2051 12.2872L5.63155 12.2884C3.84412 12.2922 2.2704 13.2345 1.50827 14.7573C1.08575 15.6016 1.00268 16.0841 1.0012 17.7037L1 19.0623H3.25519H5.5103L5.54594 19.2917C5.56556 19.4178 5.60085 19.7433 5.62449 20.015C5.72527 21.175 6.17433 22.7534 6.75501 23.9881C6.96476 24.4342 7.03625 24.6542 6.97824 24.6752C6.9313 24.6922 5.72809 24.7145 4.30441 24.7248C1.81534 24.7428 1.70842 24.7491 1.52112 24.889C1.41399 24.969 1.26084 25.1222 1.18081 25.2294C1.03705 25.4219 1.03529 25.4851 1.03529 30.3541C1.03529 35.2231 1.03705 35.2863 1.18081 35.4788C1.26084 35.586 1.41399 35.7392 1.52119 35.8192C1.71449 35.9635 1.76566 35.9647 7.77509 35.9647C13.7845 35.9647 13.8357 35.9635 14.029 35.8192C14.1362 35.7392 14.2893 35.5861 14.3694 35.479C14.508 35.2934 14.5159 35.1792 14.5353 33.0736L14.5558 30.863L15.1464 31.0255C17.0071 31.5374 19.1239 31.6105 21.043 31.229C21.4911 31.1399 22.6872 30.8028 23.0523 30.6627C23.1288 30.6334 23.0892 30.7731 22.917 31.1404C22.5331 31.9598 22.4544 32.5091 22.4544 34.3738V36H29.2295H36.0046V34.3738C36.0046 33.1762 35.9755 32.6043 35.894 32.2037C35.7689 31.5879 35.4542 30.851 35.109 30.3655L34.8754 30.0369L34.873 26.5786C34.8711 23.9977 34.8464 22.986 34.7754 22.591C34.6526 21.9068 34.3143 21.0414 33.965 20.5177C33.4569 19.7561 32.4761 18.8707 31.7671 18.5338L31.5171 18.4149L31.4352 17.4735C31.2814 15.707 30.8844 14.3078 30.0739 12.6754C28.5511 9.60822 25.8258 7.25331 22.5526 6.17622C19.796 5.26913 16.8813 5.31013 14.0919 6.29527C13.3765 6.54793 13.3081 6.56021 13.2269 6.45082C13.1117 6.2957 13.1139 6.25992 13.2793 5.56949C13.4472 4.86954 13.4563 4.36522 13.3123 3.75433C13.0063 2.45592 11.9605 1.41008 10.662 1.10408C10.1534 0.984172 7.38347 0.960459 6.91027 1.07204ZM10.8922 2.38993C11.1502 2.51703 11.4768 2.75007 11.6219 2.91077C12.1713 3.5189 12.4066 4.43481 12.2073 5.18966L12.1154 5.53766L11.6214 5.51946C10.7697 5.48812 9.73231 5.26567 9.25763 5.01267C8.69812 4.71449 8.12979 4.10001 7.91602 3.5623C7.82548 3.33435 7.74693 3.14084 7.74163 3.13216C7.73627 3.12355 7.6225 3.14528 7.48884 3.18057C7.35517 3.21586 7.11247 3.2793 6.94958 3.32151L6.65339 3.39836L6.75289 3.68037C6.80766 3.83557 6.9054 4.0741 6.97012 4.21052C7.03484 4.34694 7.0757 4.46988 7.06095 4.48372C7.04613 4.49762 6.66348 4.73221 6.21054 5.00511C5.47304 5.44952 5.3441 5.50337 4.97662 5.52037L4.56624 5.53936L4.48232 5.26109C4.22028 4.39225 4.59531 3.63401 5.44255 3.31988C5.70508 3.22249 5.96233 3.04909 6.22246 2.79425C6.88621 2.14391 6.9836 2.11956 8.83553 2.14123L10.4253 2.15986L10.8922 2.38993ZM29.2295 2.68916V3.25375H29.7941H30.3587V2.68916V2.12457H29.7941H29.2295V2.68916ZM31.4879 2.68916V3.25375H33.7462H36.0046V2.68916V2.12457H33.7462H31.4879V2.68916ZM29.2295 4.94753V5.51212H29.7941H30.3587V4.94753V4.38294H29.7941H29.2295V4.94753ZM31.4879 4.94753V5.51212H33.7462H36.0046V4.94753V4.38294H33.7462H31.4879V4.94753ZM8.15089 5.65009C8.7267 6.08482 9.77232 6.50015 10.2911 6.50015C10.3777 6.50015 10.4675 6.53092 10.4908 6.56854C10.5306 6.63304 10.2093 9.35549 10.13 9.62544C10.1097 9.69467 10.026 9.81373 9.94403 9.89009C9.80578 10.0189 9.69095 10.0287 8.34398 10.0266C6.83335 10.0243 6.75261 10.0096 6.59206 9.70801C6.47102 9.48055 6.12069 6.43254 6.20588 6.34736C6.26537 6.28786 7.69534 5.39511 7.76048 5.37676C7.77184 5.37358 7.9475 5.49659 8.15089 5.65009ZM5.0551 7.01181C5.08022 7.21563 5.11749 7.46962 5.13788 7.5764C5.17204 7.75467 5.15708 7.77048 4.95453 7.77048C4.66193 7.77048 4.38754 7.49729 4.38754 7.20589C4.38754 6.95549 4.65699 6.6413 4.87175 6.6413C4.98502 6.6413 5.01756 6.707 5.0551 7.01181ZM12.1186 6.81456C12.4697 7.16559 12.2205 7.77048 11.7248 7.77048C11.5223 7.77048 11.5073 7.75467 11.5415 7.5764C11.5619 7.46962 11.5991 7.21563 11.6243 7.01181C11.6618 6.707 11.6943 6.6413 11.8076 6.6413C11.8834 6.6413 12.0233 6.71928 12.1186 6.81456ZM17.9364 12.4107L17.935 18.1801L14.1684 20.3518L10.4019 22.5234L10.0155 22.4781C9.42863 22.4091 9.17696 22.5275 8.47821 23.2011L7.86507 23.7921L7.50895 22.8916C7.05079 21.7332 6.81789 20.751 6.68881 19.4328L6.65254 19.0623H11.1728H15.693L15.6629 17.492C15.629 15.7251 15.5641 15.4059 15.0637 14.5466C14.246 13.1426 12.7335 12.292 11.0478 12.2884L10.4743 12.2872L10.3209 11.676C10.1977 11.1846 10.1856 11.0534 10.2594 11.0066C10.3097 10.9747 10.3738 10.948 10.4015 10.9474C10.5184 10.9449 10.9696 10.4805 11.0961 10.2327C11.2038 10.0214 11.3643 9.27956 11.3729 8.95259C11.3737 8.92351 11.5056 8.89966 11.6661 8.89966C11.8266 8.89966 12.0825 8.86233 12.2349 8.81666C12.5481 8.7228 13.1071 8.26358 13.1773 8.04233C13.2615 7.77711 14.7125 7.19756 15.9874 6.91992C16.5298 6.80178 17.2944 6.689 17.8142 6.65047C17.9309 6.64179 17.9376 6.95909 17.9364 12.4107ZM20.8204 6.89127C21.6963 7.05486 22.8073 7.43871 23.7601 7.90704C27.0952 9.54647 29.5152 12.7645 30.1401 16.3911C30.2161 16.8317 30.291 17.3741 30.3065 17.5965L30.3348 18.0009L29.6234 17.9575C28.4503 17.886 27.2884 18.1661 26.3209 18.7539C25.7056 19.1276 24.9016 19.9162 24.4874 20.5521L24.1351 21.093L22.3597 20.0694C21.3832 19.5064 20.2432 18.851 19.8263 18.6129L19.0685 18.1801L19.0677 12.4248L19.0669 6.66953L19.6491 6.72542C19.9694 6.75612 20.4964 6.83079 20.8204 6.89127ZM29.2295 7.20589V7.77048H29.7941H30.3587V7.20589V6.6413H29.7941H29.2295V7.20589ZM31.4879 7.20589V7.77048H33.7462H36.0046V7.20589V6.6413H33.7462H31.4879V7.20589ZM9.16977 11.7226L9.31155 12.2872H8.33968H7.3678L7.50959 11.7226L7.65137 11.158H8.33968H9.02798L9.16977 11.7226ZM6.72692 14.286L7.16004 15.1556L6.70314 16.5267L6.24617 17.8978L5.31686 17.9175L4.38754 17.9372V16.806V15.6747H3.82295H3.25836V16.8039V17.9331H2.69377H2.12918V17.1716C2.12918 15.8967 2.44775 15.0656 3.20522 14.3643C3.92458 13.6983 4.63032 13.4289 5.67587 13.421L6.29374 13.4164L6.72692 14.286ZM8.83369 13.981C8.57433 14.4967 8.53164 14.5456 8.33968 14.5456C8.14772 14.5456 8.10502 14.4967 7.84566 13.981L7.56181 13.4164H8.33968H9.11754L8.83369 13.981ZM11.9713 13.5244C12.586 13.6846 13.1557 14.018 13.5864 14.4695C14.2838 15.2006 14.5502 15.9475 14.5502 17.1716V17.9331H13.9856H13.421V16.8039V15.6747H12.8564H12.2918V16.806V17.9372L11.3625 17.9175L10.4332 17.8978L9.97621 16.5267L9.51932 15.1556L9.95243 14.286L10.3856 13.4164H10.971C11.293 13.4164 11.7431 13.465 11.9713 13.5244ZM8.87547 16.8216L9.24648 17.9331H8.33939H7.43224L7.78017 16.8921C7.97149 16.3196 8.14376 15.8093 8.16296 15.758C8.18216 15.7068 8.26691 15.675 8.35118 15.6874C8.48181 15.7067 8.55951 15.8748 8.87547 16.8216ZM30.1823 19.1675C31.6878 19.4809 33.0359 20.7093 33.552 22.2381C33.7006 22.6785 33.7077 22.8234 33.7305 25.8622C33.7436 27.6032 33.7287 29.0148 33.6973 28.9991C33.1975 28.7485 32.6521 28.5226 32.3701 28.4493C31.8161 28.3054 31.5137 28.1075 31.336 27.7724L31.1758 27.4705L31.547 27.0779C32.0382 26.5586 32.3114 25.9557 32.4804 25.0183C32.6462 24.099 32.6507 23.7885 32.5053 23.2987C32.3127 22.6505 31.9807 22.244 31.1269 21.6116L30.7307 21.3181L30.8259 20.9136C30.999 20.1778 31.0079 20.1915 30.3587 20.1915C29.86 20.1915 29.7941 20.2064 29.7941 20.3198C29.7941 20.6625 29.5616 21.1873 29.2626 21.52C28.8599 21.9679 28.5111 22.1342 27.7063 22.2624C27.0048 22.374 26.6124 22.5409 26.3264 22.8491C25.8528 23.3597 25.7664 23.8902 25.974 25.0126C26.1486 25.9566 26.4232 26.561 26.9121 27.0779L27.2832 27.4705L27.123 27.7724C26.9453 28.1075 26.6429 28.3054 26.089 28.4493C25.8092 28.522 25.2 28.7744 24.7657 28.9977C24.7366 29.0127 24.7134 27.6964 24.714 26.0726C24.7154 22.7217 24.7408 22.4901 25.2091 21.5595C26.1363 19.7166 28.1551 18.7457 30.1823 19.1675ZM21.1488 20.6762L23.6895 22.1469L23.6668 22.3866C23.6543 22.5184 23.6285 24.1075 23.6094 25.9179L23.5749 29.2096L23.1734 29.3853C20.8792 30.3897 18.1283 30.6171 15.7146 30.0018C15.2877 29.893 14.8524 29.7702 14.7472 29.729L14.5561 29.6541L14.5355 27.539C14.5159 25.5302 14.5076 25.4142 14.3694 25.2292C14.0202 24.7618 13.9602 24.7455 12.4986 24.7215L11.1626 24.6997V24.104C11.1626 23.7765 11.1566 23.4847 11.1494 23.4555C11.132 23.3864 18.3638 19.2072 18.5023 19.2063C18.5605 19.2059 19.7515 19.8674 21.1488 20.6762ZM30.679 22.692C31.2203 23.0995 31.4879 23.5013 31.4879 23.9069C31.4879 24.233 31.2303 25.5882 31.1325 25.7763C30.5183 26.9582 28.9889 27.3165 27.9478 26.5224C27.4704 26.1583 27.2672 25.7614 27.1089 24.8836C26.9335 23.9112 26.9339 23.9032 27.1652 23.657C27.3331 23.4784 27.4523 23.4354 28.0481 23.339C28.8126 23.2152 29.3707 22.9728 29.8294 22.5654C29.9847 22.4274 30.1248 22.3133 30.1407 22.3116C30.1567 22.31 30.3989 22.4812 30.679 22.692ZM9.94876 23.6637C10.007 23.7219 10.0334 24.0746 10.0334 24.7929V25.8374H11.7272H13.421V30.3541V34.8708H7.77509H2.12918V30.3541V25.8374H4.79419H7.45913L8.58668 24.7082C9.20682 24.0871 9.7479 23.579 9.78912 23.579C9.83034 23.579 9.90218 23.6171 9.94876 23.6637ZM8.38435 29.7646L6.06473 32.346L5.45412 31.7382C5.11826 31.404 4.81113 31.1304 4.77168 31.1304C4.68028 31.1304 4.03467 31.7825 4.03467 31.8748C4.03467 31.9128 4.4951 32.4034 5.05778 32.9651L6.08089 33.9864L6.28965 33.7758C6.4044 33.66 7.64297 32.2949 9.04189 30.7423L11.5854 27.9193L11.1799 27.5505C10.9569 27.3477 10.7586 27.182 10.7392 27.1824C10.7198 27.1829 9.66011 28.3448 8.38435 29.7646ZM29.2295 28.0604C29.4818 28.0604 29.8009 28.0364 29.9386 28.007C30.1792 27.9556 30.1924 27.9635 30.2812 28.2091C30.332 28.3496 30.5291 28.6258 30.7191 28.8229C30.909 29.02 31.0644 29.1901 31.0644 29.2008C31.0644 29.2115 30.9025 29.4754 30.7045 29.7872L30.3446 30.3541H29.2292H28.114L27.7542 29.7934C27.5564 29.4851 27.3946 29.2212 27.3946 29.207C27.3946 29.1929 27.5501 29.02 27.74 28.8229C27.93 28.6258 28.127 28.3496 28.1778 28.2091C28.2666 27.9635 28.2799 27.9556 28.5205 28.007C28.6582 28.0364 28.9772 28.0604 29.2295 28.0604ZM27.7427 31.8743C28.5358 33.1342 29.2048 34.1651 29.2295 34.1651C29.2542 34.1651 29.9233 33.1342 30.7164 31.8743C31.5095 30.6144 32.1856 29.5823 32.2188 29.5807C32.2521 29.5791 32.4846 29.6757 32.7356 29.7955C33.4272 30.1256 34.1064 30.8037 34.454 31.5109C34.8097 32.2349 34.8754 32.6006 34.8754 33.8571V34.8708H34.3108H33.7462V33.7416V32.6125H33.1817H32.6171V33.7416V34.8708H29.2295H25.842V33.7416V32.6125H25.2774H24.7128V33.7416V34.8708H24.1403H23.5679L23.5993 33.6181C23.6267 32.524 23.6514 32.3119 23.7941 31.942C24.0984 31.1536 24.5909 30.5198 25.2535 30.064C25.5283 29.8749 26.1385 29.5854 26.2654 29.584C26.2848 29.5838 26.9496 30.6144 27.7427 31.8743ZM29.5824 31.5279C29.5824 31.614 29.288 32.0479 29.2295 32.0479C29.1711 32.0479 28.8767 31.614 28.8767 31.5279C28.8767 31.5033 29.0354 31.4833 29.2295 31.4833C29.4236 31.4833 29.5824 31.5033 29.5824 31.5279Z" stroke="#FF8655" stroke-width="0.6" mask="url(#path-1-outside-1_1267_8427)"/>
</svg>
