<svg width="35" height="35" viewBox="0 0 35 35" fill="none" xmlns="http://www.w3.org/2000/svg">
<path fill-rule="evenodd" clip-rule="evenodd" d="M14.8884 0.0723974C13.3522 0.309877 11.5757 0.849931 10.1456 1.51412L9.4471 1.83857L8.851 1.54395C8.28623 1.26483 8.21539 1.24948 7.50303 1.25184C6.53273 1.25507 6.02629 1.44485 5.37225 2.05031C4.72688 2.64783 4.4147 3.29029 4.36669 4.11985C4.34654 4.4673 4.37275 4.91116 4.42667 5.13589L4.52238 5.53481L3.87055 6.34383C2.18301 8.4384 1.03434 10.718 0.416441 13.1991C0.11418 14.4126 -0.0623743 15.592 0.0242107 15.8195C0.194154 16.2666 -0.23334 16.2443 8.14967 16.2443H15.8497L16.0428 16.051L16.2361 15.8579V8.14472V0.431647L16.059 0.23683C15.8174 -0.028907 15.6738 -0.0490578 14.8884 0.0723974ZM19.1766 0.0339852C18.7332 0.198733 18.7549 -0.21963 18.7549 8.15787V15.8579L18.9482 16.051L19.1413 16.2443H26.8545H34.5676L34.7863 16.0562C34.9799 15.8897 35.0028 15.8205 34.9869 15.4533C34.9354 14.2702 34.228 11.7384 33.5339 10.2531C33.2139 9.56826 33.1908 9.48033 33.2869 9.30929C33.3451 9.20555 33.4882 8.83732 33.6046 8.49098C33.7931 7.93101 33.8165 7.7436 33.8167 6.79864C33.8169 5.87076 33.7915 5.65949 33.6167 5.13251C33.3053 4.19361 32.8918 3.52596 32.1825 2.81667C31.4728 2.10707 30.8048 1.69343 29.8667 1.3829C29.3423 1.20934 29.1239 1.18289 28.2006 1.18116C27.2489 1.17935 27.0722 1.20147 26.5082 1.39282C26.1619 1.51026 25.7937 1.65407 25.6899 1.71232C25.5189 1.80835 25.4309 1.78529 24.7461 1.46531C23.0207 0.658972 19.7539 -0.18051 19.1766 0.0339852ZM14.9767 8.17613V14.9849H8.16793H1.35919V14.7915C1.35919 14.1749 2.13641 11.7226 2.70732 10.5375L2.97283 9.98654L3.01218 11.0761C3.04926 12.1026 3.06224 12.1743 3.23738 12.3158C3.4148 12.4593 3.60474 12.466 7.43243 12.466H11.4417L11.6414 12.2663L11.8411 12.0666L11.815 10.3182L11.7888 8.5697L11.5374 8.03909C11.2467 7.42528 10.6809 6.81997 10.1421 6.5462L9.77298 6.35855L9.93718 6.1498C10.5824 5.32945 10.7326 4.01981 10.2978 3.00566C10.2297 2.84682 10.4717 2.71096 11.6817 2.22876C12.5251 1.89265 14.38 1.37542 14.7602 1.37031L14.9767 1.36739V8.17613ZM21.4542 1.6373C22.3211 1.85951 23.0328 2.10581 24.2515 2.60556C24.3228 2.63476 24.2312 2.77676 23.9641 3.05092C22.5562 4.49603 22.0649 6.68805 22.6989 8.69682C23.2165 10.3367 24.6625 11.7827 26.3024 12.3003C28.3112 12.9343 30.5032 12.443 31.9483 11.0351C32.2224 10.768 32.3644 10.6764 32.3936 10.7477C33.044 12.3336 33.6318 14.2535 33.6318 14.7915V14.9849H26.8231H20.0143V8.17613V1.36739H20.2077C20.3141 1.36739 20.8751 1.48885 21.4542 1.6373ZM8.00137 2.48639C8.43374 2.61414 9.08581 3.2662 9.21356 3.69858C9.4316 4.4366 9.27787 5.02498 8.7216 5.58125C7.92525 6.3776 6.91504 6.3776 6.1187 5.58125C5.32235 4.78491 5.32235 3.77556 6.1187 2.97748C6.67087 2.42413 7.26563 2.26898 8.00137 2.48639ZM29.0322 2.47482C29.8025 2.61351 30.7138 3.10224 31.3053 3.69386C33.0353 5.42383 33.02 8.21824 31.2712 9.94018C30.4242 10.7741 29.4443 11.165 28.2006 11.165C26.9379 11.165 25.9598 10.7675 25.0958 9.90342C24.2317 9.03938 23.8342 8.06129 23.8342 6.79864C23.8342 5.5271 24.2313 4.55829 25.114 3.67559C26.1305 2.65901 27.5833 2.2138 29.0322 2.47482ZM27.7641 3.84333C27.6578 3.9496 27.5708 4.09128 27.5708 4.15819C27.5708 4.25327 27.4756 4.2798 27.1344 4.2798C26.7758 4.2798 26.6633 4.31436 26.5047 4.47304C26.3165 4.66109 26.3114 4.69785 26.3114 5.85407C26.3114 7.0103 26.3165 7.04706 26.5047 7.23511C26.6908 7.42126 26.737 7.42835 27.7641 7.42835H28.8303V7.7432V8.05806H27.7641C26.737 8.05806 26.6908 8.06514 26.5047 8.2513C26.3828 8.37307 26.3114 8.53443 26.3114 8.68777C26.3114 9.08228 26.6101 9.31708 27.1147 9.31921C27.5068 9.32078 27.5385 9.33597 27.6496 9.57487C27.7902 9.87729 28.103 10.0111 28.417 9.90318C28.5426 9.86005 28.6831 9.72214 28.7516 9.57487C28.8626 9.33597 28.8943 9.32078 29.2864 9.31921C29.6227 9.31779 29.7406 9.28009 29.8964 9.12423C30.0846 8.93619 30.0897 8.89943 30.0897 7.7432C30.0897 6.58698 30.0846 6.55022 29.8964 6.36217C29.7104 6.17601 29.6642 6.16893 28.637 6.16893H27.5708V5.85407V5.53922H28.637C29.6642 5.53922 29.7104 5.53214 29.8964 5.34598C30.1521 5.09039 30.1521 4.72863 29.8964 4.47304C29.7378 4.31436 29.6253 4.2798 29.2667 4.2798C28.9255 4.2798 28.8303 4.25327 28.8303 4.15819C28.8303 3.94621 28.4632 3.65009 28.2006 3.65009C28.0472 3.65009 27.8859 3.72149 27.7641 3.84333ZM9.26079 7.52406C9.69316 7.65182 10.3452 8.30388 10.473 8.73625C10.5276 8.92115 10.5687 9.52087 10.5687 10.1334V11.2066H10.2538H9.93899V10.1404C9.93899 9.11329 9.9319 9.06709 9.74574 8.88101C9.62397 8.75916 9.46261 8.68777 9.30928 8.68777C9.15594 8.68777 8.99458 8.75916 8.87281 8.88101C8.68665 9.06709 8.67957 9.11329 8.67957 10.1404V11.2066H7.42015H6.16073V10.1404C6.16073 9.11329 6.15364 9.06709 5.96749 8.88101C5.84572 8.75916 5.68435 8.68777 5.53102 8.68777C5.37769 8.68777 5.21632 8.75916 5.09455 8.88101C4.90839 9.06709 4.90131 9.11329 4.90131 10.1404V11.2066H4.58646H4.2716V10.1334C4.2716 9.52087 4.31269 8.92115 4.36732 8.73625C4.48578 8.33529 5.14469 7.653 5.53102 7.53123C5.92254 7.40788 8.84833 7.40222 9.26079 7.52406ZM0.204701 18.9512C0.0111442 19.1177 -0.0118402 19.1869 0.00413866 19.5541C0.0556174 20.7372 0.763017 23.269 1.45711 24.7543C1.77709 25.4391 1.80015 25.5271 1.70412 25.6981C1.64587 25.8019 1.50206 26.1701 1.38462 26.5164C1.19327 27.0804 1.17115 27.2571 1.17296 28.2088C1.17469 29.1322 1.20114 29.3505 1.3747 29.8749C1.68523 30.813 2.09887 31.481 2.80847 32.1907C3.51776 32.9 4.18541 33.3135 5.12431 33.6249C5.65129 33.7997 5.86256 33.8251 6.79044 33.8249C7.7354 33.8247 7.92281 33.8013 8.48278 33.6128C8.82912 33.4963 9.19734 33.3533 9.30109 33.2951C9.47221 33.1991 9.56006 33.2221 10.2457 33.543C11.7058 34.2264 14.276 34.9442 15.4451 34.9951C15.8123 35.011 15.8815 34.9881 16.048 34.7945L16.2361 34.5758V26.8627V19.1495L16.0428 18.9564L15.8497 18.7631H8.13652H0.423446L0.204701 18.9512ZM18.9482 18.9564L18.7549 19.1495V26.8495C18.7549 33.7823 18.7675 34.5675 18.8809 34.7295C19.0961 35.0365 19.3068 35.0632 20.2678 34.9046C21.9933 34.62 23.439 34.1756 25.0063 33.4482L25.7318 33.1114L25.9846 33.4126C26.3239 33.8169 26.6338 33.8962 27.7446 33.8637C28.5223 33.8409 28.695 33.8121 28.879 33.6745C29.3146 33.3488 29.4178 33.1249 29.449 32.4385C29.474 31.8874 29.5027 31.7793 29.6558 31.6589C29.8694 31.4908 30.0897 31.0506 30.0897 30.7917C30.0897 30.666 30.2685 30.4215 30.6332 30.0488C31.214 29.4551 31.5479 28.884 31.8009 28.0513C31.8865 27.7699 32.1222 27.2917 32.325 26.9887C32.8824 26.1554 33.8221 24.1929 34.1718 23.1317C34.5576 21.9611 34.8812 20.5309 34.9437 19.7205C34.9902 19.1184 34.9868 19.1026 34.7732 18.9346L34.5551 18.7631H26.8483H19.1413L18.9482 18.9564ZM14.9767 26.8313V33.64L14.7996 33.6399C14.3206 33.6396 12.3072 33.0555 11.2374 32.6064L10.6458 32.3581L11.0339 31.9478C12.9858 29.8839 13.0914 26.6587 11.2781 24.4884C9.16492 21.9589 5.4235 21.7219 3.04957 23.967C2.77801 24.2239 2.62326 24.3224 2.59594 24.2559C1.95191 22.6893 1.35919 20.7529 1.35919 20.2159V20.0225H8.16793H14.9767V26.8313ZM33.6318 20.2016C33.6318 20.515 33.1815 22.2374 32.8863 23.053C32.5554 23.9674 31.8603 25.4558 31.7672 25.4494C31.732 25.4469 31.5861 25.1992 31.4429 24.8989C30.7808 23.5112 29.188 22.5414 27.5708 22.5414C26.3607 22.5414 25.3293 22.9721 24.4615 23.84C23.3553 24.9462 22.9256 26.4446 23.2816 27.9544C23.4908 28.8421 24.0941 29.8208 24.7241 30.2947C24.9824 30.4889 25.0423 30.5865 25.0735 30.864C25.0954 31.0576 25.1988 31.3136 25.3188 31.471L25.5263 31.7431L25.1908 31.9395C24.695 32.2297 23.7328 32.6565 22.9487 32.9339C22.1956 33.2004 20.4802 33.64 20.1934 33.64H20.0143V26.8313V20.0225H26.8231H33.6318V20.2016ZM8.21673 24.0561C9.61122 24.5646 10.5245 25.5104 11.0105 26.9493C11.2134 27.55 11.2134 28.8675 11.0105 29.4682C10.7667 30.1901 10.4028 30.8012 9.93198 31.2794C7.80128 33.4435 4.16856 32.8609 2.85365 30.1443C1.58251 27.518 3.08066 24.4984 5.96394 23.8756C6.51659 23.7562 7.64149 23.8463 8.21673 24.0561ZM28.5311 23.9635C29.4265 24.2651 30.0144 24.7968 30.4358 25.6862C30.656 26.1507 30.68 26.2757 30.68 26.9534C30.68 27.6647 30.664 27.7378 30.3824 28.3075C30.1496 28.7786 29.9667 29.0146 29.5416 29.3924C29.0149 29.8606 28.8303 30.159 28.8303 30.5425C28.8303 30.7059 28.7934 30.7276 28.5154 30.7276H28.2006V29.4682V28.2088H28.637C29.1623 28.2088 29.46 27.981 29.46 27.5791C29.46 27.4257 29.3886 27.2644 29.2667 27.1426C29.0751 26.9509 29.0614 26.9493 27.5708 26.9493C26.0803 26.9493 26.0666 26.9509 25.875 27.1426C25.7531 27.2644 25.6817 27.4257 25.6817 27.5791C25.6817 27.981 25.9794 28.2088 26.5047 28.2088H26.9411V29.4682V30.7276H26.6263C26.3483 30.7276 26.3114 30.7059 26.3114 30.5425C26.3114 30.159 26.1268 29.8606 25.6001 29.3924C25.175 29.0146 24.9921 28.7786 24.7593 28.3075C24.4777 27.7378 24.4617 27.6647 24.4617 26.9534C24.4617 26.2757 24.4857 26.1507 24.7059 25.6862C24.8402 25.4028 25.067 25.0376 25.2101 24.8748C26.0306 23.9403 27.3706 23.5725 28.5311 23.9635ZM6.35397 24.6237C6.1664 24.8112 6.16073 24.8507 6.16073 25.9702C6.16073 27.0902 6.1553 27.1277 5.97394 27.2704C5.72182 27.4687 5.53102 27.8928 5.53102 28.2547C5.53102 28.5204 5.46364 28.6212 4.90131 29.1974C4.18919 29.9269 4.10748 30.1771 4.46484 30.5344C4.82212 30.8917 5.07228 30.81 5.80179 30.0979C6.37428 29.5391 6.47999 29.4682 6.7399 29.4682C7.35214 29.4682 7.90274 29.0011 8.01963 28.3825C8.08181 28.0537 7.86897 27.4766 7.61071 27.2734C7.42456 27.127 7.42015 27.0966 7.42015 25.9702C7.42015 24.8507 7.41448 24.8112 7.22691 24.6237C7.10514 24.5019 6.94377 24.4305 6.79044 24.4305C6.6371 24.4305 6.47574 24.5019 6.35397 24.6237ZM28.2006 32.3019V32.6167H27.5708H26.9411V32.3019V31.987H27.5708H28.2006V32.3019Z" fill="#FF8655"/>
</svg>
