<svg width="45" height="45" viewBox="0 0 45 45" fill="none" xmlns="http://www.w3.org/2000/svg">
<circle cx="22.5" cy="22.5" r="22.5" fill="#2AA1D8"/>
<path fill-rule="evenodd" clip-rule="evenodd" d="M20.3617 0.0546358C13.3221 0.78653 7.14791 4.62028 3.4001 10.5865C-1.91659 19.0503 -0.912855 30.2873 5.81385 37.6085C9.5547 41.68 14.1792 44.0971 19.7447 44.8897C20.7902 45.0386 24.248 45.0362 25.3337 44.8858C30.2835 44.2002 34.729 42.0596 38.1275 38.7254C41.9355 34.9894 44.1292 30.6271 44.8896 25.2793C45.0368 24.2432 45.0368 20.767 44.8895 19.7313C44.2677 15.3616 42.5839 11.4267 39.9904 8.2831C36.3132 3.82604 31.3445 1.01752 25.6417 0.172641C24.562 0.0126296 21.4371 -0.0571166 20.3617 0.0546358ZM29.4886 8.48397C30.202 8.83534 30.7878 9.45496 31.072 10.1587L31.2747 10.6608V22.4613V34.2618L31.0784 34.7461C30.8281 35.3636 30.2279 36.0505 29.6788 36.3479C28.9025 36.7683 28.624 36.7836 22.2091 36.7546L16.224 36.7276L15.6965 36.5151C14.9834 36.2278 14.2591 35.503 13.972 34.7896L13.7596 34.2618V22.4613V10.6608L13.9605 10.1635C14.3248 9.2621 15.1518 8.52527 16.0857 8.26998C16.3927 8.18614 17.9605 8.16421 22.6951 8.17751L28.9023 8.19504L29.4886 8.48397ZM17.4562 10.2335C17.3594 10.2555 17.1877 10.3197 17.0747 10.376C16.6018 10.6117 16.6201 10.2046 16.6201 20.5C16.6201 30.9899 16.5822 30.2703 17.1492 30.5637C17.5305 30.7609 27.5038 30.7609 27.8852 30.5637C28.4521 30.2703 28.4142 30.989 28.4142 20.5085C28.4142 13.4934 28.3874 10.9184 28.3127 10.7542C28.2568 10.6316 28.1083 10.4613 27.9826 10.3758C27.7714 10.2323 27.3702 10.2194 22.6932 10.207C19.9097 10.1995 17.5531 10.2115 17.4562 10.2335ZM21.7228 32.3904C20.7516 32.882 20.4762 34.1337 21.1412 35.0349C21.4238 35.4178 22.1749 35.7465 22.6458 35.6934C23.6174 35.5839 24.3474 34.7121 24.2569 33.7698C24.1406 32.5594 22.8149 31.8378 21.7228 32.3904Z" fill="white"/>
</svg>
