<svg width="20" height="22" viewBox="0 0 20 22" fill="none" xmlns="http://www.w3.org/2000/svg">
<path d="M18.7463 21.4893C8.08251 21.5055 -0.0112383 12.7056 1.17134e-05 1.34711C1.17134e-05 0.604387 0.560011 0 1.25001 0H4.55001C5.16876 0 5.69501 0.488883 5.78626 1.14699C6.00389 2.72519 6.43116 4.26167 7.05501 5.70945L7.18376 6.00761C7.27024 6.20826 7.28885 6.43504 7.23636 6.64885C7.18388 6.86265 7.06359 7.05007 6.89626 7.17878C5.87376 7.96314 5.48376 9.54127 6.28001 10.7715C7.28249 12.3205 8.53369 13.6654 9.97501 14.743C11.1213 15.5972 12.59 15.1782 13.3188 14.0809C13.4384 13.9005 13.613 13.7708 13.8123 13.7142C14.0115 13.6575 14.223 13.6775 14.41 13.7706L14.6863 13.9076C16.0338 14.5792 17.4638 15.0385 18.9325 15.2722C19.545 15.3702 20 15.9357 20 16.6019V20.1463C20 20.3227 19.9676 20.4975 19.9047 20.6605C19.8418 20.8236 19.7496 20.9717 19.6334 21.0964C19.5172 21.2212 19.3793 21.3201 19.2275 21.3875C19.0757 21.4549 18.913 21.4895 18.7488 21.4893H18.7463Z" fill="url(#paint0_linear_1267_10639)"/>
<defs>
<linearGradient id="paint0_linear_1267_10639" x1="10" y1="0" x2="10" y2="21.4894" gradientUnits="userSpaceOnUse">
<stop stop-color="#EC6028"/>
<stop offset="1" stop-color="#E85E26"/>
</linearGradient>
</defs>
</svg>
