<svg width="20" height="23" viewBox="0 0 20 23" fill="none" xmlns="http://www.w3.org/2000/svg">
<path d="M18.7463 22.2022C8.08251 22.2183 -0.0112383 13.4185 1.17134e-05 2.06C1.17134e-05 1.31728 0.560011 0.712891 1.25001 0.712891H4.55001C5.16876 0.712891 5.69501 1.20177 5.78626 1.85988C6.00389 3.43808 6.43116 4.97456 7.05501 6.42234L7.18376 6.7205C7.27024 6.92115 7.28885 7.14793 7.23636 7.36174C7.18388 7.57554 7.06359 7.76296 6.89626 7.89167C5.87376 8.67603 5.48376 10.2542 6.28001 11.4844C7.28249 13.0334 8.53369 14.3783 9.97501 15.4559C11.1213 16.3101 12.59 15.8911 13.3188 14.7938C13.4384 14.6134 13.613 14.4837 13.8123 14.4271C14.0115 14.3704 14.223 14.3904 14.41 14.4835L14.6863 14.6205C16.0338 15.2921 17.4638 15.7514 18.9325 15.9851C19.545 16.0831 20 16.6486 20 17.3147V20.8591C20 21.0356 19.9676 21.2104 19.9047 21.3734C19.8418 21.5365 19.7496 21.6846 19.6334 21.8093C19.5172 21.9341 19.3793 22.033 19.2275 22.1004C19.0757 22.1678 18.913 22.2024 18.7488 22.2022H18.7463Z" fill="#2AA1D8"/>
</svg>
