<svg width="100" height="123" viewBox="0 0 100 123" fill="none" xmlns="http://www.w3.org/2000/svg">
<path fill-rule="evenodd" clip-rule="evenodd" d="M22.7742 0.850773C20.6922 1.49048 19.0621 2.84372 18.1233 4.71033C17.2595 6.42837 17.2175 7.69834 17.2175 32.0812V57.6507H11.6058C5.13027 57.6507 3.50392 58.1427 1.59681 60.6789C-1.03789 64.1831 -0.157326 69.3093 3.51185 71.8298C5.05284 72.8883 5.7711 73.0151 11.2145 73.1868L17.2175 73.3766V78.5255V83.6744H11.6939C4.96283 83.6744 2.79499 84.5365 1.03479 87.9139C-1.04349 91.9012 0.263372 96.2377 4.14243 98.224C5.94787 99.1486 6.94503 99.2886 11.7196 99.2886H17.2175V107.824C17.2175 115.381 17.3229 116.569 18.1359 118.186C20.1437 122.179 25.6328 123.54 29.0529 120.894C32.1027 118.534 32.3574 117.585 32.529 107.924L32.6829 99.2886H54.1863C74.9818 99.2886 75.7551 99.2565 77.685 98.3087C80.7483 96.8041 82.4605 93.3926 81.8393 90.0308C81.4274 87.8036 78.6766 84.7669 76.5214 84.1594C75.4859 83.8679 66.5418 83.6787 53.7134 83.6772L32.6088 83.6744V78.5326V73.3908L48.8162 73.1286C62.5032 72.9072 65.6766 72.7222 69.2213 71.9391C82.0888 69.0978 91.5689 62.1883 96.2636 52.2302C98.9156 46.6052 99.5331 43.8127 99.5117 37.5414C99.4445 18.2275 84.4161 3.17114 62.9248 0.885785C57.745 0.335029 24.5456 0.306167 22.7742 0.850773ZM84.1755 35.8977C83.3159 27.3704 76.5265 20.0236 66.8599 17.161C64.5484 16.4764 61.4888 16.3075 48.3498 16.1385L32.6088 15.936V36.8473V57.7585L48.583 57.5186C65.3837 57.2665 67.3524 57.0436 72.4903 54.8108C80.2782 51.4258 84.9744 43.825 84.1755 35.8977Z" fill="#FF6B2F" fill-opacity="0.2"/>
</svg>
