<svg width="24" height="44" viewBox="0 0 24 44" fill="none" xmlns="http://www.w3.org/2000/svg">
<path fill-rule="evenodd" clip-rule="evenodd" d="M13.3401 43.8363L12.5517 43.1372C10.4278 41.2538 9.23886 40.0388 7.80333 38.2844C1.96891 31.1543 -0.720165 22.141 0.488093 13.7649C1.12838 9.32606 2.62506 5.66201 5.26443 2.07179L6.39918 0.52838L6.90865 0.50185C7.31728 0.480569 7.48328 0.526689 7.7465 0.734685C8.18014 1.07735 8.27218 1.36693 8.19446 2.14369C7.47827 9.29588 10.0483 17.2444 15.0836 23.4511C16.8645 25.6462 17.8827 26.637 20.8135 29.027L23.3853 31.1242C23.3853 31.1242 19.3631 36.3046 19.1564 36.4758L13.3401 43.8363Z" fill="#F0F5F8"/>
</svg>
