<svg width="39" height="49" viewBox="0 0 39 49" fill="none" xmlns="http://www.w3.org/2000/svg">
<path fill-rule="evenodd" clip-rule="evenodd" d="M32.4379 48.0466L31.1102 47.541C27.5333 46.1792 25.4498 45.2315 22.789 43.7562C11.9745 37.7599 4.09523 28.3944 1.3546 18.2787C-0.0978344 12.9179 -0.100242 8.12392 1.34686 2.97973L1.96909 0.768225L2.5853 0.543536C3.07955 0.363316 3.30802 0.353234 3.73845 0.492713C4.44757 0.7225 4.70768 1.02124 5.00427 1.94626C7.73439 10.4638 14.9282 18.6472 24.2885 23.8834C27.5989 25.7353 29.358 26.4895 34.1882 28.1279L38.4266 29.5656C38.4266 29.5656 36.0743 37.0697 35.9055 37.3457L32.4379 48.0466Z" fill="#F0F5F8"/>
</svg>
