<svg width="22" height="22" viewBox="0 0 22 22" fill="none" xmlns="http://www.w3.org/2000/svg">
<path d="M1.04906 9.76398L0.950067 9.7499C1.11772 8.57185 1.42142 7.57227 1.92184 6.55325L2.01115 6.59711L1.92185 6.55325C2.4528 5.47212 3.08111 4.60673 3.94475 3.76716M1.04906 9.76398L12.3971 0.982872L12.3825 1.08178L12.3971 0.982873M1.04906 9.76398L0.950067 9.7499C0.916214 9.9878 0.9 10.4954 0.9 10.9955C0.9 11.4955 0.916214 12.0031 0.950067 12.241C1.11869 13.426 1.42239 14.4243 1.9234 15.4379C2.92794 17.4705 4.50497 19.0538 6.50671 20.0385C7.28414 20.4209 7.75652 20.597 8.52097 20.7886C10.4685 21.277 12.4269 21.1905 14.346 20.5318C14.9048 20.34 16.0068 19.7913 16.5198 19.4497C17.727 18.646 18.7964 17.553 19.5756 16.3269L19.4912 16.2732M1.04906 9.76398L19.4912 16.2732M3.94475 3.76716L4.01446 3.83886M3.94475 3.76716C3.94475 3.76716 3.94475 3.76716 3.94475 3.76716L4.01446 3.83886M3.94475 3.76716C4.77814 2.95696 5.51533 2.43642 6.5459 1.93065C7.7195 1.35467 8.78987 1.05788 10.2167 0.911441C10.3863 0.89403 10.8375 0.898111 11.2863 0.912869C11.7362 0.927661 12.2001 0.953747 12.3971 0.982873M4.01446 3.83886C3.15904 4.67044 2.53751 5.52649 2.0116 6.59733C1.51604 7.60644 1.21531 8.59584 1.04907 9.76399C0.983644 10.2238 0.983644 11.7671 1.04907 12.2269C1.21629 13.4021 1.51702 14.39 2.01305 15.3936L10.2269 1.01092C8.81067 1.15627 7.75193 1.45015 6.58995 2.02042C5.56895 2.52149 4.84039 3.0359 4.01446 3.83886ZM12.3971 0.982873C13.4778 1.14265 14.4573 1.44868 15.4333 1.93165M12.3971 0.982873L15.4333 1.93165M19.4912 16.2732L19.5756 16.3268C19.6808 16.1612 19.8943 15.7686 20.0511 15.4535L19.9616 15.409M19.4912 16.2732L19.9616 15.409M19.9616 15.409L20.0511 15.4535C21.9974 11.5413 21.1842 6.83079 18.0345 3.76776M19.9616 15.409L18.0345 3.76776M18.0345 3.76776C17.2054 2.9614 16.4805 2.44981 15.4333 1.93165M18.0345 3.76776L15.4333 1.93165M3.77392 15.7626L3.69077 15.8182L3.77392 15.7626C3.08515 14.7318 2.62998 13.5522 2.41978 12.2501C2.37261 11.9578 2.34838 11.4788 2.34842 10.995C2.34846 10.5112 2.37278 10.0325 2.42 9.74088C2.73115 7.81982 3.53781 6.22887 4.87957 4.88753C6.34694 3.42063 8.20845 2.5522 10.2946 2.36192C10.4988 2.3433 10.9018 2.34642 11.315 2.36428C11.7277 2.38213 12.1397 2.41422 12.3612 2.45142C14.789 2.85927 16.8395 4.18454 18.205 6.22832C18.8938 7.25917 19.3489 8.43877 19.5592 9.74083C19.6062 10.0326 19.6305 10.5116 19.6305 10.9955C19.6305 11.4793 19.6062 11.9583 19.5592 12.2501C19.1423 14.8323 17.7294 16.9747 15.5312 18.3588C14.5919 18.9503 13.458 19.366 12.2445 19.5623C11.9515 19.6096 11.4723 19.6339 10.9885 19.6338C10.5047 19.6337 10.0261 19.6093 9.73456 19.5618L9.7185 19.6605L9.73456 19.5618C7.22844 19.1538 5.15735 17.8332 3.77392 15.7626Z" fill="#2AA1D8" stroke="#2AA1D8" stroke-width="0.2"/>
<path d="M10.0654 12.7334V12.272C10.0654 11.9106 10.1069 11.5957 10.1899 11.3271C10.2729 11.0586 10.4121 10.8071 10.6074 10.5728C10.8027 10.3335 11.0664 10.0845 11.3984 9.82568C11.7402 9.55713 12.0112 9.3252 12.2114 9.12988C12.4165 8.93457 12.563 8.73926 12.6509 8.54395C12.7437 8.34375 12.79 8.11182 12.79 7.84814C12.79 7.43311 12.6484 7.11816 12.3652 6.90332C12.0869 6.68359 11.6938 6.57373 11.186 6.57373C10.7368 6.57373 10.3145 6.63721 9.91895 6.76416C9.52344 6.89111 9.13281 7.0498 8.74707 7.24023L8.13916 5.95117C8.5835 5.70703 9.06445 5.51172 9.58203 5.36523C10.1045 5.21387 10.6782 5.13818 11.3032 5.13818C12.2993 5.13818 13.0684 5.37988 13.6104 5.86328C14.1572 6.34668 14.4307 6.98389 14.4307 7.7749C14.4307 8.20947 14.3623 8.58301 14.2256 8.89551C14.0889 9.20312 13.8862 9.48877 13.6177 9.75244C13.354 10.0112 13.0342 10.2847 12.6582 10.5728C12.3506 10.8169 12.1138 11.0293 11.9478 11.21C11.7866 11.3857 11.6743 11.564 11.6108 11.7446C11.5522 11.9253 11.5229 12.1426 11.5229 12.3965V12.7334H10.0654ZM9.78711 15.0918C9.78711 14.6914 9.88965 14.4106 10.0947 14.2495C10.3047 14.0835 10.561 14.0005 10.8638 14.0005C11.1567 14.0005 11.4082 14.0835 11.6182 14.2495C11.8281 14.4106 11.9331 14.6914 11.9331 15.0918C11.9331 15.4824 11.8281 15.7656 11.6182 15.9414C11.4082 16.1123 11.1567 16.1978 10.8638 16.1978C10.561 16.1978 10.3047 16.1123 10.0947 15.9414C9.88965 15.7656 9.78711 15.4824 9.78711 15.0918Z" fill="#2AA1D8"/>
</svg>
