<svg width="37" height="30" viewBox="0 0 37 30" fill="none" xmlns="http://www.w3.org/2000/svg">
<path d="M20.2586 6.95C20.2586 8.8 20.7619 10.4 21.7938 11.7C23.3541 13.65 26.3992 13.9 28.1608 13.5C28.8906 17.625 25.3674 22.875 20.8123 25.125L24.3104 30C31.1808 26.75 37.9505 19.3 36.7928 9.875C36.063 3.925 32.5901 0 27.6827 0C25.5435 0 23.7567 0.625 22.3474 1.875C20.9381 3.125 20.2586 4.825 20.2586 6.95ZM-0.000225067 6.95C-0.000225067 8.8 0.503101 10.4 1.53492 11.7C3.12039 13.65 6.14034 13.9 7.90198 13.5C8.6318 17.625 5.10853 22.875 0.553436 25.125L4.05154 30C10.9219 26.75 17.6665 19.3 16.5088 9.875C15.779 3.925 12.3312 0 7.42382 0C5.28469 0 3.49789 0.625 2.08858 1.875C0.679268 3.125 -0.000225067 4.825 -0.000225067 6.95Z" fill="white"/>
</svg>
