<svg width="100" height="52" viewBox="0 0 100 52" fill="none" xmlns="http://www.w3.org/2000/svg">
<path d="M61.8097 0.0958945C61.1698 0.253908 60.8258 0.481283 60.4176 1.01661C59.8844 1.7157 59.8745 2.8363 60.3946 3.60598C60.5945 3.90176 65.104 8.96805 70.4158 14.8645C75.7277 20.7608 80.0737 25.6328 80.0737 25.6911C80.0737 25.7494 75.7277 30.6214 70.4158 36.5177C65.104 42.4141 60.6024 47.4681 60.4122 47.749C59.9197 48.4764 59.8672 49.2762 60.2618 50.0419C60.6599 50.8143 61.2806 51.2321 62.1928 51.3418C62.5841 51.3887 66.0747 51.4082 69.9498 51.3849C76.5945 51.3451 77.02 51.3279 77.4261 51.082C77.9921 50.7395 98.9299 27.4871 99.3294 26.7575C99.6827 26.1123 99.7207 25.4716 99.4452 24.8121C99.2144 24.2598 78.3852 1.03741 77.5936 0.449954L77.0406 0.0395291L69.6304 0.0170923C65.5547 0.00477957 62.0355 0.0402135 61.8097 0.0958945Z" fill="url(#paint0_linear_1267_11551)"/>
<path d="M31.9076 0.172208C31.2696 0.399583 30.5257 1.18924 30.3969 1.77574C30.3474 2.00092 30.3471 2.4528 30.3961 2.77977C30.5034 3.49473 29.6439 2.49726 41.4632 15.6244C46.4032 21.1113 50.4451 25.6421 50.4451 25.693C50.4451 25.7439 46.0972 30.6123 40.7831 36.5119C35.4691 42.4114 30.9606 47.4475 30.7643 47.7034C30.4692 48.0879 30.4069 48.3149 30.405 49.0133C30.4031 49.7296 30.461 49.9344 30.786 50.361C31.5701 51.3898 31.139 51.3425 39.7225 51.3425H47.4007L47.8756 51.0005C48.5829 50.491 69.6041 27.0783 69.8217 26.5576C70.0594 25.9886 70.0594 25.3932 69.8217 24.8242C69.6043 24.3037 48.5831 0.890998 47.8757 0.381387L47.4008 0.0393666L39.9278 0.00831149C33.7476 -0.0174085 32.3601 0.0110474 31.9076 0.172208Z" fill="url(#paint1_linear_1267_11551)"/>
<path d="M1.80975 0.095732C1.16976 0.253746 0.82582 0.48112 0.417584 1.01645C-0.115558 1.71554 -0.125545 2.83614 0.394601 3.60582C0.594478 3.9016 5.10395 8.96789 10.4158 14.8643C15.7277 20.7606 20.0737 25.6326 20.0737 25.6909C20.0737 25.7492 15.7277 30.6212 10.4158 36.5175C5.10395 42.414 0.602412 47.4679 0.412249 47.7488C-0.0802611 48.4762 -0.132795 49.276 0.26176 50.0417C0.659872 50.8141 1.28057 51.2319 2.19281 51.3417C2.58408 51.3886 6.07474 51.408 9.94984 51.3848C16.5945 51.3449 17.02 51.3277 17.4261 51.0819C17.9921 50.7393 38.9299 27.4869 39.3294 26.7573C39.6827 26.1122 39.7207 25.4715 39.4452 24.8119C39.2144 24.2596 18.3852 1.03725 17.5936 0.449792L17.0406 0.0393666L9.63039 0.0169298C5.55474 0.0046171 2.03548 0.040051 1.80975 0.095732Z" fill="url(#paint2_linear_1267_11551)"/>
<defs>
<linearGradient id="paint0_linear_1267_11551" x1="60" y1="25.7047" x2="98.9806" y2="26.4451" gradientUnits="userSpaceOnUse">
<stop stop-color="#88B1F2"/>
<stop offset="0.994892" stop-color="#527ADF"/>
</linearGradient>
<linearGradient id="paint1_linear_1267_11551" x1="1.49314e-07" y1="25.6973" x2="68.8063" y2="28.0053" gradientUnits="userSpaceOnUse">
<stop stop-color="#88B1F2"/>
<stop offset="0.994892" stop-color="#527ADF"/>
</linearGradient>
<linearGradient id="paint2_linear_1267_11551" x1="1.49314e-07" y1="25.6973" x2="68.8063" y2="28.0053" gradientUnits="userSpaceOnUse">
<stop stop-color="#88B1F2"/>
<stop offset="0.994892" stop-color="#527ADF"/>
</linearGradient>
</defs>
</svg>
