<svg width="15" height="13" viewBox="0 0 15 13" fill="none" xmlns="http://www.w3.org/2000/svg">
<path fill-rule="evenodd" clip-rule="evenodd" d="M6.14833 0.0878678L6.23394 0.173477V1.63741V3.10132L6.5195 3.11977C7.28875 3.16947 7.7464 3.23627 8.34734 3.38658C10.7897 3.99744 12.8791 5.66742 14.0314 7.92951C14.642 9.1283 14.9398 10.3033 14.9819 11.6793L15 12.2709L14.896 12.3749C14.8125 12.4583 14.7694 12.479 14.6784 12.479C14.5283 12.479 14.46 12.4264 14.3459 12.2232C13.2948 10.3521 11.4099 8.91742 9.29311 8.37735C8.54445 8.18634 8.16089 8.1412 7.13455 8.12325L6.23394 8.10749V9.57172C6.23394 10.9954 6.2323 11.038 6.1749 11.111C6.09078 11.2179 5.94229 11.2618 5.82777 11.2135C5.71973 11.168 0.122138 5.89097 0.042387 5.75944C0.000593185 5.69053 -0.00825214 5.64062 0.00694847 5.55955C0.0251074 5.46269 0.322615 5.17242 2.87621 2.76011C4.44315 1.27983 5.75312 0.0537472 5.78727 0.0354714C5.90421 -0.0271172 6.05525 -0.00518036 6.14833 0.0878678ZM3.18037 3.32645C1.86569 4.5668 0.792513 5.59745 0.795529 5.61675C0.798546 5.63605 1.88173 6.67264 3.20263 7.92025L5.60425 10.1886L5.61889 8.93951C5.63479 7.58394 5.63321 7.59615 5.79948 7.52727C5.85595 7.5039 6.2108 7.49818 7.01576 7.50776C7.98642 7.51927 8.21 7.53034 8.5477 7.58356C10.231 7.84891 11.7385 8.54315 13.0141 9.64037C13.3529 9.93179 13.8164 10.4084 14.0667 10.7229C14.3365 11.0617 14.3237 11.0538 14.3019 10.8681C14.1919 9.93205 13.79 8.73678 13.2975 7.88074C11.8352 5.33933 9.1452 3.75113 6.30312 3.75113C6.02954 3.75113 5.87958 3.73848 5.81026 3.70951C5.61927 3.6297 5.61889 3.62686 5.61889 2.27109C5.61889 1.60045 5.60805 1.05613 5.59482 1.06152C5.58155 1.06688 4.49508 2.0861 3.18037 3.32645Z" fill="#464646" fill-opacity="0.5"/>
<path d="M3.18037 3.32645C1.86569 4.5668 0.792513 5.59745 0.795529 5.61675C0.798546 5.63605 1.88173 6.67264 3.20263 7.92025L5.60425 10.1886L5.61889 8.93951C5.63479 7.58394 5.63321 7.59615 5.79948 7.52727C5.85595 7.5039 6.2108 7.49818 7.01576 7.50776C7.98642 7.51927 8.21 7.53034 8.5477 7.58356C10.231 7.84891 11.7385 8.54315 13.0141 9.64037C13.3529 9.93179 13.8164 10.4084 14.0667 10.7229C14.3365 11.0617 14.3237 11.0538 14.3019 10.8681C14.1919 9.93205 13.79 8.73678 13.2975 7.88074C11.8352 5.33933 9.1452 3.75113 6.30312 3.75113C6.02954 3.75113 5.87958 3.73848 5.81026 3.70951C5.61927 3.6297 5.61889 3.62686 5.61889 2.27109C5.61889 1.60045 5.60805 1.05613 5.59482 1.06152C5.58155 1.06688 4.49508 2.0861 3.18037 3.32645Z" fill="#464646" fill-opacity="0.5"/>
</svg>
