<svg width="22" height="22" viewBox="0 0 22 22" fill="none" xmlns="http://www.w3.org/2000/svg">
<path fill-rule="evenodd" clip-rule="evenodd" d="M10.2443 1.01085C10.1691 1.0196 9.94383 1.0458 9.7438 1.0691C8.39707 1.22596 6.90432 1.75183 5.73357 2.48183C4.48177 3.2623 3.25301 4.49294 2.46241 5.75795C1.76416 6.8751 1.25475 8.31957 1.04906 9.76549C0.983647 10.2253 0.983647 11.7688 1.04906 12.2287C1.21288 13.3803 1.51726 14.3891 1.9928 15.3565C2.53083 16.451 3.05783 17.1863 3.92787 18.0564C4.78842 18.9169 5.53519 19.4543 6.58868 19.971C7.32376 20.3316 7.79837 20.5072 8.54357 20.6941C9.31079 20.8865 9.88428 20.9673 10.6744 20.9942C12.953 21.0717 15.1397 20.3763 17.0083 18.9801C17.5261 18.5932 18.4791 17.6607 18.8535 17.1745C19.8373 15.897 20.497 14.4702 20.7967 12.9715C20.9437 12.2364 20.9754 11.887 20.9754 10.9971C20.9754 9.9175 20.8741 9.14524 20.6235 8.31441C20.5436 8.04944 20.5001 7.97164 20.3596 7.84214C19.9417 7.45695 19.3167 7.56611 19.0667 8.0679C18.9393 8.32348 18.9379 8.43538 19.0567 8.89505C19.1082 9.09425 19.1803 9.42436 19.2169 9.62864C19.3071 10.1323 19.3387 11.305 19.277 11.8632C19.0623 13.8078 18.2484 15.507 16.8728 16.8826C15.7083 18.0471 14.2754 18.8288 12.7164 19.1499C12.0811 19.2808 11.6493 19.3242 10.9794 19.3246C8.74727 19.3259 6.69209 18.4721 5.1012 16.8826C4.59187 16.3738 4.14381 15.8017 3.80644 15.2295C2.38621 12.8208 2.2713 9.85854 3.5005 7.34142C4.61909 5.05067 6.74918 3.37983 9.22779 2.84895C10.4144 2.59478 11.7578 2.60717 12.9188 2.88297C13.7566 3.08202 14.7147 3.48375 15.4219 3.93251C15.7996 4.17218 15.9315 4.21351 16.2278 4.18505C16.7469 4.1352 17.0809 3.52656 16.8559 3.04065C16.7671 2.8488 16.6396 2.72881 16.285 2.50329C15.1594 1.7876 13.7977 1.29255 12.3752 1.08193C12.0014 1.02656 10.5312 0.977534 10.2443 1.01085ZM19.8233 2.73084C19.7341 2.769 18.1744 4.30089 15.3374 7.13694L10.9883 11.4845L9.53134 10.0355C8.29867 8.80943 8.04961 8.5793 7.91347 8.54059C7.66708 8.47049 7.50314 8.48515 7.27794 8.59736C6.92613 8.77267 6.75539 9.14062 6.84551 9.5291C6.88969 9.71943 6.95507 9.79047 8.69488 11.539C9.90817 12.7583 10.5496 13.3754 10.6549 13.4246C10.8546 13.5179 11.1202 13.5177 11.3195 13.4243C11.4277 13.3736 12.9299 11.8948 16.1939 8.6259C21.184 3.62825 20.9958 3.82957 20.9958 3.49028C20.9958 3.19345 20.8014 2.88739 20.5226 2.74511C20.3432 2.65358 20.0193 2.64697 19.8233 2.73084Z" fill="#2AA1D8" stroke="#2AA1D8" stroke-width="0.3"/>
</svg>
