<svg width="45" height="45" viewBox="0 0 45 45" fill="none" xmlns="http://www.w3.org/2000/svg">
<path d="M22.5 45C34.9264 45 45 34.9264 45 22.5C45 10.0736 34.9264 0 22.5 0C10.0736 0 0 10.0736 0 22.5C0 34.9264 10.0736 45 22.5 45Z" fill="url(#paint0_linear_1267_11097)"/>
<path d="M8.37953 23.6005C11.0098 22.1517 13.9458 20.9425 16.6891 19.7271C21.4087 17.7364 26.147 15.7802 30.9331 13.959C31.8644 13.6487 33.5375 13.3453 33.7016 14.7253C33.6118 16.6786 33.2422 18.6206 32.9887 20.5625C32.3453 24.833 31.6017 29.0889 30.8765 33.3453C30.6267 34.7631 28.8506 35.4971 27.7141 34.5898C24.983 32.7449 22.2309 30.9181 19.5346 29.0306C18.6514 28.1331 19.4704 26.8443 20.2592 26.2034C22.5087 23.9866 24.8942 22.1032 27.0261 19.7718C27.6012 18.3831 25.902 19.5535 25.3416 19.9121C22.2621 22.0342 19.258 24.2859 16.0112 26.1509C14.3528 27.0639 12.4199 26.2837 10.7622 25.7743C9.27583 25.1589 7.09781 24.5389 8.37938 23.6006L8.37953 23.6005Z" fill="white"/>
<defs>
<linearGradient id="paint0_linear_1267_11097" x1="16.8776" y1="1.8765" x2="5.62762" y2="28.125" gradientUnits="userSpaceOnUse">
<stop stop-color="#37AEE2"/>
<stop offset="1" stop-color="#1E96C8"/>
</linearGradient>
</defs>
</svg>
