<svg width="30" height="30" viewBox="0 0 30 30" fill="none" xmlns="http://www.w3.org/2000/svg">
<path fill-rule="evenodd" clip-rule="evenodd" d="M10.3952 0H19.6048C28.0099 0 30 1.99012 30 10.3952V19.6048C30 28.0099 28.0099 30 19.6048 30H10.3952C1.99012 30 0 28.0099 0 19.6048V10.3952C0 1.99012 1.99012 0 10.3952 0Z" fill="#4680C2"/>
<path fill-rule="evenodd" clip-rule="evenodd" d="M24.5201 9.57569C24.6683 9.10994 24.5201 8.77119 23.8638 8.77119H21.6831C21.1327 8.77119 20.8786 9.06756 20.7304 9.38519C20.7304 9.38519 19.6083 12.0951 18.0416 13.8523C17.5335 14.3604 17.3006 14.5298 17.0254 14.5298C16.8772 14.5298 16.6867 14.3604 16.6867 13.8947V9.5545C16.6867 9.00406 16.5173 8.75 16.0515 8.75H12.6217C12.283 8.75 12.0713 9.00406 12.0713 9.25813C12.0713 9.78744 12.8546 9.91444 12.9393 11.3964V14.6145C12.9393 15.3132 12.8123 15.4402 12.5371 15.4402C11.7961 15.4402 9.99649 12.7091 8.91674 9.59688C8.70499 8.98288 8.49331 8.75 7.94287 8.75H5.74099C5.10586 8.75 5 9.04644 5 9.364C5 9.93562 5.74099 12.8149 8.45093 16.6258C10.2506 19.2299 12.8123 20.6272 15.12 20.6272C16.5173 20.6272 16.6867 20.3096 16.6867 19.7804V17.8114C16.6867 17.1762 16.8137 17.0704 17.2583 17.0704C17.5759 17.0704 18.1475 17.2397 19.4389 18.4889C20.9209 19.9709 21.175 20.6484 22.0007 20.6484H24.1814C24.8165 20.6484 25.1129 20.3308 24.9436 19.7168C24.753 19.1029 24.0332 18.2137 23.1016 17.1551C22.5935 16.5623 21.8313 15.906 21.5984 15.5884C21.2809 15.165 21.3656 14.9956 21.5984 14.6145C21.5773 14.6145 24.2449 10.846 24.5201 9.57569Z" fill="white"/>
</svg>
