<svg width="35" height="35" viewBox="0 0 35 35" fill="none" xmlns="http://www.w3.org/2000/svg">
<circle cx="17.5" cy="17.5" r="17.5" fill="#4680C2"/>
<path fill-rule="evenodd" clip-rule="evenodd" d="M28.6065 11.1718C28.7794 10.6284 28.6065 10.2332 27.8408 10.2332H25.2966C24.6545 10.2332 24.3581 10.579 24.1852 10.9495C24.1852 10.9495 22.876 14.1111 21.0482 16.1612C20.4554 16.754 20.1837 16.9516 19.8627 16.9516C19.6897 16.9516 19.4675 16.754 19.4675 16.2106V11.1471C19.4675 10.5049 19.2699 10.2085 18.7264 10.2085H14.725C14.3298 10.2085 14.0829 10.5049 14.0829 10.8013C14.0829 11.4188 14.9967 11.567 15.0955 13.296V17.0504C15.0955 17.8655 14.9474 18.0137 14.6262 18.0137C13.7617 18.0137 11.6623 14.8274 10.4025 11.1965C10.1555 10.4802 9.90853 10.2085 9.26635 10.2085H6.6975C5.95651 10.2085 5.83301 10.5543 5.83301 10.9248C5.83301 11.5917 6.6975 14.9509 9.85909 19.3969C11.9587 22.435 14.9474 24.0652 17.6397 24.0652C19.2699 24.0652 19.4675 23.6947 19.4675 23.0773V20.7802C19.4675 20.0391 19.6156 19.9157 20.1344 19.9157C20.5049 19.9157 21.1718 20.1132 22.6784 21.5705C24.4074 23.2995 24.7038 24.0899 25.6671 24.0899H28.2113C28.9523 24.0899 29.2981 23.7194 29.1005 23.0031C28.8782 22.2869 28.0384 21.2495 26.9516 20.0144C26.3588 19.3229 25.4695 18.5572 25.1978 18.1866C24.8274 17.6927 24.9262 17.4951 25.1978 17.0504C25.1732 17.0504 28.2854 12.6538 28.6065 11.1718Z" fill="white"/>
</svg>
