<svg width="53" height="34" viewBox="0 0 53 34" fill="none" xmlns="http://www.w3.org/2000/svg">
<path fill-rule="evenodd" clip-rule="evenodd" d="M51.7528 2.35943C52.1457 1.02853 51.7528 0.060544 50.0127 0.060544H44.2312C42.7718 0.060544 42.0982 0.907445 41.7054 1.81507C41.7054 1.81507 38.7303 9.55881 34.5766 14.58C33.2295 16.032 32.6121 16.516 31.8825 16.516C31.4894 16.516 30.9844 16.032 30.9844 14.7011V2.29889C30.9844 0.725992 30.5353 0 29.3003 0H20.2072C19.3091 0 18.7478 0.725992 18.7478 1.45198C18.7478 2.96451 20.8246 3.32742 21.0491 7.56228V16.758C21.0491 18.7545 20.7124 19.1174 19.9826 19.1174C18.0181 19.1174 13.247 11.3132 10.3843 2.41997C9.82288 0.665448 9.26164 0 7.80229 0H1.96456C0.280668 0 0 0.84708 0 1.75453C0 3.38796 1.96456 11.6157 9.14929 22.5054C13.9206 29.9466 20.7124 33.9395 26.8307 33.9395C30.5353 33.9395 30.9844 33.032 30.9844 31.5197V25.8934C30.9844 24.0783 31.3211 23.7759 32.4999 23.7759C33.3418 23.7759 34.8573 24.2597 38.2813 27.8292C42.2104 32.064 42.884 34 45.0731 34H50.8547C52.5386 34 53.3245 33.0926 52.8754 31.338C52.3702 29.5837 50.4618 27.0428 47.992 24.0177C46.6448 22.3239 44.6241 20.4485 44.0067 19.5409C43.1647 18.3311 43.3892 17.8471 44.0067 16.758C43.9506 16.758 51.023 5.98939 51.7528 2.35943Z" fill="white"/>
</svg>
