<svg width="20" height="21" viewBox="0 0 20 21" fill="none" xmlns="http://www.w3.org/2000/svg">
<path fill-rule="evenodd" clip-rule="evenodd" d="M14.5823 12.4195C14.3328 12.2908 13.1095 11.6708 12.8817 11.5844C12.6539 11.499 12.4881 11.4566 12.3215 11.714C12.1557 11.9696 11.6793 12.5482 11.5344 12.7191C11.3887 12.891 11.2438 12.9117 10.9952 12.7839C10.7465 12.6544 9.94429 12.3841 8.99391 11.5102C8.25453 10.8297 7.75464 9.98949 7.60978 9.73215C7.46492 9.47568 7.59387 9.33665 7.71863 9.20884C7.83084 9.09399 7.96732 8.90919 8.09209 8.7598C8.21685 8.60955 8.25788 8.50247 8.34078 8.33062C8.42451 8.15964 8.38265 8.01025 8.31985 7.88158C8.25788 7.75291 7.7605 6.48955 7.55284 5.97574C7.35104 5.47575 7.14589 5.54397 6.99349 5.53534C6.8478 5.52843 6.682 5.5267 6.51621 5.5267C6.35041 5.5267 6.08079 5.5906 5.85303 5.84794C5.62444 6.10441 4.98219 6.7253 4.98219 7.98866C4.98219 9.25116 5.87313 10.4713 5.99789 10.6432C6.12266 10.8142 7.75213 13.4065 10.2482 14.5179C10.8428 14.7821 11.3058 14.9402 11.6667 15.0576C12.2629 15.2536 12.8055 15.226 13.2342 15.1595C13.7115 15.0861 14.7063 14.5386 14.9139 13.9393C15.1208 13.34 15.1207 12.8262 15.0588 12.7191C14.9968 12.6121 14.831 12.5482 14.5815 12.4195H14.5823ZM10.0423 18.8123H10.0389C8.55634 18.8126 7.10099 18.4016 5.8254 17.6223L5.52396 17.4375L2.39062 18.2855L3.22712 15.1353L3.03035 14.8124C2.20149 13.4517 1.76286 11.877 1.76512 10.2701C1.76679 5.56383 5.47958 1.73489 10.0456 1.73489C12.2562 1.73489 14.3345 2.62434 15.897 4.23743C16.6676 5.02894 17.2785 5.97019 17.6941 7.00672C18.1098 8.04326 18.322 9.15451 18.3186 10.2762C18.3169 14.9825 14.6041 18.8123 10.0423 18.8123ZM17.086 3.01207C16.1634 2.05433 15.0657 1.29495 13.8564 0.777914C12.6472 0.26088 11.3505 -0.00352001 10.0414 3.53858e-05C4.55347 3.53858e-05 0.085409 4.60703 0.0837344 10.2693C0.0811914 12.0713 0.539563 13.8421 1.4126 15.403L0 20.725L5.27861 19.2967C6.73884 20.1172 8.37519 20.5471 10.0381 20.5471H10.0423C15.5302 20.5471 19.9983 15.9402 20 10.277C20.004 8.92757 19.7485 7.59065 19.2484 6.34364C18.7482 5.09663 18.0132 3.96427 17.086 3.01207Z" fill="white"/>
</svg>
