<svg width="36" height="36" viewBox="0 0 36 36" fill="none" xmlns="http://www.w3.org/2000/svg">
<path d="M19.4116 0.985797L19.4116 0.985798C17.6298 1.30141 16.0587 1.90235 14.5155 2.85849L14.5938 2.98478L14.5155 2.85849C12.0364 4.39458 9.99513 6.90373 9.00742 9.62951L9.14845 9.68061L9.00742 9.62951C7.67241 13.3141 7.96271 17.2741 9.82081 20.7199L10.1145 21.2646L5.04373 26.3308C3.12592 28.2469 1.4442 29.9582 0.557694 30.864C0.128097 31.303 0.121971 32.0007 0.547926 32.4447C0.934385 32.8475 1.45969 33.3887 2.0363 33.965L2.14234 33.8589L2.0363 33.965L3.4719 35.3998C3.92088 35.8485 4.64851 35.8486 5.09759 35.3999L9.5752 30.9269L14.6808 25.8266L15.2263 26.1202C20.5173 28.9676 26.9615 28.04 31.1845 23.8209C33.2632 21.7443 34.518 19.2846 35.0246 16.2977C35.1093 15.7982 35.1503 15.0274 35.15 14.2654C35.1497 13.5034 35.1079 12.7358 35.0227 12.2429C34.4995 9.21699 33.2886 6.8431 31.2024 4.75896C29.1236 2.68212 26.666 1.42874 23.746 0.955634C23.2672 0.878064 22.4165 0.844807 21.5764 0.850653C20.7363 0.856499 19.8872 0.901581 19.4116 0.985797ZM23.5271 3.30083C26.8067 3.84514 29.7201 5.89517 31.403 8.8457C32.0046 9.90046 32.5002 11.3422 32.7031 12.6314C32.7568 12.9728 32.7846 13.6256 32.7845 14.2877C32.7844 14.9499 32.7562 15.6016 32.7023 15.9409C31.9497 20.6827 28.2812 24.4194 23.5725 25.2418C22.5741 25.4161 20.9119 25.4312 19.9767 25.2754C17.5285 24.8673 15.5501 23.8551 13.819 22.1255L13.7129 22.2316L13.8189 22.1255C12.0877 20.3961 11.0745 18.4197 10.6661 15.9739C10.5101 15.0397 10.5252 13.3791 10.6997 12.3817C11.3114 8.88621 13.5656 5.87418 16.7433 4.30585C18.0545 3.65879 19.047 3.38026 20.7924 3.17359C21.0031 3.14865 21.53 3.15412 22.0931 3.18012C22.6533 3.20599 23.2273 3.2511 23.5271 3.30083ZM12.3374 24.8665L12.4438 24.9723L12.3374 24.8665C12.2899 24.9143 12.2418 24.9607 12.1947 25.0051C12.0019 25.1865 11.696 25.1747 11.4971 24.9768L11.0166 24.4987C10.8035 24.2866 10.8002 23.9427 11.0092 23.7265L11.1547 23.576C11.3614 23.3623 11.6962 23.3537 11.9057 23.5564C11.9876 23.6357 12.0752 23.7216 12.1645 23.8112L12.2707 23.7053L12.1645 23.8112L12.3898 24.0371C12.6037 24.2516 12.6039 24.5987 12.3902 24.8134L12.3374 24.8665ZM7.26409 29.9349L7.37011 30.041L7.26409 29.9349C6.24249 30.9557 5.30961 31.8622 4.74427 32.4074C4.49141 32.6512 4.09049 32.6469 3.84076 32.398L3.55169 32.1098C3.2976 31.8566 3.29678 31.4453 3.54986 31.191L8.48313 26.234C8.72842 25.9875 9.11949 25.98 9.36374 26.2181C9.42762 26.2804 9.49418 26.3461 9.56176 26.4138L9.71517 26.5676C9.96855 26.8216 9.96821 27.2329 9.71442 27.4865L7.26409 29.9349ZM22.5446 13.2588V18.9235C22.5446 19.2825 22.8356 19.5735 23.1946 19.5735H23.723H24.2515C24.6105 19.5735 24.9015 19.2825 24.9015 18.9235V13.2588V7.59403C24.9015 7.23505 24.6105 6.94403 24.2515 6.94403H23.723H23.1946C22.8356 6.94403 22.5446 7.23505 22.5446 7.59403V13.2588ZM18.4307 15.3137V18.9235C18.4307 19.2825 18.7218 19.5735 19.0807 19.5735H19.6092H20.1377C20.4966 19.5735 20.7877 19.2825 20.7877 18.9235V15.3137V11.7038C20.7877 11.3449 20.4966 11.0538 20.1377 11.0538H19.6092H19.0807C18.7218 11.0538 18.4307 11.3449 18.4307 11.7038V15.3137ZM26.6584 15.3137V18.9235C26.6584 19.2825 26.9494 19.5735 27.3084 19.5735H27.8368H28.3653C28.7243 19.5735 29.0153 19.2825 29.0153 18.9235V15.3137V11.7038C29.0153 11.3449 28.7243 11.0538 28.3653 11.0538H27.8368H27.3084C26.9494 11.0538 26.6584 11.3449 26.6584 11.7038V15.3137ZM14.3169 17.3686V18.9235C14.3169 19.2825 14.6079 19.5735 14.9669 19.5735H15.4954H16.0238C16.3828 19.5735 16.6738 19.2825 16.6738 18.9235V17.3686V15.8137C16.6738 15.4547 16.3828 15.1637 16.0238 15.1637H15.4954H14.9669C14.6079 15.1637 14.3169 15.4547 14.3169 15.8137V17.3686Z" fill="#FF8655" stroke="#FF8655" stroke-width="0.3"/>
</svg>
