<svg width="37" height="37" viewBox="0 0 37 37" fill="none" xmlns="http://www.w3.org/2000/svg">
<mask id="path-1-outside-1_1267_10493" maskUnits="userSpaceOnUse" x="0" y="0" width="37" height="37" fill="black">
<rect fill="white" width="37" height="37"/>
<path fill-rule="evenodd" clip-rule="evenodd" d="M13.7188 1.15383C13.5288 1.28941 8.68617 6.78056 8.41393 7.16918C8.21593 7.45188 8.2778 7.78901 8.59859 8.17537C8.75844 8.3679 11.4274 11.3833 14.5296 14.8763C18.0782 18.8719 20.2537 21.2689 20.3955 21.3396C20.6302 21.4565 20.9032 21.4354 21.0964 21.2854C21.1953 21.2086 32.4593 8.54908 32.8697 8.05347C33.086 7.79223 33.1214 7.41134 32.9518 7.16918C32.6796 6.78056 27.837 1.28941 27.6469 1.15383L27.4312 1H20.6829H13.9345L13.7188 1.15383ZM17.1277 2.49011C17.1277 2.51999 16.5326 3.49685 15.8052 4.66084L14.4828 6.77721L12.5918 6.7954C11.5519 6.80538 10.701 6.7969 10.701 6.7766C10.701 6.75629 11.5494 5.7713 12.5864 4.58768L14.4717 2.43576H15.7997C16.5301 2.43576 17.1277 2.46023 17.1277 2.49011ZM23.8194 4.62358L25.1882 6.8114H20.6829H16.1775L17.5464 4.62358L18.9152 2.43576H20.6829H22.4506L23.8194 4.62358ZM28.7794 4.58768C29.8163 5.7713 30.6648 6.75629 30.6648 6.7766C30.6648 6.7969 29.8139 6.80538 28.7739 6.7954L26.883 6.77721L25.5606 4.66084C24.8332 3.49685 24.2381 2.51999 24.2381 2.49011C24.2381 2.46023 24.8356 2.43576 25.566 2.43576H26.894L28.7794 4.58768ZM16.2082 12.4166C17.2028 14.6534 18.0165 16.5086 18.0165 16.5393C18.0165 16.5846 11.1032 8.843 10.7771 8.43257C10.6874 8.31963 10.7811 8.3143 12.5412 8.33152L14.4001 8.34971L16.2082 12.4166ZM23.0514 13.5781C21.7675 16.4726 20.7017 18.8408 20.6829 18.8408C20.6641 18.8408 19.5983 16.4726 18.3144 13.5781L15.9801 8.31553H20.6829H25.3857L23.0514 13.5781ZM30.5877 8.43381C30.5046 8.53855 23.4946 16.4506 23.3327 16.6224C23.2439 16.7166 23.2597 16.6802 25.1269 12.4861C26.0393 10.4367 26.8283 8.6599 26.8802 8.53773L26.9747 8.31553H28.8281C30.5758 8.31553 30.6762 8.3223 30.5877 8.43381ZM1.42425 20.0384C0.963507 20.2388 0.988804 19.7495 1.0087 28.0711L1.02668 35.5918L1.2162 35.7814L1.40565 35.971L3.81424 35.9923C5.95071 36.0112 6.24696 36.0008 6.43689 35.9004C6.72322 35.749 6.80389 35.5447 6.80389 34.9709V34.4901L6.99191 34.5305C7.77447 34.6985 14.6997 35.8877 15.2439 35.9475C16.055 36.0367 17.4593 35.9846 18.305 35.8339C19.5767 35.6074 20.984 35.109 22.0161 34.5197C22.475 34.2577 26.8469 31.6047 31.998 28.4626C32.6749 28.0497 33.6394 27.4627 34.1414 27.1581C35.2856 26.464 35.5311 26.2541 35.7713 25.765C36.0276 25.243 36.0434 24.5104 35.8084 24.0337C35.4511 23.3084 34.7376 22.8581 33.946 22.8581C33.4974 22.8581 33.4039 22.895 28.9148 24.8473L24.3406 26.8365L24.2992 26.3004C24.2184 25.2546 23.6293 24.3907 22.6754 23.9192L22.1601 23.6645L17.6015 23.6303L13.0429 23.5961L12.723 23.2404C12.2788 22.7462 11.6537 22.2883 11.0086 21.9846C10.1072 21.5602 9.73783 21.4893 8.20547 21.4465L6.83808 21.4083L6.80389 20.8885C6.74141 19.9388 6.73778 19.9376 3.88329 19.941C2.12852 19.9431 1.59476 19.9642 1.42425 20.0384ZM5.36814 28.0073V34.5721L3.91529 34.5536L2.46244 34.5352L2.445 27.9888L2.42757 21.4425H3.89785H5.36814V28.0073ZM3.61207 22.2262C3.38426 22.3253 3.18032 22.6333 3.18032 22.8782C3.18032 23.1341 3.38652 23.4326 3.63511 23.5365C4.10159 23.7314 4.61607 23.3893 4.61607 22.8842C4.61607 22.5734 4.46067 22.3451 4.1649 22.2215C3.89054 22.1068 3.8865 22.1069 3.61207 22.2262ZM9.5654 23.013C10.5481 23.2644 11.2857 23.7636 12.0434 24.69L12.3229 25.0318L17.067 25.066C22.3698 25.1042 22.0982 25.0779 22.5243 25.595C23.0913 26.2827 22.9045 27.3289 22.1339 27.7819L21.811 27.9717L17.8014 28.0059C14.0067 28.0383 13.7842 28.0469 13.6505 28.168C13.419 28.3777 13.3433 28.7048 13.4612 28.9869C13.6562 29.4538 13.5396 29.4417 17.8461 29.4417C20.5386 29.4417 21.8138 29.4177 22.0371 29.3628C22.3892 29.2763 22.7902 29.1048 30.949 25.5536C32.5153 24.8718 33.8867 24.314 33.9965 24.314C34.2114 24.314 34.4465 24.5184 34.5234 24.772C34.6373 25.1481 34.636 25.149 27.7814 29.3182C24.1593 31.5213 21.0603 33.3917 20.8949 33.4746C19.3065 34.2708 17.2496 34.6639 15.5259 34.5005C15.0719 34.4575 12.9315 34.1085 10.7693 33.7249L6.83808 33.0275L6.82058 27.9529L6.80301 22.8782H7.92064C8.8091 22.8782 9.1463 22.9058 9.5654 23.013Z"/>
</mask>
<path fill-rule="evenodd" clip-rule="evenodd" d="M13.7188 1.15383C13.5288 1.28941 8.68617 6.78056 8.41393 7.16918C8.21593 7.45188 8.2778 7.78901 8.59859 8.17537C8.75844 8.3679 11.4274 11.3833 14.5296 14.8763C18.0782 18.8719 20.2537 21.2689 20.3955 21.3396C20.6302 21.4565 20.9032 21.4354 21.0964 21.2854C21.1953 21.2086 32.4593 8.54908 32.8697 8.05347C33.086 7.79223 33.1214 7.41134 32.9518 7.16918C32.6796 6.78056 27.837 1.28941 27.6469 1.15383L27.4312 1H20.6829H13.9345L13.7188 1.15383ZM17.1277 2.49011C17.1277 2.51999 16.5326 3.49685 15.8052 4.66084L14.4828 6.77721L12.5918 6.7954C11.5519 6.80538 10.701 6.7969 10.701 6.7766C10.701 6.75629 11.5494 5.7713 12.5864 4.58768L14.4717 2.43576H15.7997C16.5301 2.43576 17.1277 2.46023 17.1277 2.49011ZM23.8194 4.62358L25.1882 6.8114H20.6829H16.1775L17.5464 4.62358L18.9152 2.43576H20.6829H22.4506L23.8194 4.62358ZM28.7794 4.58768C29.8163 5.7713 30.6648 6.75629 30.6648 6.7766C30.6648 6.7969 29.8139 6.80538 28.7739 6.7954L26.883 6.77721L25.5606 4.66084C24.8332 3.49685 24.2381 2.51999 24.2381 2.49011C24.2381 2.46023 24.8356 2.43576 25.566 2.43576H26.894L28.7794 4.58768ZM16.2082 12.4166C17.2028 14.6534 18.0165 16.5086 18.0165 16.5393C18.0165 16.5846 11.1032 8.843 10.7771 8.43257C10.6874 8.31963 10.7811 8.3143 12.5412 8.33152L14.4001 8.34971L16.2082 12.4166ZM23.0514 13.5781C21.7675 16.4726 20.7017 18.8408 20.6829 18.8408C20.6641 18.8408 19.5983 16.4726 18.3144 13.5781L15.9801 8.31553H20.6829H25.3857L23.0514 13.5781ZM30.5877 8.43381C30.5046 8.53855 23.4946 16.4506 23.3327 16.6224C23.2439 16.7166 23.2597 16.6802 25.1269 12.4861C26.0393 10.4367 26.8283 8.6599 26.8802 8.53773L26.9747 8.31553H28.8281C30.5758 8.31553 30.6762 8.3223 30.5877 8.43381ZM1.42425 20.0384C0.963507 20.2388 0.988804 19.7495 1.0087 28.0711L1.02668 35.5918L1.2162 35.7814L1.40565 35.971L3.81424 35.9923C5.95071 36.0112 6.24696 36.0008 6.43689 35.9004C6.72322 35.749 6.80389 35.5447 6.80389 34.9709V34.4901L6.99191 34.5305C7.77447 34.6985 14.6997 35.8877 15.2439 35.9475C16.055 36.0367 17.4593 35.9846 18.305 35.8339C19.5767 35.6074 20.984 35.109 22.0161 34.5197C22.475 34.2577 26.8469 31.6047 31.998 28.4626C32.6749 28.0497 33.6394 27.4627 34.1414 27.1581C35.2856 26.464 35.5311 26.2541 35.7713 25.765C36.0276 25.243 36.0434 24.5104 35.8084 24.0337C35.4511 23.3084 34.7376 22.8581 33.946 22.8581C33.4974 22.8581 33.4039 22.895 28.9148 24.8473L24.3406 26.8365L24.2992 26.3004C24.2184 25.2546 23.6293 24.3907 22.6754 23.9192L22.1601 23.6645L17.6015 23.6303L13.0429 23.5961L12.723 23.2404C12.2788 22.7462 11.6537 22.2883 11.0086 21.9846C10.1072 21.5602 9.73783 21.4893 8.20547 21.4465L6.83808 21.4083L6.80389 20.8885C6.74141 19.9388 6.73778 19.9376 3.88329 19.941C2.12852 19.9431 1.59476 19.9642 1.42425 20.0384ZM5.36814 28.0073V34.5721L3.91529 34.5536L2.46244 34.5352L2.445 27.9888L2.42757 21.4425H3.89785H5.36814V28.0073ZM3.61207 22.2262C3.38426 22.3253 3.18032 22.6333 3.18032 22.8782C3.18032 23.1341 3.38652 23.4326 3.63511 23.5365C4.10159 23.7314 4.61607 23.3893 4.61607 22.8842C4.61607 22.5734 4.46067 22.3451 4.1649 22.2215C3.89054 22.1068 3.8865 22.1069 3.61207 22.2262ZM9.5654 23.013C10.5481 23.2644 11.2857 23.7636 12.0434 24.69L12.3229 25.0318L17.067 25.066C22.3698 25.1042 22.0982 25.0779 22.5243 25.595C23.0913 26.2827 22.9045 27.3289 22.1339 27.7819L21.811 27.9717L17.8014 28.0059C14.0067 28.0383 13.7842 28.0469 13.6505 28.168C13.419 28.3777 13.3433 28.7048 13.4612 28.9869C13.6562 29.4538 13.5396 29.4417 17.8461 29.4417C20.5386 29.4417 21.8138 29.4177 22.0371 29.3628C22.3892 29.2763 22.7902 29.1048 30.949 25.5536C32.5153 24.8718 33.8867 24.314 33.9965 24.314C34.2114 24.314 34.4465 24.5184 34.5234 24.772C34.6373 25.1481 34.636 25.149 27.7814 29.3182C24.1593 31.5213 21.0603 33.3917 20.8949 33.4746C19.3065 34.2708 17.2496 34.6639 15.5259 34.5005C15.0719 34.4575 12.9315 34.1085 10.7693 33.7249L6.83808 33.0275L6.82058 27.9529L6.80301 22.8782H7.92064C8.8091 22.8782 9.1463 22.9058 9.5654 23.013Z" fill="#FF8655"/>
<path fill-rule="evenodd" clip-rule="evenodd" d="M13.7188 1.15383C13.5288 1.28941 8.68617 6.78056 8.41393 7.16918C8.21593 7.45188 8.2778 7.78901 8.59859 8.17537C8.75844 8.3679 11.4274 11.3833 14.5296 14.8763C18.0782 18.8719 20.2537 21.2689 20.3955 21.3396C20.6302 21.4565 20.9032 21.4354 21.0964 21.2854C21.1953 21.2086 32.4593 8.54908 32.8697 8.05347C33.086 7.79223 33.1214 7.41134 32.9518 7.16918C32.6796 6.78056 27.837 1.28941 27.6469 1.15383L27.4312 1H20.6829H13.9345L13.7188 1.15383ZM17.1277 2.49011C17.1277 2.51999 16.5326 3.49685 15.8052 4.66084L14.4828 6.77721L12.5918 6.7954C11.5519 6.80538 10.701 6.7969 10.701 6.7766C10.701 6.75629 11.5494 5.7713 12.5864 4.58768L14.4717 2.43576H15.7997C16.5301 2.43576 17.1277 2.46023 17.1277 2.49011ZM23.8194 4.62358L25.1882 6.8114H20.6829H16.1775L17.5464 4.62358L18.9152 2.43576H20.6829H22.4506L23.8194 4.62358ZM28.7794 4.58768C29.8163 5.7713 30.6648 6.75629 30.6648 6.7766C30.6648 6.7969 29.8139 6.80538 28.7739 6.7954L26.883 6.77721L25.5606 4.66084C24.8332 3.49685 24.2381 2.51999 24.2381 2.49011C24.2381 2.46023 24.8356 2.43576 25.566 2.43576H26.894L28.7794 4.58768ZM16.2082 12.4166C17.2028 14.6534 18.0165 16.5086 18.0165 16.5393C18.0165 16.5846 11.1032 8.843 10.7771 8.43257C10.6874 8.31963 10.7811 8.3143 12.5412 8.33152L14.4001 8.34971L16.2082 12.4166ZM23.0514 13.5781C21.7675 16.4726 20.7017 18.8408 20.6829 18.8408C20.6641 18.8408 19.5983 16.4726 18.3144 13.5781L15.9801 8.31553H20.6829H25.3857L23.0514 13.5781ZM30.5877 8.43381C30.5046 8.53855 23.4946 16.4506 23.3327 16.6224C23.2439 16.7166 23.2597 16.6802 25.1269 12.4861C26.0393 10.4367 26.8283 8.6599 26.8802 8.53773L26.9747 8.31553H28.8281C30.5758 8.31553 30.6762 8.3223 30.5877 8.43381ZM1.42425 20.0384C0.963507 20.2388 0.988804 19.7495 1.0087 28.0711L1.02668 35.5918L1.2162 35.7814L1.40565 35.971L3.81424 35.9923C5.95071 36.0112 6.24696 36.0008 6.43689 35.9004C6.72322 35.749 6.80389 35.5447 6.80389 34.9709V34.4901L6.99191 34.5305C7.77447 34.6985 14.6997 35.8877 15.2439 35.9475C16.055 36.0367 17.4593 35.9846 18.305 35.8339C19.5767 35.6074 20.984 35.109 22.0161 34.5197C22.475 34.2577 26.8469 31.6047 31.998 28.4626C32.6749 28.0497 33.6394 27.4627 34.1414 27.1581C35.2856 26.464 35.5311 26.2541 35.7713 25.765C36.0276 25.243 36.0434 24.5104 35.8084 24.0337C35.4511 23.3084 34.7376 22.8581 33.946 22.8581C33.4974 22.8581 33.4039 22.895 28.9148 24.8473L24.3406 26.8365L24.2992 26.3004C24.2184 25.2546 23.6293 24.3907 22.6754 23.9192L22.1601 23.6645L17.6015 23.6303L13.0429 23.5961L12.723 23.2404C12.2788 22.7462 11.6537 22.2883 11.0086 21.9846C10.1072 21.5602 9.73783 21.4893 8.20547 21.4465L6.83808 21.4083L6.80389 20.8885C6.74141 19.9388 6.73778 19.9376 3.88329 19.941C2.12852 19.9431 1.59476 19.9642 1.42425 20.0384ZM5.36814 28.0073V34.5721L3.91529 34.5536L2.46244 34.5352L2.445 27.9888L2.42757 21.4425H3.89785H5.36814V28.0073ZM3.61207 22.2262C3.38426 22.3253 3.18032 22.6333 3.18032 22.8782C3.18032 23.1341 3.38652 23.4326 3.63511 23.5365C4.10159 23.7314 4.61607 23.3893 4.61607 22.8842C4.61607 22.5734 4.46067 22.3451 4.1649 22.2215C3.89054 22.1068 3.8865 22.1069 3.61207 22.2262ZM9.5654 23.013C10.5481 23.2644 11.2857 23.7636 12.0434 24.69L12.3229 25.0318L17.067 25.066C22.3698 25.1042 22.0982 25.0779 22.5243 25.595C23.0913 26.2827 22.9045 27.3289 22.1339 27.7819L21.811 27.9717L17.8014 28.0059C14.0067 28.0383 13.7842 28.0469 13.6505 28.168C13.419 28.3777 13.3433 28.7048 13.4612 28.9869C13.6562 29.4538 13.5396 29.4417 17.8461 29.4417C20.5386 29.4417 21.8138 29.4177 22.0371 29.3628C22.3892 29.2763 22.7902 29.1048 30.949 25.5536C32.5153 24.8718 33.8867 24.314 33.9965 24.314C34.2114 24.314 34.4465 24.5184 34.5234 24.772C34.6373 25.1481 34.636 25.149 27.7814 29.3182C24.1593 31.5213 21.0603 33.3917 20.8949 33.4746C19.3065 34.2708 17.2496 34.6639 15.5259 34.5005C15.0719 34.4575 12.9315 34.1085 10.7693 33.7249L6.83808 33.0275L6.82058 27.9529L6.80301 22.8782H7.92064C8.8091 22.8782 9.1463 22.9058 9.5654 23.013Z" stroke="#FF8655" stroke-width="0.6" mask="url(#path-1-outside-1_1267_10493)"/>
</svg>
