<svg width="37" height="37" viewBox="0 0 37 37" fill="none" xmlns="http://www.w3.org/2000/svg">
<path fill-rule="evenodd" clip-rule="evenodd" d="M4.11158 1.74636C3.4204 2.42996 3.35688 2.51413 3.35688 2.74667C3.35688 2.939 3.40255 3.03985 3.54531 3.16265C3.77724 3.36216 4.01894 3.36893 4.27964 3.1833L4.4782 3.0419L4.47923 5.55927C4.48032 8.27855 4.48777 8.33927 4.8442 8.51013C5.07592 8.62124 5.31584 8.5703 5.50189 8.37058C5.6361 8.22659 5.64055 8.13907 5.64055 5.63647C5.64055 4.21457 5.6588 3.0512 5.68103 3.0512C5.70332 3.0512 5.79979 3.11274 5.89538 3.18795C6.2769 3.48804 6.79592 3.22172 6.80071 2.72335C6.80255 2.53067 6.71134 2.4035 6.17085 1.84468C5.52411 1.1762 5.2835 1 5.01753 1C4.91675 1 4.61426 1.24922 4.11158 1.74636ZM10.3163 1.11015C9.90595 1.25626 9.5126 1.62521 9.32533 2.03969L9.16178 2.40165V6.26475C9.16178 10.0381 9.16506 10.135 9.30454 10.4363C9.48641 10.8292 9.82787 11.1707 10.2208 11.3525L10.5292 11.4953L22.2895 11.515C30.502 11.5287 34.1805 11.5123 34.4832 11.4606C35.212 11.3361 35.7396 10.8804 35.9233 10.2166C35.9828 10.0014 35.9991 8.89726 35.9844 6.09382C35.9654 2.51317 35.9559 2.24939 35.8368 2.0256C35.6591 1.69153 35.3293 1.35629 35.0069 1.18201L34.7334 1.03419L22.6655 1.02208C12.2189 1.01162 10.5598 1.02345 10.3163 1.11015ZM34.6361 2.3622L34.836 2.56206V6.19453C34.836 10.2781 34.8488 10.1664 34.3638 10.2971C34.1819 10.346 30.397 10.363 22.4045 10.3508L10.7112 10.333L10.5347 10.1672L10.3583 10.0014V6.26591C10.3583 2.33308 10.3522 2.41294 10.666 2.24132C10.7634 2.18799 14.1979 2.1659 22.6195 2.1644L34.4363 2.16235L34.6361 2.3622ZM11.8283 3.40729C11.4777 3.60831 11.4113 4.042 11.6885 4.31919L11.8563 4.48704H15.2689C18.6177 4.48704 18.6848 4.48438 18.8616 4.3453C19.0423 4.20316 19.101 3.90053 18.9993 3.63545C18.8843 3.33584 18.7486 3.32456 15.2675 3.32675C12.9123 3.32825 11.9258 3.35136 11.8283 3.40729ZM22.3576 3.42014C22.235 3.4732 21.962 3.76016 21.6807 4.1315L21.2092 4.75397L20.5528 4.89981C19.2064 5.19888 19.1078 5.25371 19.1132 5.70067C19.1161 5.92671 19.1852 6.02995 19.6965 6.57243L20.2766 7.18779L20.2318 7.98584C20.1874 8.77904 20.1882 8.78492 20.3635 8.96016C20.6057 9.20241 20.8432 9.18792 21.7799 8.87395L22.563 8.61139L23.3834 8.87244C24.2887 9.16043 24.5822 9.19284 24.7517 9.02327C24.9478 8.82718 24.9761 8.6412 24.9218 7.90462L24.8689 7.18779L25.4006 6.6408C26.1329 5.88747 26.2141 5.69622 25.9464 5.35593C25.833 5.21173 25.6667 5.1489 25.0063 5.00059C24.565 4.90152 24.1376 4.79363 24.0565 4.76074C23.9754 4.72785 23.7255 4.46051 23.5012 4.16664C22.8891 3.36483 22.728 3.25967 22.3576 3.42014ZM26.4505 3.3915C26.0723 3.54663 25.9764 4.01868 26.2644 4.30681L26.4447 4.48704H29.8763H33.3079L33.4703 4.31426C33.684 4.08665 33.6887 3.71955 33.4803 3.51122L33.3281 3.35888L29.9625 3.34514C28.1115 3.33762 26.5311 3.35847 26.4505 3.3915ZM23.1806 5.62348C23.3344 5.78299 23.4937 5.86039 23.796 5.92254C24.0203 5.96869 24.2284 6.02113 24.2583 6.03905C24.2884 6.05696 24.1894 6.20554 24.0385 6.36929C23.7151 6.72005 23.6586 6.90035 23.7168 7.39517L23.7599 7.76254L23.4349 7.66155C22.5381 7.38272 22.57 7.38457 21.9812 7.57759L21.4348 7.75672V7.25418C21.4348 6.7662 21.4269 6.74254 21.1613 6.43568C21.0109 6.26188 20.8878 6.09477 20.8878 6.06435C20.8878 6.03392 21.0733 5.97252 21.3 5.92794C21.7563 5.83817 22.0334 5.63893 22.3624 5.16414L22.5604 4.87855L22.7668 5.14336C22.8803 5.28906 23.0665 5.50505 23.1806 5.62348ZM11.8687 5.72392C11.4911 5.87495 11.3974 6.35281 11.6885 6.64388L11.8563 6.81174H14.4105C16.8819 6.81174 16.9696 6.80722 17.1135 6.67308C17.4142 6.39302 17.3521 5.92076 16.9905 5.73786C16.7806 5.63168 12.1312 5.61903 11.8687 5.72392ZM28.21 5.72392C27.9733 5.81854 27.8665 5.9892 27.8641 6.27685C27.8624 6.46857 27.9047 6.56197 28.0421 6.67C28.2171 6.8077 28.2944 6.81167 30.7599 6.80955C32.6469 6.80798 33.3254 6.78603 33.4061 6.72408C33.7432 6.46529 33.7285 5.99604 33.3765 5.78142C33.1742 5.658 33.0129 5.65014 30.7678 5.65397C29.4034 5.65629 28.3039 5.68638 28.21 5.72392ZM11.9651 8.02181C11.5336 8.13011 11.3664 8.69419 11.6789 8.98779C11.8371 9.13636 11.8389 9.13643 15.2908 9.13643H18.7444L18.8931 8.97821C19.1049 8.75265 19.0923 8.38733 18.8653 8.17401L18.689 8.00827L15.3954 7.99788C13.584 7.99213 12.0403 8.00287 11.9651 8.02181ZM26.4485 8.07377C26.0579 8.24368 25.9623 8.67888 26.252 8.96857L26.4198 9.13643H29.8461C31.9088 9.13643 33.3213 9.11024 33.3953 9.07066C33.6058 8.95798 33.7049 8.62479 33.6018 8.37591C33.4373 7.9788 33.3905 7.97381 29.864 7.97675C27.2999 7.97894 26.6224 7.99815 26.4485 8.07377ZM2.46119 13.2849C1.86306 13.4213 1.43866 13.7315 1.17426 14.2256C1.02617 14.5022 1.02535 14.5258 1.02535 18.5036C1.02535 22.4814 1.02617 22.5049 1.17426 22.7816C1.36564 23.1391 1.78955 23.5211 2.12746 23.6404C2.34837 23.7184 4.41434 23.7341 14.4607 23.7341H26.5286L26.8994 23.529C27.2929 23.3113 27.5926 22.9615 27.7388 22.5493C27.8077 22.3547 27.8277 21.4453 27.8277 18.5036C27.8277 15.5619 27.8077 14.6525 27.7388 14.4579C27.5926 14.0456 27.2929 13.6958 26.8994 13.4781L26.5286 13.273L14.5633 13.2634C7.98234 13.2581 2.5364 13.2678 2.46119 13.2849ZM31.6429 13.3482C31.5225 13.4085 31.1456 13.7455 30.8053 14.0973C30.2595 14.6615 30.1866 14.7659 30.1866 14.9824C30.1866 15.4853 30.7199 15.7286 31.1504 15.4221L31.3489 15.2807V17.8869V20.4929L31.5299 20.6606C31.7601 20.874 32.039 20.875 32.2852 20.6633L32.4771 20.4984L32.4966 17.8911L32.516 15.2838L32.6938 15.4237C33.1751 15.8022 33.8591 15.2924 33.5795 14.7636C33.4256 14.4726 32.2269 13.3206 32.0327 13.2771C31.9372 13.2557 31.7651 13.287 31.6429 13.3482ZM26.2622 14.4722C26.6384 14.6153 26.6267 14.486 26.629 18.5078C26.6311 22.143 26.6277 22.2421 26.4947 22.3848C26.4196 22.4654 26.2581 22.5492 26.1357 22.5711C26.0134 22.593 20.6451 22.6021 14.2062 22.5914L2.49913 22.5718L2.34345 22.4161L2.18769 22.2604L2.17067 18.5872C2.15241 14.6499 2.15132 14.6638 2.49674 14.489C2.71936 14.3764 25.9669 14.36 26.2622 14.4722ZM4.21312 15.632C3.87966 15.7108 3.64514 15.9053 3.46969 16.2486C3.32078 16.5401 3.31585 16.6122 3.31585 18.5036C3.31585 20.395 3.32078 20.4671 3.46969 20.7585C3.65088 21.1131 3.87522 21.2926 4.24416 21.3782C4.6239 21.4663 7.90877 21.46 8.25973 21.3705C8.59947 21.284 8.79229 21.1381 8.98524 20.8216C9.12062 20.5996 9.12711 20.4937 9.12711 18.5036C9.12711 16.5135 9.12062 16.4075 8.98524 16.1855C8.79229 15.8691 8.59947 15.7232 8.25973 15.6366C7.92784 15.552 4.56804 15.5482 4.21312 15.632ZM10.7686 15.6113C10.3554 15.7643 10.2168 16.2956 10.5165 16.5772L10.6748 16.7259H17.9231H25.1715L25.3202 16.5677C25.5321 16.3421 25.5194 15.9768 25.2924 15.7635L25.116 15.5977L17.9936 15.5855C14.0762 15.5788 10.825 15.5905 10.7686 15.6113ZM7.96524 18.5047V20.2836L6.23882 20.2654L4.51239 20.2471L4.49406 18.5733C4.48394 17.6526 4.49071 16.8604 4.50897 16.8126C4.53468 16.7457 4.93405 16.7259 6.25379 16.7259H7.96524V18.5047ZM10.8027 17.9366C10.3578 18.0462 10.2044 18.6087 10.5348 18.919L10.7112 19.0848H17.9136H25.116L25.2924 18.919C25.5355 18.6906 25.5355 18.3166 25.2924 18.0881L25.116 17.9224L18.0278 17.9126C14.1292 17.9072 10.8779 17.918 10.8027 17.9366ZM10.507 20.4395C10.2951 20.6651 10.3077 21.0304 10.5348 21.2437L10.7112 21.4095H17.9136H25.116L25.2924 21.2437C25.5267 21.0235 25.5353 20.6411 25.3106 20.4299L25.1523 20.2813H17.904H10.6557L10.507 20.4395ZM2.40464 25.5556C1.7702 25.6781 1.23812 26.1691 1.06623 26.7906C1.00668 27.0057 0.990338 28.1099 1.00511 30.9133C1.02507 34.689 1.0274 34.7461 1.17317 35.0158C1.34745 35.3381 1.68269 35.668 2.01676 35.8457C2.24718 35.9683 2.7035 35.9737 14.287 35.9908C27.6183 36.0106 26.6681 36.042 27.2272 35.5634C27.3797 35.433 27.573 35.1692 27.6642 34.9675L27.8277 34.6055V30.7424C27.8277 26.969 27.8244 26.8721 27.6849 26.5709C27.5031 26.1779 27.1616 25.8365 26.7687 25.6546L26.4602 25.5119L14.5975 25.5019C7.49702 25.4959 2.60217 25.5174 2.40464 25.5556ZM26.4548 26.8399L26.6312 27.0057V30.7146C26.6312 32.7544 26.612 34.4732 26.5887 34.5341C26.4648 34.8571 26.9503 34.8448 14.3563 34.8448H2.55322L2.35336 34.645L2.15351 34.4451V30.8126C2.15351 26.7879 2.14783 26.842 2.58173 26.7159C2.71683 26.6766 7.37327 26.6559 14.5407 26.6629L26.2783 26.6742L26.4548 26.8399ZM3.9414 27.9867C3.81539 28.0488 3.63078 28.2227 3.53116 28.373C3.36508 28.6237 3.34813 28.7143 3.327 29.4639C3.29391 30.6405 3.51031 31.0977 4.18973 31.2864C4.53892 31.3833 14.947 31.3833 15.2962 31.2864C15.9756 31.0977 16.192 30.6405 16.1589 29.4639C16.1378 28.7133 16.121 28.6239 15.9539 28.3718C15.6023 27.8411 15.9691 27.8705 9.73263 27.8723C4.7026 27.8737 4.14857 27.8846 3.9414 27.9867ZM18.0176 27.947C17.7768 28.0431 17.611 28.2082 17.4619 28.5005C17.356 28.7079 17.3324 28.9045 17.3324 29.5795C17.3324 30.122 17.3644 30.4814 17.4257 30.6282C17.5471 30.9187 17.885 31.1989 18.2243 31.2902C18.4022 31.3382 19.555 31.3563 21.5938 31.3433L24.6927 31.3236L24.9404 31.1538C25.3913 30.8448 25.4688 30.6115 25.4688 29.5638C25.4688 28.7193 25.456 28.6239 25.3133 28.4124C25.2279 28.2855 25.0541 28.1117 24.9272 28.0262L24.6965 27.8707L21.4418 27.875C19.4661 27.8777 18.1205 27.906 18.0176 27.947ZM15.0077 29.6143V30.1954H9.74295H4.4782V29.6143V29.0331H9.74295H15.0077V29.6143ZM24.3065 29.6143V30.1954H21.4006H18.4947V29.6143V29.0331H21.4006H24.3065V29.6143ZM3.5192 32.6929C3.30539 32.9205 3.30081 33.2876 3.50921 33.4959L3.66155 33.6483H9.74295H15.8244L15.9767 33.4959C16.1851 33.2876 16.1805 32.9205 15.9667 32.6929L15.8043 32.5201H9.74295H3.68158L3.5192 32.6929ZM17.5126 32.7004C17.2854 32.9277 17.2797 33.2034 17.4974 33.4564L17.6624 33.6483L21.275 33.6678C23.2619 33.6786 24.956 33.6705 25.0396 33.6499C25.4599 33.5463 25.6094 32.9963 25.301 32.688L25.1332 32.5201H21.4131H17.6929L17.5126 32.7004Z" fill="#FF8655" stroke="#FF8655" stroke-width="0.2"/>
</svg>
